G04*
G04 #@! TF.GenerationSoftware,Altium Limited,Altium Designer,19.0.13 (425)*
G04*
G04 Layer_Color=16711935*
%FSTAX24Y24*%
%MOIN*%
G70*
G01*
G75*
%ADD15C,0.1655*%
%ADD16C,0.1458*%
%ADD17C,0.1339*%
%ADD18C,0.0080*%
%ADD19R,0.2252X0.2724*%
%ADD20O,0.2252X0.2724*%
D15*
X029734Y03952D02*
D03*
X05058Y039443D02*
D03*
Y028616D02*
D03*
D16*
X030226Y030583D02*
D03*
D17*
X022524Y005217D02*
D03*
X057957D02*
D03*
Y04065D02*
D03*
X022524D02*
D03*
D18*
X055154Y026005D02*
D03*
Y024005D02*
D03*
Y022005D02*
D03*
Y020005D02*
D03*
Y016856D02*
D03*
Y014856D02*
D03*
Y012856D02*
D03*
Y010856D02*
D03*
X053496Y007972D02*
D03*
X051496D02*
D03*
X049496D02*
D03*
X046346D02*
D03*
X044346D02*
D03*
X042346D02*
D03*
X039197D02*
D03*
X037197D02*
D03*
X035197D02*
D03*
X032047D02*
D03*
X028047D02*
D03*
X030047D02*
D03*
X025233Y009596D02*
D03*
Y011596D02*
D03*
Y013596D02*
D03*
Y016714D02*
D03*
Y018714D02*
D03*
Y020714D02*
D03*
X038863Y01378D02*
D03*
X032724Y026D02*
D03*
D19*
X026461Y035689D02*
D03*
X05402D02*
D03*
D20*
X026461Y038996D02*
D03*
X05402D02*
D03*
M02*
