G04*
G04 #@! TF.GenerationSoftware,Altium Limited,Altium Designer,19.0.13 (425)*
G04*
G04 Layer_Color=8388736*
%FSTAX24Y24*%
%MOIN*%
G70*
G01*
G75*
%ADD13C,0.0010*%
%ADD14C,0.0138*%
%ADD15C,0.1655*%
%ADD16C,0.1458*%
%ADD17C,0.1339*%
%ADD18C,0.0080*%
%ADD19R,0.2252X0.2724*%
%ADD20O,0.2252X0.2724*%
D13*
X047544Y021725D02*
X048054D01*
X046024D02*
X046534D01*
X046424Y020925D02*
X047654D01*
X046084Y020125D02*
X046674D01*
X047524Y021735D02*
X048044D01*
X047504Y021745D02*
X048044D01*
X047494Y021755D02*
X048034D01*
X047474Y021765D02*
X048024D01*
X047454Y021775D02*
X048014D01*
X047434Y021785D02*
X048004D01*
X047414Y021795D02*
X047994D01*
X047384Y021805D02*
X047994D01*
X047364Y021815D02*
X047984D01*
X047334Y021825D02*
X047974D01*
X047304Y021835D02*
X047964D01*
X046114D02*
X046774D01*
X047274Y021845D02*
X047954D01*
X046124D02*
X046804D01*
X047234Y021855D02*
X047944D01*
X046134D02*
X046844D01*
X047174Y021865D02*
X047934D01*
X047064Y021875D02*
X047924D01*
X046154D02*
X047014D01*
X046164Y021885D02*
X047914D01*
X046174Y021895D02*
X047904D01*
X046184Y021905D02*
X047894D01*
X046194Y021915D02*
X047884D01*
X046214Y021925D02*
X047864D01*
X046224Y021935D02*
X047854D01*
X046234Y021945D02*
X047844D01*
X046244Y021955D02*
X047834D01*
X046264Y021965D02*
X047814D01*
X046274Y021975D02*
X047804D01*
X046284Y021985D02*
X047794D01*
X046304Y021995D02*
X047774D01*
X046314Y022005D02*
X047764D01*
X046324Y022015D02*
X047754D01*
X046344Y022025D02*
X047734D01*
X046354Y022035D02*
X047724D01*
X046374Y022045D02*
X047704D01*
X046394Y022055D02*
X047684D01*
X046404Y022065D02*
X047674D01*
X046424Y022075D02*
X047654D01*
X046444Y022085D02*
X047634D01*
X046464Y022095D02*
X047614D01*
X046484Y022105D02*
X047594D01*
X046504Y022115D02*
X047574D01*
X046524Y022125D02*
X047554D01*
X046554Y022135D02*
X047524D01*
X046574Y022145D02*
X047504D01*
X046604Y022155D02*
X047474D01*
X046634Y022165D02*
X047444D01*
X046664Y022175D02*
X047414D01*
X046694Y022185D02*
X047384D01*
X046734Y022195D02*
X047344D01*
X046784Y022205D02*
X047294D01*
X046834Y022215D02*
X047244D01*
X046914Y022225D02*
X047164D01*
X046034Y021735D02*
X046554D01*
X046034Y021745D02*
X046574D01*
X046044Y021755D02*
X046584D01*
X046054Y021765D02*
X046604D01*
X046064Y021775D02*
X046624D01*
X046074Y021785D02*
X046644D01*
X046084Y021795D02*
X046664D01*
X046084Y021805D02*
X046684D01*
X046094Y021815D02*
X046714D01*
X046104Y021825D02*
X046744D01*
X047564Y021705D02*
X048074D01*
X047554Y021715D02*
X048064D01*
X046694Y021475D02*
X047384D01*
X045874D02*
X046284D01*
X046714Y021485D02*
X047364D01*
X045884D02*
X046294D01*
X046724Y021495D02*
X047354D01*
X045884D02*
X046294D01*
X046744Y021505D02*
X047334D01*
X045894D02*
X046304D01*
X046764Y021515D02*
X047314D01*
X045894D02*
X046314D01*
X045904Y021525D02*
X046324D01*
X045904Y021535D02*
X046324D01*
X045914Y021545D02*
X046334D01*
X045914Y021555D02*
X046344D01*
X045924Y021565D02*
X046354D01*
X045924Y021575D02*
X046364D01*
X045934Y021585D02*
X046374D01*
X045934Y021595D02*
X046384D01*
X045944Y021605D02*
X046394D01*
X045954Y021615D02*
X046404D01*
X045954Y021625D02*
X046414D01*
X045964Y021635D02*
X046424D01*
X045964Y021645D02*
X046434D01*
X046424Y020935D02*
X047654D01*
X046424Y020945D02*
X047654D01*
X046424Y020955D02*
X047654D01*
X046424Y020965D02*
X047654D01*
X046424Y020975D02*
X047654D01*
X046424Y020985D02*
X047654D01*
X046424Y020995D02*
X047654D01*
X046424Y021005D02*
X047654D01*
X046424Y021015D02*
X047654D01*
X046424Y021025D02*
X047654D01*
X046424Y021035D02*
X047654D01*
X046424Y021045D02*
X047654D01*
X046434Y021055D02*
X047644D01*
X046434Y021065D02*
X047644D01*
X046434Y021075D02*
X047644D01*
X045774D02*
X046134D01*
X046434Y021085D02*
X047644D01*
X045774D02*
X046134D01*
X046434Y021095D02*
X047644D01*
X045774D02*
X046134D01*
X046434Y021105D02*
X047644D01*
X045774D02*
X046134D01*
X046444Y021115D02*
X047634D01*
X045784D02*
X046134D01*
X046444Y021125D02*
X047634D01*
X045784D02*
X046134D01*
X046444Y021135D02*
X047634D01*
X045784D02*
X046144D01*
X046454Y021145D02*
X047624D01*
X045784D02*
X046144D01*
X046454Y021155D02*
X047624D01*
X045784D02*
X046144D01*
X046454Y021165D02*
X047624D01*
X045784D02*
X046144D01*
X046464Y021175D02*
X047614D01*
X045784D02*
X046144D01*
X046464Y021185D02*
X047614D01*
X045794D02*
X046154D01*
X046464Y021195D02*
X047614D01*
X045794D02*
X046154D01*
X046474Y021205D02*
X047604D01*
X045794D02*
X046154D01*
X046474Y021215D02*
X047604D01*
X045794D02*
X046164D01*
X046484Y021225D02*
X047594D01*
X045794D02*
X046164D01*
X046484Y021235D02*
X047594D01*
X045804D02*
X046164D01*
X046494Y021245D02*
X047584D01*
X045804D02*
X046164D01*
X046494Y021255D02*
X047584D01*
X045804D02*
X046174D01*
X046504Y021265D02*
X047574D01*
X045804D02*
X046174D01*
X046504Y021275D02*
X047574D01*
X045804D02*
X046184D01*
X046514Y021285D02*
X047564D01*
X045814D02*
X046184D01*
X046514Y021295D02*
X047564D01*
X045814D02*
X046184D01*
X046524Y021305D02*
X047554D01*
X045814D02*
X046194D01*
X046534Y021315D02*
X047544D01*
X045824D02*
X046194D01*
X046534Y021325D02*
X047544D01*
X045824D02*
X046204D01*
X046544Y021335D02*
X047534D01*
X045824D02*
X046204D01*
X046554Y021345D02*
X047524D01*
X045824D02*
X046214D01*
X046564Y021355D02*
X047514D01*
X045834D02*
X046214D01*
X046574Y021365D02*
X047504D01*
X045834D02*
X046214D01*
X046584Y021375D02*
X047494D01*
X045834D02*
X046224D01*
X046584Y021385D02*
X047494D01*
X045844D02*
X046234D01*
X046594Y021395D02*
X047484D01*
X045844D02*
X046234D01*
X046604Y021405D02*
X047474D01*
X045844D02*
X046244D01*
X046614Y021415D02*
X047464D01*
X045854D02*
X046244D01*
X046634Y021425D02*
X047444D01*
X045854D02*
X046254D01*
X046644Y021435D02*
X047434D01*
X045864D02*
X046254D01*
X046654Y021445D02*
X047424D01*
X045864D02*
X046264D01*
X046664Y021455D02*
X047414D01*
X045864D02*
X046274D01*
X046684Y021465D02*
X047394D01*
X045874D02*
X046274D01*
X047734Y021555D02*
X048164D01*
X047724Y021565D02*
X048154D01*
X047714Y021575D02*
X048154D01*
X047704Y021585D02*
X048144D01*
X047694Y021595D02*
X048144D01*
X047684Y021605D02*
X048134D01*
X047674Y021615D02*
X048124D01*
X047664Y021625D02*
X048124D01*
X047654Y021635D02*
X048114D01*
X047644Y021645D02*
X048114D01*
X047634Y021655D02*
X048104D01*
X047624Y021665D02*
X048094D01*
X047614Y021675D02*
X048094D01*
X047594Y021685D02*
X048084D01*
X047584Y021695D02*
X048074D01*
X046784Y021525D02*
X047294D01*
X046804Y021535D02*
X047274D01*
X046834Y021545D02*
X047244D01*
X046864Y021555D02*
X047214D01*
X046904Y021565D02*
X047174D01*
X045974Y021655D02*
X046444D01*
X045984Y021665D02*
X046454D01*
X045984Y021675D02*
X046464D01*
X045994Y021685D02*
X046484D01*
X046004Y021695D02*
X046494D01*
X046004Y021705D02*
X046504D01*
X046014Y021715D02*
X046524D01*
X046494Y020675D02*
X047584D01*
X045804D02*
X046164D01*
X046484Y020685D02*
X047594D01*
X045804D02*
X046164D01*
X046484Y020695D02*
X047594D01*
X045794D02*
X046164D01*
X046474Y020705D02*
X047604D01*
X045794D02*
X046164D01*
X046474Y020715D02*
X047604D01*
X045794D02*
X046154D01*
X046474Y020725D02*
X047604D01*
X045794D02*
X046154D01*
X046464Y020735D02*
X047614D01*
X045794D02*
X046154D01*
X046464Y020745D02*
X047614D01*
X045784D02*
X046144D01*
X046454Y020755D02*
X047624D01*
X045784D02*
X046144D01*
X046454Y020765D02*
X047624D01*
X045784D02*
X046144D01*
X046454Y020775D02*
X047624D01*
X045784D02*
X046144D01*
X046444Y020785D02*
X047634D01*
X045784D02*
X046144D01*
X046444Y020795D02*
X047634D01*
X045784D02*
X046134D01*
X046444Y020805D02*
X047634D01*
X045784D02*
X046134D01*
X046444Y020815D02*
X047634D01*
X045774D02*
X046134D01*
X046434Y020825D02*
X047644D01*
X045774D02*
X046134D01*
X046434Y020835D02*
X047644D01*
X045774D02*
X046134D01*
X046434Y020845D02*
X047644D01*
X045774D02*
X046134D01*
X046434Y020855D02*
X047644D01*
X046434Y020865D02*
X047644D01*
X046424Y020875D02*
X047654D01*
X046424Y020885D02*
X047654D01*
X046424Y020895D02*
X047654D01*
X046424Y020905D02*
X047654D01*
X046424Y020915D02*
X047654D01*
X045964Y020285D02*
X046424D01*
X045954Y020295D02*
X046414D01*
X045954Y020305D02*
X046404D01*
X045944Y020315D02*
X046394D01*
X045944Y020325D02*
X046384D01*
X045934Y020335D02*
X046374D01*
X045934Y020345D02*
X046364D01*
X045924Y020355D02*
X046354D01*
X045914Y020365D02*
X046344D01*
X045914Y020375D02*
X046334D01*
X045904Y020385D02*
X046334D01*
X045904Y020395D02*
X046324D01*
X045894Y020405D02*
X046314D01*
X046754Y020415D02*
X047324D01*
X045894D02*
X046304D01*
X046734Y020425D02*
X047344D01*
X045884D02*
X046304D01*
X046714Y020435D02*
X047364D01*
X045884D02*
X046294D01*
X046704Y020445D02*
X047374D01*
X045884D02*
X046284D01*
X046684Y020455D02*
X047394D01*
X045874D02*
X046274D01*
X046674Y020465D02*
X047404D01*
X045874D02*
X046274D01*
X046664Y020475D02*
X047414D01*
X045864D02*
X046264D01*
X046644Y020485D02*
X047434D01*
X045864D02*
X046254D01*
X046634Y020495D02*
X047444D01*
X045854D02*
X046254D01*
X046624Y020505D02*
X047454D01*
X045854D02*
X046244D01*
X046614Y020515D02*
X047464D01*
X045854D02*
X046244D01*
X046604Y020525D02*
X047474D01*
X045844D02*
X046234D01*
X046594Y020535D02*
X047484D01*
X045844D02*
X046234D01*
X046584Y020545D02*
X047494D01*
X045844D02*
X046224D01*
X046574Y020555D02*
X047504D01*
X045834D02*
X046224D01*
X046564Y020565D02*
X047514D01*
X045834D02*
X046214D01*
X046554Y020575D02*
X047524D01*
X045834D02*
X046214D01*
X046554Y020585D02*
X047524D01*
X045824D02*
X046204D01*
X046544Y020595D02*
X047534D01*
X045824D02*
X046204D01*
X046534Y020605D02*
X047544D01*
X045824D02*
X046194D01*
X046524Y020615D02*
X047554D01*
X045814D02*
X046194D01*
X046524Y020625D02*
X047554D01*
X045814D02*
X046184D01*
X046514Y020635D02*
X047564D01*
X045814D02*
X046184D01*
X046514Y020645D02*
X047564D01*
X045814D02*
X046184D01*
X046504Y020655D02*
X047574D01*
X045804D02*
X046174D01*
X046494Y020665D02*
X047584D01*
X045804D02*
X046174D01*
X047734Y020325D02*
X048134D01*
X047724Y020335D02*
X048144D01*
X047724Y020345D02*
X048144D01*
X047724Y020355D02*
X048154D01*
X047734Y020365D02*
X048164D01*
X046924Y020355D02*
X047354D01*
X046884Y020365D02*
X047354D01*
X046854Y020375D02*
X047344D01*
X046824Y020385D02*
X047334D01*
X046794Y020395D02*
X047334D01*
X046774Y020405D02*
X047324D01*
X046074Y020135D02*
X046654D01*
X046064Y020145D02*
X046634D01*
X046054Y020155D02*
X046614D01*
X046054Y020165D02*
X046594D01*
X046044Y020175D02*
X046574D01*
X046034Y020185D02*
X046564D01*
X046024Y020195D02*
X046544D01*
X046024Y020205D02*
X046534D01*
X046014Y020215D02*
X046514D01*
X046004Y020225D02*
X046504D01*
X045994Y020235D02*
X046484D01*
X045994Y020245D02*
X046474D01*
X045984Y020255D02*
X046464D01*
X045974Y020265D02*
X046454D01*
X045974Y020275D02*
X046434D01*
X046384Y019875D02*
X047674D01*
X046364Y019885D02*
X047674D01*
X046354Y019895D02*
X047664D01*
X046334Y019905D02*
X047664D01*
X046324Y019915D02*
X047654D01*
X046304Y019925D02*
X047644D01*
X046294Y019935D02*
X047644D01*
X046274Y019945D02*
X047634D01*
X046264Y019955D02*
X047624D01*
X046254Y019965D02*
X047624D01*
X046244Y019975D02*
X047614D01*
X046224Y019985D02*
X047604D01*
X046214Y019995D02*
X047604D01*
X046204Y020005D02*
X047594D01*
X046194Y020015D02*
X047584D01*
X046184Y020025D02*
X047584D01*
X046174Y020035D02*
X047574D01*
X046164Y020045D02*
X047564D01*
X046154Y020055D02*
X046944D01*
X046134Y020075D02*
X046824D01*
X046124Y020085D02*
X046784D01*
X046754Y019725D02*
X047324D01*
X046714Y019735D02*
X047364D01*
X046684Y019745D02*
X047394D01*
X046644Y019755D02*
X047434D01*
X046614Y019765D02*
X047464D01*
X046594Y019775D02*
X047484D01*
X046564Y019785D02*
X047514D01*
X046544Y019795D02*
X047534D01*
X046514Y019805D02*
X047564D01*
X046494Y019815D02*
X047584D01*
X046474Y019825D02*
X047604D01*
X046454Y019835D02*
X047624D01*
X046434Y019845D02*
X047644D01*
X046414Y019855D02*
X047664D01*
X046404Y019865D02*
X047674D01*
X046874Y019705D02*
X047204D01*
X046804Y019715D02*
X047274D01*
X046114Y020095D02*
X046754D01*
X046104Y020105D02*
X046724D01*
X046094Y020115D02*
X046704D01*
X047954Y020925D02*
X048304D01*
X047874Y020125D02*
X047994D01*
X048224Y019325D02*
X048304D01*
X047914D02*
X048004D01*
X047164Y020125D02*
X047514D01*
X047474Y019325D02*
X047514D01*
X047214D02*
X047314D01*
X046494D02*
X046574D01*
X045774Y020925D02*
X046124D01*
X045904Y019325D02*
X045994D01*
X047794Y021475D02*
X048204D01*
X047784Y021485D02*
X048194D01*
X047784Y021495D02*
X048194D01*
X047774Y021505D02*
X048184D01*
X047764Y021515D02*
X048184D01*
X047754Y021525D02*
X048174D01*
X047754Y021535D02*
X048174D01*
X047744Y021545D02*
X048164D01*
X047954Y020935D02*
X048304D01*
X047954Y020945D02*
X048304D01*
X047954Y020955D02*
X048304D01*
X047954Y020965D02*
X048304D01*
X047954Y020975D02*
X048304D01*
X047954Y020985D02*
X048304D01*
X047954Y020995D02*
X048304D01*
X047954Y021005D02*
X048304D01*
X047954Y021015D02*
X048304D01*
X047954Y021025D02*
X048304D01*
X047954Y021035D02*
X048304D01*
X047954Y021045D02*
X048304D01*
X047954Y021055D02*
X048304D01*
X047944Y021065D02*
X048304D01*
X047944Y021075D02*
X048304D01*
X047944Y021085D02*
X048304D01*
X047944Y021095D02*
X048304D01*
X047944Y021105D02*
X048304D01*
X047944Y021115D02*
X048294D01*
X047944Y021125D02*
X048294D01*
X047934Y021135D02*
X048294D01*
X047934Y021145D02*
X048294D01*
X047934Y021155D02*
X048294D01*
X047934Y021165D02*
X048294D01*
X047934Y021175D02*
X048294D01*
X047924Y021185D02*
X048284D01*
X047924Y021195D02*
X048284D01*
X047924Y021205D02*
X048284D01*
X047914Y021215D02*
X048284D01*
X047914Y021225D02*
X048284D01*
X047914Y021235D02*
X048274D01*
X047904Y021245D02*
X048274D01*
X047904Y021255D02*
X048274D01*
X047904Y021265D02*
X048274D01*
X047894Y021275D02*
X048274D01*
X047894Y021285D02*
X048264D01*
X047894Y021295D02*
X048264D01*
X047884Y021305D02*
X048264D01*
X047884Y021315D02*
X048254D01*
X047874Y021325D02*
X048254D01*
X047874Y021335D02*
X048254D01*
X047864Y021345D02*
X048254D01*
X047864Y021355D02*
X048244D01*
X047854Y021365D02*
X048244D01*
X047854Y021375D02*
X048244D01*
X047844Y021385D02*
X048234D01*
X047844Y021395D02*
X048234D01*
X047834Y021405D02*
X048234D01*
X047834Y021415D02*
X048224D01*
X047824Y021425D02*
X048224D01*
X047824Y021435D02*
X048214D01*
X047814Y021445D02*
X048214D01*
X047804Y021455D02*
X048214D01*
X047804Y021465D02*
X048204D01*
X047914Y020675D02*
X048274D01*
X047914Y020685D02*
X048274D01*
X047914Y020695D02*
X048284D01*
X047914Y020705D02*
X048284D01*
X047924Y020715D02*
X048284D01*
X047924Y020725D02*
X048284D01*
X047924Y020735D02*
X048284D01*
X047934Y020745D02*
X048294D01*
X047934Y020755D02*
X048294D01*
X047934Y020765D02*
X048294D01*
X047934Y020775D02*
X048294D01*
X047934Y020785D02*
X048294D01*
X047944Y020795D02*
X048294D01*
X047944Y020805D02*
X048294D01*
X047944Y020815D02*
X048294D01*
X047944Y020825D02*
X048304D01*
X047944Y020835D02*
X048304D01*
X047944Y020845D02*
X048304D01*
X047954Y020855D02*
X048304D01*
X047954Y020865D02*
X048304D01*
X047954Y020875D02*
X048304D01*
X047954Y020885D02*
X048304D01*
X047954Y020895D02*
X048304D01*
X047954Y020905D02*
X048304D01*
X047954Y020915D02*
X048304D01*
X047864Y020135D02*
X048004D01*
X047854Y020145D02*
X048014D01*
X047854Y020155D02*
X048024D01*
X047844Y020165D02*
X048024D01*
X047834Y020175D02*
X048034D01*
X047824Y020185D02*
X048044D01*
X047824Y020195D02*
X048054D01*
X047814Y020205D02*
X048054D01*
X047804Y020215D02*
X048064D01*
X047804Y020225D02*
X048074D01*
X047794Y020235D02*
X048084D01*
X047784Y020245D02*
X048084D01*
X047784Y020255D02*
X048094D01*
X047774Y020265D02*
X048104D01*
X047764Y020275D02*
X048104D01*
X047764Y020285D02*
X048114D01*
X047754Y020295D02*
X048124D01*
X047744Y020305D02*
X048124D01*
X047744Y020315D02*
X048134D01*
X047744Y020375D02*
X048164D01*
X047744Y020385D02*
X048174D01*
X047754Y020395D02*
X048174D01*
X047764Y020405D02*
X048184D01*
X047774Y020415D02*
X048184D01*
X047784Y020425D02*
X048194D01*
X047784Y020435D02*
X048194D01*
X047794Y020445D02*
X048194D01*
X047804Y020455D02*
X048204D01*
X047804Y020465D02*
X048204D01*
X047814Y020475D02*
X048214D01*
X047824Y020485D02*
X048214D01*
X047824Y020495D02*
X048224D01*
X047834Y020505D02*
X048224D01*
X047834Y020515D02*
X048224D01*
X047844Y020525D02*
X048234D01*
X047844Y020535D02*
X048234D01*
X047854Y020545D02*
X048234D01*
X047854Y020555D02*
X048244D01*
X047864Y020565D02*
X048244D01*
X047864Y020575D02*
X048244D01*
X047874Y020585D02*
X048254D01*
X047874Y020595D02*
X048254D01*
X047884Y020605D02*
X048254D01*
X047884Y020615D02*
X048264D01*
X047894Y020625D02*
X048264D01*
X047894Y020635D02*
X048264D01*
X047894Y020645D02*
X048264D01*
X047904Y020655D02*
X048274D01*
X047904Y020665D02*
X048274D01*
X047914Y020055D02*
X047924D01*
X047914Y020065D02*
X047934D01*
X047904Y020075D02*
X047944D01*
X047894Y020085D02*
X047954D01*
X047894Y020095D02*
X047964D01*
X047884Y020105D02*
X047974D01*
X047874Y020115D02*
X047984D01*
X048224Y019335D02*
X048304D01*
X047914D02*
X048004D01*
X048224Y019345D02*
X048304D01*
X047914D02*
X048004D01*
X048224Y019355D02*
X048304D01*
X047914D02*
X048004D01*
X048224Y019365D02*
X048304D01*
X047914D02*
X048004D01*
X048224Y019375D02*
X048304D01*
X047914D02*
X048004D01*
X048224Y019385D02*
X048304D01*
X047914D02*
X048004D01*
X048224Y019395D02*
X048304D01*
X047914D02*
X048004D01*
X048224Y019405D02*
X048304D01*
X047914D02*
X048004D01*
X048224Y019415D02*
X048304D01*
X047914D02*
X048004D01*
X048224Y019425D02*
X048304D01*
X047914D02*
X048004D01*
X048224Y019435D02*
X048304D01*
X047914D02*
X048004D01*
X047914Y019205D02*
X048304D01*
X047914Y019215D02*
X048304D01*
X047914Y019225D02*
X048304D01*
X047914Y019235D02*
X048304D01*
X047914Y019245D02*
X048304D01*
X047914Y019255D02*
X048304D01*
X047914Y019265D02*
X048304D01*
X048224Y019275D02*
X048304D01*
X047914D02*
X048004D01*
X048224Y019285D02*
X048304D01*
X047914D02*
X048004D01*
X048224Y019295D02*
X048304D01*
X047914D02*
X048004D01*
X048224Y019305D02*
X048304D01*
X047914D02*
X048004D01*
X048224Y019315D02*
X048304D01*
X047914D02*
X048004D01*
X048224Y019025D02*
X048304D01*
X047914D02*
X048004D01*
X048224Y019035D02*
X048304D01*
X047914D02*
X048004D01*
X048224Y019045D02*
X048304D01*
X047914D02*
X048004D01*
X048224Y019055D02*
X048304D01*
X047914D02*
X048004D01*
X048224Y019065D02*
X048304D01*
X047914D02*
X048004D01*
X048224Y019075D02*
X048304D01*
X047914D02*
X048004D01*
X048224Y019085D02*
X048304D01*
X047914D02*
X048004D01*
X048224Y019095D02*
X048304D01*
X047914D02*
X048004D01*
X048224Y019105D02*
X048304D01*
X047914D02*
X048004D01*
X048224Y019115D02*
X048304D01*
X047914D02*
X048004D01*
X048224Y019125D02*
X048304D01*
X047914D02*
X048004D01*
X048224Y019135D02*
X048304D01*
X047914D02*
X048004D01*
X048224Y019145D02*
X048304D01*
X047914D02*
X048004D01*
X048224Y019155D02*
X048304D01*
X047914D02*
X048004D01*
X048224Y019165D02*
X048304D01*
X047914D02*
X048004D01*
X048224Y019175D02*
X048304D01*
X047914D02*
X048004D01*
X048224Y019185D02*
X048304D01*
X047914D02*
X048004D01*
X047914Y019195D02*
X048304D01*
X046954Y021575D02*
X047114D01*
X047154Y020135D02*
X047504D01*
X047154Y020145D02*
X047504D01*
X047144Y020155D02*
X047494D01*
X047134Y020165D02*
X047484D01*
X047134Y020175D02*
X047484D01*
X047124Y020185D02*
X047474D01*
X047114Y020195D02*
X047464D01*
X047114Y020205D02*
X047464D01*
X047104Y020215D02*
X047454D01*
X047094Y020225D02*
X047444D01*
X047094Y020235D02*
X047434D01*
X047084Y020245D02*
X047434D01*
X047074Y020255D02*
X047424D01*
X047074Y020265D02*
X047414D01*
X047064Y020275D02*
X047414D01*
X047054Y020285D02*
X047404D01*
X047054Y020295D02*
X047394D01*
X047044Y020305D02*
X047394D01*
X047034Y020315D02*
X047384D01*
X047034Y020325D02*
X047374D01*
X047024Y020335D02*
X047374D01*
X047014Y020345D02*
X047364D01*
X047134Y020055D02*
X047564D01*
X047204Y020065D02*
X047554D01*
X047194Y020075D02*
X047544D01*
X047194Y020085D02*
X047544D01*
X047184Y020095D02*
X047534D01*
X047174Y020105D02*
X047524D01*
X047174Y020115D02*
X047524D01*
X047464Y019335D02*
X047524D01*
X047214D02*
X047334D01*
X047444Y019345D02*
X047534D01*
X047224D02*
X047354D01*
X047414Y019355D02*
X047534D01*
X047224D02*
X047384D01*
X047234Y019365D02*
X047544D01*
X047244Y019375D02*
X047544D01*
X047254Y019385D02*
X047544D01*
X047264Y019395D02*
X047534D01*
X047274Y019405D02*
X047514D01*
X047294Y019415D02*
X047504D01*
X047314Y019425D02*
X047484D01*
X047344Y019435D02*
X047454D01*
X046994Y019695D02*
X047084D01*
X047194Y019205D02*
X047274D01*
X047184Y019215D02*
X047274D01*
X047184Y019225D02*
X047274D01*
X047184Y019235D02*
X047274D01*
X047184Y019245D02*
X047274D01*
X047194Y019255D02*
X047274D01*
X047194Y019265D02*
X047274D01*
X047194Y019275D02*
X047284D01*
X047194Y019285D02*
X047284D01*
X047194Y019295D02*
X047294D01*
X047204Y019305D02*
X047304D01*
X047484Y019315D02*
X047504D01*
X047204D02*
X047304D01*
X047354Y019025D02*
X047444D01*
X047314Y019035D02*
X047474D01*
X047294Y019045D02*
X047504D01*
X047284Y019055D02*
X047514D01*
X047264Y019065D02*
X047534D01*
X047254Y019075D02*
X047544D01*
X047244Y019085D02*
X047554D01*
X047234Y019095D02*
X047554D01*
X047404Y019105D02*
X047544D01*
X047224D02*
X047394D01*
X047444Y019115D02*
X047534D01*
X047224D02*
X047354D01*
X047464Y019125D02*
X047524D01*
X047214D02*
X047334D01*
X047474Y019135D02*
X047514D01*
X047214D02*
X047324D01*
X047484Y019145D02*
X047504D01*
X047204D02*
X047314D01*
X047204Y019155D02*
X047304D01*
X047194Y019165D02*
X047294D01*
X047194Y019175D02*
X047284D01*
X047194Y019185D02*
X047284D01*
X047194Y019195D02*
X047284D01*
X046144Y021865D02*
X046904D01*
X046144Y020065D02*
X046874D01*
X046494Y019365D02*
X046824D01*
X046494Y019375D02*
X046824D01*
X046494Y019385D02*
X046824D01*
X046494Y019395D02*
X046824D01*
X046494Y019405D02*
X046824D01*
X046494Y019415D02*
X046824D01*
X046494Y019425D02*
X046824D01*
X046494Y019435D02*
X046824D01*
X046494Y019335D02*
X046574D01*
X046494Y019345D02*
X046574D01*
X046494Y019355D02*
X046574D01*
X046494Y019205D02*
X046794D01*
X046494Y019215D02*
X046794D01*
X046494Y019225D02*
X046794D01*
X046494Y019235D02*
X046794D01*
X046494Y019245D02*
X046794D01*
X046494Y019255D02*
X046794D01*
X046494Y019265D02*
X046794D01*
X046494Y019025D02*
X046824D01*
X046494Y019035D02*
X046824D01*
X046494Y019045D02*
X046824D01*
X046494Y019055D02*
X046824D01*
X046494Y019065D02*
X046824D01*
X046494Y019075D02*
X046824D01*
X046494Y019085D02*
X046824D01*
X046494Y019095D02*
X046824D01*
X046494Y019195D02*
X046794D01*
X046494Y019275D02*
X046574D01*
X046494Y019285D02*
X046574D01*
X046494Y019295D02*
X046574D01*
X046494Y019305D02*
X046574D01*
X046494Y019315D02*
X046574D01*
X046494Y019105D02*
X046574D01*
X046494Y019115D02*
X046574D01*
X046494Y019125D02*
X046574D01*
X046494Y019135D02*
X046574D01*
X046494Y019145D02*
X046574D01*
X046494Y019155D02*
X046574D01*
X046494Y019165D02*
X046574D01*
X046494Y019175D02*
X046574D01*
X046494Y019185D02*
X046574D01*
X045774Y020935D02*
X046124D01*
X045774Y020945D02*
X046124D01*
X045774Y020955D02*
X046124D01*
X045774Y020965D02*
X046124D01*
X045774Y020975D02*
X046124D01*
X045774Y020985D02*
X046124D01*
X045774Y020995D02*
X046124D01*
X045774Y021005D02*
X046124D01*
X045774Y021015D02*
X046124D01*
X045774Y021025D02*
X046124D01*
X045774Y021035D02*
X046124D01*
X045774Y021045D02*
X046124D01*
X045774Y021055D02*
X046124D01*
X045774Y021065D02*
X046124D01*
X045774Y020855D02*
X046124D01*
X045774Y020865D02*
X046124D01*
X045774Y020875D02*
X046124D01*
X045774Y020885D02*
X046124D01*
X045774Y020895D02*
X046124D01*
X045774Y020905D02*
X046124D01*
X045774Y020915D02*
X046124D01*
X045904Y019335D02*
X045994D01*
X045904Y019345D02*
X045994D01*
X045904Y019355D02*
X045994D01*
X045764Y019365D02*
X046124D01*
X045764Y019375D02*
X046124D01*
X045764Y019385D02*
X046124D01*
X045764Y019395D02*
X046124D01*
X045764Y019405D02*
X046124D01*
X045764Y019415D02*
X046124D01*
X045764Y019425D02*
X046124D01*
X045764Y019435D02*
X046124D01*
X045904Y019205D02*
X045994D01*
X045904Y019215D02*
X045994D01*
X045904Y019225D02*
X045994D01*
X045904Y019235D02*
X045994D01*
X045904Y019245D02*
X045994D01*
X045904Y019255D02*
X045994D01*
X045904Y019265D02*
X045994D01*
X045904Y019275D02*
X045994D01*
X045904Y019285D02*
X045994D01*
X045904Y019295D02*
X045994D01*
X045904Y019305D02*
X045994D01*
X045904Y019315D02*
X045994D01*
X045904Y019025D02*
X045994D01*
X045904Y019035D02*
X045994D01*
X045904Y019045D02*
X045994D01*
X045904Y019055D02*
X045994D01*
X045904Y019065D02*
X045994D01*
X045904Y019075D02*
X045994D01*
X045904Y019085D02*
X045994D01*
X045904Y019095D02*
X045994D01*
X045904Y019105D02*
X045994D01*
X045904Y019115D02*
X045994D01*
X045904Y019125D02*
X045994D01*
X045904Y019135D02*
X045994D01*
X045904Y019145D02*
X045994D01*
X045904Y019155D02*
X045994D01*
X045904Y019165D02*
X045994D01*
X045904Y019175D02*
X045994D01*
X045904Y019185D02*
X045994D01*
X045904Y019195D02*
X045994D01*
D14*
X034473Y022109D02*
X034375Y022207D01*
X034178D01*
X03408Y022109D01*
Y022011D01*
X034178Y021912D01*
X034375D01*
X034473Y021814D01*
Y021715D01*
X034375Y021617D01*
X034178D01*
X03408Y021715D01*
X034965Y022207D02*
X034768D01*
X03467Y022109D01*
Y021715D01*
X034768Y021617D01*
X034965D01*
X035063Y021715D01*
Y022109D01*
X034965Y022207D01*
X03526D02*
Y021617D01*
X035654D01*
X035851D02*
Y022011D01*
X036047Y022207D01*
X036244Y022011D01*
Y021617D01*
Y021912D01*
X035851D01*
X036441Y021617D02*
Y022207D01*
X036736D01*
X036835Y022109D01*
Y021912D01*
X036736Y021814D01*
X036441D01*
X036638D02*
X036835Y021617D01*
X038015Y022109D02*
X037917Y022207D01*
X03772D01*
X037622Y022109D01*
Y021715D01*
X03772Y021617D01*
X037917D01*
X038015Y021715D01*
X038212Y022207D02*
Y021617D01*
Y021912D01*
X038606D01*
Y022207D01*
Y021617D01*
X038802D02*
Y022011D01*
X038999Y022207D01*
X039196Y022011D01*
Y021617D01*
Y021912D01*
X038802D01*
X039393Y021617D02*
Y022207D01*
X039688D01*
X039786Y022109D01*
Y021912D01*
X039688Y021814D01*
X039393D01*
X03959D02*
X039786Y021617D01*
X040377Y022109D02*
X040278Y022207D01*
X040082D01*
X039983Y022109D01*
Y021715D01*
X040082Y021617D01*
X040278D01*
X040377Y021715D01*
Y021912D01*
X04018D01*
X040967Y022207D02*
X040573D01*
Y021617D01*
X040967D01*
X040573Y021912D02*
X04077D01*
X041164Y021617D02*
Y022207D01*
X041459D01*
X041557Y022109D01*
Y021912D01*
X041459Y021814D01*
X041164D01*
X041361D02*
X041557Y021617D01*
X042345Y022207D02*
Y021814D01*
X042541Y021617D01*
X042738Y021814D01*
Y022207D01*
X042935Y021617D02*
X043132D01*
X043033D01*
Y022207D01*
X042935Y022109D01*
X043427Y021617D02*
Y021715D01*
X043525D01*
Y021617D01*
X043427D01*
X043919Y022109D02*
X044017Y022207D01*
X044214D01*
X044312Y022109D01*
Y021715D01*
X044214Y021617D01*
X044017D01*
X043919Y021715D01*
Y022109D01*
X03408Y020578D02*
Y021168D01*
X034276Y020972D01*
X034473Y021168D01*
Y020578D01*
X034768D02*
X034965D01*
X035063Y020676D01*
Y020873D01*
X034965Y020972D01*
X034768D01*
X03467Y020873D01*
Y020676D01*
X034768Y020578D01*
X035654Y021168D02*
Y020578D01*
X035359D01*
X03526Y020676D01*
Y020873D01*
X035359Y020972D01*
X035654D01*
X036146Y020578D02*
X035949D01*
X035851Y020676D01*
Y020873D01*
X035949Y020972D01*
X036146D01*
X036244Y020873D01*
Y020775D01*
X035851D01*
X036441Y020578D02*
X036638D01*
X036539D01*
Y021168D01*
X036441D01*
X036933Y020972D02*
X037031D01*
Y020873D01*
X036933D01*
Y020972D01*
Y020676D02*
X037031D01*
Y020578D01*
X036933D01*
Y020676D01*
X038409Y02107D02*
X03831Y021168D01*
X038114D01*
X038015Y02107D01*
Y020972D01*
X038114Y020873D01*
X03831D01*
X038409Y020775D01*
Y020676D01*
X03831Y020578D01*
X038114D01*
X038015Y020676D01*
X038999Y021168D02*
X038606D01*
Y020578D01*
X038999D01*
X038606Y020873D02*
X038802D01*
X039196Y020578D02*
Y021168D01*
X03959Y020578D01*
Y021168D01*
X040082D02*
X039885D01*
X039786Y02107D01*
Y020676D01*
X039885Y020578D01*
X040082D01*
X04018Y020676D01*
Y02107D01*
X040082Y021168D01*
X040377Y02048D02*
X04077D01*
X040967Y021168D02*
Y020775D01*
X041164Y020578D01*
X041361Y020775D01*
Y021168D01*
X041557Y020578D02*
X041754D01*
X041656D01*
Y021168D01*
X041557Y02107D01*
X042049D02*
X042148Y021168D01*
X042345D01*
X042443Y02107D01*
Y020676D01*
X042345Y020578D01*
X042148D01*
X042049Y020676D01*
Y02107D01*
X034473Y019539D02*
Y019932D01*
X034375Y020031D01*
X034178D01*
X03408Y019932D01*
Y019539D01*
X034178Y01944D01*
X034375D01*
X034276Y019637D02*
X034473Y01944D01*
X034375D02*
X034473Y019539D01*
X03467Y020031D02*
X035063D01*
X034867D01*
Y01944D01*
X035555D02*
X035359D01*
X03526Y019539D01*
Y019736D01*
X035359Y019834D01*
X035555D01*
X035654Y019736D01*
Y019637D01*
X03526D01*
X036244Y019834D02*
X035949D01*
X035851Y019736D01*
Y019539D01*
X035949Y01944D01*
X036244D01*
X036441Y020031D02*
Y01944D01*
Y019736D01*
X036539Y019834D01*
X036736D01*
X036835Y019736D01*
Y01944D01*
X037622Y020031D02*
Y019637D01*
X037818Y01944D01*
X038015Y019637D01*
Y020031D01*
X038212Y01944D02*
X038409D01*
X03831D01*
Y019834D01*
X038212D01*
X038999Y01944D02*
X038802D01*
X038704Y019539D01*
Y019736D01*
X038802Y019834D01*
X038999D01*
X039098Y019736D01*
Y019637D01*
X038704D01*
X039393Y019932D02*
Y019834D01*
X039294D01*
X039491D01*
X039393D01*
Y019539D01*
X039491Y01944D01*
X039786D02*
Y019834D01*
X040082D01*
X04018Y019736D01*
Y01944D01*
X040475Y019834D02*
X040672D01*
X04077Y019736D01*
Y01944D01*
X040475D01*
X040377Y019539D01*
X040475Y019637D01*
X04077D01*
X040967Y01944D02*
Y019834D01*
X041065D01*
X041164Y019736D01*
Y01944D01*
Y019736D01*
X041262Y019834D01*
X041361Y019736D01*
Y01944D01*
X03408Y018893D02*
X034178Y018992D01*
X034375D01*
X034473Y018893D01*
Y0185D01*
X034375Y018401D01*
X034178D01*
X03408Y0185D01*
Y018893D01*
X03467Y0185D02*
X034768Y018401D01*
X034965D01*
X035063Y0185D01*
Y018893D01*
X034965Y018992D01*
X034768D01*
X03467Y018893D01*
Y018795D01*
X034768Y018696D01*
X035063D01*
X03526Y018401D02*
X035654Y018795D01*
X036244Y018401D02*
X035851D01*
X036244Y018795D01*
Y018893D01*
X036146Y018992D01*
X035949D01*
X035851Y018893D01*
X036441D02*
X036539Y018992D01*
X036736D01*
X036835Y018893D01*
Y0185D01*
X036736Y018401D01*
X036539D01*
X036441Y0185D01*
Y018893D01*
X037031Y018401D02*
X037228D01*
X03713D01*
Y018992D01*
X037031Y018893D01*
X037523Y0185D02*
X037622Y018401D01*
X037818D01*
X037917Y0185D01*
Y018893D01*
X037818Y018992D01*
X037622D01*
X037523Y018893D01*
Y018795D01*
X037622Y018696D01*
X037917D01*
X034178Y017362D02*
Y017854D01*
Y017657D01*
X03408D01*
X034276D01*
X034178D01*
Y017854D01*
X034276Y017953D01*
X034571Y017165D02*
Y017756D01*
X034867D01*
X034965Y017657D01*
Y017461D01*
X034867Y017362D01*
X034571D01*
X035162D02*
X035457D01*
X035555Y017461D01*
X035457Y017559D01*
X03526D01*
X035162Y017657D01*
X03526Y017756D01*
X035555D01*
X035752Y017362D02*
Y017461D01*
X035851D01*
Y017362D01*
X035752D01*
X036638Y017165D02*
Y017756D01*
X036343D01*
X036244Y017657D01*
Y017461D01*
X036343Y017362D01*
X036638D01*
X036933Y017854D02*
Y017756D01*
X036835D01*
X037031D01*
X036933D01*
Y017461D01*
X037031Y017362D01*
X037622D02*
X037425D01*
X037327Y017461D01*
Y017657D01*
X037425Y017756D01*
X037622D01*
X03772Y017657D01*
Y017559D01*
X037327D01*
X03831Y017756D02*
X038015D01*
X037917Y017657D01*
Y017461D01*
X038015Y017362D01*
X03831D01*
X038507Y017953D02*
Y017362D01*
Y017657D01*
X038606Y017756D01*
X038802D01*
X038901Y017657D01*
Y017362D01*
X039098Y017756D02*
X039294Y017362D01*
X039491Y017756D01*
X039688Y017362D02*
X039885D01*
X039786D01*
Y017756D01*
X039688D01*
X040475Y017362D02*
X040278D01*
X04018Y017461D01*
Y017657D01*
X040278Y017756D01*
X040475D01*
X040573Y017657D01*
Y017559D01*
X04018D01*
X040869Y017854D02*
Y017756D01*
X04077D01*
X040967D01*
X040869D01*
Y017461D01*
X040967Y017362D01*
X041262D02*
Y017756D01*
X041557D01*
X041656Y017657D01*
Y017362D01*
X041951Y017756D02*
X042148D01*
X042246Y017657D01*
Y017362D01*
X041951D01*
X041853Y017461D01*
X041951Y017559D01*
X042246D01*
X042443Y017362D02*
Y017756D01*
X042541D01*
X04264Y017657D01*
Y017362D01*
Y017657D01*
X042738Y017756D01*
X042837Y017657D01*
Y017362D01*
X043328Y017559D02*
Y017657D01*
X04323D01*
Y017559D01*
X043328D01*
X043427Y017657D01*
Y017854D01*
X043328Y017953D01*
X043132D01*
X043033Y017854D01*
Y017461D01*
X043132Y017362D01*
X043427D01*
X04382Y017165D02*
X043919D01*
X044017Y017264D01*
Y017756D01*
X043722D01*
X043624Y017657D01*
Y017461D01*
X043722Y017362D01*
X044017D01*
X044214D02*
Y017756D01*
X044312D01*
X044411Y017657D01*
Y017362D01*
Y017657D01*
X044509Y017756D01*
X044608Y017657D01*
Y017362D01*
X044903Y017756D02*
X0451D01*
X045198Y017657D01*
Y017362D01*
X044903D01*
X044804Y017461D01*
X044903Y017559D01*
X045198D01*
X045395Y017362D02*
X045592D01*
X045493D01*
Y017756D01*
X045395D01*
X045887Y017362D02*
X046084D01*
X045985D01*
Y017953D01*
X045887D01*
X046379Y017362D02*
Y017461D01*
X046477D01*
Y017362D01*
X046379D01*
X047264Y017756D02*
X046969D01*
X046871Y017657D01*
Y017461D01*
X046969Y017362D01*
X047264D01*
X047559D02*
X047756D01*
X047855Y017461D01*
Y017657D01*
X047756Y017756D01*
X047559D01*
X047461Y017657D01*
Y017461D01*
X047559Y017362D01*
X048051D02*
Y017756D01*
X04815D01*
X048248Y017657D01*
Y017362D01*
Y017657D01*
X048347Y017756D01*
X048445Y017657D01*
Y017362D01*
D15*
X029734Y03952D02*
D03*
X05058Y039443D02*
D03*
Y028616D02*
D03*
D16*
X030226Y030583D02*
D03*
D17*
X022524Y005217D02*
D03*
X057957D02*
D03*
Y04065D02*
D03*
X022524D02*
D03*
D18*
X055154Y026005D02*
D03*
Y024005D02*
D03*
Y022005D02*
D03*
Y020005D02*
D03*
Y016856D02*
D03*
Y014856D02*
D03*
Y012856D02*
D03*
Y010856D02*
D03*
X053496Y007972D02*
D03*
X051496D02*
D03*
X049496D02*
D03*
X046346D02*
D03*
X044346D02*
D03*
X042346D02*
D03*
X039197D02*
D03*
X037197D02*
D03*
X035197D02*
D03*
X032047D02*
D03*
X028047D02*
D03*
X030047D02*
D03*
X025233Y009596D02*
D03*
Y011596D02*
D03*
Y013596D02*
D03*
Y016714D02*
D03*
Y018714D02*
D03*
Y020714D02*
D03*
X038863Y01378D02*
D03*
X032724Y026D02*
D03*
D19*
X026461Y035689D02*
D03*
X05402D02*
D03*
D20*
X026461Y038996D02*
D03*
X05402D02*
D03*
M02*
