G04*
G04 #@! TF.GenerationSoftware,Altium Limited,Altium Designer,19.0.13 (425)*
G04*
G04 Layer_Color=65535*
%FSTAX24Y24*%
%MOIN*%
G70*
G01*
G75*
%ADD10C,0.0118*%
%ADD11C,0.0100*%
%ADD12C,0.0079*%
G36*
X027643Y040512D02*
X025354D01*
Y04248D01*
X027643D01*
Y040512D01*
D02*
G37*
G36*
X027595Y027202D02*
X02528D01*
Y033895D01*
X027595D01*
Y027202D01*
D02*
G37*
G36*
X055194Y027597D02*
X052879D01*
Y034228D01*
X055194D01*
Y027597D01*
D02*
G37*
G36*
X055202Y040512D02*
X052913D01*
Y04248D01*
X055202D01*
Y040512D01*
D02*
G37*
%LPC*%
G36*
X026694Y042125D02*
X026303D01*
Y040867D01*
X026694D01*
Y042125D01*
D02*
G37*
G36*
X027067Y033011D02*
X025809D01*
Y03232D01*
X025811Y032295D01*
X025813Y032267D01*
X025818Y032237D01*
X02582Y03221D01*
X025822Y032187D01*
Y032178D01*
X025825Y032171D01*
Y032166D01*
X025832Y032132D01*
X025836Y032102D01*
X025843Y032077D01*
X02585Y032056D01*
X025857Y03204D01*
X025861Y032028D01*
X025866Y032022D01*
Y032019D01*
X025884Y031992D01*
X025905Y031966D01*
X025926Y031943D01*
X025946Y031925D01*
X025963Y031911D01*
X025976Y031902D01*
X025988Y031895D01*
X02599Y031893D01*
X02602Y031877D01*
X02605Y031865D01*
X02608Y031859D01*
X026107Y031852D01*
X02613Y031849D01*
X026149Y031847D01*
X025809D01*
D01*
X027067D01*
Y033011D01*
D02*
G37*
G36*
X025809Y031769D02*
D01*
Y030398D01*
X027067D01*
Y031298D01*
X025809Y031769D01*
D02*
G37*
G36*
X027067Y030364D02*
X026757D01*
Y029967D01*
X025809D01*
Y029579D01*
X026757D01*
Y029181D01*
X025809D01*
D01*
X027067D01*
Y030364D01*
D02*
G37*
G36*
X026906Y029023D02*
D01*
Y028695D01*
X026576D01*
Y029023D01*
X026298D01*
Y028695D01*
X025969D01*
Y028417D01*
X026298D01*
Y028086D01*
X025969D01*
D01*
X026906D01*
Y029023D01*
D02*
G37*
%LPD*%
G36*
X026812Y032446D02*
X02681Y032416D01*
X026807Y032389D01*
X026803Y032368D01*
X026796Y032352D01*
X026789Y032338D01*
X026784Y032329D01*
X026782Y032325D01*
X02678Y032322D01*
X026768Y032311D01*
X026755Y032302D01*
X026741Y032295D01*
X026727Y03229D01*
X026713Y032288D01*
X026704Y032286D01*
X026697D01*
X026695D01*
X026674Y032288D01*
X026656Y03229D01*
X02664Y032297D01*
X026626Y032304D01*
X026617Y032311D01*
X02661Y032315D01*
X026605Y03232D01*
X026603Y032322D01*
X026594Y032338D01*
X026587Y032357D01*
X026578Y032398D01*
X026576Y032419D01*
X026573Y032435D01*
Y032619D01*
X026812D01*
Y032446D01*
D02*
G37*
G36*
X026334Y032423D02*
X026332Y032387D01*
X02633Y032357D01*
X026323Y032332D01*
X026318Y032313D01*
X026312Y032297D01*
X026305Y032286D01*
X026302Y032281D01*
X0263Y032279D01*
X026286Y032265D01*
X026272Y032256D01*
X026256Y032247D01*
X026243Y032242D01*
X026229Y03224D01*
X02622Y032237D01*
X026213D01*
X02621D01*
X02619Y03224D01*
X026171Y032244D01*
X026153Y032251D01*
X026139Y032258D01*
X026128Y032265D01*
X026121Y032272D01*
X026116Y032276D01*
X026114Y032279D01*
X026103Y032297D01*
X026093Y032318D01*
X026089Y032341D01*
X026084Y032366D01*
X026082Y032387D01*
X02608Y032405D01*
Y032619D01*
X026334D01*
Y032423D01*
D02*
G37*
G36*
X027067Y031847D02*
X026165D01*
X026208Y031849D01*
X026247Y031856D01*
X026282Y031868D01*
X026309Y031879D01*
X026332Y031891D01*
X026351Y031902D01*
X02636Y031909D01*
X026364Y031911D01*
X026392Y031939D01*
X026415Y031969D01*
X026435Y032003D01*
X026452Y032035D01*
X026463Y032065D01*
X02647Y032088D01*
X026475Y032097D01*
Y032104D01*
X026477Y032109D01*
Y032111D01*
X026491Y032079D01*
X026504Y032051D01*
X026518Y032028D01*
X026532Y03201D01*
X026543Y031994D01*
X026553Y031985D01*
X026559Y031978D01*
X026562Y031976D01*
X026594Y031953D01*
X026626Y031934D01*
X026658Y031923D01*
X026688Y031914D01*
X026713Y031909D01*
X026734Y031904D01*
X026748D01*
X02675D01*
X026752D01*
X026778D01*
X026801Y031909D01*
X026844Y031921D01*
X026881Y031937D01*
X026913Y031953D01*
X026941Y031971D01*
X026959Y031987D01*
X02697Y031999D01*
X026975Y032001D01*
Y032003D01*
X027005Y032044D01*
X027028Y032088D01*
X027044Y032134D01*
X027055Y03218D01*
X027062Y032221D01*
X027065Y032237D01*
Y032253D01*
X027067Y032265D01*
Y031847D01*
D02*
G37*
G36*
X026739Y031089D02*
X026289Y030952D01*
Y031227D01*
X026739Y031089D01*
D02*
G37*
G36*
X026015Y03131D02*
Y030869D01*
X025809Y030807D01*
Y031372D01*
X026015Y03131D01*
D02*
G37*
G36*
X027067Y030398D02*
X025809D01*
X027067Y030871D01*
Y030398D01*
D02*
G37*
G36*
X026906Y028086D02*
X026576D01*
Y028417D01*
X026906D01*
Y028086D01*
D02*
G37*
%LPC*%
G36*
X054409Y03394D02*
X053665D01*
Y033197D01*
Y033458D01*
X053928D01*
Y033197D01*
X053665D01*
X054409D01*
X054148D01*
Y033458D01*
X054409D01*
Y033678D01*
X054148D01*
Y03394D01*
X054409D01*
D02*
G37*
G36*
X054536Y033113D02*
X054248Y032962D01*
X054239Y032956D01*
X05423Y032951D01*
X054208Y032936D01*
X054201Y032929D01*
X054194Y032924D01*
X054188Y03292D01*
X054186Y032918D01*
X054172Y032907D01*
X054161Y032896D01*
X054152Y032889D01*
X054144Y032882D01*
X054139Y032876D01*
X054135Y032873D01*
X054134Y032869D01*
X054126Y032858D01*
X054121Y032845D01*
X054108Y03282D01*
X054104Y032807D01*
X054101Y032798D01*
X054097Y032791D01*
Y032789D01*
X05409Y032813D01*
X054084Y032834D01*
X054077Y032853D01*
X054072Y032869D01*
X054066Y03288D01*
X054061Y032889D01*
X054059Y032895D01*
X054057Y032896D01*
X054042Y032918D01*
X054026Y032938D01*
X05401Y032955D01*
X053995Y032969D01*
X05398Y03298D01*
X05397Y032989D01*
X053962Y032993D01*
X05396Y032995D01*
X053937Y033008D01*
X053911Y033017D01*
X053888Y033022D01*
X053866Y033028D01*
X053846Y033029D01*
X053831Y033031D01*
X05382D01*
X053816D01*
X053782Y033029D01*
X053751Y033024D01*
X053724Y033017D01*
X0537Y033008D01*
X05368Y032998D01*
X053665Y032991D01*
X053658Y032986D01*
X053654Y032984D01*
X053631Y032966D01*
X053612Y032946D01*
X053596Y032926D01*
X053583Y032905D01*
X053574Y032889D01*
X053569Y032875D01*
X053565Y032865D01*
X053563Y032862D01*
X053554Y032831D01*
X053549Y032796D01*
X053543Y03276D01*
X053541Y032725D01*
X05354Y032692D01*
X053538Y03268D01*
Y032703D01*
Y032129D01*
X054536D01*
Y033113D01*
D02*
G37*
G36*
Y032027D02*
X053538Y031652D01*
Y032027D01*
Y031652D01*
Y031313D01*
X054536Y03094D01*
Y032027D01*
D02*
G37*
G36*
Y030899D02*
X053538D01*
Y030109D01*
X054536D01*
Y030899D01*
D02*
G37*
G36*
X054553Y029943D02*
X053521D01*
Y028908D01*
Y029424D01*
X053523Y02938D01*
X053527Y029338D01*
X053534Y029298D01*
X053543Y029261D01*
X053552Y029227D01*
X053565Y029196D01*
X053576Y029167D01*
X053589Y029141D01*
X053601Y029119D01*
X053614Y029099D01*
X053627Y029083D01*
X053636Y029068D01*
X053645Y029057D01*
X053652Y02905D01*
X053656Y029045D01*
X053658Y029043D01*
X053685Y029019D01*
X053713Y028999D01*
X053744Y028981D01*
X053775Y028964D01*
X053807Y028952D01*
X053838Y028941D01*
X053869Y028932D01*
X0539Y028924D01*
X053928Y028919D01*
X053955Y028915D01*
X053979Y028912D01*
X053999Y02891D01*
X054015D01*
X054028Y028908D01*
X054039D01*
X054101Y028912D01*
X054157Y028919D01*
X054185Y028924D01*
X054208Y02893D01*
X05423Y028935D01*
X05425Y028943D01*
X054268Y028948D01*
X054285Y028954D01*
X054297Y028959D01*
X054308Y028964D01*
X054318Y02897D01*
X054325Y028972D01*
X054328Y028975D01*
X05433D01*
X05437Y029003D01*
X054405Y029034D01*
X054436Y029063D01*
X054458Y029092D01*
X054476Y029118D01*
X054489Y029138D01*
X054494Y029145D01*
X054498Y02915D01*
X0545Y029154D01*
Y029156D01*
X054518Y0292D01*
X054531Y029247D01*
X05454Y029292D01*
X054545Y029336D01*
X054549Y029358D01*
Y029376D01*
X054551Y029393D01*
X054553Y029407D01*
Y029435D01*
X054551Y029495D01*
X054543Y029549D01*
X054533Y029597D01*
X054527Y029617D01*
X054522Y029637D01*
X054516Y029655D01*
X054511Y02967D01*
X054505Y029682D01*
X0545Y029693D01*
X054496Y029702D01*
X054492Y029708D01*
X054491Y029712D01*
Y029713D01*
X054465Y029753D01*
X054438Y029786D01*
X054409Y029815D01*
X054381Y029839D01*
X054356Y029859D01*
X054336Y029872D01*
X054328Y029877D01*
X054323Y029881D01*
X054319Y029883D01*
X054318D01*
X054272Y029903D01*
X054225Y029917D01*
X054177Y029928D01*
X054132Y029936D01*
X05411Y029937D01*
X054092Y029939D01*
X054073Y029941D01*
X054059Y029943D01*
X054553D01*
D02*
G37*
G36*
X054185Y028791D02*
X053521D01*
D01*
X054185D01*
D02*
G37*
G36*
X054228D02*
X054212D01*
X054183Y02879D01*
X054154Y028786D01*
X05413Y028779D01*
X054108Y028771D01*
X05409Y028764D01*
X054075Y028757D01*
X054068Y028753D01*
X054064Y028751D01*
X054041Y028735D01*
X054019Y028715D01*
X054Y028693D01*
X053984Y028673D01*
X053971Y028653D01*
X053962Y028638D01*
X053957Y028627D01*
X053955Y028626D01*
Y028624D01*
X053946Y028606D01*
X053939Y028586D01*
X053922Y028542D01*
X053906Y028493D01*
X053893Y028445D01*
X053888Y028423D01*
X053882Y028401D01*
X053877Y028381D01*
X053873Y028365D01*
X053869Y028352D01*
X053867Y028341D01*
X053866Y028334D01*
Y028332D01*
X05386Y028305D01*
X053853Y028283D01*
X053847Y028265D01*
X053842Y028252D01*
X053837Y028241D01*
X053833Y028236D01*
X053829Y028232D01*
Y02823D01*
X053822Y028223D01*
X053815Y028217D01*
X0538Y028212D01*
X053789Y028208D01*
X053787D01*
X053785D01*
X053775Y02821D01*
X053764Y028212D01*
X053745Y028221D01*
X053734Y02823D01*
X053733Y028232D01*
X053731Y028234D01*
X053724Y028245D01*
X053716Y028258D01*
X053711Y028285D01*
X053709Y028298D01*
X053707Y028307D01*
Y028316D01*
X053709Y02834D01*
X053713Y02836D01*
X053716Y028378D01*
X053722Y028392D01*
X053729Y028403D01*
X053733Y028411D01*
X053736Y028416D01*
X053738Y028418D01*
X053751Y028431D01*
X053767Y028442D01*
X053784Y028449D01*
X053798Y028456D01*
X053813Y028462D01*
X053826Y028465D01*
X053833Y028467D01*
X053837D01*
X05382Y028759D01*
X053793Y028753D01*
X053765Y028748D01*
X053742Y02874D01*
X05372Y028731D01*
X0537Y028722D01*
X05368Y028711D01*
X053663Y028702D01*
X053649Y028691D01*
X053625Y028671D01*
X053607Y028655D01*
X053598Y028642D01*
X053594Y02864D01*
Y028638D01*
X053581Y028618D01*
X05357Y028596D01*
X053552Y028551D01*
X05354Y028502D01*
X05353Y028454D01*
X053527Y028432D01*
X053525Y028412D01*
X053523Y028394D01*
Y028378D01*
X053521Y028365D01*
Y027884D01*
D01*
Y028347D01*
X053523Y028292D01*
X053527Y028243D01*
X053534Y028201D01*
X053538Y028181D01*
X053541Y028165D01*
X053545Y02815D01*
X053549Y028137D01*
X053552Y028126D01*
X053556Y028117D01*
X053558Y02811D01*
X05356Y028105D01*
X053561Y028103D01*
Y028101D01*
X053578Y02807D01*
X053594Y028043D01*
X053612Y028019D01*
X053629Y028001D01*
X053645Y027986D01*
X053658Y027975D01*
X053665Y027968D01*
X053669Y027966D01*
X053694Y027951D01*
X05372Y027941D01*
X053745Y027933D01*
X053767Y027928D01*
X053785Y027924D01*
X053802Y027922D01*
X053811D01*
X053813D01*
X053815D01*
X053837Y027924D01*
X053857Y027926D01*
X053893Y027935D01*
X053926Y02795D01*
X053953Y027966D01*
X053977Y027981D01*
X053993Y027995D01*
X054002Y028004D01*
X054004Y028008D01*
X054006D01*
X054021Y028026D01*
X054033Y028046D01*
X054057Y02809D01*
X054077Y028137D01*
X054095Y028186D01*
X054103Y028208D01*
X054108Y028228D01*
X054113Y028248D01*
X054119Y028265D01*
X054121Y028278D01*
X054124Y028289D01*
X054126Y028296D01*
Y028298D01*
X054132Y028319D01*
X054137Y02834D01*
X054141Y028358D01*
X054146Y028374D01*
X054157Y028401D01*
X054166Y028423D01*
X054174Y028438D01*
X054179Y028449D01*
X054183Y028454D01*
X054185Y028456D01*
X054195Y028467D01*
X054208Y028476D01*
X054219Y028482D01*
X05423Y028487D01*
X054239Y028489D01*
X054246Y028491D01*
X054252D01*
X054254D01*
X054268Y028489D01*
X054283Y028485D01*
X054296Y02848D01*
X054307Y028473D01*
X054314Y028465D01*
X054321Y02846D01*
X054325Y028456D01*
X054327Y028454D01*
X054336Y02844D01*
X054343Y028423D01*
X054348Y028407D01*
X054352Y028391D01*
X054354Y028374D01*
X054356Y028363D01*
Y028352D01*
X054354Y028321D01*
X054347Y028294D01*
X054338Y02827D01*
X054325Y02825D01*
X054314Y028236D01*
X054305Y028225D01*
X054297Y028217D01*
X054296Y028216D01*
X054281Y028207D01*
X054263Y028197D01*
X054226Y028186D01*
X054212Y028181D01*
X054199Y028179D01*
X05419Y028177D01*
X054186D01*
X054206Y027884D01*
D01*
X054234Y027888D01*
X054261Y027893D01*
X054308Y027906D01*
X054352Y027924D01*
X054389Y027944D01*
X054403Y027953D01*
X054418Y027962D01*
X054429Y027971D01*
X054438Y027979D01*
X054445Y027984D01*
X054451Y02799D01*
X054454Y027992D01*
X054456Y027993D01*
X054472Y028013D01*
X054487Y028037D01*
X054502Y028063D01*
X054512Y02809D01*
X054529Y028148D01*
X05454Y028207D01*
X054545Y028236D01*
X054547Y028261D01*
X054549Y028285D01*
X054551Y028305D01*
X054553Y028323D01*
Y028347D01*
X054551Y0284D01*
X054547Y028445D01*
X05454Y028487D01*
X054533Y028522D01*
X054529Y028536D01*
X054525Y028549D01*
X054522Y028562D01*
X054518Y028571D01*
X054516Y028578D01*
X054514Y028584D01*
X054512Y028586D01*
Y028587D01*
X054494Y028622D01*
X054476Y028651D01*
X054456Y028677D01*
X054436Y028698D01*
X054418Y028715D01*
X054403Y028728D01*
X054394Y028735D01*
X05439Y028737D01*
X054359Y028755D01*
X054328Y028768D01*
X054297Y028779D01*
X05427Y028784D01*
X054246Y028788D01*
X054228Y028791D01*
D02*
G37*
%LPD*%
G36*
X053928Y033678D02*
X053665D01*
Y03394D01*
X053928D01*
Y033678D01*
D02*
G37*
G36*
X054536Y032439D02*
X054132D01*
Y032465D01*
X054134Y032481D01*
X054135Y032496D01*
X054139Y032508D01*
X054143Y032519D01*
X054148Y032528D01*
X054152Y032536D01*
X054154Y032539D01*
X054155Y032541D01*
X054164Y03255D01*
X054175Y032561D01*
X054201Y032579D01*
X054212Y032587D01*
X054223Y032592D01*
X05423Y032596D01*
X054232Y032598D01*
X054536Y032763D01*
Y032439D01*
D02*
G37*
G36*
X053864Y032718D02*
X053882Y032712D01*
X053889Y032709D01*
X053893Y032705D01*
X053897Y032703D01*
X053898Y032701D01*
X053908Y032694D01*
X053915Y032685D01*
X053924Y032669D01*
X053926Y032661D01*
X053928Y032656D01*
X053929Y032652D01*
Y03265D01*
X053933Y03263D01*
X053937Y032612D01*
X053939Y032598D01*
X05394Y032587D01*
X053942Y032579D01*
Y032439D01*
X05374D01*
Y032574D01*
X053742Y032603D01*
X053744Y032629D01*
X053749Y032649D01*
X053753Y032665D01*
X053758Y032676D01*
X053764Y032685D01*
X053765Y032689D01*
X053767Y03269D01*
X053778Y032701D01*
X053789Y032709D01*
X053802Y032714D01*
X053813Y032718D01*
X053824Y03272D01*
X053833Y032721D01*
X053838D01*
X05384D01*
X053853D01*
X053864Y032718D01*
D02*
G37*
G36*
X054155Y03137D02*
X053798Y031479D01*
X054155Y031588D01*
Y03137D01*
D02*
G37*
G36*
X054536Y031255D02*
X054372Y031304D01*
Y031654D01*
X054536Y031703D01*
Y031255D01*
D02*
G37*
G36*
X05429Y030417D02*
X053538D01*
Y030899D01*
X05429D01*
Y030417D01*
D02*
G37*
G36*
X053986Y029941D02*
X053944Y029937D01*
X053906Y02993D01*
X053869Y029921D01*
X053837Y029912D01*
X053806Y029899D01*
X053778Y029888D01*
X053753Y029875D01*
X053731Y029863D01*
X053711Y02985D01*
X053694Y029837D01*
X05368Y029828D01*
X053671Y029819D01*
X053662Y029812D01*
X053658Y029808D01*
X053656Y029806D01*
X053632Y029779D01*
X053612Y029752D01*
X053594Y029721D01*
X053578Y02969D01*
X053565Y029659D01*
X053554Y029626D01*
X053545Y029595D01*
X053538Y029564D01*
X053532Y029537D01*
X053529Y029509D01*
X053525Y029486D01*
X053523Y029464D01*
X053521Y029447D01*
Y029943D01*
X05403D01*
X053986Y029941D01*
D02*
G37*
G36*
X054084Y029633D02*
X05411Y02963D01*
X054134Y029626D01*
X054154Y029622D01*
X054174Y029617D01*
X05419Y029611D01*
X054205Y029608D01*
X054217Y029602D01*
X054228Y029597D01*
X054237Y029591D01*
X054245Y029588D01*
X054254Y02958D01*
X054257Y029578D01*
X054279Y029557D01*
X054294Y029531D01*
X054305Y029506D01*
X054314Y029482D01*
X054318Y02946D01*
X054319Y029442D01*
X054321Y029435D01*
Y029425D01*
X054318Y029391D01*
X05431Y02936D01*
X054301Y029333D01*
X054288Y029311D01*
X054276Y029294D01*
X054267Y029282D01*
X054259Y029272D01*
X054256Y029271D01*
X054243Y029261D01*
X054228Y029252D01*
X054194Y02924D01*
X054157Y029229D01*
X054123Y029223D01*
X05409Y02922D01*
X054075Y029218D01*
X054062D01*
X054053Y029216D01*
X054046D01*
X054041D01*
X054039D01*
X054011D01*
X053986Y029218D01*
X053962Y029221D01*
X05394Y029225D01*
X053922Y029229D01*
X053904Y029234D01*
X053888Y02924D01*
X053873Y029245D01*
X053851Y029254D01*
X053835Y029263D01*
X053826Y029271D01*
X053822Y029272D01*
X0538Y029294D01*
X053784Y02932D01*
X053771Y029345D01*
X053764Y029369D01*
X053758Y029389D01*
X053756Y029407D01*
X053755Y029418D01*
Y029422D01*
X053758Y029456D01*
X053765Y029487D01*
X053775Y029515D01*
X053787Y029537D01*
X0538Y029553D01*
X053809Y029566D01*
X053816Y029575D01*
X05382Y029577D01*
X053847Y029597D01*
X05388Y029611D01*
X053915Y02962D01*
X053948Y029628D01*
X053979Y029631D01*
X053991Y029633D01*
X054002Y029635D01*
X054013D01*
X054021D01*
X054024D01*
X054026D01*
X054057D01*
X054084Y029633D01*
D02*
G37*
%LPC*%
G36*
X054253Y042125D02*
X053862D01*
Y040867D01*
X054253D01*
Y042125D01*
D02*
G37*
%LPD*%
D10*
X049496Y022247D02*
G03*
X04822Y023524I-001277J0D01*
G01*
X048147Y016043D02*
G03*
X049496Y017393I0J00135D01*
G01*
X032957Y017313D02*
G03*
X034227Y016043I00127J0D01*
G01*
X033942Y023524D02*
G03*
X032957Y022539I0J-000984D01*
G01*
X023588Y005217D02*
G03*
X023588Y005217I-001064J0D01*
G01*
X023409Y005806D02*
G03*
X02164Y005806I-000884J-00059D01*
G01*
X023376Y005784D02*
G03*
X021673Y005784I-000852J-000568D01*
G01*
X023343Y005763D02*
G03*
X021705Y005763I-000819J-000546D01*
G01*
X023343D02*
G03*
X021705Y005763I-000819J-000546D01*
G01*
X023311Y005741D02*
G03*
X021738Y005741I-000786J-000524D01*
G01*
X023278Y005719D02*
G03*
X021771Y005719I-000753J-000502D01*
G01*
X023278D02*
G03*
X021771Y005719I-000753J-000502D01*
G01*
X023245Y005697D02*
G03*
X021804Y005697I-000721J-00048D01*
G01*
X023212Y005675D02*
G03*
X021836Y005675I-000688J-000459D01*
G01*
X023128Y005619D02*
G03*
X02192Y005619I-000604J-0004D01*
G01*
X021918Y004813D02*
G03*
X02313Y004813I000606J000404D01*
G01*
X021836Y004758D02*
G03*
X023212Y004758I000688J000459D01*
G01*
X021804Y004736D02*
G03*
X023245Y004736I000721J00048D01*
G01*
X021771Y004714D02*
G03*
X023278Y004714I000753J000502D01*
G01*
X021771D02*
G03*
X023278Y004714I000753J000502D01*
G01*
X021738Y004692D02*
G03*
X023311Y004692I000786J000524D01*
G01*
X021705Y004671D02*
G03*
X023343Y004671I000819J000546D01*
G01*
X021705D02*
G03*
X023343Y004671I000819J000546D01*
G01*
X021673Y004649D02*
G03*
X023376Y004649I000852J000568D01*
G01*
X02164Y004627D02*
G03*
X023409Y004627I000884J00059D01*
G01*
X02318Y005653D02*
G03*
X021869Y005653I-000655J-000437D01*
G01*
X021869Y00478D02*
G03*
X02318Y00478I000655J000437D01*
G01*
X059021Y005217D02*
G03*
X059021Y005217I-001064J0D01*
G01*
X058842Y005806D02*
G03*
X057073Y005806I-000884J-00059D01*
G01*
X058809Y005784D02*
G03*
X057106Y005784I-000852J-000568D01*
G01*
X058776Y005763D02*
G03*
X057139Y005763I-000819J-000546D01*
G01*
X058776D02*
G03*
X057139Y005763I-000819J-000546D01*
G01*
X058744Y005741D02*
G03*
X057171Y005741I-000786J-000524D01*
G01*
X058711Y005719D02*
G03*
X057204Y005719I-000753J-000502D01*
G01*
X058711D02*
G03*
X057204Y005719I-000753J-000502D01*
G01*
X058678Y005697D02*
G03*
X057237Y005697I-000721J-00048D01*
G01*
X058645Y005675D02*
G03*
X05727Y005675I-000688J-000459D01*
G01*
X058561Y005619D02*
G03*
X057354Y005619I-000604J-0004D01*
G01*
X057351Y004813D02*
G03*
X058563Y004813I000606J000404D01*
G01*
X05727Y004758D02*
G03*
X058645Y004758I000688J000459D01*
G01*
X057237Y004736D02*
G03*
X058678Y004736I000721J00048D01*
G01*
X057204Y004714D02*
G03*
X058711Y004714I000753J000502D01*
G01*
X057204D02*
G03*
X058711Y004714I000753J000502D01*
G01*
X057171Y004692D02*
G03*
X058744Y004692I000786J000524D01*
G01*
X057139Y004671D02*
G03*
X058776Y004671I000819J000546D01*
G01*
X057139D02*
G03*
X058776Y004671I000819J000546D01*
G01*
X057106Y004649D02*
G03*
X058809Y004649I000852J000568D01*
G01*
X057073Y004627D02*
G03*
X058842Y004627I000884J00059D01*
G01*
X058613Y005653D02*
G03*
X057302Y005653I-000655J-000437D01*
G01*
X057302Y00478D02*
G03*
X058613Y00478I000655J000437D01*
G01*
X057302Y040213D02*
G03*
X058613Y040213I000655J000437D01*
G01*
X058613Y041086D02*
G03*
X057302Y041086I-000655J-000437D01*
G01*
X057073Y04006D02*
G03*
X058842Y04006I000884J00059D01*
G01*
X057106Y040082D02*
G03*
X058809Y040082I000852J000568D01*
G01*
X057139Y040104D02*
G03*
X058776Y040104I000819J000546D01*
G01*
X057139D02*
G03*
X058776Y040104I000819J000546D01*
G01*
X057171Y040125D02*
G03*
X058744Y040125I000786J000524D01*
G01*
X057204Y040147D02*
G03*
X058711Y040147I000753J000502D01*
G01*
X057204D02*
G03*
X058711Y040147I000753J000502D01*
G01*
X057237Y040169D02*
G03*
X058678Y040169I000721J00048D01*
G01*
X05727Y040191D02*
G03*
X058645Y040191I000688J000459D01*
G01*
X057351Y040246D02*
G03*
X058563Y040246I000606J000404D01*
G01*
X058561Y041052D02*
G03*
X057354Y041052I-000604J-0004D01*
G01*
X058645Y041108D02*
G03*
X05727Y041108I-000688J-000459D01*
G01*
X058678Y04113D02*
G03*
X057237Y04113I-000721J-00048D01*
G01*
X058711Y041152D02*
G03*
X057204Y041152I-000753J-000502D01*
G01*
X058711D02*
G03*
X057204Y041152I-000753J-000502D01*
G01*
X058744Y041174D02*
G03*
X057171Y041174I-000786J-000524D01*
G01*
X058776Y041196D02*
G03*
X057139Y041196I-000819J-000546D01*
G01*
X058776D02*
G03*
X057139Y041196I-000819J-000546D01*
G01*
X058809Y041217D02*
G03*
X057106Y041217I-000852J-000568D01*
G01*
X058842Y041239D02*
G03*
X057073Y041239I-000884J-00059D01*
G01*
X059021Y04065D02*
G03*
X059021Y04065I-001064J0D01*
G01*
X021869Y040213D02*
G03*
X02318Y040213I000655J000437D01*
G01*
X02318Y041086D02*
G03*
X021869Y041086I-000655J-000437D01*
G01*
X02164Y04006D02*
G03*
X023409Y04006I000884J00059D01*
G01*
X021673Y040082D02*
G03*
X023376Y040082I000852J000568D01*
G01*
X021705Y040104D02*
G03*
X023343Y040104I000819J000546D01*
G01*
X021705D02*
G03*
X023343Y040104I000819J000546D01*
G01*
X021738Y040125D02*
G03*
X023311Y040125I000786J000524D01*
G01*
X021771Y040147D02*
G03*
X023278Y040147I000753J000502D01*
G01*
X021771D02*
G03*
X023278Y040147I000753J000502D01*
G01*
X021804Y040169D02*
G03*
X023245Y040169I000721J00048D01*
G01*
X021836Y040191D02*
G03*
X023212Y040191I000688J000459D01*
G01*
X021918Y040246D02*
G03*
X02313Y040246I000606J000404D01*
G01*
X023128Y041052D02*
G03*
X02192Y041052I-000604J-0004D01*
G01*
X023212Y041108D02*
G03*
X021836Y041108I-000688J-000459D01*
G01*
X023245Y04113D02*
G03*
X021804Y04113I-000721J-00048D01*
G01*
X023278Y041152D02*
G03*
X021771Y041152I-000753J-000502D01*
G01*
X023278D02*
G03*
X021771Y041152I-000753J-000502D01*
G01*
X023311Y041174D02*
G03*
X021738Y041174I-000786J-000524D01*
G01*
X023343Y041196D02*
G03*
X021705Y041196I-000819J-000546D01*
G01*
X023343D02*
G03*
X021705Y041196I-000819J-000546D01*
G01*
X023376Y041217D02*
G03*
X021673Y041217I-000852J-000568D01*
G01*
X023409Y041239D02*
G03*
X02164Y041239I-000884J-00059D01*
G01*
X023588Y04065D02*
G03*
X023588Y04065I-001064J0D01*
G01*
X034139Y023524D02*
X04822D01*
X049496Y017393D02*
Y022247D01*
X034227Y016043D02*
X048147D01*
X032957Y017313D02*
Y022539D01*
X033942Y023524D02*
X034139D01*
D11*
X028454Y027041D02*
X052076D01*
X028454D02*
Y041805D01*
X052076D01*
Y027041D02*
Y041805D01*
X030217Y031708D02*
Y032108D01*
X030017Y031908D02*
X030417D01*
X029917Y032907D02*
X030517D01*
Y033207D01*
X030417Y033307D01*
X030317D01*
X030217Y033207D01*
Y032907D01*
Y033207D01*
X030117Y033307D01*
X030017D01*
X029917Y033207D01*
Y032907D01*
X030517Y033507D02*
X030117D01*
X029917Y033707D01*
X030117Y033907D01*
X030517D01*
X030217D01*
Y033507D01*
X029917Y034107D02*
Y034507D01*
Y034307D01*
X030517D01*
X050657Y033958D02*
Y033558D01*
X050857Y033758D02*
X050457D01*
X050857Y032358D02*
X050957Y032458D01*
Y032658D01*
X050857Y032758D01*
X050757D01*
X050657Y032658D01*
Y032458D01*
X050557Y032358D01*
X050457D01*
X050357Y032458D01*
Y032658D01*
X050457Y032758D01*
X050957Y031858D02*
Y032058D01*
X050857Y032158D01*
X050457D01*
X050357Y032058D01*
Y031858D01*
X050457Y031758D01*
X050857D01*
X050957Y031858D01*
Y031559D02*
X050357D01*
Y031159D01*
Y030959D02*
X050757D01*
X050957Y030759D01*
X050757Y030559D01*
X050357D01*
X050657D01*
Y030959D01*
X050357Y030359D02*
X050957D01*
Y030059D01*
X050857Y029959D01*
X050657D01*
X050557Y030059D01*
Y030359D01*
Y030159D02*
X050357Y029959D01*
X029457Y041248D02*
X029357Y041148D01*
Y040948D01*
X029457Y040848D01*
X029857D01*
X029957Y040948D01*
Y041148D01*
X029857Y041248D01*
X029657D01*
Y041048D01*
X050947Y040748D02*
X051047Y040848D01*
Y041048D01*
X050947Y041148D01*
X050547D01*
X050447Y041048D01*
Y040848D01*
X050547Y040748D01*
X050747D01*
Y040948D01*
D12*
X04878Y00935D02*
X049058Y009629D01*
X049197Y00949D01*
Y009397D01*
X049104Y009304D01*
X049011D01*
X048872Y009443D01*
X048965Y00935D02*
Y009165D01*
X049522D02*
X049336Y00935D01*
X049058Y009072D01*
X049243Y008887D01*
X049197Y009211D02*
X04929Y009118D01*
X049614Y009072D02*
X049336Y008794D01*
X049475Y008655D01*
X049568Y008655D01*
X049754Y00884D01*
X049754Y008933D01*
X049614Y009072D01*
X05042Y010416D02*
X050374Y01037D01*
Y010184D01*
X05056D01*
X050606Y010231D01*
X050374Y010184D02*
X050235Y010045D01*
X050884Y009952D02*
X050699Y010138D01*
X05042Y009859D01*
X050606Y009674D01*
X05056Y009999D02*
X050652Y009906D01*
X050977Y009859D02*
X050699Y009581D01*
X050884Y009396D01*
X051255Y009581D02*
X050977Y009303D01*
X051163Y009117D01*
X051673Y009164D02*
X05158Y009257D01*
X051487D01*
X051302Y009071D01*
Y008978D01*
X051394Y008885D01*
X051487Y008885D01*
X051673Y009071D01*
X051673Y009164D01*
X051812Y009025D02*
X051534Y008746D01*
X051719D01*
Y008561D01*
X051997Y008839D01*
X052404Y010219D02*
X052126Y009941D01*
X052265Y009802D01*
X052358D01*
X052404Y009848D01*
X052404Y009941D01*
X052265Y01008D01*
X052404Y009941D01*
X052497D01*
X052543Y009987D01*
Y01008D01*
X052404Y010219D01*
X052683Y009941D02*
X052404Y009663D01*
X05259Y009477D01*
X052683Y009384D02*
X052868Y00957D01*
X053054Y00957D01*
X053054Y009384D01*
X052868Y009199D01*
X053007Y009338D01*
X052822Y009524D01*
X053378Y009152D02*
X053378Y009245D01*
X053286Y009338D01*
X053193D01*
X053007Y009152D01*
Y00906D01*
X0531Y008967D01*
X053193Y008967D01*
X053517Y009106D02*
X053239Y008828D01*
X053332Y008921D01*
X053703D01*
X053425D01*
X053425Y008642D01*
X045255Y010219D02*
X044976Y009941D01*
X045115Y009802D01*
X045208D01*
X045255Y009848D01*
X045255Y009941D01*
X045115Y01008D01*
X045255Y009941D01*
X045347D01*
X045394Y009987D01*
Y01008D01*
X045255Y010219D01*
X045533Y009941D02*
X045255Y009663D01*
X04544Y009477D01*
X045533Y009384D02*
X045718Y00957D01*
X045904Y00957D01*
X045904Y009384D01*
X045718Y009199D01*
X045858Y009338D01*
X045672Y009524D01*
X046229Y009152D02*
X046229Y009245D01*
X046136Y009338D01*
X046043D01*
X045858Y009152D01*
Y00906D01*
X04595Y008967D01*
X046043Y008967D01*
X046368Y009106D02*
X04609Y008828D01*
X046182Y008921D01*
X046553D01*
X046275D01*
X046275Y008642D01*
X043271Y010416D02*
X043224Y01037D01*
Y010184D01*
X04341D01*
X043456Y010231D01*
X043224Y010184D02*
X043085Y010045D01*
X043735Y009952D02*
X043549Y010138D01*
X043271Y009859D01*
X043456Y009674D01*
X04341Y009999D02*
X043503Y009906D01*
X043827Y009859D02*
X043549Y009581D01*
X043735Y009396D01*
X044106Y009581D02*
X043827Y009303D01*
X044013Y009117D01*
X044523Y009164D02*
X04443Y009257D01*
X044338D01*
X044152Y009071D01*
Y008978D01*
X044245Y008885D01*
X044338Y008885D01*
X044523Y009071D01*
X044523Y009164D01*
X044662Y009025D02*
X044384Y008746D01*
X04457D01*
Y008561D01*
X044848Y008839D01*
X04163Y00935D02*
X041908Y009629D01*
X042047Y00949D01*
Y009397D01*
X041955Y009304D01*
X041862D01*
X041723Y009443D01*
X041815Y00935D02*
Y009165D01*
X042372D02*
X042186Y00935D01*
X041908Y009072D01*
X042094Y008887D01*
X042047Y009211D02*
X04214Y009118D01*
X042465Y009072D02*
X042186Y008794D01*
X042326Y008655D01*
X042418Y008655D01*
X042604Y00884D01*
X042604Y008933D01*
X042465Y009072D01*
X051931Y021903D02*
X051852Y021825D01*
Y021667D01*
X051931Y021589D01*
X05201D01*
X052088Y021667D01*
Y021825D01*
X052167Y021903D01*
X052246D01*
X052324Y021825D01*
Y021667D01*
X052246Y021589D01*
X051852Y022061D02*
X052324D01*
X052088D01*
Y022376D01*
X051852D01*
X052324D01*
X051852Y022533D02*
Y022848D01*
Y022691D01*
X052324D01*
X051931Y023005D02*
X051852Y023084D01*
Y023242D01*
X051931Y02332D01*
X05201D01*
X052088Y023242D01*
Y023163D01*
Y023242D01*
X052167Y02332D01*
X052246D01*
X052324Y023242D01*
Y023084D01*
X052246Y023005D01*
X051931Y023478D02*
X051852Y023556D01*
Y023714D01*
X051931Y023793D01*
X052246D01*
X052324Y023714D01*
Y023556D01*
X052246Y023478D01*
X051931D01*
X051852Y024422D02*
X052324D01*
X052088D01*
Y024737D01*
X051852D01*
X052324D01*
X05201Y024895D02*
X052246D01*
X052324Y024973D01*
Y025209D01*
X05201D01*
X052324Y025367D02*
X05201D01*
Y025446D01*
X052088Y025524D01*
X052324D01*
X052088D01*
X05201Y025603D01*
X052088Y025682D01*
X052324D01*
X051852Y026154D02*
X052324D01*
Y025918D01*
X052246Y025839D01*
X052088D01*
X05201Y025918D01*
Y026154D01*
X051931Y012903D02*
X051852Y012825D01*
Y012667D01*
X051931Y012589D01*
X05201D01*
X052088Y012667D01*
Y012825D01*
X052167Y012903D01*
X052246D01*
X052324Y012825D01*
Y012667D01*
X052246Y012589D01*
X051852Y013061D02*
X052324D01*
X052088D01*
Y013376D01*
X051852D01*
X052324D01*
X051852Y013533D02*
Y013848D01*
Y013691D01*
X052324D01*
X051931Y014005D02*
X051852Y014084D01*
Y014242D01*
X051931Y01432D01*
X05201D01*
X052088Y014242D01*
Y014163D01*
Y014242D01*
X052167Y01432D01*
X052246D01*
X052324Y014242D01*
Y014084D01*
X052246Y014005D01*
X051931Y014478D02*
X051852Y014556D01*
Y014714D01*
X051931Y014793D01*
X052246D01*
X052324Y014714D01*
Y014556D01*
X052246Y014478D01*
X051931D01*
Y015737D02*
X051852Y015658D01*
Y015501D01*
X051931Y015422D01*
X05201D01*
X052088Y015501D01*
Y015658D01*
X052167Y015737D01*
X052246D01*
X052324Y015658D01*
Y015501D01*
X052246Y015422D01*
X052324Y015973D02*
Y016131D01*
X052246Y016209D01*
X052088D01*
X05201Y016131D01*
Y015973D01*
X052088Y015895D01*
X052246D01*
X052324Y015973D01*
Y016367D02*
Y016524D01*
Y016446D01*
X05201D01*
Y016367D01*
X052324Y01676D02*
Y016918D01*
Y016839D01*
X051852D01*
Y01676D01*
X048824Y010967D02*
Y011281D01*
X048982Y011439D01*
X049139Y011281D01*
Y010967D01*
Y011203D01*
X048824D01*
X049297Y010967D02*
X049454D01*
X049375D01*
Y011281D01*
X049297D01*
X04969D02*
Y010967D01*
Y011124D01*
X049769Y011203D01*
X049848Y011281D01*
X049926D01*
X050163Y010967D02*
Y011045D01*
X050241D01*
Y010967D01*
X050163D01*
X050556D02*
Y011439D01*
X050792D01*
X050871Y01136D01*
Y011203D01*
X050792Y011124D01*
X050556D01*
X041824Y011439D02*
Y010967D01*
X041982Y011124D01*
X042139Y010967D01*
Y011439D01*
X042375Y011281D02*
X042533D01*
X042612Y011203D01*
Y010967D01*
X042375D01*
X042297Y011045D01*
X042375Y011124D01*
X042612D01*
X042848Y01136D02*
Y011281D01*
X042769D01*
X042926D01*
X042848D01*
Y011045D01*
X042926Y010967D01*
X043399D02*
X043241D01*
X043163Y011045D01*
Y011203D01*
X043241Y011281D01*
X043399D01*
X043477Y011203D01*
Y011124D01*
X043163D01*
X043635Y011281D02*
Y010967D01*
Y011124D01*
X043714Y011203D01*
X043792Y011281D01*
X043871D01*
X044107Y010967D02*
Y011045D01*
X044186D01*
Y010967D01*
X044107D01*
X044501D02*
Y011439D01*
X044737D01*
X044816Y01136D01*
Y011203D01*
X044737Y011124D01*
X044501D01*
X036324Y011439D02*
Y010967D01*
X036482Y011124D01*
X036639Y010967D01*
Y011439D01*
X036797Y010967D02*
Y011045D01*
X036875D01*
Y010967D01*
X036797D01*
X037505Y01136D02*
X037426Y011439D01*
X037269D01*
X03719Y01136D01*
Y011281D01*
X037269Y011203D01*
X037426D01*
X037505Y011124D01*
Y011045D01*
X037426Y010967D01*
X037269D01*
X03719Y011045D01*
X037663Y010809D02*
Y011281D01*
X037899D01*
X037977Y011203D01*
Y011045D01*
X037899Y010967D01*
X037663D01*
X038371D02*
X038214D01*
X038135Y011045D01*
Y011203D01*
X038214Y011281D01*
X038371D01*
X03845Y011203D01*
Y011124D01*
X038135D01*
X038843Y010967D02*
X038686D01*
X038607Y011045D01*
Y011203D01*
X038686Y011281D01*
X038843D01*
X038922Y011203D01*
Y011124D01*
X038607D01*
X039394Y011439D02*
Y010967D01*
X039158D01*
X039079Y011045D01*
Y011203D01*
X039158Y011281D01*
X039394D01*
X029324Y011439D02*
Y010967D01*
X029482Y011124D01*
X029639Y010967D01*
Y011439D01*
X029797Y010967D02*
Y011045D01*
X029875D01*
Y010967D01*
X029797D01*
X03019Y011439D02*
Y010967D01*
X030426D01*
X030505Y011045D01*
Y01136D01*
X030426Y011439D01*
X03019D01*
X030663Y010967D02*
X03082D01*
X030741D01*
Y011281D01*
X030663D01*
X031056D02*
Y010967D01*
Y011124D01*
X031135Y011203D01*
X031214Y011281D01*
X031292D01*
X031765Y010967D02*
X031607D01*
X031528Y011045D01*
Y011203D01*
X031607Y011281D01*
X031765D01*
X031843Y011203D01*
Y011124D01*
X031528D01*
X032316Y011281D02*
X032079D01*
X032001Y011203D01*
Y011045D01*
X032079Y010967D01*
X032316D01*
X032552Y01136D02*
Y011281D01*
X032473D01*
X03263D01*
X032552D01*
Y011045D01*
X03263Y010967D01*
X028494Y022005D02*
X028021D01*
Y021769D01*
X0281Y02169D01*
X028415D01*
X028494Y021769D01*
Y022005D01*
X028415Y021218D02*
X028494Y021297D01*
Y021454D01*
X028415Y021533D01*
X028336D01*
X028257Y021454D01*
Y021297D01*
X028179Y021218D01*
X0281D01*
X028021Y021297D01*
Y021454D01*
X0281Y021533D01*
X028021Y021061D02*
Y020903D01*
Y020982D01*
X028494D01*
X028415Y021061D01*
Y020667D02*
X028494Y020588D01*
Y020431D01*
X028415Y020352D01*
X028336D01*
X028257Y020431D01*
X028179Y020352D01*
X0281D01*
X028021Y020431D01*
Y020588D01*
X0281Y020667D01*
X028179D01*
X028257Y020588D01*
X028336Y020667D01*
X028415D01*
X028257Y020588D02*
Y020431D01*
X028494Y020195D02*
X028021D01*
Y019959D01*
X0281Y01988D01*
X028179D01*
X028257Y019959D01*
Y020195D01*
Y019959D01*
X028336Y01988D01*
X028415D01*
X028494Y019959D01*
Y020195D01*
X028021Y019408D02*
Y019723D01*
X028336Y019408D01*
X028415D01*
X028494Y019486D01*
Y019644D01*
X028415Y019723D01*
Y01925D02*
X028494Y019172D01*
Y019014D01*
X028415Y018935D01*
X0281D01*
X028021Y019014D01*
Y019172D01*
X0281Y01925D01*
X028415D01*
X028494Y014967D02*
X028021D01*
Y01473D01*
X0281Y014652D01*
X028415D01*
X028494Y01473D01*
Y014967D01*
X028415Y014179D02*
X028494Y014258D01*
Y014416D01*
X028415Y014494D01*
X028336D01*
X028257Y014416D01*
Y014258D01*
X028179Y014179D01*
X0281D01*
X028021Y014258D01*
Y014416D01*
X0281Y014494D01*
X028021Y014022D02*
Y013865D01*
Y013943D01*
X028494D01*
X028415Y014022D01*
Y013628D02*
X028494Y01355D01*
Y013392D01*
X028415Y013314D01*
X028336D01*
X028257Y013392D01*
X028179Y013314D01*
X0281D01*
X028021Y013392D01*
Y01355D01*
X0281Y013628D01*
X028179D01*
X028257Y01355D01*
X028336Y013628D01*
X028415D01*
X028257Y01355D02*
Y013392D01*
X028494Y013156D02*
X028021D01*
Y01292D01*
X0281Y012841D01*
X028179D01*
X028257Y01292D01*
Y013156D01*
Y01292D01*
X028336Y012841D01*
X028415D01*
X028494Y01292D01*
Y013156D01*
X028021Y012369D02*
Y012684D01*
X028336Y012369D01*
X028415D01*
X028494Y012448D01*
Y012605D01*
X028415Y012684D01*
Y012212D02*
X028494Y012133D01*
Y011975D01*
X028415Y011897D01*
X0281D01*
X028021Y011975D01*
Y012133D01*
X0281Y012212D01*
X028415D01*
X035008Y008613D02*
X03473Y008891D01*
X034869Y00903D01*
X034962D01*
X035055Y008938D01*
Y008845D01*
X034915Y008706D01*
X035008Y008799D02*
X035194D01*
Y009355D02*
X035008Y00917D01*
X035287Y008891D01*
X035472Y009077D01*
X035147Y00903D02*
X03524Y009123D01*
X035287Y009448D02*
X035565Y00917D01*
X035704Y009309D01*
X035704Y009402D01*
X035518Y009587D01*
X035426Y009587D01*
X035287Y009448D01*
X03673Y008891D02*
X036776Y008845D01*
X036962D01*
Y00903D01*
X036915Y009077D01*
X036962Y008845D02*
X037101Y008706D01*
X037194Y009355D02*
X037008Y00917D01*
X037287Y008891D01*
X037472Y009077D01*
X037147Y00903D02*
X03724Y009123D01*
X037287Y009448D02*
X037565Y00917D01*
X03775Y009355D01*
X037565Y009726D02*
X037843Y009448D01*
X038029Y009633D01*
X037982Y010144D02*
X03789Y010051D01*
Y009958D01*
X038075Y009773D01*
X038168D01*
X038261Y009865D01*
X038261Y009958D01*
X038075Y010144D01*
X037982Y010144D01*
X038121Y010283D02*
X0384Y010004D01*
Y01019D01*
X038585D01*
X038307Y010468D01*
X03873Y008891D02*
X039008Y008613D01*
X039147Y008752D01*
Y008845D01*
X039101Y008891D01*
X039008Y008891D01*
X038869Y008752D01*
X039008Y008891D01*
Y008984D01*
X038962Y00903D01*
X038869D01*
X03873Y008891D01*
X039008Y00917D02*
X039287Y008891D01*
X039472Y009077D01*
X039565Y00917D02*
X039379Y009355D01*
X039379Y009541D01*
X039565Y009541D01*
X03975Y009355D01*
X039611Y009494D01*
X039426Y009309D01*
X039797Y009865D02*
X039704Y009865D01*
X039611Y009773D01*
Y00968D01*
X039797Y009494D01*
X03989D01*
X039982Y009587D01*
X039982Y00968D01*
X039843Y010004D02*
X040121Y009726D01*
X040029Y009819D01*
Y01019D01*
Y009912D01*
X040307Y009912D01*
X033824Y025967D02*
Y02636D01*
X034021D01*
X034087Y026295D01*
Y026163D01*
X034021Y026098D01*
X033824D01*
X033956D02*
X034087Y025967D01*
X03448Y02636D02*
X034218D01*
Y025967D01*
X03448D01*
X034218Y026163D02*
X034349D01*
X034874Y026295D02*
X034808Y02636D01*
X034677D01*
X034612Y026295D01*
Y026229D01*
X034677Y026163D01*
X034808D01*
X034874Y026098D01*
Y026032D01*
X034808Y025967D01*
X034677D01*
X034612Y026032D01*
X035268Y02636D02*
X035005D01*
Y025967D01*
X035268D01*
X035005Y026163D02*
X035136D01*
X035399Y02636D02*
X035661D01*
X03553D01*
Y025967D01*
X036763Y013941D02*
X036501D01*
Y013744D01*
X036632D01*
X036501D01*
Y013547D01*
X036894Y013941D02*
Y013613D01*
X03696Y013547D01*
X037091D01*
X037157Y013613D01*
Y013941D01*
X037288Y013547D02*
Y013941D01*
X03755Y013547D01*
Y013941D01*
X037944Y013875D02*
X037878Y013941D01*
X037747D01*
X037682Y013875D01*
Y013613D01*
X037747Y013547D01*
X037878D01*
X037944Y013613D01*
X03158Y008891D02*
X031859Y008613D01*
X031998Y008752D01*
Y008845D01*
X031951Y008891D01*
X031859Y008891D01*
X031719Y008752D01*
X031859Y008891D01*
Y008984D01*
X031812Y00903D01*
X031719D01*
X03158Y008891D01*
X031859Y00917D02*
X032137Y008891D01*
X032322Y009077D01*
X032415Y00917D02*
X03223Y009355D01*
X03223Y009541D01*
X032415Y009541D01*
X032601Y009355D01*
X032462Y009494D01*
X032276Y009309D01*
X032647Y009865D02*
X032554Y009865D01*
X032462Y009773D01*
Y00968D01*
X032647Y009494D01*
X03274D01*
X032833Y009587D01*
X032833Y00968D01*
X032694Y010004D02*
X032972Y009726D01*
X032879Y009819D01*
Y01019D01*
Y009912D01*
X033157Y009912D01*
X02958Y008891D02*
X029627Y008845D01*
X029812D01*
Y00903D01*
X029766Y009077D01*
X029812Y008845D02*
X029951Y008706D01*
X030044Y009355D02*
X029859Y00917D01*
X030137Y008891D01*
X030322Y009077D01*
X029998Y00903D02*
X030091Y009123D01*
X030137Y009448D02*
X030415Y00917D01*
X030601Y009355D01*
X030415Y009726D02*
X030694Y009448D01*
X030879Y009633D01*
X030833Y010144D02*
X03074Y010051D01*
Y009958D01*
X030925Y009773D01*
X031018D01*
X031111Y009865D01*
X031111Y009958D01*
X030925Y010144D01*
X030833Y010144D01*
X030972Y010283D02*
X03125Y010004D01*
Y01019D01*
X031436D01*
X031157Y010468D01*
X027859Y008613D02*
X02758Y008891D01*
X027719Y00903D01*
X027812D01*
X027905Y008938D01*
Y008845D01*
X027766Y008706D01*
X027859Y008799D02*
X028044D01*
Y009355D02*
X027859Y00917D01*
X028137Y008891D01*
X028322Y009077D01*
X027998Y00903D02*
X028091Y009123D01*
X028137Y009448D02*
X028415Y00917D01*
X028554Y009309D01*
X028554Y009402D01*
X028369Y009587D01*
X028276Y009587D01*
X028137Y009448D01*
X053116Y012038D02*
X052838Y01176D01*
X052977Y011621D01*
X05307D01*
X053116Y011667D01*
X053116Y01176D01*
X052977Y011899D01*
X053116Y01176D01*
X053209D01*
X053256Y011806D01*
Y011899D01*
X053116Y012038D01*
Y011481D02*
X053395Y01176D01*
X053534Y011621D01*
X053534Y011528D01*
X053441Y011435D01*
X053348D01*
X053209Y011574D01*
X053302Y011481D02*
Y011296D01*
X053812Y011342D02*
X053719Y011435D01*
X053627D01*
X053441Y011249D01*
Y011157D01*
X053534Y011064D01*
X053627Y011064D01*
X053812Y011249D01*
X053812Y011342D01*
X053951Y011203D02*
X053673Y010925D01*
X053859D01*
Y010739D01*
X054137Y011018D01*
X053951Y010646D02*
X05423Y010925D01*
X054137Y010461D01*
X054415Y010739D01*
X05292Y014235D02*
X052873Y014188D01*
Y014003D01*
X053059D01*
X053105Y014049D01*
X052873Y014003D02*
X052734Y013864D01*
X053383Y013771D02*
X053198Y013957D01*
X05292Y013678D01*
X053105Y013493D01*
X053059Y013817D02*
X053152Y013725D01*
X053476Y013678D02*
X053198Y0134D01*
X053383Y013214D01*
X053755Y0134D02*
X053476Y013122D01*
X053662Y012936D01*
X054172Y012982D02*
X054079Y013075D01*
X053986D01*
X053801Y01289D01*
Y012797D01*
X053894Y012704D01*
X053986Y012704D01*
X054172Y01289D01*
X054172Y012982D01*
X054311Y012843D02*
X054033Y012565D01*
X054218D01*
Y01238D01*
X054497Y012658D01*
X05351Y015841D02*
X053232Y015563D01*
X053371Y015424D01*
X053464D01*
X05351Y01547D01*
X05351Y015563D01*
X053371Y015702D01*
X05351Y015563D01*
X053603D01*
X053649Y015609D01*
Y015702D01*
X05351Y015841D01*
X053788Y015563D02*
X05351Y015285D01*
X053696Y015099D01*
X054067Y015285D02*
X053835Y015053D01*
Y01496D01*
X053928Y014867D01*
X05402Y014867D01*
X054252Y015099D01*
X054531Y014821D02*
X054345Y015006D01*
X054067Y014728D01*
X054252Y014542D01*
X054206Y014867D02*
X054299Y014774D01*
X053116Y018038D02*
X052838Y01776D01*
X052977Y017621D01*
X05307D01*
X053116Y017667D01*
X053116Y01776D01*
X052977Y017899D01*
X053116Y01776D01*
X053209D01*
X053256Y017806D01*
Y017899D01*
X053116Y018038D01*
X053395Y01776D02*
X053116Y017481D01*
X053302Y017296D01*
X053395Y017203D02*
X05358Y017389D01*
X053766Y017389D01*
X053766Y017203D01*
X05358Y017018D01*
X053719Y017157D01*
X053534Y017342D01*
X054091Y016971D02*
X054091Y017064D01*
X053998Y017157D01*
X053905D01*
X053719Y016971D01*
Y016878D01*
X053812Y016786D01*
X053905Y016786D01*
X05423Y016925D02*
X053951Y016646D01*
X054044Y016739D01*
X054415D01*
X054137D01*
X054137Y016461D01*
X053116Y021188D02*
X052838Y020909D01*
X052977Y02077D01*
X05307D01*
X053116Y020817D01*
X053116Y020909D01*
X052977Y021048D01*
X053116Y020909D01*
X053209D01*
X053256Y020956D01*
Y021048D01*
X053116Y021188D01*
Y020631D02*
X053395Y020909D01*
X053534Y02077D01*
X053534Y020677D01*
X053441Y020585D01*
X053348D01*
X053209Y020724D01*
X053302Y020631D02*
Y020445D01*
X053812Y020492D02*
X053719Y020585D01*
X053627D01*
X053441Y020399D01*
Y020306D01*
X053534Y020214D01*
X053627Y020214D01*
X053812Y020399D01*
X053812Y020492D01*
X053951Y020353D02*
X053673Y020074D01*
X053859D01*
Y019889D01*
X054137Y020167D01*
X053951Y019796D02*
X05423Y020074D01*
X054137Y019611D01*
X054415Y019889D01*
X05292Y023384D02*
X052873Y023338D01*
Y023153D01*
X053059D01*
X053105Y023199D01*
X052873Y023153D02*
X052734Y023013D01*
X053383Y022921D02*
X053198Y023106D01*
X05292Y022828D01*
X053105Y022642D01*
X053059Y022967D02*
X053152Y022874D01*
X053476Y022828D02*
X053198Y02255D01*
X053383Y022364D01*
X053755Y02255D02*
X053476Y022271D01*
X053662Y022086D01*
X054172Y022132D02*
X054079Y022225D01*
X053986D01*
X053801Y022039D01*
Y021947D01*
X053894Y021854D01*
X053986Y021854D01*
X054172Y022039D01*
X054172Y022132D01*
X054311Y021993D02*
X054033Y021715D01*
X054218D01*
Y021529D01*
X054497Y021807D01*
X05351Y024991D02*
X053232Y024712D01*
X053371Y024573D01*
X053464D01*
X05351Y02462D01*
X05351Y024712D01*
X053371Y024852D01*
X05351Y024712D01*
X053603D01*
X053649Y024759D01*
Y024852D01*
X05351Y024991D01*
X053788Y024712D02*
X05351Y024434D01*
X053696Y024249D01*
X054067Y024434D02*
X053835Y024202D01*
Y024109D01*
X053928Y024017D01*
X05402Y024017D01*
X054252Y024249D01*
X054531Y02397D02*
X054345Y024156D01*
X054067Y023878D01*
X054252Y023692D01*
X054206Y024017D02*
X054299Y023924D01*
X053116Y027188D02*
X052838Y026909D01*
X052977Y02677D01*
X05307D01*
X053116Y026817D01*
X053116Y026909D01*
X052977Y027048D01*
X053116Y026909D01*
X053209D01*
X053256Y026956D01*
Y027048D01*
X053116Y027188D01*
X053395Y026909D02*
X053116Y026631D01*
X053302Y026445D01*
X053395Y026353D02*
X05358Y026538D01*
X053766Y026538D01*
X053766Y026353D01*
X05358Y026167D01*
X053719Y026306D01*
X053534Y026492D01*
X054091Y026121D02*
X054091Y026214D01*
X053998Y026306D01*
X053905D01*
X053719Y026121D01*
Y026028D01*
X053812Y025935D01*
X053905Y025935D01*
X05423Y026074D02*
X053951Y025796D01*
X054044Y025889D01*
X054415D01*
X054137D01*
X054137Y025611D01*
X025922Y009946D02*
X025644Y010224D01*
X025783Y010364D01*
X025876D01*
X025968Y010271D01*
Y010178D01*
X025829Y010039D01*
X025922Y010132D02*
X026108D01*
Y010688D02*
X025922Y010503D01*
X0262Y010224D01*
X026386Y01041D01*
X026061Y010364D02*
X026154Y010456D01*
X0262Y010781D02*
X026479Y010503D01*
X026618Y010642D01*
X026618Y010735D01*
X026432Y01092D01*
X026339Y01092D01*
X0262Y010781D01*
X025644Y012224D02*
X02569Y012178D01*
X025876D01*
Y012364D01*
X025829Y01241D01*
X025876Y012178D02*
X026015Y012039D01*
X026108Y012688D02*
X025922Y012503D01*
X0262Y012224D01*
X026386Y01241D01*
X026061Y012364D02*
X026154Y012456D01*
X0262Y012781D02*
X026479Y012503D01*
X026664Y012688D01*
X026479Y013059D02*
X026757Y012781D01*
X026942Y012967D01*
X026896Y013477D02*
X026803Y013384D01*
Y013291D01*
X026989Y013106D01*
X027082D01*
X027174Y013198D01*
X027174Y013291D01*
X026989Y013477D01*
X026896Y013477D01*
X027035Y013616D02*
X027314Y013338D01*
Y013523D01*
X027499D01*
X027221Y013801D01*
X025644Y014224D02*
X025922Y013946D01*
X026061Y014085D01*
Y014178D01*
X026015Y014224D01*
X025922Y014224D01*
X025783Y014085D01*
X025922Y014224D01*
Y014317D01*
X025876Y014364D01*
X025783D01*
X025644Y014224D01*
X025922Y014503D02*
X0262Y014224D01*
X026386Y01441D01*
X026479Y014503D02*
X026293Y014688D01*
X026293Y014874D01*
X026479Y014874D01*
X026664Y014688D01*
X026525Y014827D01*
X026339Y014642D01*
X026711Y015198D02*
X026618Y015198D01*
X026525Y015106D01*
Y015013D01*
X026711Y014827D01*
X026803D01*
X026896Y01492D01*
X026896Y015013D01*
X026757Y015338D02*
X027035Y015059D01*
X026942Y015152D01*
Y015523D01*
Y015245D01*
X027221Y015245D01*
X025922Y017064D02*
X025644Y017343D01*
X025783Y017482D01*
X025876D01*
X025968Y017389D01*
Y017296D01*
X025829Y017157D01*
X025922Y01725D02*
X026108D01*
Y017806D02*
X025922Y017621D01*
X0262Y017343D01*
X026386Y017528D01*
X026061Y017482D02*
X026154Y017574D01*
X0262Y017899D02*
X026479Y017621D01*
X026618Y01776D01*
X026618Y017853D01*
X026432Y018038D01*
X026339Y018038D01*
X0262Y017899D01*
X025644Y019343D02*
X02569Y019296D01*
X025876D01*
Y019482D01*
X025829Y019528D01*
X025876Y019296D02*
X026015Y019157D01*
X026108Y019806D02*
X025922Y019621D01*
X0262Y019343D01*
X026386Y019528D01*
X026061Y019482D02*
X026154Y019574D01*
X0262Y019899D02*
X026479Y019621D01*
X026664Y019806D01*
X026479Y020177D02*
X026757Y019899D01*
X026942Y020085D01*
X026896Y020595D02*
X026803Y020502D01*
Y020409D01*
X026989Y020224D01*
X027082D01*
X027174Y020317D01*
X027174Y020409D01*
X026989Y020595D01*
X026896Y020595D01*
X027035Y020734D02*
X027314Y020456D01*
Y020641D01*
X027499D01*
X027221Y02092D01*
X025644Y021343D02*
X025922Y021064D01*
X026061Y021203D01*
Y021296D01*
X026015Y021343D01*
X025922Y021343D01*
X025783Y021203D01*
X025922Y021343D01*
Y021435D01*
X025876Y021482D01*
X025783D01*
X025644Y021343D01*
X025922Y021621D02*
X0262Y021343D01*
X026386Y021528D01*
X026479Y021621D02*
X026293Y021806D01*
X026293Y021992D01*
X026479Y021992D01*
X026664Y021806D01*
X026525Y021946D01*
X026339Y02176D01*
X026711Y022317D02*
X026618Y022317D01*
X026525Y022224D01*
Y022131D01*
X026711Y021946D01*
X026803D01*
X026896Y022038D01*
X026896Y022131D01*
X026757Y022456D02*
X027035Y022177D01*
X026942Y02227D01*
Y022641D01*
Y022363D01*
X027221Y022363D01*
M02*
