G04*
G04 #@! TF.GenerationSoftware,Altium Limited,Altium Designer,19.0.13 (425)*
G04*
G04 Layer_Color=1930808*
%FSTAX24Y24*%
%MOIN*%
G70*
G01*
G75*
%ADD29C,0.0020*%
D29*
X023147Y005217D02*
G03*
X023147Y005217I-000622J0D01*
G01*
X023625D02*
G03*
X023625Y005217I-0011J0D01*
G01*
X05858D02*
G03*
X05858Y005217I-000622J0D01*
G01*
X059058D02*
G03*
X059058Y005217I-0011J0D01*
G01*
Y04065D02*
G03*
X059058Y04065I-0011J0D01*
G01*
X05858D02*
G03*
X05858Y04065I-000622J0D01*
G01*
X023625D02*
G03*
X023625Y04065I-0011J0D01*
G01*
X023147D02*
G03*
X023147Y04065I-000622J0D01*
G01*
X027328Y03876D02*
G03*
X027328Y03876I-000867J0D01*
G01*
Y035925D02*
G03*
X027328Y035925I-000867J0D01*
G01*
X054888Y03876D02*
G03*
X054888Y03876I-000867J0D01*
G01*
Y035925D02*
G03*
X054888Y035925I-000867J0D01*
G01*
X028454Y027041D02*
X052076D01*
X028454D02*
Y041805D01*
X052076D01*
Y027041D02*
Y041805D01*
X022524Y005217D02*
X023144D01*
X022524Y004597D02*
Y005217D01*
X021904D02*
X022524D01*
Y005837D01*
X057957Y005217D02*
X058577D01*
X057957Y004597D02*
Y005217D01*
X057337D02*
X057957D01*
Y005837D01*
Y04065D02*
Y04127D01*
X057337Y04065D02*
X057957D01*
Y04003D02*
Y04065D01*
X058577D01*
X022524D02*
Y04127D01*
X021904Y04065D02*
X022524D01*
Y04003D02*
Y04065D01*
X023144D01*
X02591Y040394D02*
X027013D01*
X02591D02*
X027013D01*
X024867Y034291D02*
X028056D01*
X024867D02*
X028056D01*
X027013Y040394D02*
X028056Y039213D01*
X027013Y040394D02*
X028056Y039213D01*
X024867D02*
X02591Y040394D01*
X024867Y039213D02*
X02591Y040394D01*
X028056Y034291D02*
Y039213D01*
Y034291D02*
Y039213D01*
X024867Y034291D02*
Y039213D01*
Y034291D02*
Y039213D01*
X053469Y040394D02*
X054572D01*
X053469D02*
X054572D01*
X052426Y034291D02*
X055615D01*
X052426D02*
X055615D01*
X054572Y040394D02*
X055615Y039213D01*
X054572Y040394D02*
X055615Y039213D01*
X052426D02*
X053469Y040394D01*
X052426Y039213D02*
X053469Y040394D01*
X055615Y034291D02*
Y039213D01*
Y034291D02*
Y039213D01*
X052426Y034291D02*
Y039213D01*
Y034291D02*
Y039213D01*
M02*
