G04*
G04 #@! TF.GenerationSoftware,Altium Limited,Altium Designer,19.0.13 (425)*
G04*
G04 Layer_Color=32896*
%FSTAX24Y24*%
%MOIN*%
G70*
G01*
G75*
%ADD10C,0.0118*%
%ADD12C,0.0079*%
%ADD14C,0.0138*%
%ADD27C,0.0197*%
D10*
X02656Y04065D02*
G03*
X02656Y04065I-000059J0D01*
G01*
X054119D02*
G03*
X054119Y04065I-000059J0D01*
G01*
D12*
X027013Y040394D02*
X027367Y039992D01*
X027662Y039657D02*
X028056Y039213D01*
X025556Y039992D02*
X02591Y040394D01*
X024867Y039213D02*
X025261Y039657D01*
X02591Y040394D02*
X027013D01*
X028056Y034291D02*
Y039213D01*
X024867Y034291D02*
X028056D01*
X024867D02*
Y039213D01*
X054572Y040394D02*
X054926Y039992D01*
X055221Y039657D02*
X055615Y039213D01*
X053115Y039992D02*
X053469Y040394D01*
X052426Y039213D02*
X05282Y039657D01*
X053469Y040394D02*
X054572D01*
X055615Y034291D02*
Y039213D01*
X052426Y034291D02*
X055615D01*
X052426D02*
Y039213D01*
D14*
X050729Y020665D02*
X050827Y020763D01*
X051024D01*
X051122Y020665D01*
Y020567D01*
X051024Y020468D01*
X050827D01*
X050729Y02037D01*
Y020271D01*
X050827Y020173D01*
X051024D01*
X051122Y020271D01*
X050237Y020763D02*
X050433D01*
X050532Y020665D01*
Y020271D01*
X050433Y020173D01*
X050237D01*
X050138Y020271D01*
Y020665D01*
X050237Y020763D01*
X049941D02*
Y020173D01*
X049548D01*
X049351D02*
Y020567D01*
X049154Y020763D01*
X048957Y020567D01*
Y020173D01*
Y020468D01*
X049351D01*
X048761Y020173D02*
Y020763D01*
X048465D01*
X048367Y020665D01*
Y020468D01*
X048465Y02037D01*
X048761D01*
X048564D02*
X048367Y020173D01*
X04758D02*
Y020763D01*
X047285D01*
X047186Y020665D01*
Y020468D01*
X047285Y02037D01*
X04758D01*
X04699Y020173D02*
Y020567D01*
X046793Y020763D01*
X046596Y020567D01*
Y020173D01*
Y020468D01*
X04699D01*
X046399Y020173D02*
Y020763D01*
X046006Y020173D01*
Y020763D01*
X045415D02*
X045809D01*
Y020173D01*
X045415D01*
X045809Y020468D02*
X045612D01*
X045218Y020763D02*
Y020173D01*
X044825D01*
X044038D02*
Y020763D01*
X043841Y020567D01*
X043644Y020763D01*
Y020173D01*
X043447D02*
Y020567D01*
X043251Y020763D01*
X043054Y020567D01*
Y020173D01*
Y020468D01*
X043447D01*
X042857Y020763D02*
X042463Y020173D01*
Y020763D02*
X042857Y020173D01*
X041676D02*
Y020763D01*
X041381D01*
X041283Y020665D01*
Y020468D01*
X041381Y02037D01*
X041676D01*
X040791Y020763D02*
X040988D01*
X041086Y020665D01*
Y020271D01*
X040988Y020173D01*
X040791D01*
X040692Y020271D01*
Y020665D01*
X040791Y020763D01*
X040496D02*
Y020173D01*
X040299Y02037D01*
X040102Y020173D01*
Y020763D01*
X039512D02*
X039905D01*
Y020173D01*
X039512D01*
X039905Y020468D02*
X039708D01*
X039315Y020173D02*
Y020763D01*
X03902D01*
X038921Y020665D01*
Y020468D01*
X03902Y02037D01*
X039315D01*
X039118D02*
X038921Y020173D01*
X038134Y020763D02*
Y02037D01*
X037937Y020173D01*
X037741Y02037D01*
Y020763D01*
X037249D02*
X037445D01*
X037544Y020665D01*
Y020271D01*
X037445Y020173D01*
X037249D01*
X03715Y020271D01*
Y020665D01*
X037249Y020763D01*
X036953D02*
Y020173D01*
X03656D01*
X036363Y020763D02*
X03597D01*
X036166D01*
Y020173D01*
X035773D02*
Y020567D01*
X035576Y020763D01*
X035379Y020567D01*
Y020173D01*
Y020468D01*
X035773D01*
X034789Y020665D02*
X034887Y020763D01*
X035084D01*
X035182Y020665D01*
Y020271D01*
X035084Y020173D01*
X034887D01*
X034789Y020271D01*
Y020468D01*
X034986D01*
X034198Y020763D02*
X034592D01*
Y020173D01*
X034198D01*
X034592Y020468D02*
X034395D01*
X033411Y020567D02*
X033313D01*
Y020468D01*
X033411D01*
Y020567D01*
Y020271D02*
X033313D01*
Y020173D01*
X033411D01*
Y020271D01*
X032329Y020173D02*
X032132D01*
X032231D01*
Y020763D01*
X032329Y020665D01*
X031837D02*
X031739Y020763D01*
X031542D01*
X031443Y020665D01*
Y020567D01*
X031542Y020468D01*
X031443Y02037D01*
Y020271D01*
X031542Y020173D01*
X031739D01*
X031837Y020271D01*
Y02037D01*
X031739Y020468D01*
X031837Y020567D01*
Y020665D01*
X031739Y020468D02*
X031542D01*
X031247Y020173D02*
Y020271D01*
X031148D01*
Y020173D01*
X031247D01*
X030755Y020665D02*
X030656Y020763D01*
X030459D01*
X030361Y020665D01*
Y020271D01*
X030459Y020173D01*
X030656D01*
X030755Y020271D01*
Y020665D01*
X030164Y020763D02*
Y02037D01*
X029968Y020173D01*
X029771Y02037D01*
Y020763D01*
X051122Y019724D02*
Y019134D01*
X050729D01*
X050138Y019724D02*
X050532D01*
Y019134D01*
X050138D01*
X050532Y019429D02*
X050335D01*
X049941Y019134D02*
Y019527D01*
X049745Y019724D01*
X049548Y019527D01*
Y019134D01*
Y019429D01*
X049941D01*
X049351Y019724D02*
Y019134D01*
X049056D01*
X048957Y019232D01*
Y019626D01*
X049056Y019724D01*
X049351D01*
X04817Y019134D02*
Y019527D01*
X047973Y019724D01*
X047777Y019527D01*
Y019134D01*
Y019429D01*
X04817D01*
X047186Y019626D02*
X047285Y019724D01*
X047482D01*
X04758Y019626D01*
Y019232D01*
X047482Y019134D01*
X047285D01*
X047186Y019232D01*
X04699Y019724D02*
X046793D01*
X046891D01*
Y019134D01*
X04699D01*
X046793D01*
X046498Y019724D02*
Y019134D01*
X046202D01*
X046104Y019232D01*
Y019626D01*
X046202Y019724D01*
X046498D01*
X045317D02*
Y019134D01*
X045022D01*
X044923Y019232D01*
Y019331D01*
X045022Y019429D01*
X045317D01*
X045022D01*
X044923Y019527D01*
Y019626D01*
X045022Y019724D01*
X045317D01*
X044727Y019134D02*
Y019527D01*
X04453Y019724D01*
X044333Y019527D01*
Y019134D01*
Y019429D01*
X044727D01*
X044136Y019724D02*
X043743D01*
X043939D01*
Y019134D01*
X043546Y019724D02*
X043152D01*
X043349D01*
Y019134D01*
X042562Y019724D02*
X042955D01*
Y019134D01*
X042562D01*
X042955Y019429D02*
X042759D01*
X042365Y019134D02*
Y019724D01*
X04207D01*
X041971Y019626D01*
Y019429D01*
X04207Y019331D01*
X042365D01*
X042168D02*
X041971Y019134D01*
X041775Y019724D02*
Y019626D01*
X041578Y019429D01*
X041381Y019626D01*
Y019724D01*
X041578Y019429D02*
Y019134D01*
X040594Y019527D02*
X040496D01*
Y019429D01*
X040594D01*
Y019527D01*
Y019232D02*
X040496D01*
Y019134D01*
X040594D01*
Y019232D01*
X039512Y019134D02*
X039315D01*
X039413D01*
Y019724D01*
X039512Y019626D01*
X038626Y019134D02*
X03902D01*
X038626Y019527D01*
Y019626D01*
X038725Y019724D01*
X038921D01*
X03902Y019626D01*
X038429Y019724D02*
Y019331D01*
X038233Y019134D01*
X038036Y019331D01*
Y019724D01*
D27*
X055989Y034722D02*
X056776D01*
X056514Y034984D01*
X056776Y035247D01*
X055989D01*
Y035509D02*
X056514D01*
X056776Y035771D01*
X056514Y036034D01*
X055989D01*
X056383D01*
Y035509D01*
X056776Y036296D02*
X055989D01*
Y036821D01*
X056776Y037608D02*
Y037083D01*
X055989D01*
Y037608D01*
X056383Y037083D02*
Y037346D01*
X024296Y0375D02*
X023509D01*
X023771Y037238D01*
X023509Y036975D01*
X024296D01*
Y036713D02*
X023771D01*
X023509Y03645D01*
X023771Y036188D01*
X024296D01*
X023902D01*
Y036713D01*
X023509Y035926D02*
X024296D01*
Y035401D01*
X023509Y034614D02*
Y035139D01*
X024296D01*
Y034614D01*
X023902Y035139D02*
Y034876D01*
M02*
