G04*
G04 #@! TF.GenerationSoftware,Altium Limited,Altium Designer,19.0.13 (425)*
G04*
G04 Layer_Color=128*
%FSTAX24Y24*%
%MOIN*%
G70*
G01*
G75*
%ADD30C,0.0020*%
D30*
X02934Y03952D02*
X030127D01*
X029734Y039126D02*
Y039913D01*
X029832Y030583D02*
X030619D01*
X030226Y030189D02*
Y030976D01*
X050186Y039443D02*
X050974D01*
X05058Y039049D02*
Y039836D01*
X050186Y028616D02*
X050974D01*
X05058Y028222D02*
Y02901D01*
X021855Y005217D02*
X023194D01*
X022524Y004547D02*
Y005886D01*
X057288Y005217D02*
X058627D01*
X057957Y004547D02*
Y005886D01*
X057288Y04065D02*
X058627D01*
X057957Y03998D02*
Y041319D01*
X021855Y04065D02*
X023194D01*
X022524Y03998D02*
Y041319D01*
X054662Y026005D02*
X055646D01*
X055154Y025513D02*
Y026497D01*
X054662Y024005D02*
X055646D01*
X055154Y023513D02*
Y024497D01*
X054662Y022005D02*
X055646D01*
X055154Y021513D02*
Y022497D01*
X054662Y020005D02*
X055646D01*
X055154Y019513D02*
Y020497D01*
X054662Y016856D02*
X055646D01*
X055154Y016364D02*
Y017348D01*
X054662Y014856D02*
X055646D01*
X055154Y014364D02*
Y015348D01*
X054662Y012856D02*
X055646D01*
X055154Y012364D02*
Y013348D01*
X054662Y010856D02*
X055646D01*
X055154Y010364D02*
Y011348D01*
X053004Y007972D02*
X053988D01*
X053496Y00748D02*
Y008465D01*
X051004Y007972D02*
X051988D01*
X051496Y00748D02*
Y008465D01*
X049004Y007972D02*
X049988D01*
X049496Y00748D02*
Y008465D01*
X045854Y007972D02*
X046839D01*
X046346Y00748D02*
Y008465D01*
X043854Y007972D02*
X044839D01*
X044346Y00748D02*
Y008465D01*
X041854Y007972D02*
X042839D01*
X042346Y00748D02*
Y008465D01*
X038705Y007972D02*
X039689D01*
X039197Y00748D02*
Y008465D01*
X036705Y007972D02*
X037689D01*
X037197Y00748D02*
Y008465D01*
X034705Y007972D02*
X035689D01*
X035197Y00748D02*
Y008465D01*
X031555Y007972D02*
X032539D01*
X032047Y00748D02*
Y008465D01*
X027555Y007972D02*
X028539D01*
X028047Y00748D02*
Y008465D01*
X029555Y007972D02*
X030539D01*
X030047Y00748D02*
Y008465D01*
X024741Y009596D02*
X025725D01*
X025233Y009104D02*
Y010088D01*
X024741Y011596D02*
X025725D01*
X025233Y011104D02*
Y012088D01*
X024741Y013596D02*
X025725D01*
X025233Y013104D02*
Y014088D01*
X024741Y016714D02*
X025725D01*
X025233Y016222D02*
Y017206D01*
X024741Y018714D02*
X025725D01*
X025233Y018222D02*
Y019206D01*
X024741Y020714D02*
X025725D01*
X025233Y020222D02*
Y021206D01*
X038272Y01378D02*
X039454D01*
X038863Y013189D02*
Y01437D01*
X032134Y026D02*
X033315D01*
X032724Y025409D02*
Y02659D01*
X025576Y035925D02*
X027347D01*
X026461Y035039D02*
Y036811D01*
X025576Y03876D02*
X027347D01*
X026461Y037874D02*
Y039646D01*
X053135Y035925D02*
X054906D01*
X05402Y035039D02*
Y036811D01*
X053135Y03876D02*
X054906D01*
X05402Y037874D02*
Y039646D01*
X05545Y036395D02*
X055568D01*
X055509Y036336D02*
Y036454D01*
X05545Y035569D02*
X055568D01*
X055509Y03551D02*
Y035628D01*
X05545Y034742D02*
X055568D01*
X055509Y034683D02*
Y034801D01*
X05545Y033915D02*
X055568D01*
X055509Y033856D02*
Y033974D01*
X05545Y033088D02*
X055568D01*
X055509Y033029D02*
Y033147D01*
X05545Y032262D02*
X055568D01*
X055509Y032203D02*
Y032321D01*
X05545Y031435D02*
X055568D01*
X055509Y031376D02*
Y031494D01*
X05545Y030608D02*
X055568D01*
X055509Y030549D02*
Y030667D01*
X05545Y029781D02*
X055568D01*
X055509Y029722D02*
Y02984D01*
X05545Y028954D02*
X055568D01*
X055509Y028895D02*
Y029014D01*
X05545Y028128D02*
X055568D01*
X055509Y028069D02*
Y028187D01*
X05545Y027301D02*
X055568D01*
X055509Y027242D02*
Y02736D01*
X054623Y033915D02*
X054741D01*
X054682Y033856D02*
Y033974D01*
X054623Y033088D02*
X054741D01*
X054682Y033029D02*
Y033147D01*
X054623Y032262D02*
X054741D01*
X054682Y032203D02*
Y032321D01*
X054623Y031435D02*
X054741D01*
X054682Y031376D02*
Y031494D01*
X054623Y030608D02*
X054741D01*
X054682Y030549D02*
Y030667D01*
X054623Y029781D02*
X054741D01*
X054682Y029722D02*
Y02984D01*
X054623Y028954D02*
X054741D01*
X054682Y028895D02*
Y029014D01*
X054623Y028128D02*
X054741D01*
X054682Y028069D02*
Y028187D01*
X054623Y027301D02*
X054741D01*
X054682Y027242D02*
Y02736D01*
X053797Y033915D02*
X053915D01*
X053856Y033856D02*
Y033974D01*
X053797Y033088D02*
X053915D01*
X053856Y033029D02*
Y033147D01*
X053797Y032262D02*
X053915D01*
X053856Y032203D02*
Y032321D01*
X053797Y031435D02*
X053915D01*
X053856Y031376D02*
Y031494D01*
X053797Y030608D02*
X053915D01*
X053856Y030549D02*
Y030667D01*
X053797Y029781D02*
X053915D01*
X053856Y029722D02*
Y02984D01*
X053797Y028954D02*
X053915D01*
X053856Y028895D02*
Y029014D01*
X053797Y028128D02*
X053915D01*
X053856Y028069D02*
Y028187D01*
X053797Y027301D02*
X053915D01*
X053856Y027242D02*
Y02736D01*
X05297Y033915D02*
X053088D01*
X053029Y033856D02*
Y033974D01*
X05297Y033088D02*
X053088D01*
X053029Y033029D02*
Y033147D01*
X05297Y032262D02*
X053088D01*
X053029Y032203D02*
Y032321D01*
X05297Y031435D02*
X053088D01*
X053029Y031376D02*
Y031494D01*
X05297Y030608D02*
X053088D01*
X053029Y030549D02*
Y030667D01*
X05297Y029781D02*
X053088D01*
X053029Y029722D02*
Y02984D01*
X05297Y028954D02*
X053088D01*
X053029Y028895D02*
Y029014D01*
X05297Y028128D02*
X053088D01*
X053029Y028069D02*
Y028187D01*
X05297Y027301D02*
X053088D01*
X053029Y027242D02*
Y02736D01*
X052143Y036395D02*
X052261D01*
X052202Y036336D02*
Y036454D01*
X052143Y035569D02*
X052261D01*
X052202Y03551D02*
Y035628D01*
X052143Y034742D02*
X052261D01*
X052202Y034683D02*
Y034801D01*
X052143Y033915D02*
X052261D01*
X052202Y033856D02*
Y033974D01*
X052143Y033088D02*
X052261D01*
X052202Y033029D02*
Y033147D01*
X052143Y032262D02*
X052261D01*
X052202Y032203D02*
Y032321D01*
X052143Y031435D02*
X052261D01*
X052202Y031376D02*
Y031494D01*
X052143Y030608D02*
X052261D01*
X052202Y030549D02*
Y030667D01*
X052143Y029781D02*
X052261D01*
X052202Y029722D02*
Y02984D01*
X052143Y028954D02*
X052261D01*
X052202Y028895D02*
Y029014D01*
X052143Y028128D02*
X052261D01*
X052202Y028069D02*
Y028187D01*
X052143Y027301D02*
X052261D01*
X052202Y027242D02*
Y02736D01*
X051316Y036395D02*
X051434D01*
X051375Y036336D02*
Y036454D01*
X051316Y035569D02*
X051434D01*
X051375Y03551D02*
Y035628D01*
X051316Y034742D02*
X051434D01*
X051375Y034683D02*
Y034801D01*
X051316Y033915D02*
X051434D01*
X051375Y033856D02*
Y033974D01*
X051316Y033088D02*
X051434D01*
X051375Y033029D02*
Y033147D01*
X051316Y032262D02*
X051434D01*
X051375Y032203D02*
Y032321D01*
X051316Y031435D02*
X051434D01*
X051375Y031376D02*
Y031494D01*
X051316Y030608D02*
X051434D01*
X051375Y030549D02*
Y030667D01*
X051316Y029781D02*
X051434D01*
X051375Y029722D02*
Y02984D01*
X051316Y027301D02*
X051434D01*
X051375Y027242D02*
Y02736D01*
X050489Y036395D02*
X050608D01*
X050549Y036336D02*
Y036454D01*
X050489Y035569D02*
X050608D01*
X050549Y03551D02*
Y035628D01*
X050489Y034742D02*
X050608D01*
X050549Y034683D02*
Y034801D01*
X050489Y033915D02*
X050608D01*
X050549Y033856D02*
Y033974D01*
X050489Y033088D02*
X050608D01*
X050549Y033029D02*
Y033147D01*
X050489Y032262D02*
X050608D01*
X050549Y032203D02*
Y032321D01*
X050489Y031435D02*
X050608D01*
X050549Y031376D02*
Y031494D01*
X050489Y030608D02*
X050608D01*
X050549Y030549D02*
Y030667D01*
X050489Y029781D02*
X050608D01*
X050549Y029722D02*
Y02984D01*
X050489Y027301D02*
X050608D01*
X050549Y027242D02*
Y02736D01*
X029704Y036375D02*
X029822D01*
X029763Y036316D02*
Y036434D01*
X029704Y035549D02*
X029822D01*
X029763Y03549D02*
Y035608D01*
X029704Y034722D02*
X029822D01*
X029763Y034663D02*
Y034781D01*
X029704Y033895D02*
X029822D01*
X029763Y033836D02*
Y033954D01*
X029704Y033068D02*
X029822D01*
X029763Y033009D02*
Y033127D01*
X029704Y032242D02*
X029822D01*
X029763Y032183D02*
Y032301D01*
X029704Y031415D02*
X029822D01*
X029763Y031356D02*
Y031474D01*
X029704Y029761D02*
X029822D01*
X029763Y029702D02*
Y02982D01*
X029704Y028934D02*
X029822D01*
X029763Y028875D02*
Y028994D01*
X029704Y028108D02*
X029822D01*
X029763Y028049D02*
Y028167D01*
X029704Y027281D02*
X029822D01*
X029763Y027222D02*
Y02734D01*
X028877Y036375D02*
X028996D01*
X028937Y036316D02*
Y036434D01*
X028877Y035549D02*
X028996D01*
X028937Y03549D02*
Y035608D01*
X028877Y034722D02*
X028996D01*
X028937Y034663D02*
Y034781D01*
X028877Y033895D02*
X028996D01*
X028937Y033836D02*
Y033954D01*
X028877Y033068D02*
X028996D01*
X028937Y033009D02*
Y033127D01*
X028877Y032242D02*
X028996D01*
X028937Y032183D02*
Y032301D01*
X028877Y031415D02*
X028996D01*
X028937Y031356D02*
Y031474D01*
X028877Y030588D02*
X028996D01*
X028937Y030529D02*
Y030647D01*
X028877Y029761D02*
X028996D01*
X028937Y029702D02*
Y02982D01*
X028877Y028934D02*
X028996D01*
X028937Y028875D02*
Y028994D01*
X028877Y028108D02*
X028996D01*
X028937Y028049D02*
Y028167D01*
X028877Y027281D02*
X028996D01*
X028937Y027222D02*
Y02734D01*
X028051Y036375D02*
X028169D01*
X02811Y036316D02*
Y036434D01*
X028051Y035549D02*
X028169D01*
X02811Y03549D02*
Y035608D01*
X028051Y034722D02*
X028169D01*
X02811Y034663D02*
Y034781D01*
X028051Y033895D02*
X028169D01*
X02811Y033836D02*
Y033954D01*
X028051Y033068D02*
X028169D01*
X02811Y033009D02*
Y033127D01*
X028051Y032242D02*
X028169D01*
X02811Y032183D02*
Y032301D01*
X028051Y031415D02*
X028169D01*
X02811Y031356D02*
Y031474D01*
X028051Y030588D02*
X028169D01*
X02811Y030529D02*
Y030647D01*
X028051Y029761D02*
X028169D01*
X02811Y029702D02*
Y02982D01*
X028051Y028934D02*
X028169D01*
X02811Y028875D02*
Y028994D01*
X028051Y028108D02*
X028169D01*
X02811Y028049D02*
Y028167D01*
X028051Y027281D02*
X028169D01*
X02811Y027222D02*
Y02734D01*
X027224Y033895D02*
X027342D01*
X027283Y033836D02*
Y033954D01*
X027224Y033068D02*
X027342D01*
X027283Y033009D02*
Y033127D01*
X027224Y032242D02*
X027342D01*
X027283Y032183D02*
Y032301D01*
X027224Y031415D02*
X027342D01*
X027283Y031356D02*
Y031474D01*
X027224Y030588D02*
X027342D01*
X027283Y030529D02*
Y030647D01*
X027224Y029761D02*
X027342D01*
X027283Y029702D02*
Y02982D01*
X027224Y028934D02*
X027342D01*
X027283Y028875D02*
Y028994D01*
X027224Y028108D02*
X027342D01*
X027283Y028049D02*
Y028167D01*
X027224Y027281D02*
X027342D01*
X027283Y027222D02*
Y02734D01*
X026397Y033895D02*
X026515D01*
X026456Y033836D02*
Y033954D01*
X026397Y033068D02*
X026515D01*
X026456Y033009D02*
Y033127D01*
X026397Y032242D02*
X026515D01*
X026456Y032183D02*
Y032301D01*
X026397Y031415D02*
X026515D01*
X026456Y031356D02*
Y031474D01*
X026397Y030588D02*
X026515D01*
X026456Y030529D02*
Y030647D01*
X026397Y029761D02*
X026515D01*
X026456Y029702D02*
Y02982D01*
X026397Y028934D02*
X026515D01*
X026456Y028875D02*
Y028994D01*
X026397Y028108D02*
X026515D01*
X026456Y028049D02*
Y028167D01*
X026397Y027281D02*
X026515D01*
X026456Y027222D02*
Y02734D01*
X02557Y033895D02*
X025689D01*
X025629Y033836D02*
Y033954D01*
X02557Y033068D02*
X025689D01*
X025629Y033009D02*
Y033127D01*
X02557Y032242D02*
X025689D01*
X025629Y032183D02*
Y032301D01*
X02557Y031415D02*
X025689D01*
X025629Y031356D02*
Y031474D01*
X02557Y030588D02*
X025689D01*
X025629Y030529D02*
Y030647D01*
X02557Y029761D02*
X025689D01*
X025629Y029702D02*
Y02982D01*
X02557Y028934D02*
X025689D01*
X025629Y028875D02*
Y028994D01*
X02557Y028108D02*
X025689D01*
X025629Y028049D02*
Y028167D01*
X02557Y027281D02*
X025689D01*
X025629Y027222D02*
Y02734D01*
X024744Y036375D02*
X024862D01*
X024803Y036316D02*
Y036434D01*
X024744Y035549D02*
X024862D01*
X024803Y03549D02*
Y035608D01*
X024744Y034722D02*
X024862D01*
X024803Y034663D02*
Y034781D01*
X024744Y033895D02*
X024862D01*
X024803Y033836D02*
Y033954D01*
X024744Y033068D02*
X024862D01*
X024803Y033009D02*
Y033127D01*
X024744Y032242D02*
X024862D01*
X024803Y032183D02*
Y032301D01*
X024744Y031415D02*
X024862D01*
X024803Y031356D02*
Y031474D01*
X024744Y030588D02*
X024862D01*
X024803Y030529D02*
Y030647D01*
X024744Y029761D02*
X024862D01*
X024803Y029702D02*
Y02982D01*
X024744Y028934D02*
X024862D01*
X024803Y028875D02*
Y028994D01*
X024744Y028108D02*
X024862D01*
X024803Y028049D02*
Y028167D01*
X058642Y038858D02*
X05876D01*
X058701Y038799D02*
Y038917D01*
X058642Y038032D02*
X05876D01*
X058701Y037972D02*
Y038091D01*
X057815Y038858D02*
X057933D01*
X057874Y038799D02*
Y038917D01*
X057815Y038032D02*
X057933D01*
X057874Y037972D02*
Y038091D01*
X056988Y039685D02*
X057106D01*
X057047Y039626D02*
Y039744D01*
X056988Y038858D02*
X057106D01*
X057047Y038799D02*
Y038917D01*
X056988Y038032D02*
X057106D01*
X057047Y037972D02*
Y038091D01*
X056161Y041339D02*
X05628D01*
X05622Y04128D02*
Y041398D01*
X056161Y040512D02*
X05628D01*
X05622Y040453D02*
Y040571D01*
X056161Y039685D02*
X05628D01*
X05622Y039626D02*
Y039744D01*
X056161Y038858D02*
X05628D01*
X05622Y038799D02*
Y038917D01*
X056161Y038032D02*
X05628D01*
X05622Y037972D02*
Y038091D01*
X055335Y041339D02*
X055453D01*
X055394Y04128D02*
Y041398D01*
X055335Y040512D02*
X055453D01*
X055394Y040453D02*
Y040571D01*
X055335Y039685D02*
X055453D01*
X055394Y039626D02*
Y039744D01*
X055335Y038858D02*
X055453D01*
X055394Y038799D02*
Y038917D01*
X055335Y038032D02*
X055453D01*
X055394Y037972D02*
Y038091D01*
X054508Y041339D02*
X054626D01*
X054567Y04128D02*
Y041398D01*
X054508Y040512D02*
X054626D01*
X054567Y040453D02*
Y040571D01*
X053681Y041339D02*
X053799D01*
X05374Y04128D02*
Y041398D01*
X053681Y040512D02*
X053799D01*
X05374Y040453D02*
Y040571D01*
X052854Y041339D02*
X052972D01*
X052913Y04128D02*
Y041398D01*
X052854Y040512D02*
X052972D01*
X052913Y040453D02*
Y040571D01*
X052854Y038032D02*
X052972D01*
X052913Y037972D02*
Y038091D01*
X052028Y041339D02*
X052146D01*
X052087Y04128D02*
Y041398D01*
X052028Y040512D02*
X052146D01*
X052087Y040453D02*
Y040571D01*
X052028Y039685D02*
X052146D01*
X052087Y039626D02*
Y039744D01*
X052028Y038858D02*
X052146D01*
X052087Y038799D02*
Y038917D01*
X052028Y038032D02*
X052146D01*
X052087Y037972D02*
Y038091D01*
X051201Y041339D02*
X051319D01*
X05126Y04128D02*
Y041398D01*
X051201Y040512D02*
X051319D01*
X05126Y040453D02*
Y040571D01*
X051201Y038032D02*
X051319D01*
X05126Y037972D02*
Y038091D01*
X050374Y041339D02*
X050492D01*
X050433Y04128D02*
Y041398D01*
X050374Y040512D02*
X050492D01*
X050433Y040453D02*
Y040571D01*
X050374Y038032D02*
X050492D01*
X050433Y037972D02*
Y038091D01*
X049547Y041339D02*
X049665D01*
X049606Y04128D02*
Y041398D01*
X049547Y040512D02*
X049665D01*
X049606Y040453D02*
Y040571D01*
X049547Y039685D02*
X049665D01*
X049606Y039626D02*
Y039744D01*
X049547Y038858D02*
X049665D01*
X049606Y038799D02*
Y038917D01*
X030532Y041339D02*
X03065D01*
X030591Y04128D02*
Y041398D01*
X030532Y040512D02*
X03065D01*
X030591Y040453D02*
Y040571D01*
X030532Y038858D02*
X03065D01*
X030591Y038799D02*
Y038917D01*
X029705Y041339D02*
X029823D01*
X029764Y04128D02*
Y041398D01*
X029705Y040512D02*
X029823D01*
X029764Y040453D02*
Y040571D01*
X029705Y038032D02*
X029823D01*
X029764Y037972D02*
Y038091D01*
X028878Y041339D02*
X028996D01*
X028937Y04128D02*
Y041398D01*
X028878Y040512D02*
X028996D01*
X028937Y040453D02*
Y040571D01*
X028878Y038858D02*
X028996D01*
X028937Y038799D02*
Y038917D01*
X028878Y038032D02*
X028996D01*
X028937Y037972D02*
Y038091D01*
X028051Y041339D02*
X028169D01*
X02811Y04128D02*
Y041398D01*
X028051Y040512D02*
X028169D01*
X02811Y040453D02*
Y040571D01*
X028051Y039685D02*
X028169D01*
X02811Y039626D02*
Y039744D01*
X028051Y038858D02*
X028169D01*
X02811Y038799D02*
Y038917D01*
X028051Y038032D02*
X028169D01*
X02811Y037972D02*
Y038091D01*
X027224Y041339D02*
X027343D01*
X027283Y04128D02*
Y041398D01*
X027224Y040512D02*
X027343D01*
X027283Y040453D02*
Y040571D01*
X026398Y041339D02*
X026516D01*
X026457Y04128D02*
Y041398D01*
X026398Y040512D02*
X026516D01*
X026457Y040453D02*
Y040571D01*
X025571Y041339D02*
X025689D01*
X02563Y04128D02*
Y041398D01*
X025571Y040512D02*
X025689D01*
X02563Y040453D02*
Y040571D01*
X024744Y041339D02*
X024862D01*
X024803Y04128D02*
Y041398D01*
X024744Y040512D02*
X024862D01*
X024803Y040453D02*
Y040571D01*
X024744Y039685D02*
X024862D01*
X024803Y039626D02*
Y039744D01*
X024744Y038858D02*
X024862D01*
X024803Y038799D02*
Y038917D01*
X024744Y038032D02*
X024862D01*
X024803Y037972D02*
Y038091D01*
X023917Y041339D02*
X024035D01*
X023976Y04128D02*
Y041398D01*
X023917Y040512D02*
X024035D01*
X023976Y040453D02*
Y040571D01*
X023917Y039685D02*
X024035D01*
X023976Y039626D02*
Y039744D01*
X023917Y038858D02*
X024035D01*
X023976Y038799D02*
Y038917D01*
X023917Y038032D02*
X024035D01*
X023976Y037972D02*
Y038091D01*
X023091Y038858D02*
X023209D01*
X02315Y038799D02*
Y038917D01*
X023091Y038032D02*
X023209D01*
X02315Y037972D02*
Y038091D01*
X022264Y038858D02*
X022382D01*
X022323Y038799D02*
Y038917D01*
X022264Y038032D02*
X022382D01*
X022323Y037972D02*
Y038091D01*
X021437Y039685D02*
X021555D01*
X021496Y039626D02*
Y039744D01*
X021437Y038858D02*
X021555D01*
X021496Y038799D02*
Y038917D01*
X021437Y038032D02*
X021555D01*
X021496Y037972D02*
Y038091D01*
M02*
