G04*
G04 #@! TF.GenerationSoftware,Altium Limited,Altium Designer,19.0.13 (425)*
G04*
G04 Layer_Physical_Order=2*
G04 Layer_Color=16711680*
%FSTAX24Y24*%
%MOIN*%
G70*
G01*
G75*
%ADD21C,0.1575*%
%ADD22C,0.1378*%
%ADD23C,0.1260*%
%ADD24R,0.2172X0.2644*%
%ADD25O,0.2172X0.2644*%
%ADD26C,0.0236*%
G36*
X059784Y038665D02*
Y038567D01*
X059745Y038374D01*
X05967Y038192D01*
X059561Y038028D01*
X059421Y037889D01*
X059258Y037779D01*
X059076Y037704D01*
X058882Y037665D01*
X050255D01*
X050062Y037704D01*
X04988Y037779D01*
X049716Y037889D01*
X049577Y038028D01*
X049468Y038192D01*
X049392Y038374D01*
X049354Y038567D01*
Y038665D01*
Y040775D01*
Y041843D01*
X049343Y041898D01*
X049312Y041944D01*
X049266Y041975D01*
X049212Y041985D01*
X031102D01*
X031047Y041975D01*
X031001Y041944D01*
X03097Y041898D01*
X03096Y041843D01*
Y040775D01*
X030956D01*
Y038665D01*
Y038567D01*
X030917Y038374D01*
X030842Y038192D01*
X030733Y038028D01*
X030593Y037889D01*
X03043Y037779D01*
X030248Y037704D01*
X030054Y037665D01*
X0216D01*
X021406Y037704D01*
X021224Y037779D01*
X021061Y037889D01*
X020921Y038028D01*
X020812Y038192D01*
X020736Y038374D01*
X020698Y038567D01*
Y038665D01*
Y042458D01*
X056879Y042476D01*
X059784D01*
Y038665D01*
D02*
G37*
G36*
X05538Y036969D02*
X05555Y036899D01*
X055704Y036796D01*
X055834Y036665D01*
X055937Y036512D01*
X056008Y036341D01*
X056044Y03616D01*
Y036068D01*
Y033067D01*
X056043Y033063D01*
X056044D01*
X056044Y027883D01*
X056005Y027689D01*
X05593Y027507D01*
X05582Y027344D01*
X055681Y027204D01*
X055517Y027095D01*
X055335Y02702D01*
X055142Y026981D01*
X050427D01*
X050234Y02702D01*
X050052Y027095D01*
X049889Y027204D01*
X049749Y027344D01*
X04964Y027507D01*
X049564Y027689D01*
X049526Y027883D01*
Y027981D01*
Y036005D01*
Y036104D01*
X049564Y036297D01*
X04964Y036479D01*
X049749Y036643D01*
X049889Y036782D01*
X050052Y036892D01*
X050234Y036967D01*
X050427Y037005D01*
X055198D01*
X05538Y036969D01*
D02*
G37*
G36*
X030248Y036967D02*
X03043Y036892D01*
X030593Y036782D01*
X030733Y036643D01*
X030842Y036479D01*
X030917Y036297D01*
X030956Y036104D01*
Y036005D01*
Y027981D01*
Y027883D01*
X030917Y027689D01*
X030842Y027507D01*
X030733Y027344D01*
X030593Y027204D01*
X03043Y027095D01*
X030248Y02702D01*
X030054Y026981D01*
X02534D01*
X025146Y02702D01*
X024964Y027095D01*
X024801Y027204D01*
X024661Y027344D01*
X024552Y027507D01*
X024477Y027689D01*
X024438Y027883D01*
Y027981D01*
Y033063D01*
X024438Y033063D01*
X024439D01*
X024438Y033067D01*
Y036068D01*
Y03616D01*
X024474Y036341D01*
X024545Y036512D01*
X024648Y036665D01*
X024778Y036796D01*
X024932Y036899D01*
X025102Y036969D01*
X025284Y037005D01*
X030054D01*
X030248Y036967D01*
D02*
G37*
%LPC*%
G36*
X057957Y041423D02*
X057807Y041408D01*
X057662Y041364D01*
X057528Y041292D01*
X057411Y041196D01*
X057315Y041079D01*
X057243Y040945D01*
X057199Y0408D01*
X057184Y04065D01*
X057199Y040499D01*
X057243Y040354D01*
X057315Y04022D01*
X057411Y040103D01*
X057528Y040007D01*
X057662Y039935D01*
X057807Y039891D01*
X057957Y039877D01*
X058108Y039891D01*
X058253Y039935D01*
X058387Y040007D01*
X058504Y040103D01*
X0586Y04022D01*
X058672Y040354D01*
X058716Y040499D01*
X05873Y04065D01*
X058716Y0408D01*
X058672Y040945D01*
X0586Y041079D01*
X058504Y041196D01*
X058387Y041292D01*
X058253Y041364D01*
X058108Y041408D01*
X057957Y041423D01*
D02*
G37*
G36*
X022524D02*
X022374Y041408D01*
X022229Y041364D01*
X022095Y041292D01*
X021978Y041196D01*
X021882Y041079D01*
X02181Y040945D01*
X021766Y0408D01*
X021751Y04065D01*
X021766Y040499D01*
X02181Y040354D01*
X021882Y04022D01*
X021978Y040103D01*
X022095Y040007D01*
X022229Y039935D01*
X022374Y039891D01*
X022524Y039877D01*
X022675Y039891D01*
X02282Y039935D01*
X022954Y040007D01*
X023071Y040103D01*
X023167Y04022D01*
X023239Y040354D01*
X023283Y040499D01*
X023297Y04065D01*
X023283Y0408D01*
X023239Y040945D01*
X023167Y041079D01*
X023071Y041196D01*
X022954Y041292D01*
X02282Y041364D01*
X022675Y041408D01*
X022524Y041423D01*
D02*
G37*
%LPD*%
D21*
X029734Y03952D02*
D03*
X05058Y039443D02*
D03*
Y028616D02*
D03*
D22*
X030226Y030583D02*
D03*
D23*
X022524Y005217D02*
D03*
X057957D02*
D03*
Y04065D02*
D03*
X022524D02*
D03*
D24*
X026461Y035689D02*
D03*
X05402D02*
D03*
D25*
X026461Y038996D02*
D03*
X05402D02*
D03*
D26*
X055509Y036395D02*
D03*
Y035569D02*
D03*
Y034742D02*
D03*
Y033915D02*
D03*
Y033088D02*
D03*
Y032262D02*
D03*
Y031435D02*
D03*
Y030608D02*
D03*
Y029781D02*
D03*
Y028954D02*
D03*
Y028128D02*
D03*
Y027301D02*
D03*
X054682Y033915D02*
D03*
Y033088D02*
D03*
Y032262D02*
D03*
Y031435D02*
D03*
Y030608D02*
D03*
Y029781D02*
D03*
Y028954D02*
D03*
Y028128D02*
D03*
Y027301D02*
D03*
X053856Y033915D02*
D03*
Y033088D02*
D03*
Y032262D02*
D03*
Y031435D02*
D03*
Y030608D02*
D03*
Y029781D02*
D03*
Y028954D02*
D03*
Y028128D02*
D03*
Y027301D02*
D03*
X053029Y033915D02*
D03*
Y033088D02*
D03*
Y032262D02*
D03*
Y031435D02*
D03*
Y030608D02*
D03*
Y029781D02*
D03*
Y028954D02*
D03*
Y028128D02*
D03*
Y027301D02*
D03*
X052202Y036395D02*
D03*
Y035569D02*
D03*
Y034742D02*
D03*
Y033915D02*
D03*
Y033088D02*
D03*
Y032262D02*
D03*
Y031435D02*
D03*
Y030608D02*
D03*
Y029781D02*
D03*
Y028954D02*
D03*
Y028128D02*
D03*
Y027301D02*
D03*
X051375Y036395D02*
D03*
Y035569D02*
D03*
Y034742D02*
D03*
Y033915D02*
D03*
Y033088D02*
D03*
Y032262D02*
D03*
Y031435D02*
D03*
Y030608D02*
D03*
Y029781D02*
D03*
Y027301D02*
D03*
X050549Y036395D02*
D03*
Y035569D02*
D03*
Y034742D02*
D03*
Y033915D02*
D03*
Y033088D02*
D03*
Y032262D02*
D03*
Y031435D02*
D03*
Y030608D02*
D03*
Y029781D02*
D03*
Y027301D02*
D03*
X029763Y036375D02*
D03*
Y035549D02*
D03*
Y034722D02*
D03*
Y033895D02*
D03*
Y033068D02*
D03*
Y032242D02*
D03*
Y031415D02*
D03*
Y029761D02*
D03*
Y028934D02*
D03*
Y028108D02*
D03*
Y027281D02*
D03*
X028937Y036375D02*
D03*
Y035549D02*
D03*
Y034722D02*
D03*
Y033895D02*
D03*
Y033068D02*
D03*
Y032242D02*
D03*
Y031415D02*
D03*
Y030588D02*
D03*
Y029761D02*
D03*
Y028934D02*
D03*
Y028108D02*
D03*
Y027281D02*
D03*
X02811Y036375D02*
D03*
Y035549D02*
D03*
Y034722D02*
D03*
Y033895D02*
D03*
Y033068D02*
D03*
Y032242D02*
D03*
Y031415D02*
D03*
Y030588D02*
D03*
Y029761D02*
D03*
Y028934D02*
D03*
Y028108D02*
D03*
Y027281D02*
D03*
X027283Y033895D02*
D03*
Y033068D02*
D03*
Y032242D02*
D03*
Y031415D02*
D03*
Y030588D02*
D03*
Y029761D02*
D03*
Y028934D02*
D03*
Y028108D02*
D03*
Y027281D02*
D03*
X026456Y033895D02*
D03*
Y033068D02*
D03*
Y032242D02*
D03*
Y031415D02*
D03*
Y030588D02*
D03*
Y029761D02*
D03*
Y028934D02*
D03*
Y028108D02*
D03*
Y027281D02*
D03*
X025629Y033895D02*
D03*
Y033068D02*
D03*
Y032242D02*
D03*
Y031415D02*
D03*
Y030588D02*
D03*
Y029761D02*
D03*
Y028934D02*
D03*
Y028108D02*
D03*
Y027281D02*
D03*
X024803Y036375D02*
D03*
Y035549D02*
D03*
Y034722D02*
D03*
Y033895D02*
D03*
Y033068D02*
D03*
Y032242D02*
D03*
Y031415D02*
D03*
Y030588D02*
D03*
Y029761D02*
D03*
Y028934D02*
D03*
Y028108D02*
D03*
X058701Y038858D02*
D03*
Y038032D02*
D03*
X057874Y038858D02*
D03*
Y038032D02*
D03*
X057047Y039685D02*
D03*
Y038858D02*
D03*
Y038032D02*
D03*
X05622Y041339D02*
D03*
Y040512D02*
D03*
Y039685D02*
D03*
Y038858D02*
D03*
Y038032D02*
D03*
X055394Y041339D02*
D03*
Y040512D02*
D03*
Y039685D02*
D03*
Y038858D02*
D03*
Y038032D02*
D03*
X054567Y041339D02*
D03*
Y040512D02*
D03*
X05374Y041339D02*
D03*
Y040512D02*
D03*
X052913Y041339D02*
D03*
Y040512D02*
D03*
Y038032D02*
D03*
X052087Y041339D02*
D03*
Y040512D02*
D03*
Y039685D02*
D03*
Y038858D02*
D03*
Y038032D02*
D03*
X05126Y041339D02*
D03*
Y040512D02*
D03*
Y038032D02*
D03*
X050433Y041339D02*
D03*
Y040512D02*
D03*
Y038032D02*
D03*
X049606Y041339D02*
D03*
Y040512D02*
D03*
Y039685D02*
D03*
Y038858D02*
D03*
X030591Y041339D02*
D03*
Y040512D02*
D03*
Y038858D02*
D03*
X029764Y041339D02*
D03*
Y040512D02*
D03*
Y038032D02*
D03*
X028937Y041339D02*
D03*
Y040512D02*
D03*
Y038858D02*
D03*
Y038032D02*
D03*
X02811Y041339D02*
D03*
Y040512D02*
D03*
Y039685D02*
D03*
Y038858D02*
D03*
Y038032D02*
D03*
X027283Y041339D02*
D03*
Y040512D02*
D03*
X026457Y041339D02*
D03*
Y040512D02*
D03*
X02563Y041339D02*
D03*
Y040512D02*
D03*
X024803Y041339D02*
D03*
Y040512D02*
D03*
Y039685D02*
D03*
Y038858D02*
D03*
Y038032D02*
D03*
X023976Y041339D02*
D03*
Y040512D02*
D03*
Y039685D02*
D03*
Y038858D02*
D03*
Y038032D02*
D03*
X02315Y038858D02*
D03*
Y038032D02*
D03*
X022323Y038858D02*
D03*
Y038032D02*
D03*
X021496Y039685D02*
D03*
Y038858D02*
D03*
Y038032D02*
D03*
M02*
