M48
;Layer_Color=9474304
;FILE_FORMAT=2:4
INCH,LZ
;TYPE=PLATED
T1F00S00C0.0118
T2F00S00C0.0787
T3F00S00C0.0984
T4F00S00C0.1181
T5F00S00C0.1339
T6F00S00C0.1772
%
T01
X050549Y027301
X051375
X052202
X053029
X053856
X054682
X055509
Y028128
Y028954
Y029781
Y030608
X054682
Y029781
Y028954
Y028128
X053856
Y028954
Y029781
Y030608
X053029
Y029781
Y028954
Y028128
X052202
Y028954
Y029781
Y030608
X051375
Y029781
X050549
Y030608
X029763Y029761
Y028934
Y028108
Y027281
X028937
Y028108
Y028934
Y029761
Y030588
X02811
Y029761
Y028934
Y028108
Y027281
X027283
Y028108
Y028934
Y029761
Y030588
X026456
Y029761
Y028934
Y028108
Y027281
X025629
Y028108
Y028934
Y029761
Y030588
X024803
Y029761
Y028934
Y028108
Y031415
X025629
X026456
X027283
X02811
X028937
X029763
Y032242
Y033068
Y033895
Y034722
Y035549
Y036375
X028937
Y035549
Y034722
Y033895
Y033068
Y032242
X02811
Y033068
Y033895
Y034722
Y035549
Y036375
X02811Y038032
X028937
X029764
X030591Y038858
Y040512
Y041339
X029764
Y040512
X028937
Y041339
X02811
Y040512
Y039685
Y038858
X028937
X027283Y040512
Y041339
X026457
Y040512
X02563
Y041339
X024803
Y040512
Y039685
Y038858
Y038032
X023976
Y038858
Y039685
Y040512
Y041339
X02315Y038858
Y038032
X022323
Y038858
X021496
Y039685
Y038032
X024803Y036375
Y035549
Y034722
Y033895
X025629
X026456
X027283
Y033068
Y032242
X026456
Y033068
X025629
Y032242
X024803
Y033068
X050549Y033088
X051375
X052202
X053029
X053856
X054682
X055509
Y033915
Y034742
Y035569
Y036395
X055394Y038032
X05622
X057047
X057874
X058701
Y038858
X057874
X057047
Y039685
X05622
Y040512
Y041339
X055394
Y040512
Y039685
Y038858
X05622
X054567Y040512
Y041339
X05374
Y040512
X052913
Y041339
X052087
Y040512
Y039685
Y038858
Y038032
X052913
X05126
X050433
X049606Y038858
Y039685
Y040512
X050433
X05126
Y041339
X050433
X049606
X050549Y036395
X051375
X052202
Y035569
Y034742
Y033915
X053029
X053856
X054682
Y032262
X055509
Y031435
X054682
X053856
Y032262
X053029
Y031435
X052202
Y032262
X051375
Y031435
X050549
Y032262
Y033915
X051375
Y034742
Y035569
X050549
Y034742
T02
X05058Y028616
X030226Y030583
X029734Y03952
X05058Y039443
T03
X025233Y009596
Y011596
Y013596
X028047Y007972
X030047
X032047
X035197
X037197
X039197
X042346
X044346
X046346
X049496
X051496
X053496
X055154Y010856
Y012856
Y014856
Y016856
Y020005
Y022005
Y024005
Y026005
X025233Y020714
Y018714
Y016714
T04
X038863Y01378
X032724Y026
T05
X022524Y005217
X057957
X022524Y04065
X057957
T06
X026461Y035925
Y03876
X05402
Y035925
M30
