G04*
G04 #@! TF.GenerationSoftware,Altium Limited,Altium Designer,19.0.13 (425)*
G04*
G04 Layer_Color=32896*
%FSTAX24Y24*%
%MOIN*%
G70*
G01*
G75*
%ADD13C,0.0039*%
D13*
X040519Y047598D02*
X040716D01*
X040519D02*
Y047795D01*
X040322Y047598D02*
X040519D01*
Y047401D02*
Y047598D01*
X0411Y048198D02*
X041297D01*
X0411D02*
Y048395D01*
X040903Y048198D02*
X0411D01*
Y048001D02*
Y048198D01*
X04168Y047598D02*
X041877D01*
X04168D02*
Y047795D01*
X041484Y047598D02*
X04168D01*
Y047401D02*
Y047598D01*
X0411D02*
X041297D01*
X0411D02*
Y047795D01*
X040903Y047598D02*
X0411D01*
Y047401D02*
Y047598D01*
X0421Y050907D02*
Y0513D01*
Y050513D02*
Y050907D01*
X041706D02*
X0421D01*
X042493D01*
X0421Y048907D02*
Y0493D01*
Y048513D02*
Y048907D01*
X041706D02*
X0421D01*
X042493D01*
X0401Y050907D02*
Y0513D01*
Y050513D02*
Y050907D01*
X039706D02*
X0401D01*
X040493D01*
X0401Y048907D02*
Y0493D01*
Y048513D02*
Y048907D01*
X039706D02*
X0401D01*
X040493D01*
X0411Y049907D02*
Y0503D01*
Y049513D02*
Y049907D01*
X040706D02*
X0411D01*
X041493D01*
M02*
