G04*
G04 #@! TF.GenerationSoftware,Altium Limited,Altium Designer,19.0.13 (425)*
G04*
G04 Layer_Color=16711935*
%FSTAX24Y24*%
%MOIN*%
G70*
G01*
G75*
%ADD84R,0.0474X0.0454*%
%ADD88C,0.0907*%
%ADD89C,0.0680*%
%ADD90C,0.0946*%
%ADD91C,0.0552*%
%ADD92C,0.0710*%
%ADD93C,0.0830*%
%ADD94O,0.2252X0.2724*%
%ADD95R,0.2252X0.2724*%
%ADD96O,0.0830X0.0730*%
%ADD97O,0.1261X0.1143*%
%ADD98C,0.1339*%
%ADD99C,0.0580*%
D84*
X04441Y021449D02*
D03*
Y020819D02*
D03*
D88*
X048398Y032907D02*
D03*
Y030907D02*
D03*
Y023758D02*
D03*
X015477Y027616D02*
D03*
Y020498D02*
D03*
X048398Y021758D02*
D03*
X051398Y025758D02*
D03*
X048398D02*
D03*
X051398Y021758D02*
D03*
Y023758D02*
D03*
Y019758D02*
D03*
X048398D02*
D03*
X051398Y034907D02*
D03*
X048398D02*
D03*
X051398Y030907D02*
D03*
Y032907D02*
D03*
Y028907D02*
D03*
X048398D02*
D03*
X015477Y025616D02*
D03*
X018477Y027616D02*
D03*
Y025616D02*
D03*
X015477Y029616D02*
D03*
X018477D02*
D03*
X04474Y013874D02*
D03*
X04674D02*
D03*
X04474Y016874D02*
D03*
X04674D02*
D03*
X04274Y013874D02*
D03*
Y016874D02*
D03*
X037591Y013874D02*
D03*
X039591D02*
D03*
X037591Y016874D02*
D03*
X039591D02*
D03*
X035591Y013874D02*
D03*
Y016874D02*
D03*
X015477Y018498D02*
D03*
X018477Y020498D02*
D03*
Y018498D02*
D03*
X015477Y022498D02*
D03*
X018477D02*
D03*
X023291Y013874D02*
D03*
X025291D02*
D03*
X023291Y016874D02*
D03*
X025291D02*
D03*
X021291Y013874D02*
D03*
Y016874D02*
D03*
X030441Y013874D02*
D03*
X032441D02*
D03*
X030441Y016874D02*
D03*
X032441D02*
D03*
X028441Y013874D02*
D03*
Y016874D02*
D03*
D89*
X018807Y034695D02*
D03*
X030247Y033657D02*
D03*
D90*
X0411Y049907D02*
D03*
X0401Y048907D02*
D03*
X0421D02*
D03*
Y050907D02*
D03*
X0401D02*
D03*
D91*
X033254Y029372D02*
D03*
X034254D02*
D03*
X022818Y033685D02*
D03*
X021818D02*
D03*
X021318Y034085D02*
D03*
X022318D02*
D03*
D92*
X033254Y030372D02*
D03*
X034254D02*
D03*
X033254Y031372D02*
D03*
X034254D02*
D03*
Y032372D02*
D03*
X033254D02*
D03*
X034254Y033372D02*
D03*
X033254D02*
D03*
D93*
X026969Y031523D02*
D03*
X024969D02*
D03*
D94*
X019706Y047898D02*
D03*
X047265D02*
D03*
D95*
X019706Y044591D02*
D03*
X047265D02*
D03*
D96*
X03424Y02304D02*
D03*
Y02206D02*
D03*
Y02105D02*
D03*
D97*
X018131Y037741D02*
D03*
Y040741D02*
D03*
X048839D02*
D03*
Y037741D02*
D03*
D98*
X015769Y014118D02*
D03*
Y049552D02*
D03*
X051202D02*
D03*
Y014118D02*
D03*
D99*
X031263Y050144D02*
D03*
X031234Y049185D02*
D03*
Y048144D02*
D03*
X030234Y050144D02*
D03*
X030238Y049185D02*
D03*
X030234Y048144D02*
D03*
X029225Y050144D02*
D03*
X029234Y049144D02*
D03*
Y048144D02*
D03*
X028234Y050144D02*
D03*
Y049144D02*
D03*
Y048144D02*
D03*
M02*
