G04*
G04 #@! TF.GenerationSoftware,Altium Limited,Altium Designer,19.0.13 (425)*
G04*
G04 Layer_Color=128*
%FSTAX24Y24*%
%MOIN*%
G70*
G01*
G75*
%ADD122C,0.0020*%
D122*
X048182Y032907D02*
X048615D01*
X048398Y032691D02*
Y033124D01*
X048182Y030907D02*
X048615D01*
X048398Y030691D02*
Y031124D01*
X048182Y023758D02*
X048615D01*
X048398Y023541D02*
Y023974D01*
X015261Y027616D02*
X015694D01*
X015477Y027399D02*
Y027832D01*
X015261Y020498D02*
X015694D01*
X015477Y020281D02*
Y020714D01*
X048182Y021758D02*
X048615D01*
X048398Y021541D02*
Y021974D01*
X018657Y034695D02*
X018957D01*
X018807Y034545D02*
Y034845D01*
X030097Y033657D02*
X030397D01*
X030247Y033507D02*
Y033807D01*
X051182Y025758D02*
X051615D01*
X051398Y025541D02*
Y025974D01*
X048182Y025758D02*
X048615D01*
X048398Y025541D02*
Y025974D01*
X051182Y021758D02*
X051615D01*
X051398Y021541D02*
Y021974D01*
X051182Y023758D02*
X051615D01*
X051398Y023541D02*
Y023974D01*
X051182Y019758D02*
X051615D01*
X051398Y019541D02*
Y019974D01*
X048182Y019758D02*
X048615D01*
X048398Y019541D02*
Y019974D01*
X051182Y034907D02*
X051615D01*
X051398Y034691D02*
Y035124D01*
X048182Y034907D02*
X048615D01*
X048398Y034691D02*
Y035124D01*
X051182Y030907D02*
X051615D01*
X051398Y030691D02*
Y031124D01*
X051182Y032907D02*
X051615D01*
X051398Y032691D02*
Y033124D01*
X051182Y028907D02*
X051615D01*
X051398Y028691D02*
Y029124D01*
X048182Y028907D02*
X048615D01*
X048398Y028691D02*
Y029124D01*
X015261Y025616D02*
X015694D01*
X015477Y025399D02*
Y025832D01*
X018261Y027616D02*
X018694D01*
X018477Y027399D02*
Y027832D01*
X018261Y025616D02*
X018694D01*
X018477Y025399D02*
Y025832D01*
X015261Y029616D02*
X015694D01*
X015477Y029399D02*
Y029832D01*
X018261Y029616D02*
X018694D01*
X018477Y029399D02*
Y029832D01*
X044524Y013874D02*
X044957D01*
X04474Y013658D02*
Y014091D01*
X046524Y013874D02*
X046957D01*
X04674Y013658D02*
Y014091D01*
X044524Y016874D02*
X044957D01*
X04474Y016658D02*
Y017091D01*
X046524Y016874D02*
X046957D01*
X04674Y016658D02*
Y017091D01*
X042524Y013874D02*
X042957D01*
X04274Y013658D02*
Y014091D01*
X042524Y016874D02*
X042957D01*
X04274Y016658D02*
Y017091D01*
X037374Y013874D02*
X037807D01*
X037591Y013658D02*
Y014091D01*
X039374Y013874D02*
X039807D01*
X039591Y013658D02*
Y014091D01*
X037374Y016874D02*
X037807D01*
X037591Y016658D02*
Y017091D01*
X039374Y016874D02*
X039807D01*
X039591Y016658D02*
Y017091D01*
X035374Y013874D02*
X035807D01*
X035591Y013658D02*
Y014091D01*
X035374Y016874D02*
X035807D01*
X035591Y016658D02*
Y017091D01*
X015261Y018498D02*
X015694D01*
X015477Y018281D02*
Y018714D01*
X018261Y020498D02*
X018694D01*
X018477Y020281D02*
Y020714D01*
X018261Y018498D02*
X018694D01*
X018477Y018281D02*
Y018714D01*
X015261Y022498D02*
X015694D01*
X015477Y022281D02*
Y022714D01*
X018261Y022498D02*
X018694D01*
X018477Y022281D02*
Y022714D01*
X023075Y013874D02*
X023508D01*
X023291Y013658D02*
Y014091D01*
X025075Y013874D02*
X025508D01*
X025291Y013658D02*
Y014091D01*
X023075Y016874D02*
X023508D01*
X023291Y016658D02*
Y017091D01*
X025075Y016874D02*
X025508D01*
X025291Y016658D02*
Y017091D01*
X021075Y013874D02*
X021508D01*
X021291Y013658D02*
Y014091D01*
X021075Y016874D02*
X021508D01*
X021291Y016658D02*
Y017091D01*
X030224Y013874D02*
X030657D01*
X030441Y013658D02*
Y014091D01*
X032224Y013874D02*
X032657D01*
X032441Y013658D02*
Y014091D01*
X030224Y016874D02*
X030657D01*
X030441Y016658D02*
Y017091D01*
X032224Y016874D02*
X032657D01*
X032441Y016658D02*
Y017091D01*
X028224Y013874D02*
X028657D01*
X028441Y013658D02*
Y014091D01*
X028224Y016874D02*
X028657D01*
X028441Y016658D02*
Y017091D01*
X040804Y049907D02*
X041395D01*
X0411Y049611D02*
Y050202D01*
X039804Y048907D02*
X040395D01*
X0401Y048611D02*
Y049202D01*
X041804Y048907D02*
X042395D01*
X0421Y048611D02*
Y049202D01*
X041804Y050907D02*
X042395D01*
X0421Y050611D02*
Y051202D01*
X039804Y050907D02*
X040395D01*
X0401Y050611D02*
Y051202D01*
X033057Y029372D02*
X033451D01*
X033254Y029175D02*
Y029568D01*
X034057Y029372D02*
X034451D01*
X034254Y029175D02*
Y029568D01*
X033057Y030372D02*
X033451D01*
X033254Y030175D02*
Y030568D01*
X034057Y030372D02*
X034451D01*
X034254Y030175D02*
Y030568D01*
X033057Y031372D02*
X033451D01*
X033254Y031175D02*
Y031568D01*
X034057Y031372D02*
X034451D01*
X034254Y031175D02*
Y031568D01*
X034057Y032372D02*
X034451D01*
X034254Y032175D02*
Y032568D01*
X033057Y032372D02*
X033451D01*
X033254Y032175D02*
Y032568D01*
X034057Y033372D02*
X034451D01*
X034254Y033175D02*
Y033568D01*
X033057Y033372D02*
X033451D01*
X033254Y033175D02*
Y033568D01*
X022661Y033685D02*
X022976D01*
X022818Y033527D02*
Y033842D01*
X021661Y033685D02*
X021976D01*
X021818Y033527D02*
Y033842D01*
X021161Y034085D02*
X021476D01*
X021318Y033927D02*
Y034242D01*
X022161Y034085D02*
X022476D01*
X022318Y033927D02*
Y034242D01*
X026799Y031523D02*
X027139D01*
X026969Y031353D02*
Y031693D01*
X024799Y031523D02*
X025138D01*
X024969Y031353D02*
Y031693D01*
X01882Y047662D02*
X020591D01*
X019706Y046776D02*
Y048548D01*
X01882Y044827D02*
X020591D01*
X019706Y043941D02*
Y045713D01*
X046379Y047662D02*
X04815D01*
X047265Y046776D02*
Y048548D01*
X046379Y044827D02*
X04815D01*
X047265Y043941D02*
Y045713D01*
X03406Y02304D02*
X03442D01*
X03424Y02286D02*
Y02322D01*
X03406Y02206D02*
X03442D01*
X03424Y02188D02*
Y02224D01*
X03406Y02105D02*
X03442D01*
X03424Y02087D02*
Y02123D01*
X017883Y037741D02*
X018379D01*
X018131Y037493D02*
Y037989D01*
X017883Y040741D02*
X018379D01*
X018131Y040493D02*
Y040989D01*
X048591Y040741D02*
X049087D01*
X048839Y040493D02*
Y040989D01*
X048591Y037741D02*
X049087D01*
X048839Y037493D02*
Y037989D01*
X015099Y014118D02*
X016438D01*
X015769Y013449D02*
Y014788D01*
X015099Y049552D02*
X016438D01*
X015769Y048882D02*
Y050221D01*
X050532Y049552D02*
X051871D01*
X051202Y048882D02*
Y050221D01*
X050532Y014118D02*
X051871D01*
X051202Y013449D02*
Y014788D01*
X034525Y030854D02*
X034643D01*
X034584Y030795D02*
Y030913D01*
X02111Y034788D02*
X021228D01*
X021169Y034729D02*
Y034847D01*
X022455Y034971D02*
X022573D01*
X022514Y034912D02*
Y035031D01*
X02197Y030184D02*
X022088D01*
X022029Y030125D02*
Y030243D01*
X023341Y02851D02*
X023459D01*
X0234Y028451D02*
Y028569D01*
X022525Y029854D02*
X022643D01*
X022584Y029795D02*
Y029913D01*
X022698Y02647D02*
X022816D01*
X022757Y02641D02*
Y026529D01*
X022681Y028775D02*
X022799D01*
X02274Y028716D02*
Y028834D01*
X020221Y03707D02*
X020339D01*
X02028Y037011D02*
Y037129D01*
X023511Y03197D02*
X023629D01*
X02357Y031911D02*
Y032029D01*
X023631Y03426D02*
X023749D01*
X02369Y034201D02*
Y034319D01*
X024211Y031834D02*
X024329D01*
X02427Y031775D02*
Y031893D01*
X024191Y03117D02*
X024309D01*
X02425Y031111D02*
Y031229D01*
X024071Y03334D02*
X024189D01*
X02413Y033281D02*
Y033399D01*
X027201Y03384D02*
X027319D01*
X02726Y033781D02*
Y033899D01*
X026941Y030731D02*
X027059D01*
X027Y030672D02*
Y03079D01*
X026471Y03045D02*
X026589D01*
X02653Y030391D02*
Y030509D01*
X026398Y029644D02*
X026516D01*
X026457Y029585D02*
Y029703D01*
X025916Y03114D02*
X026034D01*
X025975Y031081D02*
Y031199D01*
X026221Y03186D02*
X026339D01*
X02628Y031801D02*
Y031919D01*
X024341Y03238D02*
X024459D01*
X0244Y032321D02*
Y032439D01*
X025048Y03066D02*
X025166D01*
X025107Y030601D02*
Y030719D01*
X025398Y030071D02*
X025516D01*
X025457Y030012D02*
Y03013D01*
X025398Y02934D02*
X025516D01*
X025457Y029281D02*
Y029399D01*
X025401Y028616D02*
X025519D01*
X02546Y028557D02*
Y028675D01*
X031045Y02558D02*
X031163D01*
X031104Y025521D02*
Y025639D01*
X040051Y025584D02*
X040169D01*
X04011Y025525D02*
Y025643D01*
X037991Y025584D02*
X038109D01*
X03805Y025525D02*
Y025643D01*
X036021Y025584D02*
X036139D01*
X03608Y025525D02*
Y025643D01*
X033975Y02558D02*
X034093D01*
X034034Y025521D02*
Y025639D01*
X018441Y0215D02*
X018559D01*
X0185Y021441D02*
Y021559D01*
X021377Y0239D02*
X021495D01*
X021436Y023841D02*
Y023959D01*
X023081Y02434D02*
X023199D01*
X02314Y024281D02*
Y024399D01*
X022711Y02486D02*
X022829D01*
X02277Y024801D02*
Y024919D01*
X022711Y02555D02*
X022829D01*
X02277Y025491D02*
Y025609D01*
X022711Y026903D02*
X022829D01*
X02277Y026844D02*
Y026962D01*
X025001Y02436D02*
X025119D01*
X02506Y024301D02*
Y024419D01*
X024001Y02536D02*
X024119D01*
X02406Y025301D02*
Y025419D01*
X052651Y0156D02*
X052769D01*
X05271Y015541D02*
Y015659D01*
X052411Y016686D02*
X052529D01*
X05247Y016627D02*
Y016745D01*
X029401Y03727D02*
X029519D01*
X02946Y037211D02*
Y037329D01*
X018471Y0355D02*
X018589D01*
X01853Y035441D02*
Y035559D01*
X017521Y0355D02*
X017639D01*
X01758Y035441D02*
Y035559D01*
X015511Y03548D02*
X015629D01*
X01557Y035421D02*
Y035539D01*
X014525Y03548D02*
X014643D01*
X014584Y035421D02*
Y035539D01*
X015701Y032243D02*
X015819D01*
X01576Y032184D02*
Y032302D01*
X02287Y02255D02*
X022988D01*
X022929Y022491D02*
Y022609D01*
X030691Y02314D02*
X030809D01*
X03075Y023081D02*
Y023199D01*
X031061Y02458D02*
X031179D01*
X03112Y024521D02*
Y024639D01*
X032321Y021854D02*
X032439D01*
X03238Y021795D02*
Y021913D01*
X032066Y02236D02*
X032184D01*
X032125Y022301D02*
Y022419D01*
X033161Y03444D02*
X033279D01*
X03322Y034381D02*
Y034499D01*
X030845Y03432D02*
X030963D01*
X030904Y034261D02*
Y034379D01*
X027421Y020087D02*
X027539D01*
X02748Y020028D02*
Y020146D01*
X023031Y02027D02*
X023149D01*
X02309Y020211D02*
Y020329D01*
X041011Y01757D02*
X041129D01*
X04107Y017511D02*
Y017629D01*
X043281Y0176D02*
X043399D01*
X04334Y017541D02*
Y017659D01*
X038531Y01756D02*
X038649D01*
X03859Y017501D02*
Y017619D01*
X026331Y01833D02*
X026449D01*
X02639Y018271D02*
Y018389D01*
X025881Y01877D02*
X025999D01*
X02594Y018711D02*
Y018829D01*
X022801Y03917D02*
X022919D01*
X02286Y039111D02*
Y039229D01*
X023301Y03917D02*
X023419D01*
X02336Y039111D02*
Y039229D01*
X023801Y03917D02*
X023919D01*
X02386Y039111D02*
Y039229D01*
X024301Y03917D02*
X024419D01*
X02436Y039111D02*
Y039229D01*
X024801Y03917D02*
X024919D01*
X02486Y039111D02*
Y039229D01*
X023521Y03109D02*
X023639D01*
X02358Y031031D02*
Y031149D01*
X029161Y01914D02*
X029279D01*
X02922Y019081D02*
Y019199D01*
X029661Y01914D02*
X029779D01*
X02972Y019081D02*
Y019199D01*
X030161Y01914D02*
X030279D01*
X03022Y019081D02*
Y019199D01*
X030661Y01914D02*
X030779D01*
X03072Y019081D02*
Y019199D01*
X031161Y01914D02*
X031279D01*
X03122Y019081D02*
Y019199D01*
X031661Y01914D02*
X031779D01*
X03172Y019081D02*
Y019199D01*
X032161Y01914D02*
X032279D01*
X03222Y019081D02*
Y019199D01*
X032661Y01914D02*
X032779D01*
X03272Y019081D02*
Y019199D01*
X033161Y01914D02*
X033279D01*
X03322Y019081D02*
Y019199D01*
X033661Y01914D02*
X033779D01*
X03372Y019081D02*
Y019199D01*
X034161Y01914D02*
X034279D01*
X03422Y019081D02*
Y019199D01*
X034661Y01914D02*
X034779D01*
X03472Y019081D02*
Y019199D01*
X035161Y01914D02*
X035279D01*
X03522Y019081D02*
Y019199D01*
X035661Y01914D02*
X035779D01*
X03572Y019081D02*
Y019199D01*
X036161Y01914D02*
X036279D01*
X03622Y019081D02*
Y019199D01*
X036661Y01914D02*
X036779D01*
X03672Y019081D02*
Y019199D01*
X037161Y01914D02*
X037279D01*
X03722Y019081D02*
Y019199D01*
X037661Y01914D02*
X037779D01*
X03772Y019081D02*
Y019199D01*
X038161Y01914D02*
X038279D01*
X03822Y019081D02*
Y019199D01*
X038661Y01914D02*
X038779D01*
X03872Y019081D02*
Y019199D01*
X046161Y01914D02*
X046279D01*
X04622Y019081D02*
Y019199D01*
X045661Y01914D02*
X045779D01*
X04572Y019081D02*
Y019199D01*
X045161Y01914D02*
X045279D01*
X04522Y019081D02*
Y019199D01*
X044661Y01914D02*
X044779D01*
X04472Y019081D02*
Y019199D01*
X044161Y01914D02*
X044279D01*
X04422Y019081D02*
Y019199D01*
X043661Y01914D02*
X043779D01*
X04372Y019081D02*
Y019199D01*
X043161Y01914D02*
X043279D01*
X04322Y019081D02*
Y019199D01*
X042661Y01914D02*
X042779D01*
X04272Y019081D02*
Y019199D01*
X042161Y01914D02*
X042279D01*
X04222Y019081D02*
Y019199D01*
X041661Y01914D02*
X041779D01*
X04172Y019081D02*
Y019199D01*
X041161Y01914D02*
X041279D01*
X04122Y019081D02*
Y019199D01*
X040661Y01914D02*
X040779D01*
X04072Y019081D02*
Y019199D01*
X040161Y01914D02*
X040279D01*
X04022Y019081D02*
Y019199D01*
X039661Y01914D02*
X039779D01*
X03972Y019081D02*
Y019199D01*
X039161Y01914D02*
X039279D01*
X03922Y019081D02*
Y019199D01*
X047015Y018786D02*
X047133D01*
X047074Y018727D02*
Y018845D01*
X047369Y018432D02*
X047487D01*
X047428Y018373D02*
Y018491D01*
X047723Y018078D02*
X047841D01*
X047782Y018019D02*
Y018137D01*
X048077Y017724D02*
X048195D01*
X048136Y017665D02*
Y017783D01*
X048431Y01737D02*
X048549D01*
X04849Y017311D02*
Y017429D01*
X046661Y01914D02*
X046779D01*
X04672Y019081D02*
Y019199D01*
X018438Y017292D02*
X018556D01*
X018497Y017233D02*
Y017351D01*
X020208Y019062D02*
X020326D01*
X020267Y019003D02*
Y019121D01*
X019854Y018708D02*
X019972D01*
X019913Y018649D02*
Y018767D01*
X0195Y018354D02*
X019618D01*
X019559Y018295D02*
Y018413D01*
X019146Y018D02*
X019264D01*
X019205Y017941D02*
Y018059D01*
X018792Y017646D02*
X01891D01*
X018851Y017587D02*
Y017705D01*
X020562Y019416D02*
X02068D01*
X020621Y019357D02*
Y019475D01*
X020916Y01977D02*
X021034D01*
X020975Y019711D02*
Y019829D01*
X051849Y043507D02*
X051967D01*
X051908Y043448D02*
Y043566D01*
X052557Y043507D02*
X052675D01*
X052616Y043448D02*
Y043566D01*
X017657Y043228D02*
X017776D01*
X017717Y043169D02*
Y043287D01*
X028555Y02575D02*
X028673D01*
X028614Y025691D02*
Y025809D01*
X037155Y050799D02*
X037273D01*
X037214Y050739D02*
Y050858D01*
X037155Y048798D02*
X037273D01*
X037214Y048739D02*
Y048858D01*
X037155Y049299D02*
X037273D01*
X037214Y049239D02*
Y049358D01*
X037155Y049798D02*
X037273D01*
X037214Y049739D02*
Y049858D01*
X037155Y050299D02*
X037273D01*
X037214Y050239D02*
Y050358D01*
X037155Y046799D02*
X037273D01*
X037214Y046739D02*
Y046858D01*
X037155Y047298D02*
X037273D01*
X037214Y047239D02*
Y047358D01*
X037155Y047799D02*
X037273D01*
X037214Y047739D02*
Y047858D01*
X037155Y048299D02*
X037273D01*
X037214Y048239D02*
Y048358D01*
X038675Y048674D02*
X038793D01*
X038734Y048615D02*
Y048733D01*
X038675Y048174D02*
X038793D01*
X038734Y048115D02*
Y048233D01*
X038675Y047674D02*
X038793D01*
X038734Y047615D02*
Y047733D01*
X038675Y047174D02*
X038793D01*
X038734Y047115D02*
Y047233D01*
X038675Y050674D02*
X038793D01*
X038734Y050615D02*
Y050733D01*
X038675Y050174D02*
X038793D01*
X038734Y050115D02*
Y050233D01*
X038675Y049674D02*
X038793D01*
X038734Y049615D02*
Y049733D01*
X038675Y049174D02*
X038793D01*
X038734Y049115D02*
Y049233D01*
X038675Y051174D02*
X038793D01*
X038734Y051115D02*
Y051233D01*
X041254Y046406D02*
X041373D01*
X041314Y046347D02*
Y046465D01*
X040754Y046406D02*
X040873D01*
X040814Y046347D02*
Y046465D01*
X040254Y046406D02*
X040373D01*
X040314Y046347D02*
Y046465D01*
X041754Y046406D02*
X041873D01*
X041814Y046347D02*
Y046465D01*
X041254Y036346D02*
X041373D01*
X041314Y036287D02*
Y036405D01*
X040754Y036346D02*
X040873D01*
X040814Y036287D02*
Y036405D01*
X040254Y036346D02*
X040373D01*
X040314Y036287D02*
Y036405D01*
X041754Y036346D02*
X041873D01*
X041814Y036287D02*
Y036405D01*
X041095Y032464D02*
X041213D01*
X041154Y032405D02*
Y032523D01*
X040595Y032464D02*
X040713D01*
X040654Y032405D02*
Y032523D01*
X041595Y032464D02*
X041713D01*
X041654Y032405D02*
Y032523D01*
X041055Y047504D02*
X041173D01*
X041114Y047445D02*
Y047563D01*
X042105Y049874D02*
X042223D01*
X042164Y049815D02*
Y049933D01*
X040145Y049854D02*
X040263D01*
X040204Y049795D02*
Y049913D01*
X051525Y015854D02*
X051643D01*
X051584Y015795D02*
Y015913D01*
X049525Y033854D02*
X049643D01*
X049584Y033795D02*
Y033913D01*
X049525Y031854D02*
X049643D01*
X049584Y031795D02*
Y031913D01*
X049525Y029854D02*
X049643D01*
X049584Y029795D02*
Y029913D01*
X049525Y028854D02*
X049643D01*
X049584Y028795D02*
Y028913D01*
X049525Y027854D02*
X049643D01*
X049584Y027795D02*
Y027913D01*
X049525Y026854D02*
X049643D01*
X049584Y026795D02*
Y026913D01*
X049525Y024854D02*
X049643D01*
X049584Y024795D02*
Y024913D01*
X049525Y022854D02*
X049643D01*
X049584Y022795D02*
Y022913D01*
X049525Y020854D02*
X049643D01*
X049584Y020795D02*
Y020913D01*
X049525Y019854D02*
X049643D01*
X049584Y019795D02*
Y019913D01*
X049525Y018854D02*
X049643D01*
X049584Y018795D02*
Y018913D01*
X048525Y033854D02*
X048643D01*
X048584Y033795D02*
Y033913D01*
X048525Y031854D02*
X048643D01*
X048584Y031795D02*
Y031913D01*
X048525Y029854D02*
X048643D01*
X048584Y029795D02*
Y029913D01*
X048525Y027854D02*
X048643D01*
X048584Y027795D02*
Y027913D01*
X048525Y026854D02*
X048643D01*
X048584Y026795D02*
Y026913D01*
X048525Y024854D02*
X048643D01*
X048584Y024795D02*
Y024913D01*
X048525Y022854D02*
X048643D01*
X048584Y022795D02*
Y022913D01*
X048525Y020854D02*
X048643D01*
X048584Y020795D02*
Y020913D01*
X048525Y018854D02*
X048643D01*
X048584Y018795D02*
Y018913D01*
X048525Y017854D02*
X048643D01*
X048584Y017795D02*
Y017913D01*
X048525Y012854D02*
X048643D01*
X048584Y012795D02*
Y012913D01*
X047525Y034854D02*
X047643D01*
X047584Y034795D02*
Y034913D01*
X047525Y033854D02*
X047643D01*
X047584Y033795D02*
Y033913D01*
X047525Y032854D02*
X047643D01*
X047584Y032795D02*
Y032913D01*
X047525Y030854D02*
X047643D01*
X047584Y030795D02*
Y030913D01*
X047525Y029854D02*
X047643D01*
X047584Y029795D02*
Y029913D01*
X047525Y028854D02*
X047643D01*
X047584Y028795D02*
Y028913D01*
X047525Y027854D02*
X047643D01*
X047584Y027795D02*
Y027913D01*
X047525Y026854D02*
X047643D01*
X047584Y026795D02*
Y026913D01*
X047525Y025854D02*
X047643D01*
X047584Y025795D02*
Y025913D01*
X047525Y024854D02*
X047643D01*
X047584Y024795D02*
Y024913D01*
X047525Y023854D02*
X047643D01*
X047584Y023795D02*
Y023913D01*
X047525Y021854D02*
X047643D01*
X047584Y021795D02*
Y021913D01*
X047525Y020854D02*
X047643D01*
X047584Y020795D02*
Y020913D01*
X047525Y019854D02*
X047643D01*
X047584Y019795D02*
Y019913D01*
X047525Y018854D02*
X047643D01*
X047584Y018795D02*
Y018913D01*
X046525Y034854D02*
X046643D01*
X046584Y034795D02*
Y034913D01*
X046525Y033854D02*
X046643D01*
X046584Y033795D02*
Y033913D01*
X046525Y032854D02*
X046643D01*
X046584Y032795D02*
Y032913D01*
X046525Y030854D02*
X046643D01*
X046584Y030795D02*
Y030913D01*
X046525Y029854D02*
X046643D01*
X046584Y029795D02*
Y029913D01*
X046525Y028854D02*
X046643D01*
X046584Y028795D02*
Y028913D01*
X046525Y027854D02*
X046643D01*
X046584Y027795D02*
Y027913D01*
X046525Y020854D02*
X046643D01*
X046584Y020795D02*
Y020913D01*
X046525Y019854D02*
X046643D01*
X046584Y019795D02*
Y019913D01*
X045525Y031854D02*
X045643D01*
X045584Y031795D02*
Y031913D01*
X045525Y029854D02*
X045643D01*
X045584Y029795D02*
Y029913D01*
X045525Y028854D02*
X045643D01*
X045584Y028795D02*
Y028913D01*
X045525Y027854D02*
X045643D01*
X045584Y027795D02*
Y027913D01*
X045525Y020854D02*
X045643D01*
X045584Y020795D02*
Y020913D01*
X045525Y019854D02*
X045643D01*
X045584Y019795D02*
Y019913D01*
X045525Y017854D02*
X045643D01*
X045584Y017795D02*
Y017913D01*
X045525Y016854D02*
X045643D01*
X045584Y016795D02*
Y016913D01*
X045525Y015854D02*
X045643D01*
X045584Y015795D02*
Y015913D01*
X045525Y014854D02*
X045643D01*
X045584Y014795D02*
Y014913D01*
X044525Y034854D02*
X044643D01*
X044584Y034795D02*
Y034913D01*
X044525Y033854D02*
X044643D01*
X044584Y033795D02*
Y033913D01*
X044525Y031854D02*
X044643D01*
X044584Y031795D02*
Y031913D01*
X044525Y030854D02*
X044643D01*
X044584Y030795D02*
Y030913D01*
X044525Y028854D02*
X044643D01*
X044584Y028795D02*
Y028913D01*
X044525Y027854D02*
X044643D01*
X044584Y027795D02*
Y027913D01*
X044525Y026854D02*
X044643D01*
X044584Y026795D02*
Y026913D01*
X044525Y025854D02*
X044643D01*
X044584Y025795D02*
Y025913D01*
X044525Y024854D02*
X044643D01*
X044584Y024795D02*
Y024913D01*
X044525Y023854D02*
X044643D01*
X044584Y023795D02*
Y023913D01*
X044525Y021854D02*
X044643D01*
X044584Y021795D02*
Y021913D01*
X044525Y019854D02*
X044643D01*
X044584Y019795D02*
Y019913D01*
X044525Y017854D02*
X044643D01*
X044584Y017795D02*
Y017913D01*
X043525Y033854D02*
X043643D01*
X043584Y033795D02*
Y033913D01*
X043525Y031854D02*
X043643D01*
X043584Y031795D02*
Y031913D01*
X043525Y030854D02*
X043643D01*
X043584Y030795D02*
Y030913D01*
X043525Y029854D02*
X043643D01*
X043584Y029795D02*
Y029913D01*
X043525Y027854D02*
X043643D01*
X043584Y027795D02*
Y027913D01*
X043525Y026854D02*
X043643D01*
X043584Y026795D02*
Y026913D01*
X043525Y023854D02*
X043643D01*
X043584Y023795D02*
Y023913D01*
X043525Y021854D02*
X043643D01*
X043584Y021795D02*
Y021913D01*
X043525Y020854D02*
X043643D01*
X043584Y020795D02*
Y020913D01*
X043525Y019854D02*
X043643D01*
X043584Y019795D02*
Y019913D01*
X043525Y016854D02*
X043643D01*
X043584Y016795D02*
Y016913D01*
X043525Y015854D02*
X043643D01*
X043584Y015795D02*
Y015913D01*
X043525Y014854D02*
X043643D01*
X043584Y014795D02*
Y014913D01*
X042525Y049854D02*
X042643D01*
X042584Y049795D02*
Y049913D01*
X042525Y047854D02*
X042643D01*
X042584Y047795D02*
Y047913D01*
X042525Y046854D02*
X042643D01*
X042584Y046795D02*
Y046913D01*
X042525Y033854D02*
X042643D01*
X042584Y033795D02*
Y033913D01*
X042525Y031854D02*
X042643D01*
X042584Y031795D02*
Y031913D01*
X042525Y030854D02*
X042643D01*
X042584Y030795D02*
Y030913D01*
X042525Y029854D02*
X042643D01*
X042584Y029795D02*
Y029913D01*
X042525Y028854D02*
X042643D01*
X042584Y028795D02*
Y028913D01*
X042525Y026854D02*
X042643D01*
X042584Y026795D02*
Y026913D01*
X042525Y024854D02*
X042643D01*
X042584Y024795D02*
Y024913D01*
X042525Y023854D02*
X042643D01*
X042584Y023795D02*
Y023913D01*
X042525Y021854D02*
X042643D01*
X042584Y021795D02*
Y021913D01*
X042525Y019854D02*
X042643D01*
X042584Y019795D02*
Y019913D01*
X042525Y015854D02*
X042643D01*
X042584Y015795D02*
Y015913D01*
X042525Y014854D02*
X042643D01*
X042584Y014795D02*
Y014913D01*
X041525Y046854D02*
X041643D01*
X041584Y046795D02*
Y046913D01*
X041525Y045854D02*
X041643D01*
X041584Y045795D02*
Y045913D01*
X041525Y044854D02*
X041643D01*
X041584Y044795D02*
Y044913D01*
X041525Y043854D02*
X041643D01*
X041584Y043795D02*
Y043913D01*
X041525Y042854D02*
X041643D01*
X041584Y042795D02*
Y042913D01*
X041525Y041854D02*
X041643D01*
X041584Y041795D02*
Y041913D01*
X041525Y040854D02*
X041643D01*
X041584Y040795D02*
Y040913D01*
X041525Y039854D02*
X041643D01*
X041584Y039795D02*
Y039913D01*
X041525Y038854D02*
X041643D01*
X041584Y038795D02*
Y038913D01*
X041525Y037854D02*
X041643D01*
X041584Y037795D02*
Y037913D01*
X041525Y036854D02*
X041643D01*
X041584Y036795D02*
Y036913D01*
X041525Y035854D02*
X041643D01*
X041584Y035795D02*
Y035913D01*
X041525Y034854D02*
X041643D01*
X041584Y034795D02*
Y034913D01*
X041525Y033854D02*
X041643D01*
X041584Y033795D02*
Y033913D01*
X041525Y031854D02*
X041643D01*
X041584Y031795D02*
Y031913D01*
X041525Y030854D02*
X041643D01*
X041584Y030795D02*
Y030913D01*
X041525Y029854D02*
X041643D01*
X041584Y029795D02*
Y029913D01*
X041525Y028854D02*
X041643D01*
X041584Y028795D02*
Y028913D01*
X041525Y027854D02*
X041643D01*
X041584Y027795D02*
Y027913D01*
X041525Y024854D02*
X041643D01*
X041584Y024795D02*
Y024913D01*
X041525Y022854D02*
X041643D01*
X041584Y022795D02*
Y022913D01*
X041525Y021854D02*
X041643D01*
X041584Y021795D02*
Y021913D01*
X041525Y020854D02*
X041643D01*
X041584Y020795D02*
Y020913D01*
X041525Y016854D02*
X041643D01*
X041584Y016795D02*
Y016913D01*
X041525Y015854D02*
X041643D01*
X041584Y015795D02*
Y015913D01*
X041525Y014854D02*
X041643D01*
X041584Y014795D02*
Y014913D01*
X040525Y046854D02*
X040643D01*
X040584Y046795D02*
Y046913D01*
X040525Y045854D02*
X040643D01*
X040584Y045795D02*
Y045913D01*
X040525Y044854D02*
X040643D01*
X040584Y044795D02*
Y044913D01*
X040525Y043854D02*
X040643D01*
X040584Y043795D02*
Y043913D01*
X040525Y042854D02*
X040643D01*
X040584Y042795D02*
Y042913D01*
X040525Y041854D02*
X040643D01*
X040584Y041795D02*
Y041913D01*
X040525Y040854D02*
X040643D01*
X040584Y040795D02*
Y040913D01*
X040525Y039854D02*
X040643D01*
X040584Y039795D02*
Y039913D01*
X040525Y038854D02*
X040643D01*
X040584Y038795D02*
Y038913D01*
X040525Y037854D02*
X040643D01*
X040584Y037795D02*
Y037913D01*
X040525Y036854D02*
X040643D01*
X040584Y036795D02*
Y036913D01*
X040525Y035854D02*
X040643D01*
X040584Y035795D02*
Y035913D01*
X040525Y034854D02*
X040643D01*
X040584Y034795D02*
Y034913D01*
X040525Y033854D02*
X040643D01*
X040584Y033795D02*
Y033913D01*
X040525Y031854D02*
X040643D01*
X040584Y031795D02*
Y031913D01*
X040525Y030854D02*
X040643D01*
X040584Y030795D02*
Y030913D01*
X040525Y029854D02*
X040643D01*
X040584Y029795D02*
Y029913D01*
X040525Y028854D02*
X040643D01*
X040584Y028795D02*
Y028913D01*
X040525Y027854D02*
X040643D01*
X040584Y027795D02*
Y027913D01*
X040525Y024854D02*
X040643D01*
X040584Y024795D02*
Y024913D01*
X040525Y023854D02*
X040643D01*
X040584Y023795D02*
Y023913D01*
X040525Y021854D02*
X040643D01*
X040584Y021795D02*
Y021913D01*
X040525Y020854D02*
X040643D01*
X040584Y020795D02*
Y020913D01*
X040525Y016854D02*
X040643D01*
X040584Y016795D02*
Y016913D01*
X040525Y015854D02*
X040643D01*
X040584Y015795D02*
Y015913D01*
X040525Y014854D02*
X040643D01*
X040584Y014795D02*
Y014913D01*
X039525Y049854D02*
X039643D01*
X039584Y049795D02*
Y049913D01*
X039525Y047854D02*
X039643D01*
X039584Y047795D02*
Y047913D01*
X039525Y046854D02*
X039643D01*
X039584Y046795D02*
Y046913D01*
X039525Y033854D02*
X039643D01*
X039584Y033795D02*
Y033913D01*
X039525Y031854D02*
X039643D01*
X039584Y031795D02*
Y031913D01*
X039525Y030854D02*
X039643D01*
X039584Y030795D02*
Y030913D01*
X039525Y029854D02*
X039643D01*
X039584Y029795D02*
Y029913D01*
X039525Y028854D02*
X039643D01*
X039584Y028795D02*
Y028913D01*
X039525Y027854D02*
X039643D01*
X039584Y027795D02*
Y027913D01*
X039525Y024854D02*
X039643D01*
X039584Y024795D02*
Y024913D01*
X039525Y022854D02*
X039643D01*
X039584Y022795D02*
Y022913D01*
X039525Y021854D02*
X039643D01*
X039584Y021795D02*
Y021913D01*
X039525Y020854D02*
X039643D01*
X039584Y020795D02*
Y020913D01*
X038525Y033854D02*
X038643D01*
X038584Y033795D02*
Y033913D01*
X038525Y031854D02*
X038643D01*
X038584Y031795D02*
Y031913D01*
X038525Y030854D02*
X038643D01*
X038584Y030795D02*
Y030913D01*
X038525Y029854D02*
X038643D01*
X038584Y029795D02*
Y029913D01*
X038525Y028854D02*
X038643D01*
X038584Y028795D02*
Y028913D01*
X038525Y027854D02*
X038643D01*
X038584Y027795D02*
Y027913D01*
X038525Y024854D02*
X038643D01*
X038584Y024795D02*
Y024913D01*
X038525Y022854D02*
X038643D01*
X038584Y022795D02*
Y022913D01*
X038525Y021854D02*
X038643D01*
X038584Y021795D02*
Y021913D01*
X038525Y020854D02*
X038643D01*
X038584Y020795D02*
Y020913D01*
X038525Y016854D02*
X038643D01*
X038584Y016795D02*
Y016913D01*
X038525Y015854D02*
X038643D01*
X038584Y015795D02*
Y015913D01*
X038525Y014854D02*
X038643D01*
X038584Y014795D02*
Y014913D01*
X037525Y044854D02*
X037643D01*
X037584Y044795D02*
Y044913D01*
X037525Y043854D02*
X037643D01*
X037584Y043795D02*
Y043913D01*
X037525Y042854D02*
X037643D01*
X037584Y042795D02*
Y042913D01*
X037525Y041854D02*
X037643D01*
X037584Y041795D02*
Y041913D01*
X037525Y040854D02*
X037643D01*
X037584Y040795D02*
Y040913D01*
X037525Y039854D02*
X037643D01*
X037584Y039795D02*
Y039913D01*
X037525Y038854D02*
X037643D01*
X037584Y038795D02*
Y038913D01*
X037525Y037854D02*
X037643D01*
X037584Y037795D02*
Y037913D01*
X037525Y036854D02*
X037643D01*
X037584Y036795D02*
Y036913D01*
X037525Y031854D02*
X037643D01*
X037584Y031795D02*
Y031913D01*
X037525Y030854D02*
X037643D01*
X037584Y030795D02*
Y030913D01*
X037525Y029854D02*
X037643D01*
X037584Y029795D02*
Y029913D01*
X037525Y028854D02*
X037643D01*
X037584Y028795D02*
Y028913D01*
X037525Y027854D02*
X037643D01*
X037584Y027795D02*
Y027913D01*
X037525Y024854D02*
X037643D01*
X037584Y024795D02*
Y024913D01*
X037525Y022854D02*
X037643D01*
X037584Y022795D02*
Y022913D01*
X037525Y021854D02*
X037643D01*
X037584Y021795D02*
Y021913D01*
X037525Y020854D02*
X037643D01*
X037584Y020795D02*
Y020913D01*
X036525Y049854D02*
X036643D01*
X036584Y049795D02*
Y049913D01*
X036525Y048854D02*
X036643D01*
X036584Y048795D02*
Y048913D01*
X036525Y047854D02*
X036643D01*
X036584Y047795D02*
Y047913D01*
X036525Y046854D02*
X036643D01*
X036584Y046795D02*
Y046913D01*
X036525Y045854D02*
X036643D01*
X036584Y045795D02*
Y045913D01*
X036525Y037854D02*
X036643D01*
X036584Y037795D02*
Y037913D01*
X036525Y036854D02*
X036643D01*
X036584Y036795D02*
Y036913D01*
X036525Y035854D02*
X036643D01*
X036584Y035795D02*
Y035913D01*
X036525Y034854D02*
X036643D01*
X036584Y034795D02*
Y034913D01*
X036525Y033854D02*
X036643D01*
X036584Y033795D02*
Y033913D01*
X036525Y032854D02*
X036643D01*
X036584Y032795D02*
Y032913D01*
X036525Y031854D02*
X036643D01*
X036584Y031795D02*
Y031913D01*
X036525Y030854D02*
X036643D01*
X036584Y030795D02*
Y030913D01*
X036525Y029854D02*
X036643D01*
X036584Y029795D02*
Y029913D01*
X036525Y028854D02*
X036643D01*
X036584Y028795D02*
Y028913D01*
X036525Y027854D02*
X036643D01*
X036584Y027795D02*
Y027913D01*
X036525Y024854D02*
X036643D01*
X036584Y024795D02*
Y024913D01*
X036525Y016854D02*
X036643D01*
X036584Y016795D02*
Y016913D01*
X036525Y015854D02*
X036643D01*
X036584Y015795D02*
Y015913D01*
X036525Y014854D02*
X036643D01*
X036584Y014795D02*
Y014913D01*
X035525Y049854D02*
X035643D01*
X035584Y049795D02*
Y049913D01*
X035525Y048854D02*
X035643D01*
X035584Y048795D02*
Y048913D01*
X035525Y047854D02*
X035643D01*
X035584Y047795D02*
Y047913D01*
X035525Y046854D02*
X035643D01*
X035584Y046795D02*
Y046913D01*
X035525Y044854D02*
X035643D01*
X035584Y044795D02*
Y044913D01*
X035525Y043854D02*
X035643D01*
X035584Y043795D02*
Y043913D01*
X035525Y042854D02*
X035643D01*
X035584Y042795D02*
Y042913D01*
X035525Y041854D02*
X035643D01*
X035584Y041795D02*
Y041913D01*
X035525Y040854D02*
X035643D01*
X035584Y040795D02*
Y040913D01*
X035525Y039854D02*
X035643D01*
X035584Y039795D02*
Y039913D01*
X035525Y038854D02*
X035643D01*
X035584Y038795D02*
Y038913D01*
X035525Y037854D02*
X035643D01*
X035584Y037795D02*
Y037913D01*
X035525Y036854D02*
X035643D01*
X035584Y036795D02*
Y036913D01*
X035525Y035854D02*
X035643D01*
X035584Y035795D02*
Y035913D01*
X035525Y034854D02*
X035643D01*
X035584Y034795D02*
Y034913D01*
X035525Y030854D02*
X035643D01*
X035584Y030795D02*
Y030913D01*
X035525Y029854D02*
X035643D01*
X035584Y029795D02*
Y029913D01*
X035525Y028854D02*
X035643D01*
X035584Y028795D02*
Y028913D01*
X035525Y027854D02*
X035643D01*
X035584Y027795D02*
Y027913D01*
X035525Y024854D02*
X035643D01*
X035584Y024795D02*
Y024913D01*
X035525Y022854D02*
X035643D01*
X035584Y022795D02*
Y022913D01*
X035525Y021854D02*
X035643D01*
X035584Y021795D02*
Y021913D01*
X035525Y020854D02*
X035643D01*
X035584Y020795D02*
Y020913D01*
X035525Y015854D02*
X035643D01*
X035584Y015795D02*
Y015913D01*
X035525Y014854D02*
X035643D01*
X035584Y014795D02*
Y014913D01*
X034525Y049854D02*
X034643D01*
X034584Y049795D02*
Y049913D01*
X034525Y048854D02*
X034643D01*
X034584Y048795D02*
Y048913D01*
X034525Y047854D02*
X034643D01*
X034584Y047795D02*
Y047913D01*
X034525Y046854D02*
X034643D01*
X034584Y046795D02*
Y046913D01*
X034525Y045854D02*
X034643D01*
X034584Y045795D02*
Y045913D01*
X034525Y044854D02*
X034643D01*
X034584Y044795D02*
Y044913D01*
X034525Y043854D02*
X034643D01*
X034584Y043795D02*
Y043913D01*
X034525Y042854D02*
X034643D01*
X034584Y042795D02*
Y042913D01*
X034525Y041854D02*
X034643D01*
X034584Y041795D02*
Y041913D01*
X034525Y040854D02*
X034643D01*
X034584Y040795D02*
Y040913D01*
X034525Y039854D02*
X034643D01*
X034584Y039795D02*
Y039913D01*
X034525Y038854D02*
X034643D01*
X034584Y038795D02*
Y038913D01*
X034525Y037854D02*
X034643D01*
X034584Y037795D02*
Y037913D01*
X034525Y036854D02*
X034643D01*
X034584Y036795D02*
Y036913D01*
X034525Y035854D02*
X034643D01*
X034584Y035795D02*
Y035913D01*
X034525Y033854D02*
X034643D01*
X034584Y033795D02*
Y033913D01*
X034525Y032854D02*
X034643D01*
X034584Y032795D02*
Y032913D01*
X034525Y031854D02*
X034643D01*
X034584Y031795D02*
Y031913D01*
X034525Y029854D02*
X034643D01*
X034584Y029795D02*
Y029913D01*
X034525Y028854D02*
X034643D01*
X034584Y028795D02*
Y028913D01*
X034525Y027854D02*
X034643D01*
X034584Y027795D02*
Y027913D01*
X034525Y024854D02*
X034643D01*
X034584Y024795D02*
Y024913D01*
X034525Y016854D02*
X034643D01*
X034584Y016795D02*
Y016913D01*
X034525Y015854D02*
X034643D01*
X034584Y015795D02*
Y015913D01*
X034525Y014854D02*
X034643D01*
X034584Y014795D02*
Y014913D01*
X033525Y049854D02*
X033643D01*
X033584Y049795D02*
Y049913D01*
X033525Y048854D02*
X033643D01*
X033584Y048795D02*
Y048913D01*
X033525Y047854D02*
X033643D01*
X033584Y047795D02*
Y047913D01*
X033525Y046854D02*
X033643D01*
X033584Y046795D02*
Y046913D01*
X033525Y045854D02*
X033643D01*
X033584Y045795D02*
Y045913D01*
X033525Y044854D02*
X033643D01*
X033584Y044795D02*
Y044913D01*
X033525Y043854D02*
X033643D01*
X033584Y043795D02*
Y043913D01*
X033525Y040854D02*
X033643D01*
X033584Y040795D02*
Y040913D01*
X033525Y039854D02*
X033643D01*
X033584Y039795D02*
Y039913D01*
X033525Y036854D02*
X033643D01*
X033584Y036795D02*
Y036913D01*
X033525Y035854D02*
X033643D01*
X033584Y035795D02*
Y035913D01*
X033525Y027854D02*
X033643D01*
X033584Y027795D02*
Y027913D01*
X033525Y024854D02*
X033643D01*
X033584Y024795D02*
Y024913D01*
X033525Y022854D02*
X033643D01*
X033584Y022795D02*
Y022913D01*
X033525Y016854D02*
X033643D01*
X033584Y016795D02*
Y016913D01*
X033525Y015854D02*
X033643D01*
X033584Y015795D02*
Y015913D01*
X033525Y014854D02*
X033643D01*
X033584Y014795D02*
Y014913D01*
X032525Y049854D02*
X032643D01*
X032584Y049795D02*
Y049913D01*
X032525Y048854D02*
X032643D01*
X032584Y048795D02*
Y048913D01*
X032525Y047854D02*
X032643D01*
X032584Y047795D02*
Y047913D01*
X032525Y046854D02*
X032643D01*
X032584Y046795D02*
Y046913D01*
X032525Y045854D02*
X032643D01*
X032584Y045795D02*
Y045913D01*
X032525Y044854D02*
X032643D01*
X032584Y044795D02*
Y044913D01*
X032525Y043854D02*
X032643D01*
X032584Y043795D02*
Y043913D01*
X032525Y040854D02*
X032643D01*
X032584Y040795D02*
Y040913D01*
X032525Y039854D02*
X032643D01*
X032584Y039795D02*
Y039913D01*
X032525Y036854D02*
X032643D01*
X032584Y036795D02*
Y036913D01*
X032525Y035854D02*
X032643D01*
X032584Y035795D02*
Y035913D01*
X032525Y032854D02*
X032643D01*
X032584Y032795D02*
Y032913D01*
X032525Y027854D02*
X032643D01*
X032584Y027795D02*
Y027913D01*
X031525Y046854D02*
X031643D01*
X031584Y046795D02*
Y046913D01*
X031525Y045854D02*
X031643D01*
X031584Y045795D02*
Y045913D01*
X031525Y044854D02*
X031643D01*
X031584Y044795D02*
Y044913D01*
X031525Y043854D02*
X031643D01*
X031584Y043795D02*
Y043913D01*
X031525Y040854D02*
X031643D01*
X031584Y040795D02*
Y040913D01*
X031525Y039854D02*
X031643D01*
X031584Y039795D02*
Y039913D01*
X031525Y036854D02*
X031643D01*
X031584Y036795D02*
Y036913D01*
X031525Y035854D02*
X031643D01*
X031584Y035795D02*
Y035913D01*
X031525Y034854D02*
X031643D01*
X031584Y034795D02*
Y034913D01*
X031525Y031854D02*
X031643D01*
X031584Y031795D02*
Y031913D01*
X031525Y030854D02*
X031643D01*
X031584Y030795D02*
Y030913D01*
X031525Y029854D02*
X031643D01*
X031584Y029795D02*
Y029913D01*
X031525Y021854D02*
X031643D01*
X031584Y021795D02*
Y021913D01*
X031525Y016854D02*
X031643D01*
X031584Y016795D02*
Y016913D01*
X031525Y015854D02*
X031643D01*
X031584Y015795D02*
Y015913D01*
X031525Y014854D02*
X031643D01*
X031584Y014795D02*
Y014913D01*
X030525Y046854D02*
X030643D01*
X030584Y046795D02*
Y046913D01*
X030525Y040854D02*
X030643D01*
X030584Y040795D02*
Y040913D01*
X030525Y039854D02*
X030643D01*
X030584Y039795D02*
Y039913D01*
X029525Y046854D02*
X029643D01*
X029584Y046795D02*
Y046913D01*
X029525Y045854D02*
X029643D01*
X029584Y045795D02*
Y045913D01*
X029525Y035854D02*
X029643D01*
X029584Y035795D02*
Y035913D01*
X029525Y033854D02*
X029643D01*
X029584Y033795D02*
Y033913D01*
X029525Y032854D02*
X029643D01*
X029584Y032795D02*
Y032913D01*
X029525Y028854D02*
X029643D01*
X029584Y028795D02*
Y028913D01*
X029525Y023854D02*
X029643D01*
X029584Y023795D02*
Y023913D01*
X029525Y016854D02*
X029643D01*
X029584Y016795D02*
Y016913D01*
X029525Y015854D02*
X029643D01*
X029584Y015795D02*
Y015913D01*
X029525Y014854D02*
X029643D01*
X029584Y014795D02*
Y014913D01*
X028525Y046854D02*
X028643D01*
X028584Y046795D02*
Y046913D01*
X028525Y045854D02*
X028643D01*
X028584Y045795D02*
Y045913D01*
X028525Y042854D02*
X028643D01*
X028584Y042795D02*
Y042913D01*
X028525Y041854D02*
X028643D01*
X028584Y041795D02*
Y041913D01*
X028525Y035854D02*
X028643D01*
X028584Y035795D02*
Y035913D01*
X028525Y034854D02*
X028643D01*
X028584Y034795D02*
Y034913D01*
X028525Y033854D02*
X028643D01*
X028584Y033795D02*
Y033913D01*
X028525Y032854D02*
X028643D01*
X028584Y032795D02*
Y032913D01*
X028525Y031854D02*
X028643D01*
X028584Y031795D02*
Y031913D01*
X028525Y030854D02*
X028643D01*
X028584Y030795D02*
Y030913D01*
X028525Y029854D02*
X028643D01*
X028584Y029795D02*
Y029913D01*
X028525Y027854D02*
X028643D01*
X028584Y027795D02*
Y027913D01*
X028525Y021854D02*
X028643D01*
X028584Y021795D02*
Y021913D01*
X028525Y020854D02*
X028643D01*
X028584Y020795D02*
Y020913D01*
X028525Y019854D02*
X028643D01*
X028584Y019795D02*
Y019913D01*
X028525Y015854D02*
X028643D01*
X028584Y015795D02*
Y015913D01*
X028525Y014854D02*
X028643D01*
X028584Y014795D02*
Y014913D01*
X027525Y046854D02*
X027643D01*
X027584Y046795D02*
Y046913D01*
X027525Y045854D02*
X027643D01*
X027584Y045795D02*
Y045913D01*
X027525Y042854D02*
X027643D01*
X027584Y042795D02*
Y042913D01*
X027525Y040854D02*
X027643D01*
X027584Y040795D02*
Y040913D01*
X027525Y039854D02*
X027643D01*
X027584Y039795D02*
Y039913D01*
X027525Y038854D02*
X027643D01*
X027584Y038795D02*
Y038913D01*
X027525Y037854D02*
X027643D01*
X027584Y037795D02*
Y037913D01*
X027525Y035854D02*
X027643D01*
X027584Y035795D02*
Y035913D01*
X027525Y032854D02*
X027643D01*
X027584Y032795D02*
Y032913D01*
X027525Y031854D02*
X027643D01*
X027584Y031795D02*
Y031913D01*
X027525Y030854D02*
X027643D01*
X027584Y030795D02*
Y030913D01*
X027525Y029854D02*
X027643D01*
X027584Y029795D02*
Y029913D01*
X027525Y028854D02*
X027643D01*
X027584Y028795D02*
Y028913D01*
X027525Y025854D02*
X027643D01*
X027584Y025795D02*
Y025913D01*
X027525Y023854D02*
X027643D01*
X027584Y023795D02*
Y023913D01*
X027525Y016854D02*
X027643D01*
X027584Y016795D02*
Y016913D01*
X027525Y015854D02*
X027643D01*
X027584Y015795D02*
Y015913D01*
X027525Y014854D02*
X027643D01*
X027584Y014795D02*
Y014913D01*
X026525Y049854D02*
X026643D01*
X026584Y049795D02*
Y049913D01*
X026525Y048854D02*
X026643D01*
X026584Y048795D02*
Y048913D01*
X026525Y047854D02*
X026643D01*
X026584Y047795D02*
Y047913D01*
X026525Y046854D02*
X026643D01*
X026584Y046795D02*
Y046913D01*
X026525Y045854D02*
X026643D01*
X026584Y045795D02*
Y045913D01*
X026525Y042854D02*
X026643D01*
X026584Y042795D02*
Y042913D01*
X026525Y041854D02*
X026643D01*
X026584Y041795D02*
Y041913D01*
X026525Y040854D02*
X026643D01*
X026584Y040795D02*
Y040913D01*
X026525Y039854D02*
X026643D01*
X026584Y039795D02*
Y039913D01*
X026525Y038854D02*
X026643D01*
X026584Y038795D02*
Y038913D01*
X026525Y037854D02*
X026643D01*
X026584Y037795D02*
Y037913D01*
X026525Y035854D02*
X026643D01*
X026584Y035795D02*
Y035913D01*
X026525Y034854D02*
X026643D01*
X026584Y034795D02*
Y034913D01*
X026525Y033854D02*
X026643D01*
X026584Y033795D02*
Y033913D01*
X026525Y025854D02*
X026643D01*
X026584Y025795D02*
Y025913D01*
X026525Y023854D02*
X026643D01*
X026584Y023795D02*
Y023913D01*
X026525Y018854D02*
X026643D01*
X026584Y018795D02*
Y018913D01*
X026525Y016854D02*
X026643D01*
X026584Y016795D02*
Y016913D01*
X026525Y015854D02*
X026643D01*
X026584Y015795D02*
Y015913D01*
X026525Y014854D02*
X026643D01*
X026584Y014795D02*
Y014913D01*
X025525Y049854D02*
X025643D01*
X025584Y049795D02*
Y049913D01*
X025525Y048854D02*
X025643D01*
X025584Y048795D02*
Y048913D01*
X025525Y047854D02*
X025643D01*
X025584Y047795D02*
Y047913D01*
X025525Y046854D02*
X025643D01*
X025584Y046795D02*
Y046913D01*
X025525Y045854D02*
X025643D01*
X025584Y045795D02*
Y045913D01*
X025525Y042854D02*
X025643D01*
X025584Y042795D02*
Y042913D01*
X025525Y041854D02*
X025643D01*
X025584Y041795D02*
Y041913D01*
X025525Y040854D02*
X025643D01*
X025584Y040795D02*
Y040913D01*
X025525Y039854D02*
X025643D01*
X025584Y039795D02*
Y039913D01*
X025525Y037854D02*
X025643D01*
X025584Y037795D02*
Y037913D01*
X025525Y035854D02*
X025643D01*
X025584Y035795D02*
Y035913D01*
X025525Y034854D02*
X025643D01*
X025584Y034795D02*
Y034913D01*
X025525Y033854D02*
X025643D01*
X025584Y033795D02*
Y033913D01*
X025525Y031854D02*
X025643D01*
X025584Y031795D02*
Y031913D01*
X025525Y025854D02*
X025643D01*
X025584Y025795D02*
Y025913D01*
X025525Y023854D02*
X025643D01*
X025584Y023795D02*
Y023913D01*
X025525Y020854D02*
X025643D01*
X025584Y020795D02*
Y020913D01*
X025525Y017854D02*
X025643D01*
X025584Y017795D02*
Y017913D01*
X025525Y015854D02*
X025643D01*
X025584Y015795D02*
Y015913D01*
X025525Y014854D02*
X025643D01*
X025584Y014795D02*
Y014913D01*
X024525Y049854D02*
X024643D01*
X024584Y049795D02*
Y049913D01*
X024525Y046854D02*
X024643D01*
X024584Y046795D02*
Y046913D01*
X024525Y045854D02*
X024643D01*
X024584Y045795D02*
Y045913D01*
X024525Y039854D02*
X024643D01*
X024584Y039795D02*
Y039913D01*
X024525Y035854D02*
X024643D01*
X024584Y035795D02*
Y035913D01*
X024525Y033854D02*
X024643D01*
X024584Y033795D02*
Y033913D01*
X024525Y029854D02*
X024643D01*
X024584Y029795D02*
Y029913D01*
X024525Y024854D02*
X024643D01*
X024584Y024795D02*
Y024913D01*
X024525Y020854D02*
X024643D01*
X024584Y020795D02*
Y020913D01*
X024525Y018854D02*
X024643D01*
X024584Y018795D02*
Y018913D01*
X024525Y017854D02*
X024643D01*
X024584Y017795D02*
Y017913D01*
X024525Y016854D02*
X024643D01*
X024584Y016795D02*
Y016913D01*
X024525Y015854D02*
X024643D01*
X024584Y015795D02*
Y015913D01*
X024525Y014854D02*
X024643D01*
X024584Y014795D02*
Y014913D01*
X023525Y049854D02*
X023643D01*
X023584Y049795D02*
Y049913D01*
X023525Y048854D02*
X023643D01*
X023584Y048795D02*
Y048913D01*
X023525Y047854D02*
X023643D01*
X023584Y047795D02*
Y047913D01*
X023525Y046854D02*
X023643D01*
X023584Y046795D02*
Y046913D01*
X023525Y045854D02*
X023643D01*
X023584Y045795D02*
Y045913D01*
X023525Y041854D02*
X023643D01*
X023584Y041795D02*
Y041913D01*
X023525Y039854D02*
X023643D01*
X023584Y039795D02*
Y039913D01*
X023525Y037854D02*
X023643D01*
X023584Y037795D02*
Y037913D01*
X023525Y035854D02*
X023643D01*
X023584Y035795D02*
Y035913D01*
X023525Y032854D02*
X023643D01*
X023584Y032795D02*
Y032913D01*
X023525Y025854D02*
X023643D01*
X023584Y025795D02*
Y025913D01*
X023525Y023854D02*
X023643D01*
X023584Y023795D02*
Y023913D01*
X023525Y020854D02*
X023643D01*
X023584Y020795D02*
Y020913D01*
X023525Y018854D02*
X023643D01*
X023584Y018795D02*
Y018913D01*
X023525Y017854D02*
X023643D01*
X023584Y017795D02*
Y017913D01*
X023525Y015854D02*
X023643D01*
X023584Y015795D02*
Y015913D01*
X023525Y014854D02*
X023643D01*
X023584Y014795D02*
Y014913D01*
X022525Y049854D02*
X022643D01*
X022584Y049795D02*
Y049913D01*
X022525Y048854D02*
X022643D01*
X022584Y048795D02*
Y048913D01*
X022525Y047854D02*
X022643D01*
X022584Y047795D02*
Y047913D01*
X022525Y046854D02*
X022643D01*
X022584Y046795D02*
Y046913D01*
X022525Y045854D02*
X022643D01*
X022584Y045795D02*
Y045913D01*
X022525Y044854D02*
X022643D01*
X022584Y044795D02*
Y044913D01*
X022525Y043854D02*
X022643D01*
X022584Y043795D02*
Y043913D01*
X022525Y042854D02*
X022643D01*
X022584Y042795D02*
Y042913D01*
X022525Y041854D02*
X022643D01*
X022584Y041795D02*
Y041913D01*
X022525Y039854D02*
X022643D01*
X022584Y039795D02*
Y039913D01*
X022525Y035854D02*
X022643D01*
X022584Y035795D02*
Y035913D01*
X022525Y032854D02*
X022643D01*
X022584Y032795D02*
Y032913D01*
X022525Y031854D02*
X022643D01*
X022584Y031795D02*
Y031913D01*
X022525Y030854D02*
X022643D01*
X022584Y030795D02*
Y030913D01*
X022525Y018854D02*
X022643D01*
X022584Y018795D02*
Y018913D01*
X022525Y017854D02*
X022643D01*
X022584Y017795D02*
Y017913D01*
X022525Y016854D02*
X022643D01*
X022584Y016795D02*
Y016913D01*
X022525Y015854D02*
X022643D01*
X022584Y015795D02*
Y015913D01*
X022525Y014854D02*
X022643D01*
X022584Y014795D02*
Y014913D01*
X021525Y049854D02*
X021643D01*
X021584Y049795D02*
Y049913D01*
X021525Y048854D02*
X021643D01*
X021584Y048795D02*
Y048913D01*
X021525Y047854D02*
X021643D01*
X021584Y047795D02*
Y047913D01*
X021525Y046854D02*
X021643D01*
X021584Y046795D02*
Y046913D01*
X021525Y045854D02*
X021643D01*
X021584Y045795D02*
Y045913D01*
X021525Y044854D02*
X021643D01*
X021584Y044795D02*
Y044913D01*
X021525Y043854D02*
X021643D01*
X021584Y043795D02*
Y043913D01*
X021525Y042854D02*
X021643D01*
X021584Y042795D02*
Y042913D01*
X021525Y041854D02*
X021643D01*
X021584Y041795D02*
Y041913D01*
X021525Y039854D02*
X021643D01*
X021584Y039795D02*
Y039913D01*
X021525Y035854D02*
X021643D01*
X021584Y035795D02*
Y035913D01*
X021525Y032854D02*
X021643D01*
X021584Y032795D02*
Y032913D01*
X021525Y028854D02*
X021643D01*
X021584Y028795D02*
Y028913D01*
X021525Y027854D02*
X021643D01*
X021584Y027795D02*
Y027913D01*
X021525Y021854D02*
X021643D01*
X021584Y021795D02*
Y021913D01*
X021525Y020854D02*
X021643D01*
X021584Y020795D02*
Y020913D01*
X021525Y017854D02*
X021643D01*
X021584Y017795D02*
Y017913D01*
X021525Y015854D02*
X021643D01*
X021584Y015795D02*
Y015913D01*
X021525Y014854D02*
X021643D01*
X021584Y014795D02*
Y014913D01*
X020525Y049854D02*
X020643D01*
X020584Y049795D02*
Y049913D01*
X020525Y038854D02*
X020643D01*
X020584Y038795D02*
Y038913D01*
X020525Y025854D02*
X020643D01*
X020584Y025795D02*
Y025913D01*
X020525Y021854D02*
X020643D01*
X020584Y021795D02*
Y021913D01*
X020525Y020854D02*
X020643D01*
X020584Y020795D02*
Y020913D01*
X020525Y019854D02*
X020643D01*
X020584Y019795D02*
Y019913D01*
X020525Y016854D02*
X020643D01*
X020584Y016795D02*
Y016913D01*
X020525Y015854D02*
X020643D01*
X020584Y015795D02*
Y015913D01*
X019525Y049854D02*
X019643D01*
X019584Y049795D02*
Y049913D01*
X019525Y038854D02*
X019643D01*
X019584Y038795D02*
Y038913D01*
X019525Y025854D02*
X019643D01*
X019584Y025795D02*
Y025913D01*
X019525Y023854D02*
X019643D01*
X019584Y023795D02*
Y023913D01*
X019525Y022854D02*
X019643D01*
X019584Y022795D02*
Y022913D01*
X019525Y021854D02*
X019643D01*
X019584Y021795D02*
Y021913D01*
X019525Y020854D02*
X019643D01*
X019584Y020795D02*
Y020913D01*
X019525Y019854D02*
X019643D01*
X019584Y019795D02*
Y019913D01*
X018525Y049854D02*
X018643D01*
X018584Y049795D02*
Y049913D01*
X018525Y048854D02*
X018643D01*
X018584Y048795D02*
Y048913D01*
X018525Y046854D02*
X018643D01*
X018584Y046795D02*
Y046913D01*
X018525Y038854D02*
X018643D01*
X018584Y038795D02*
Y038913D01*
X018525Y036854D02*
X018643D01*
X018584Y036795D02*
Y036913D01*
X018525Y032854D02*
X018643D01*
X018584Y032795D02*
Y032913D01*
X018525Y031854D02*
X018643D01*
X018584Y031795D02*
Y031913D01*
X018525Y030854D02*
X018643D01*
X018584Y030795D02*
Y030913D01*
X018525Y028854D02*
X018643D01*
X018584Y028795D02*
Y028913D01*
X018525Y024854D02*
X018643D01*
X018584Y024795D02*
Y024913D01*
X018525Y012854D02*
X018643D01*
X018584Y012795D02*
Y012913D01*
X017525Y049854D02*
X017643D01*
X017584Y049795D02*
Y049913D01*
X017525Y048854D02*
X017643D01*
X017584Y048795D02*
Y048913D01*
X017525Y047854D02*
X017643D01*
X017584Y047795D02*
Y047913D01*
X017525Y046854D02*
X017643D01*
X017584Y046795D02*
Y046913D01*
X017525Y038854D02*
X017643D01*
X017584Y038795D02*
Y038913D01*
X017525Y036854D02*
X017643D01*
X017584Y036795D02*
Y036913D01*
X017525Y032854D02*
X017643D01*
X017584Y032795D02*
Y032913D01*
X017525Y031854D02*
X017643D01*
X017584Y031795D02*
Y031913D01*
X017525Y030854D02*
X017643D01*
X017584Y030795D02*
Y030913D01*
X017525Y028854D02*
X017643D01*
X017584Y028795D02*
Y028913D01*
X017525Y026854D02*
X017643D01*
X017584Y026795D02*
Y026913D01*
X017525Y025854D02*
X017643D01*
X017584Y025795D02*
Y025913D01*
X017525Y024854D02*
X017643D01*
X017584Y024795D02*
Y024913D01*
X017525Y023854D02*
X017643D01*
X017584Y023795D02*
Y023913D01*
X017525Y022854D02*
X017643D01*
X017584Y022795D02*
Y022913D01*
X017525Y021854D02*
X017643D01*
X017584Y021795D02*
Y021913D01*
X017525Y020854D02*
X017643D01*
X017584Y020795D02*
Y020913D01*
X017525Y019854D02*
X017643D01*
X017584Y019795D02*
Y019913D01*
X017525Y018854D02*
X017643D01*
X017584Y018795D02*
Y018913D01*
X017525Y012854D02*
X017643D01*
X017584Y012795D02*
Y012913D01*
X016525Y047854D02*
X016643D01*
X016584Y047795D02*
Y047913D01*
X016525Y046854D02*
X016643D01*
X016584Y046795D02*
Y046913D01*
X016525Y045854D02*
X016643D01*
X016584Y045795D02*
Y045913D01*
X016525Y043854D02*
X016643D01*
X016584Y043795D02*
Y043913D01*
X016525Y041854D02*
X016643D01*
X016584Y041795D02*
Y041913D01*
X016525Y040854D02*
X016643D01*
X016584Y040795D02*
Y040913D01*
X016525Y039854D02*
X016643D01*
X016584Y039795D02*
Y039913D01*
X016525Y038854D02*
X016643D01*
X016584Y038795D02*
Y038913D01*
X016525Y037854D02*
X016643D01*
X016584Y037795D02*
Y037913D01*
X016525Y036854D02*
X016643D01*
X016584Y036795D02*
Y036913D01*
X016525Y032854D02*
X016643D01*
X016584Y032795D02*
Y032913D01*
X016525Y031854D02*
X016643D01*
X016584Y031795D02*
Y031913D01*
X016525Y030854D02*
X016643D01*
X016584Y030795D02*
Y030913D01*
X016525Y028854D02*
X016643D01*
X016584Y028795D02*
Y028913D01*
X016525Y026854D02*
X016643D01*
X016584Y026795D02*
Y026913D01*
X016525Y025854D02*
X016643D01*
X016584Y025795D02*
Y025913D01*
X016525Y024854D02*
X016643D01*
X016584Y024795D02*
Y024913D01*
X016525Y023854D02*
X016643D01*
X016584Y023795D02*
Y023913D01*
X016525Y022854D02*
X016643D01*
X016584Y022795D02*
Y022913D01*
X016525Y021854D02*
X016643D01*
X016584Y021795D02*
Y021913D01*
X016525Y020854D02*
X016643D01*
X016584Y020795D02*
Y020913D01*
X016525Y019854D02*
X016643D01*
X016584Y019795D02*
Y019913D01*
X015525Y047854D02*
X015643D01*
X015584Y047795D02*
Y047913D01*
X015525Y046854D02*
X015643D01*
X015584Y046795D02*
Y046913D01*
X015525Y045854D02*
X015643D01*
X015584Y045795D02*
Y045913D01*
X015525Y044854D02*
X015643D01*
X015584Y044795D02*
Y044913D01*
X015525Y043854D02*
X015643D01*
X015584Y043795D02*
Y043913D01*
X015525Y041854D02*
X015643D01*
X015584Y041795D02*
Y041913D01*
X015525Y040854D02*
X015643D01*
X015584Y040795D02*
Y040913D01*
X015525Y039854D02*
X015643D01*
X015584Y039795D02*
Y039913D01*
X015525Y038854D02*
X015643D01*
X015584Y038795D02*
Y038913D01*
X015525Y037854D02*
X015643D01*
X015584Y037795D02*
Y037913D01*
X015525Y036854D02*
X015643D01*
X015584Y036795D02*
Y036913D01*
X015525Y015854D02*
X015643D01*
X015584Y015795D02*
Y015913D01*
X014525Y048854D02*
X014643D01*
X014584Y048795D02*
Y048913D01*
X014525Y047854D02*
X014643D01*
X014584Y047795D02*
Y047913D01*
X014525Y046854D02*
X014643D01*
X014584Y046795D02*
Y046913D01*
X014525Y045854D02*
X014643D01*
X014584Y045795D02*
Y045913D01*
X014525Y044854D02*
X014643D01*
X014584Y044795D02*
Y044913D01*
X014525Y043854D02*
X014643D01*
X014584Y043795D02*
Y043913D01*
X014525Y041854D02*
X014643D01*
X014584Y041795D02*
Y041913D01*
X014525Y040854D02*
X014643D01*
X014584Y040795D02*
Y040913D01*
X014525Y039854D02*
X014643D01*
X014584Y039795D02*
Y039913D01*
X014525Y038854D02*
X014643D01*
X014584Y038795D02*
Y038913D01*
X014525Y037854D02*
X014643D01*
X014584Y037795D02*
Y037913D01*
X014525Y036854D02*
X014643D01*
X014584Y036795D02*
Y036913D01*
X014525Y016854D02*
X014643D01*
X014584Y016795D02*
Y016913D01*
X014525Y015854D02*
X014643D01*
X014584Y015795D02*
Y015913D01*
X031123Y050144D02*
X031402D01*
X031263Y050004D02*
Y050284D01*
X031094Y049185D02*
X031374D01*
X031234Y049045D02*
Y049325D01*
X031094Y048144D02*
X031374D01*
X031234Y048004D02*
Y048284D01*
X030094Y050144D02*
X030374D01*
X030234Y050004D02*
Y050284D01*
X030098Y049185D02*
X030378D01*
X030238Y049045D02*
Y049325D01*
X030094Y048144D02*
X030374D01*
X030234Y048004D02*
Y048284D01*
X029085Y050144D02*
X029365D01*
X029225Y050004D02*
Y050284D01*
X029094Y049144D02*
X029374D01*
X029234Y049004D02*
Y049284D01*
X029094Y048144D02*
X029374D01*
X029234Y048004D02*
Y048284D01*
X028094Y050144D02*
X028374D01*
X028234Y050004D02*
Y050284D01*
X028094Y049144D02*
X028374D01*
X028234Y049004D02*
Y049284D01*
X028094Y048144D02*
X028374D01*
X028234Y048004D02*
Y048284D01*
X019783Y04252D02*
X019902D01*
X019843Y042461D02*
Y042579D01*
X019783Y041811D02*
X019902D01*
X019843Y041752D02*
Y04187D01*
X019783Y039685D02*
X019902D01*
X019843Y039626D02*
Y039744D01*
X019075Y04252D02*
X019193D01*
X019134Y042461D02*
Y042579D01*
X019075Y041811D02*
X019193D01*
X019134Y041752D02*
Y04187D01*
X019075Y041102D02*
X019193D01*
X019134Y041043D02*
Y041161D01*
X019075Y040394D02*
X019193D01*
X019134Y040335D02*
Y040453D01*
X019075Y039685D02*
X019193D01*
X019134Y039626D02*
Y039744D01*
X018366Y045354D02*
X018484D01*
X018425Y045295D02*
Y045413D01*
X018366Y044646D02*
X018484D01*
X018425Y044587D02*
Y044705D01*
X018366Y043937D02*
X018484D01*
X018425Y043878D02*
Y043996D01*
X018366Y043228D02*
X018484D01*
X018425Y043169D02*
Y043287D01*
X018366Y04252D02*
X018484D01*
X018425Y042461D02*
Y042579D01*
X018366Y041811D02*
X018484D01*
X018425Y041752D02*
Y04187D01*
X018366Y039685D02*
X018484D01*
X018425Y039626D02*
Y039744D01*
X017657Y045354D02*
X017776D01*
X017717Y045295D02*
Y045413D01*
X017657Y044646D02*
X017776D01*
X017717Y044587D02*
Y044705D01*
X017657Y043937D02*
X017776D01*
X017717Y043878D02*
Y043996D01*
X017657Y04252D02*
X017776D01*
X017717Y042461D02*
Y042579D01*
X017657Y041811D02*
X017776D01*
X017717Y041752D02*
Y04187D01*
X017657Y039685D02*
X017776D01*
X017717Y039626D02*
Y039744D01*
X022538Y03026D02*
X022656D01*
X022597Y030201D02*
Y030319D01*
X020468Y03282D02*
X020586D01*
X020527Y032761D02*
Y032879D01*
X019598Y03227D02*
X019716D01*
X019657Y032211D02*
Y032329D01*
X017012Y014576D02*
X01713D01*
X017071Y014517D02*
Y014635D01*
X017012Y012576D02*
X01713D01*
X017071Y012517D02*
Y012635D01*
X017012Y013076D02*
X01713D01*
X017071Y013017D02*
Y013135D01*
X017012Y013576D02*
X01713D01*
X017071Y013517D02*
Y013635D01*
X017012Y014076D02*
X01713D01*
X017071Y014017D02*
Y014135D01*
X02138Y019113D02*
X021498D01*
X021439Y019054D02*
Y019172D01*
X021026Y018759D02*
X021144D01*
X021085Y0187D02*
Y018818D01*
X019256Y01699D02*
X019374D01*
X019315Y016931D02*
Y017049D01*
X01961Y017344D02*
X019728D01*
X019669Y017285D02*
Y017403D01*
X019964Y017698D02*
X020082D01*
X020023Y017638D02*
Y017757D01*
X020318Y018052D02*
X020436D01*
X020377Y017992D02*
Y018111D01*
X020672Y018405D02*
X02079D01*
X020731Y018346D02*
Y018464D01*
X018902Y016636D02*
X01902D01*
X018961Y016577D02*
Y016695D01*
X049722Y014235D02*
X04984D01*
X049781Y014176D02*
Y014294D01*
X049722Y013735D02*
X04984D01*
X049781Y013676D02*
Y013794D01*
X049722Y013235D02*
X04984D01*
X049781Y013176D02*
Y013294D01*
X049722Y012735D02*
X04984D01*
X049781Y012676D02*
Y012794D01*
X049722Y014735D02*
X04984D01*
X049781Y014676D02*
Y014794D01*
X046222Y018386D02*
X04634D01*
X046281Y018327D02*
Y018445D01*
X047992Y016616D02*
X04811D01*
X048051Y016557D02*
Y016675D01*
X047638Y01697D02*
X047756D01*
X047697Y016911D02*
Y017029D01*
X047284Y017324D02*
X047402D01*
X047343Y017265D02*
Y017383D01*
X04693Y017678D02*
X047048D01*
X046989Y017619D02*
Y017737D01*
X046576Y018032D02*
X046694D01*
X046635Y017973D02*
Y018091D01*
X038722Y018386D02*
X03884D01*
X038781Y018327D02*
Y018445D01*
X039222Y018386D02*
X03934D01*
X039281Y018327D02*
Y018445D01*
X039722Y018386D02*
X03984D01*
X039781Y018327D02*
Y018445D01*
X040222Y018386D02*
X04034D01*
X040281Y018327D02*
Y018445D01*
X040722Y018386D02*
X04084D01*
X040781Y018327D02*
Y018445D01*
X041222Y018386D02*
X04134D01*
X041281Y018327D02*
Y018445D01*
X041722Y018386D02*
X04184D01*
X041781Y018327D02*
Y018445D01*
X042222Y018386D02*
X04234D01*
X042281Y018327D02*
Y018445D01*
X042722Y018386D02*
X04284D01*
X042781Y018327D02*
Y018445D01*
X043222Y018386D02*
X04334D01*
X043281Y018327D02*
Y018445D01*
X043722Y018386D02*
X04384D01*
X043781Y018327D02*
Y018445D01*
X044222Y018386D02*
X04434D01*
X044281Y018327D02*
Y018445D01*
X044722Y018386D02*
X04484D01*
X044781Y018327D02*
Y018445D01*
X045222Y018386D02*
X04534D01*
X045281Y018327D02*
Y018445D01*
X045722Y018386D02*
X04584D01*
X045781Y018327D02*
Y018445D01*
X038222Y018386D02*
X03834D01*
X038281Y018327D02*
Y018445D01*
X037722Y018386D02*
X03784D01*
X037781Y018327D02*
Y018445D01*
X037222Y018386D02*
X03734D01*
X037281Y018327D02*
Y018445D01*
X036722Y018386D02*
X03684D01*
X036781Y018327D02*
Y018445D01*
X036222Y018386D02*
X03634D01*
X036281Y018327D02*
Y018445D01*
X035722Y018386D02*
X03584D01*
X035781Y018327D02*
Y018445D01*
X035222Y018386D02*
X03534D01*
X035281Y018327D02*
Y018445D01*
X034722Y018386D02*
X03484D01*
X034781Y018327D02*
Y018445D01*
X034222Y018386D02*
X03434D01*
X034281Y018327D02*
Y018445D01*
X033722Y018386D02*
X03384D01*
X033781Y018327D02*
Y018445D01*
X033222Y018386D02*
X03334D01*
X033281Y018327D02*
Y018445D01*
X032722Y018386D02*
X03284D01*
X032781Y018327D02*
Y018445D01*
X032222Y018386D02*
X03234D01*
X032281Y018327D02*
Y018445D01*
X031722Y018386D02*
X03184D01*
X031781Y018327D02*
Y018445D01*
X031222Y018386D02*
X03134D01*
X031281Y018327D02*
Y018445D01*
X030722Y018386D02*
X03084D01*
X030781Y018327D02*
Y018445D01*
X030222Y018386D02*
X03034D01*
X030281Y018327D02*
Y018445D01*
X029722Y018386D02*
X02984D01*
X029781Y018327D02*
Y018445D01*
X029222Y018386D02*
X02934D01*
X029281Y018327D02*
Y018445D01*
X028722Y018386D02*
X02884D01*
X028781Y018327D02*
Y018445D01*
X028402Y018876D02*
X02852D01*
X028461Y018817D02*
Y018935D01*
X023652Y022493D02*
X023771D01*
X023712Y022434D02*
Y022552D01*
X024046Y022493D02*
X024164D01*
X024105Y022434D02*
Y022552D01*
X02444Y022493D02*
X024558D01*
X024499Y022434D02*
Y022552D01*
X024834Y022493D02*
X024952D01*
X024893Y022434D02*
Y022552D01*
X025227Y022493D02*
X025345D01*
X025286Y022434D02*
Y022552D01*
X026015Y022493D02*
X026133D01*
X026074Y022434D02*
Y022552D01*
X026408Y022493D02*
X026526D01*
X026467Y022434D02*
Y022552D01*
X026802Y022493D02*
X02692D01*
X026861Y022434D02*
Y022552D01*
X027196Y022493D02*
X027314D01*
X027255Y022434D02*
Y022552D01*
X026101Y0202D02*
X026219D01*
X02616Y020141D02*
Y020259D01*
X030198Y031024D02*
X030316D01*
X030257Y030965D02*
Y031083D01*
X044351Y021449D02*
X044469D01*
X04441Y02139D02*
Y021508D01*
X030198Y023179D02*
X030316D01*
X030257Y02312D02*
Y023238D01*
X030198Y022429D02*
X030316D01*
X030257Y02237D02*
Y022488D01*
X02003Y023677D02*
X020148D01*
X020089Y023618D02*
Y023736D01*
X021449Y019495D02*
X021567D01*
X021508Y019436D02*
Y019554D01*
X024321Y02404D02*
X024439D01*
X02438Y023981D02*
Y024099D01*
X026651Y02039D02*
X026769D01*
X02671Y020331D02*
Y020449D01*
X041467Y023556D02*
X041586D01*
X041526Y023497D02*
Y023615D01*
X024243Y026115D02*
X024361D01*
X024302Y026056D02*
Y026174D01*
X031039Y023425D02*
X031157D01*
X031098Y023366D02*
Y023484D01*
X031069Y023845D02*
X031187D01*
X031128Y023786D02*
Y023904D01*
X041701Y02379D02*
X041819D01*
X04176Y023731D02*
Y023849D01*
X023623Y030081D02*
X023741D01*
X023682Y030022D02*
Y03014D01*
X031034Y026903D02*
X031152D01*
X031093Y026844D02*
Y026962D01*
X024637Y026551D02*
X024755D01*
X024696Y026492D02*
Y026611D01*
X031034Y027233D02*
X031152D01*
X031093Y027174D02*
Y027292D01*
X024043Y030071D02*
X024161D01*
X024102Y030012D02*
Y03013D01*
X031045Y026551D02*
X031163D01*
X031104Y026492D02*
Y026611D01*
X031045Y026221D02*
X031163D01*
X031104Y026162D02*
Y02628D01*
X020769Y036775D02*
X020887D01*
X020828Y036716D02*
Y036834D01*
X020769Y031865D02*
X020887D01*
X020828Y031806D02*
Y031924D01*
X024059Y036734D02*
X024177D01*
X024118Y036675D02*
Y036793D01*
X032369Y029015D02*
X032487D01*
X032428Y028956D02*
Y029074D01*
X029123Y025891D02*
X029241D01*
X029182Y025832D02*
Y02595D01*
X029356Y025657D02*
X029475D01*
X029416Y025598D02*
Y025716D01*
X048839Y045354D02*
X048957D01*
X048898Y045295D02*
Y045413D01*
X048839Y044646D02*
X048957D01*
X048898Y044587D02*
Y044705D01*
X048839Y043937D02*
X048957D01*
X048898Y043878D02*
Y043996D01*
X048839Y043228D02*
X048957D01*
X048898Y043169D02*
Y043287D01*
X048839Y04252D02*
X048957D01*
X048898Y042461D02*
Y042579D01*
X048839Y041811D02*
X048957D01*
X048898Y041752D02*
Y04187D01*
X04813Y04252D02*
X048248D01*
X048189Y042461D02*
Y042579D01*
X04813Y041811D02*
X048248D01*
X048189Y041752D02*
Y04187D01*
X047421Y04252D02*
X047539D01*
X04748Y042461D02*
Y042579D01*
X047421Y041811D02*
X047539D01*
X04748Y041752D02*
Y04187D01*
X047421Y041102D02*
X047539D01*
X04748Y041043D02*
Y041161D01*
X047421Y040394D02*
X047539D01*
X04748Y040335D02*
Y040453D01*
X046713Y04252D02*
X046831D01*
X046772Y042461D02*
Y042579D01*
X046713Y041811D02*
X046831D01*
X046772Y041752D02*
Y04187D01*
X046713Y041102D02*
X046831D01*
X046772Y041043D02*
Y041161D01*
X052557Y050593D02*
X052675D01*
X052616Y050534D02*
Y050652D01*
X052557Y049885D02*
X052675D01*
X052616Y049826D02*
Y049944D01*
X052557Y049176D02*
X052675D01*
X052616Y049117D02*
Y049235D01*
X052557Y048467D02*
X052675D01*
X052616Y048408D02*
Y048526D01*
X052557Y047759D02*
X052675D01*
X052616Y0477D02*
Y047818D01*
X052557Y04705D02*
X052675D01*
X052616Y046991D02*
Y047109D01*
X052557Y046341D02*
X052675D01*
X052616Y046282D02*
Y0464D01*
X052557Y045633D02*
X052675D01*
X052616Y045574D02*
Y045692D01*
X052557Y044924D02*
X052675D01*
X052616Y044865D02*
Y044983D01*
X052557Y044215D02*
X052675D01*
X052616Y044156D02*
Y044274D01*
X052557Y042089D02*
X052675D01*
X052616Y04203D02*
Y042148D01*
X052557Y041381D02*
X052675D01*
X052616Y041322D02*
Y04144D01*
X052557Y040672D02*
X052675D01*
X052616Y040613D02*
Y040731D01*
X052557Y039963D02*
X052675D01*
X052616Y039904D02*
Y040023D01*
X052557Y039255D02*
X052675D01*
X052616Y039196D02*
Y039314D01*
X052557Y038546D02*
X052675D01*
X052616Y038487D02*
Y038605D01*
X052557Y037837D02*
X052675D01*
X052616Y037778D02*
Y037897D01*
X051849Y050593D02*
X051967D01*
X051908Y050534D02*
Y050652D01*
X051849Y048467D02*
X051967D01*
X051908Y048408D02*
Y048526D01*
X051849Y047759D02*
X051967D01*
X051908Y0477D02*
Y047818D01*
X051849Y04705D02*
X051967D01*
X051908Y046991D02*
Y047109D01*
X051849Y046341D02*
X051967D01*
X051908Y046282D02*
Y0464D01*
X051849Y045633D02*
X051967D01*
X051908Y045574D02*
Y045692D01*
X051849Y044924D02*
X051967D01*
X051908Y044865D02*
Y044983D01*
X051849Y044215D02*
X051967D01*
X051908Y044156D02*
Y044274D01*
X051849Y042089D02*
X051967D01*
X051908Y04203D02*
Y042148D01*
X051849Y041381D02*
X051967D01*
X051908Y041322D02*
Y04144D01*
X051849Y040672D02*
X051967D01*
X051908Y040613D02*
Y040731D01*
X051849Y039963D02*
X051967D01*
X051908Y039904D02*
Y040023D01*
X051849Y039255D02*
X051967D01*
X051908Y039196D02*
Y039314D01*
X051849Y038546D02*
X051967D01*
X051908Y038487D02*
Y038605D01*
X051849Y037837D02*
X051967D01*
X051908Y037778D02*
Y037897D01*
X05114Y047759D02*
X051258D01*
X051199Y0477D02*
Y047818D01*
X05114Y04705D02*
X051258D01*
X051199Y046991D02*
Y047109D01*
X05114Y038546D02*
X051258D01*
X051199Y038487D02*
Y038605D01*
X05114Y037837D02*
X051258D01*
X051199Y037778D02*
Y037897D01*
X050431Y050593D02*
X050549D01*
X05049Y050534D02*
Y050652D01*
X050431Y048467D02*
X050549D01*
X05049Y048408D02*
Y048526D01*
X050431Y047759D02*
X050549D01*
X05049Y0477D02*
Y047818D01*
X050431Y04705D02*
X050549D01*
X05049Y046991D02*
Y047109D01*
X050431Y038546D02*
X050549D01*
X05049Y038487D02*
Y038605D01*
X050431Y037837D02*
X050549D01*
X05049Y037778D02*
Y037897D01*
X049723Y050593D02*
X049841D01*
X049782Y050534D02*
Y050652D01*
X049723Y049885D02*
X049841D01*
X049782Y049826D02*
Y049944D01*
X049723Y049176D02*
X049841D01*
X049782Y049117D02*
Y049235D01*
X049723Y048467D02*
X049841D01*
X049782Y048408D02*
Y048526D01*
X049723Y047759D02*
X049841D01*
X049782Y0477D02*
Y047818D01*
X049723Y04705D02*
X049841D01*
X049782Y046991D02*
Y047109D01*
X049723Y038546D02*
X049841D01*
X049782Y038487D02*
Y038605D01*
X049723Y037837D02*
X049841D01*
X049782Y037778D02*
Y037897D01*
X049014Y050593D02*
X049132D01*
X049073Y050534D02*
Y050652D01*
X049014Y049885D02*
X049132D01*
X049073Y049826D02*
Y049944D01*
X049014Y049176D02*
X049132D01*
X049073Y049117D02*
Y049235D01*
X049014Y048467D02*
X049132D01*
X049073Y048408D02*
Y048526D01*
X049014Y047759D02*
X049132D01*
X049073Y0477D02*
Y047818D01*
X049014Y04705D02*
X049132D01*
X049073Y046991D02*
Y047109D01*
X049014Y038546D02*
X049132D01*
X049073Y038487D02*
Y038605D01*
X048305Y050593D02*
X048423D01*
X048364Y050534D02*
Y050652D01*
X048305Y049885D02*
X048423D01*
X048364Y049826D02*
Y049944D01*
X048305Y049176D02*
X048423D01*
X048364Y049117D02*
Y049235D01*
X048305Y04705D02*
X048423D01*
X048364Y046991D02*
Y047109D01*
X048305Y038546D02*
X048423D01*
X048364Y038487D02*
Y038605D01*
X047597Y050593D02*
X047715D01*
X047656Y050534D02*
Y050652D01*
X047597Y049885D02*
X047715D01*
X047656Y049826D02*
Y049944D01*
X047597Y038546D02*
X047715D01*
X047656Y038487D02*
Y038605D01*
X047597Y037837D02*
X047715D01*
X047656Y037778D02*
Y037897D01*
X046888Y050593D02*
X047006D01*
X046947Y050534D02*
Y050652D01*
X046888Y049885D02*
X047006D01*
X046947Y049826D02*
Y049944D01*
X046888Y038546D02*
X047006D01*
X046947Y038487D02*
Y038605D01*
X046888Y037837D02*
X047006D01*
X046947Y037778D02*
Y037897D01*
M02*
