G04*
G04 #@! TF.GenerationSoftware,Altium Limited,Altium Designer,19.0.13 (425)*
G04*
G04 Layer_Color=1930808*
%FSTAX24Y24*%
%MOIN*%
G70*
G01*
G75*
%ADD12C,0.0020*%
%ADD13C,0.0039*%
D12*
X020573Y044827D02*
G03*
X020573Y044827I-000867J0D01*
G01*
Y047662D02*
G03*
X020573Y047662I-000867J0D01*
G01*
X048132Y044827D02*
G03*
X048132Y044827I-000867J0D01*
G01*
Y047662D02*
G03*
X048132Y047662I-000867J0D01*
G01*
X017146Y040741D02*
G03*
X017146Y040741I-000984J0D01*
G01*
Y037741D02*
G03*
X017146Y037741I-000984J0D01*
G01*
X051792D02*
G03*
X051792Y037741I-000984J0D01*
G01*
Y040741D02*
G03*
X051792Y040741I-000984J0D01*
G01*
X016869Y014118D02*
G03*
X016869Y014118I-0011J0D01*
G01*
X016391D02*
G03*
X016391Y014118I-000622J0D01*
G01*
X016869Y049552D02*
G03*
X016869Y049552I-0011J0D01*
G01*
X016391D02*
G03*
X016391Y049552I-000622J0D01*
G01*
X052302D02*
G03*
X052302Y049552I-0011J0D01*
G01*
X051824D02*
G03*
X051824Y049552I-000622J0D01*
G01*
X052302Y014118D02*
G03*
X052302Y014118I-0011J0D01*
G01*
X051824D02*
G03*
X051824Y014118I-000622J0D01*
G01*
X028357Y02143D02*
Y027966D01*
X021822Y02143D02*
Y027966D01*
Y02143D02*
X028357D01*
X021822Y027966D02*
X028357D01*
X048864Y013314D02*
X049281Y013731D01*
X048001Y014177D02*
X048418Y014594D01*
X048001Y014177D02*
X048864Y013314D01*
X048418Y014594D02*
X049281Y013731D01*
X048557Y014037D02*
X048724Y01387D01*
X048557D02*
X048724Y014037D01*
X05079Y016938D02*
X051207Y017355D01*
X051653Y016075D02*
X05207Y016492D01*
X051207Y017355D02*
X05207Y016492D01*
X05079Y016938D02*
X051653Y016075D01*
X051347Y016798D02*
X051514Y016631D01*
X051347D02*
X051514Y016798D01*
X044292Y021134D02*
X044528D01*
X04441Y021016D02*
Y021252D01*
X044706Y020524D02*
Y021744D01*
X044115Y020524D02*
Y021744D01*
Y020524D02*
X044706D01*
X044115Y021744D02*
X044706D01*
X047808Y017644D02*
X048398D01*
X047808Y021644D02*
Y022577D01*
Y017644D02*
Y018577D01*
Y020214D02*
Y024604D01*
Y022214D02*
Y026644D01*
X052926Y021644D02*
Y023758D01*
X047808Y019644D02*
Y020577D01*
X052926Y019644D02*
Y021758D01*
X052627Y017644D02*
X052926D01*
X047808Y018214D02*
Y022604D01*
X052926Y020372D02*
Y024604D01*
Y022372D02*
Y026644D01*
X048398Y017644D02*
X052627D01*
X052926D02*
Y019758D01*
Y018372D02*
Y022604D01*
X047808Y026644D02*
X052926D01*
X047808Y018644D02*
X052926D01*
X047808Y020644D02*
X052926D01*
X047808Y022644D02*
X052926D01*
X047808Y024644D02*
X052926D01*
X047808Y026793D02*
X048398D01*
X047808Y030793D02*
Y031726D01*
Y026793D02*
Y027726D01*
Y029364D02*
Y033754D01*
Y031364D02*
Y035793D01*
X052926Y030793D02*
Y032907D01*
X047808Y028793D02*
Y029726D01*
X052926Y028793D02*
Y030907D01*
X052627Y026793D02*
X052926D01*
X047808Y027364D02*
Y031754D01*
X052926Y029521D02*
Y033754D01*
Y031521D02*
Y035793D01*
X048398Y026793D02*
X052627D01*
X052926D02*
Y028907D01*
Y027521D02*
Y031754D01*
X047808Y035793D02*
X052926D01*
X047808Y027793D02*
X052926D01*
X047808Y029793D02*
X052926D01*
X047808Y031793D02*
X052926D01*
X047808Y033793D02*
X052926D01*
X01395Y03073D02*
X019068D01*
X01395Y02873D02*
X019068D01*
X01395Y02673D02*
X019068D01*
Y026769D02*
Y031159D01*
X01395Y029616D02*
Y03173D01*
X014249D01*
X01395Y02473D02*
Y029002D01*
Y027616D02*
Y02973D01*
X018477Y03173D02*
X019068D01*
Y028797D02*
Y02973D01*
Y030797D02*
Y03173D01*
X014249D02*
X018477D01*
X01395Y02473D02*
X019068D01*
Y029159D01*
X01395Y026769D02*
Y031002D01*
X041626Y012347D02*
Y017465D01*
X043626Y012347D02*
Y017465D01*
X045626Y012347D02*
Y017465D01*
X041197D02*
X045587D01*
X040626Y012347D02*
X04274D01*
X040626D02*
Y012646D01*
X043354Y012347D02*
X047626D01*
X042626D02*
X04474D01*
X040626Y016874D02*
Y017465D01*
X042626D02*
X043559D01*
X040626D02*
X041559D01*
X040626Y012646D02*
Y016874D01*
X047626Y012347D02*
Y017465D01*
X043197D02*
X047626D01*
X041354Y012347D02*
X045587D01*
X034476D02*
Y017465D01*
X036476Y012347D02*
Y017465D01*
X038476Y012347D02*
Y017465D01*
X034047D02*
X038437D01*
X033476Y012347D02*
X035591D01*
X033476D02*
Y012646D01*
X036205Y012347D02*
X040476D01*
X035476D02*
X037591D01*
X033476Y016874D02*
Y017465D01*
X035476D02*
X036409D01*
X033476D02*
X034409D01*
X033476Y012646D02*
Y016874D01*
X040476Y012347D02*
Y017465D01*
X036047D02*
X040476D01*
X034205Y012347D02*
X038437D01*
X01395Y023612D02*
X019068D01*
X01395Y021612D02*
X019068D01*
X01395Y019612D02*
X019068D01*
Y019651D02*
Y024041D01*
X01395Y022498D02*
Y024612D01*
X014249D01*
X01395Y017612D02*
Y021884D01*
Y020498D02*
Y022612D01*
X018477Y024612D02*
X019068D01*
Y021679D02*
Y022612D01*
Y023679D02*
Y024612D01*
X014249D02*
X018477D01*
X01395Y017612D02*
X019068D01*
Y022041D01*
X01395Y019651D02*
Y023884D01*
X020177Y012347D02*
Y017465D01*
X022177Y012347D02*
Y017465D01*
X024177Y012347D02*
Y017465D01*
X019748D02*
X024138D01*
X019177Y012347D02*
X021291D01*
X019177D02*
Y012646D01*
X021905Y012347D02*
X026177D01*
X021177D02*
X023291D01*
X019177Y016874D02*
Y017465D01*
X021177D02*
X02211D01*
X019177D02*
X02011D01*
X019177Y012646D02*
Y016874D01*
X026177Y012347D02*
Y017465D01*
X021748D02*
X026177D01*
X019905Y012347D02*
X024138D01*
X027327D02*
Y017465D01*
X029327Y012347D02*
Y017465D01*
X031327Y012347D02*
Y017465D01*
X026898D02*
X031287D01*
X026327Y012347D02*
X028441D01*
X026327D02*
Y012646D01*
X029055Y012347D02*
X033327D01*
X028327D02*
X030441D01*
X026327Y016874D02*
Y017465D01*
X028327D02*
X02926D01*
X026327D02*
X02726D01*
X026327Y012646D02*
Y016874D01*
X033327Y012347D02*
Y017465D01*
X028898D02*
X033327D01*
X027055Y012347D02*
X031287D01*
X028332Y037869D02*
X029907D01*
X028332Y04094D02*
X029907D01*
X028332Y037869D02*
Y04094D01*
X029907Y037869D02*
Y04094D01*
X029119Y039286D02*
Y039522D01*
X029001Y039404D02*
X029237D01*
X015684Y017248D02*
X016101Y01683D01*
X014821Y016385D02*
X015238Y015967D01*
X016101Y01683D01*
X014821Y016385D02*
X015684Y017248D01*
X015377Y016524D02*
X015544Y016691D01*
X015377D02*
X015544Y016524D01*
X017468Y013732D02*
X017886Y013315D01*
X018331Y014595D02*
X018749Y014178D01*
X017468Y013732D02*
X018331Y014595D01*
X017886Y013315D02*
X018749Y014178D01*
X018025Y013871D02*
X018192Y014038D01*
X018025D02*
X018192Y013871D01*
X036241Y034473D02*
X046083D01*
Y018725D02*
Y034473D01*
X036241Y018725D02*
X046083D01*
X036241D02*
Y034473D01*
X042146Y030973D02*
X046083D01*
X042146D02*
Y034473D01*
X031313Y020295D02*
X032887D01*
Y02502D01*
X031313D02*
X032887D01*
X031313Y020295D02*
Y02502D01*
X022238Y043538D02*
X026687D01*
X022238Y049246D02*
X026687D01*
X022238Y043538D02*
Y049246D01*
X026687Y043538D02*
Y049246D01*
X024462Y046274D02*
Y04651D01*
X024344Y046392D02*
X024581D01*
X023667Y040376D02*
X025242D01*
X023667Y042699D02*
X025242D01*
X023667Y040376D02*
Y042699D01*
X025242Y040376D02*
Y042699D01*
X024455Y041341D02*
Y041734D01*
X024258Y041538D02*
X024651D01*
X028442Y041907D02*
Y042301D01*
X028245Y042104D02*
X028639D01*
X027103Y042754D02*
X029781D01*
X027103Y041454D02*
X029781D01*
X027103D02*
Y042754D01*
X029781Y041454D02*
Y042754D01*
X021141Y040532D02*
Y040925D01*
X020945Y040729D02*
X021338D01*
X019803Y041378D02*
X02248D01*
X019803Y040079D02*
X02248D01*
X019803D02*
Y041378D01*
X02248Y040079D02*
Y041378D01*
X01991Y033612D02*
X020146D01*
X020028Y033494D02*
Y03373D01*
X019733Y033022D02*
Y034203D01*
X020324Y033022D02*
Y034203D01*
X019733Y033022D02*
X020324D01*
X019733Y034203D02*
X020324D01*
X028331Y034114D02*
Y035689D01*
X023606D02*
X028331D01*
X023606Y034114D02*
Y035689D01*
Y034114D02*
X028331D01*
X024413Y037148D02*
Y038054D01*
X022445Y037148D02*
Y038054D01*
Y037148D02*
X024413D01*
X022445Y038054D02*
X024413D01*
X023232Y037601D02*
X023626D01*
X023429Y037404D02*
Y037798D01*
X029223Y034533D02*
Y035281D01*
X030562D01*
X029223Y034533D02*
X030562D01*
X029774Y034907D02*
X03001D01*
X029892Y034789D02*
Y035025D01*
X030562Y034533D02*
Y035281D01*
X01595Y032612D02*
Y033203D01*
X014729Y032612D02*
Y033203D01*
Y032612D02*
X01595D01*
X014729Y033203D02*
X01595D01*
X015221Y032907D02*
X015457D01*
X015339Y032789D02*
Y033025D01*
X016543Y03562D02*
X017134D01*
X016543Y0344D02*
X017134D01*
Y03562D01*
X016543Y0344D02*
Y03562D01*
X016838Y034892D02*
Y035128D01*
X01672Y03501D02*
X016956D01*
X01528Y034321D02*
X015674D01*
X015477Y034124D02*
Y034518D01*
X016225Y033632D02*
Y03501D01*
X014729Y033632D02*
X016225D01*
X014729D02*
Y03501D01*
X016225D01*
X01672Y033612D02*
X016956D01*
X016838Y033494D02*
Y03373D01*
X016543Y033022D02*
Y034203D01*
X017134Y033022D02*
Y034203D01*
X016543Y033022D02*
X017134D01*
X016543Y034203D02*
X017134D01*
X017557Y033612D02*
X017794D01*
X017675Y033494D02*
Y03373D01*
X01738Y033022D02*
Y034203D01*
X017971Y033022D02*
Y034203D01*
X01738Y033022D02*
X017971D01*
X01738Y034203D02*
X017971D01*
X023168Y038413D02*
Y038649D01*
X02305Y038531D02*
X023286D01*
X022577Y038826D02*
X023758D01*
X022577Y038236D02*
X023758D01*
X022577D02*
Y038826D01*
X023758Y038236D02*
Y038826D01*
X024533Y038413D02*
Y038649D01*
X024415Y038531D02*
X024651D01*
X023942Y038826D02*
X025123D01*
X023942Y038236D02*
X025123D01*
X023942D02*
Y038826D01*
X025123Y038236D02*
Y038826D01*
X026054Y032689D02*
Y033279D01*
X027274Y032689D02*
Y033279D01*
X026054D02*
X027274D01*
X026054Y032689D02*
X027274D01*
X026546Y032984D02*
X026782D01*
X026664Y032866D02*
Y033102D01*
X025874Y032689D02*
Y033279D01*
X024654Y032689D02*
Y033279D01*
Y032689D02*
X025874D01*
X024654Y033279D02*
X025874D01*
X025146Y032984D02*
X025382D01*
X025264Y032866D02*
Y033102D01*
X028364Y019195D02*
Y019785D01*
X027143Y019195D02*
Y019785D01*
Y019195D02*
X028364D01*
X027143Y019785D02*
X028364D01*
X027635Y01949D02*
X027872D01*
X027753Y019372D02*
Y019608D01*
X027035Y019195D02*
Y019785D01*
X025815Y019195D02*
Y019785D01*
Y019195D02*
X027035D01*
X025815Y019785D02*
X027035D01*
X026307Y01949D02*
X026543D01*
X026425Y019372D02*
Y019608D01*
X025125Y019372D02*
Y019608D01*
X025007Y01949D02*
X025243D01*
X024534Y019785D02*
X025716D01*
X024534Y019195D02*
X025716D01*
X024534D02*
Y019785D01*
X025716Y019195D02*
Y019785D01*
X023835Y019372D02*
Y019608D01*
X023717Y01949D02*
X023953D01*
X023244Y019785D02*
X024426D01*
X023244Y019195D02*
X024426D01*
X023244D02*
Y019785D01*
X024426Y019195D02*
Y019785D01*
X021915Y019195D02*
Y019785D01*
X023135Y019195D02*
Y019785D01*
X021915D02*
X023135D01*
X021915Y019195D02*
X023135D01*
X022407Y01949D02*
X022643D01*
X022525Y019372D02*
Y019608D01*
X019785Y023984D02*
X020375D01*
X019785Y022763D02*
X020375D01*
Y023984D01*
X019785Y022763D02*
Y023984D01*
X02008Y023255D02*
Y023492D01*
X019962Y023374D02*
X020198D01*
X01996Y024754D02*
X020197D01*
X020078Y024635D02*
Y024872D01*
X019783Y024163D02*
Y025344D01*
X020374Y024163D02*
Y025344D01*
X019783Y024163D02*
X020374D01*
X019783Y025344D02*
X020374D01*
X019962Y02611D02*
X020198D01*
X02008Y025992D02*
Y026228D01*
X020375Y025519D02*
Y026701D01*
X019785Y025519D02*
Y026701D01*
X020375D01*
X019785Y025519D02*
X020375D01*
X019962Y027469D02*
X020198D01*
X02008Y02735D02*
Y027587D01*
X020375Y026878D02*
Y028059D01*
X019785Y026878D02*
Y028059D01*
X020375D01*
X019785Y026878D02*
X020375D01*
X026679Y029099D02*
Y029689D01*
X027899Y029099D02*
Y029689D01*
X026679D02*
X027899D01*
X026679Y029099D02*
X027899D01*
X027171Y029394D02*
X027407D01*
X027289Y029276D02*
Y029512D01*
X024574Y029276D02*
Y029512D01*
X024456Y029394D02*
X024692D01*
X023984Y029099D02*
X025165D01*
X023984Y029689D02*
X025165D01*
Y029099D02*
Y029689D01*
X023984Y029099D02*
Y029689D01*
X023208Y029276D02*
Y029512D01*
X02309Y029394D02*
X023327D01*
X022618Y029689D02*
X023799D01*
X022618Y029099D02*
X023799D01*
X022618D02*
Y029689D01*
X023799Y029099D02*
Y029689D01*
X021848Y02927D02*
Y029507D01*
X02173Y029388D02*
X021967D01*
X021258Y029684D02*
X022439D01*
X021258Y029093D02*
X022439D01*
X021258D02*
Y029684D01*
X022439Y029093D02*
Y029684D01*
X030139Y030709D02*
X030375D01*
X030257Y030591D02*
Y030827D01*
X030552Y030119D02*
Y0313D01*
X029961Y030119D02*
Y0313D01*
X030552D01*
X029961Y030119D02*
X030552D01*
X029961Y028719D02*
X030552D01*
X029961Y029939D02*
X030552D01*
X029961Y028719D02*
Y029939D01*
X030552Y028719D02*
Y029939D01*
X030257Y029211D02*
Y029447D01*
X030139Y029329D02*
X030375D01*
X030139Y026239D02*
X030375D01*
X030257Y026121D02*
Y026357D01*
X029961Y025649D02*
Y02683D01*
X030552Y025649D02*
Y02683D01*
X029961Y025649D02*
X030552D01*
X029961Y02683D02*
X030552D01*
X030139Y024879D02*
X030375D01*
X030257Y024761D02*
Y024997D01*
X030552Y024289D02*
Y02547D01*
X029961Y024289D02*
Y02547D01*
X030552D01*
X029961Y024289D02*
X030552D01*
X029961Y022884D02*
X030552D01*
X029961Y024104D02*
X030552D01*
X029961Y022884D02*
Y024104D01*
X030552Y022884D02*
Y024104D01*
X030257Y023376D02*
Y023612D01*
X030139Y023494D02*
X030375D01*
X030139Y022114D02*
X030375D01*
X030257Y021996D02*
Y022232D01*
X030552Y021524D02*
Y022705D01*
X029961Y021524D02*
Y022705D01*
X030552D01*
X029961Y021524D02*
X030552D01*
X029961Y020124D02*
X030552D01*
X029961Y021344D02*
X030552D01*
X029961Y020124D02*
Y021344D01*
X030552Y020124D02*
Y021344D01*
X030257Y020616D02*
Y020852D01*
X030139Y020734D02*
X030375D01*
X0213Y043193D02*
Y048115D01*
Y043193D02*
Y048115D01*
X018111Y043193D02*
Y048115D01*
Y043193D02*
Y048115D01*
X020257Y049296D02*
X0213Y048115D01*
X020257Y049296D02*
X0213Y048115D01*
X018111D02*
X019154Y049296D01*
X018111Y048115D02*
X019154Y049296D01*
X018111Y043193D02*
X0213D01*
X018111D02*
X0213D01*
X019154Y049296D02*
X020257D01*
X019154D02*
X020257D01*
X048859Y043193D02*
Y048115D01*
Y043193D02*
Y048115D01*
X04567Y043193D02*
Y048115D01*
Y043193D02*
Y048115D01*
X047816Y049296D02*
X048859Y048115D01*
X047816Y049296D02*
X048859Y048115D01*
X04567D02*
X046713Y049296D01*
X04567Y048115D02*
X046713Y049296D01*
X04567Y043193D02*
X048859D01*
X04567D02*
X048859D01*
X046713Y049296D02*
X047816D01*
X046713D02*
X047816D01*
X015178Y040741D02*
X017146D01*
X016162Y039756D02*
Y041725D01*
Y036756D02*
Y038725D01*
X015178Y037741D02*
X017146D01*
X014056Y039414D02*
X01878D01*
X014056Y03902D02*
Y039414D01*
Y03902D02*
X01878D01*
X014056Y036241D02*
X01878D01*
X014056D02*
Y042241D01*
X01878D01*
Y036241D02*
Y042241D01*
X049824Y037741D02*
X051792D01*
X050808Y036756D02*
Y038725D01*
Y039756D02*
Y041725D01*
X049824Y040741D02*
X051792D01*
X04819Y039067D02*
X052914D01*
Y039461D01*
X04819D02*
X052914D01*
X04819Y04224D02*
X052914D01*
Y03624D02*
Y04224D01*
X04819Y03624D02*
X052914D01*
X04819D02*
Y04224D01*
X015769Y014118D02*
Y014739D01*
X015149Y014118D02*
X015769D01*
Y013499D02*
Y014118D01*
X016388D01*
X015769Y049552D02*
Y050172D01*
X015149Y049552D02*
X015769D01*
Y048932D02*
Y049552D01*
X016388D01*
X051202D02*
Y050172D01*
X050582Y049552D02*
X051202D01*
Y048932D02*
Y049552D01*
X051822D01*
X051202Y014118D02*
Y014739D01*
X050582Y014118D02*
X051202D01*
Y013499D02*
Y014118D01*
X051822D01*
X043623Y033981D02*
X043885D01*
X044016Y03385D01*
X043885Y033718D01*
X043623D01*
X04382D01*
Y033981D01*
X043623Y033587D02*
X044016D01*
X043623Y033325D01*
X044016D01*
Y033194D02*
Y032931D01*
Y033062D01*
X043623D01*
D13*
X024893Y024698D02*
X025286D01*
X025089Y024501D02*
Y024895D01*
X04171Y046988D02*
Y047066D01*
X041986D01*
X04171Y048129D02*
Y048208D01*
Y048129D02*
X041986D01*
X04049Y046988D02*
Y047066D01*
Y046988D02*
X040804D01*
X040214Y047066D02*
X04049D01*
X040883Y046889D02*
Y046988D01*
Y046889D02*
X041316D01*
Y046988D01*
X04171D01*
X04049D02*
X040883D01*
X04049Y048129D02*
Y048208D01*
X040804D01*
X041395D02*
X04171D01*
X040214Y048129D02*
X04049D01*
X040214Y047066D02*
Y048129D01*
X040804Y048503D02*
X041395D01*
X040804Y048208D02*
Y048503D01*
X041395Y048208D02*
Y048503D01*
X041986Y047066D02*
Y048129D01*
M02*
