G04*
G04 #@! TF.GenerationSoftware,Altium Limited,Altium Designer,19.0.13 (425)*
G04*
G04 Layer_Color=8421504*
%FSTAX24Y24*%
%MOIN*%
G70*
G01*
G75*
G04:AMPARAMS|DCode=18|XSize=78.7mil|YSize=59.1mil|CornerRadius=14.8mil|HoleSize=0mil|Usage=FLASHONLY|Rotation=180.000|XOffset=0mil|YOffset=0mil|HoleType=Round|Shape=RoundedRectangle|*
%AMROUNDEDRECTD18*
21,1,0.0787,0.0295,0,0,180.0*
21,1,0.0492,0.0591,0,0,180.0*
1,1,0.0295,-0.0246,0.0148*
1,1,0.0295,0.0246,0.0148*
1,1,0.0295,0.0246,-0.0148*
1,1,0.0295,-0.0246,-0.0148*
%
%ADD18ROUNDEDRECTD18*%
%ADD29O,0.0098X0.0472*%
%ADD30O,0.0472X0.0098*%
%ADD31C,0.0394*%
G04:AMPARAMS|DCode=32|XSize=37.4mil|YSize=39.4mil|CornerRadius=0mil|HoleSize=0mil|Usage=FLASHONLY|Rotation=135.000|XOffset=0mil|YOffset=0mil|HoleType=Round|Shape=Rectangle|*
%AMROTATEDRECTD32*
4,1,4,0.0271,0.0007,-0.0007,-0.0271,-0.0271,-0.0007,0.0007,0.0271,0.0271,0.0007,0.0*
%
%ADD32ROTATEDRECTD32*%

%ADD33R,0.0160X0.0320*%
%ADD34R,0.0500X0.0827*%
%ADD35R,0.0886X0.0925*%
%ADD36R,0.0394X0.0413*%
%ADD37R,0.0413X0.0866*%
G04:AMPARAMS|DCode=38|XSize=37.4mil|YSize=39.4mil|CornerRadius=0mil|HoleSize=0mil|Usage=FLASHONLY|Rotation=225.000|XOffset=0mil|YOffset=0mil|HoleType=Round|Shape=Rectangle|*
%AMROTATEDRECTD38*
4,1,4,-0.0007,0.0271,0.0271,-0.0007,0.0007,-0.0271,-0.0271,0.0007,-0.0007,0.0271,0.0*
%
%ADD38ROTATEDRECTD38*%

G04:AMPARAMS|DCode=39|XSize=78.7mil|YSize=59.1mil|CornerRadius=14.8mil|HoleSize=0mil|Usage=FLASHONLY|Rotation=270.000|XOffset=0mil|YOffset=0mil|HoleType=Round|Shape=RoundedRectangle|*
%AMROUNDEDRECTD39*
21,1,0.0787,0.0295,0,0,270.0*
21,1,0.0492,0.0591,0,0,270.0*
1,1,0.0295,-0.0148,-0.0246*
1,1,0.0295,-0.0148,0.0246*
1,1,0.0295,0.0148,0.0246*
1,1,0.0295,0.0148,-0.0246*
%
%ADD39ROUNDEDRECTD39*%
%ADD40R,0.0630X0.0827*%
%ADD41R,0.4528X0.3399*%
G04:AMPARAMS|DCode=42|XSize=39.4mil|YSize=133.9mil|CornerRadius=9.8mil|HoleSize=0mil|Usage=FLASHONLY|Rotation=0.000|XOffset=0mil|YOffset=0mil|HoleType=Round|Shape=RoundedRectangle|*
%AMROUNDEDRECTD42*
21,1,0.0394,0.1142,0,0,0.0*
21,1,0.0197,0.1339,0,0,0.0*
1,1,0.0197,0.0098,-0.0571*
1,1,0.0197,-0.0098,-0.0571*
1,1,0.0197,-0.0098,0.0571*
1,1,0.0197,0.0098,0.0571*
%
%ADD42ROUNDEDRECTD42*%
%ADD43R,0.0827X0.1772*%
%ADD44R,0.1358X0.0512*%
%ADD45R,0.0866X0.0610*%
%ADD46R,0.0394X0.0354*%
%ADD47R,0.0827X0.0630*%
%ADD48R,0.0335X0.0472*%
%ADD49R,0.0591X0.0689*%
%ADD50R,0.0413X0.0551*%
%ADD51R,0.0374X0.0394*%
%ADD52R,0.0394X0.0374*%
%ADD53R,0.0394X0.0236*%
%ADD54R,0.0354X0.0394*%
%ADD55R,0.0320X0.0160*%
G04:AMPARAMS|DCode=56|XSize=118.1mil|YSize=212.6mil|CornerRadius=5.9mil|HoleSize=0mil|Usage=FLASHONLY|Rotation=270.000|XOffset=0mil|YOffset=0mil|HoleType=Round|Shape=RoundedRectangle|*
%AMROUNDEDRECTD56*
21,1,0.1181,0.2008,0,0,270.0*
21,1,0.1063,0.2126,0,0,270.0*
1,1,0.0118,-0.1004,-0.0531*
1,1,0.0118,-0.1004,0.0531*
1,1,0.0118,0.1004,0.0531*
1,1,0.0118,0.1004,-0.0531*
%
%ADD56ROUNDEDRECTD56*%
G36*
X020188Y035107D02*
X020088D01*
Y035207D01*
X019848D01*
Y035287D01*
X020188D01*
Y035107D01*
D02*
G37*
G36*
X020028Y035047D02*
X020268D01*
Y034967D01*
X019928D01*
Y035147D01*
X020028D01*
Y035047D01*
D02*
G37*
G36*
X020188Y036267D02*
X020088D01*
Y036367D01*
X019848D01*
Y036447D01*
X020188D01*
Y036267D01*
D02*
G37*
G36*
X020028Y036207D02*
X020268D01*
Y036127D01*
X019928D01*
Y036307D01*
X020028D01*
Y036207D01*
D02*
G37*
G36*
X030427Y027604D02*
X030247D01*
Y027704D01*
X030347D01*
Y027944D01*
X030427D01*
Y027604D01*
D02*
G37*
G36*
X030287Y027764D02*
X030187D01*
Y027524D01*
X030107D01*
Y027864D01*
X030287D01*
Y027764D01*
D02*
G37*
G36*
X030419Y031994D02*
X030239D01*
Y032094D01*
X030339D01*
Y032334D01*
X030419D01*
Y031994D01*
D02*
G37*
G36*
X030279Y032154D02*
X030179D01*
Y031914D01*
X030099D01*
Y032254D01*
X030279D01*
Y032154D01*
D02*
G37*
D18*
X036249Y022449D02*
D03*
X046083Y026449D02*
D03*
Y025449D02*
D03*
Y024449D02*
D03*
Y023449D02*
D03*
Y022449D02*
D03*
Y021449D02*
D03*
Y020449D02*
D03*
X036249D02*
D03*
Y021449D02*
D03*
D29*
X026664Y021706D02*
D03*
X027058D02*
D03*
X027452Y02769D02*
D03*
X027255D02*
D03*
X027058D02*
D03*
X026861D02*
D03*
X026664D02*
D03*
X026467D02*
D03*
X026271D02*
D03*
X026074D02*
D03*
X025877D02*
D03*
X02568D02*
D03*
X025483D02*
D03*
X025286D02*
D03*
X025089D02*
D03*
X024893D02*
D03*
X024696D02*
D03*
X024499D02*
D03*
X024302D02*
D03*
X024105D02*
D03*
X023908D02*
D03*
X023712D02*
D03*
X023515D02*
D03*
X023318D02*
D03*
X023121D02*
D03*
X022924D02*
D03*
X022727D02*
D03*
Y021706D02*
D03*
X022924D02*
D03*
X023121D02*
D03*
X023318D02*
D03*
X023515D02*
D03*
X023712D02*
D03*
X023908D02*
D03*
X024105D02*
D03*
X024302D02*
D03*
X024499D02*
D03*
X024696D02*
D03*
X024893D02*
D03*
X025089D02*
D03*
X025286D02*
D03*
X025483D02*
D03*
X02568D02*
D03*
X025877D02*
D03*
X026074D02*
D03*
X026271D02*
D03*
X026467D02*
D03*
X026861D02*
D03*
X027255D02*
D03*
X027452D02*
D03*
D30*
X028082Y022336D02*
D03*
Y022533D02*
D03*
Y022729D02*
D03*
Y022926D02*
D03*
Y023123D02*
D03*
Y02332D02*
D03*
Y023517D02*
D03*
Y023714D02*
D03*
Y02391D02*
D03*
Y024107D02*
D03*
Y024304D02*
D03*
Y024501D02*
D03*
Y024698D02*
D03*
Y024895D02*
D03*
Y025092D02*
D03*
Y025288D02*
D03*
Y025485D02*
D03*
Y025682D02*
D03*
Y025879D02*
D03*
Y026076D02*
D03*
Y026273D02*
D03*
Y02647D02*
D03*
Y026666D02*
D03*
Y026863D02*
D03*
Y02706D02*
D03*
X022097D02*
D03*
Y026863D02*
D03*
Y026666D02*
D03*
Y02647D02*
D03*
Y026273D02*
D03*
Y026076D02*
D03*
Y025879D02*
D03*
Y025682D02*
D03*
Y025485D02*
D03*
Y025288D02*
D03*
Y025092D02*
D03*
Y024895D02*
D03*
Y024698D02*
D03*
Y024501D02*
D03*
Y024304D02*
D03*
Y024107D02*
D03*
Y02391D02*
D03*
Y023714D02*
D03*
Y023517D02*
D03*
Y02332D02*
D03*
Y023123D02*
D03*
Y022926D02*
D03*
Y022729D02*
D03*
Y022533D02*
D03*
Y022336D02*
D03*
D31*
X049418Y016025D02*
D03*
X016179Y044774D02*
D03*
X050379Y045294D02*
D03*
X016199Y046799D02*
D03*
D32*
X048418Y014177D02*
D03*
X048864Y013731D02*
D03*
X051653Y016492D02*
D03*
X051207Y016938D02*
D03*
D33*
X020348Y036287D02*
D03*
X019768D02*
D03*
Y035127D02*
D03*
X020348D02*
D03*
D34*
X0411Y050536D02*
D03*
D35*
X029119Y03844D02*
D03*
Y040369D02*
D03*
D36*
X0411Y048198D02*
D03*
D37*
X040519Y047598D02*
D03*
X04168D02*
D03*
D38*
X015238Y016385D02*
D03*
X015684Y01683D02*
D03*
X018331Y014178D02*
D03*
X017886Y013732D02*
D03*
D39*
X043828Y03467D02*
D03*
X042828D02*
D03*
X039497D02*
D03*
X038497D02*
D03*
D40*
X0321Y024488D02*
D03*
Y020827D02*
D03*
D41*
X029698Y04907D02*
D03*
D42*
X031017Y04462D02*
D03*
X029678D02*
D03*
X030348D02*
D03*
X029009D02*
D03*
X02834D02*
D03*
D43*
X024462D02*
D03*
Y048164D02*
D03*
D44*
X024455Y040731D02*
D03*
Y042345D02*
D03*
D45*
X027635Y042104D02*
D03*
X029249D02*
D03*
X020334Y040729D02*
D03*
X021948D02*
D03*
D46*
X020028Y033297D02*
D03*
Y033927D02*
D03*
X016838Y033297D02*
D03*
Y033927D02*
D03*
X017675Y033297D02*
D03*
Y033927D02*
D03*
X020078Y024439D02*
D03*
Y025069D02*
D03*
X02008Y026425D02*
D03*
Y025795D02*
D03*
Y027783D02*
D03*
Y027154D02*
D03*
X030257Y031024D02*
D03*
Y030394D02*
D03*
X030257Y025924D02*
D03*
Y026554D02*
D03*
Y025194D02*
D03*
Y024564D02*
D03*
Y022429D02*
D03*
Y021799D02*
D03*
D47*
X024138Y034902D02*
D03*
X027799D02*
D03*
D48*
X02157Y037589D02*
D03*
X020812Y037591D02*
D03*
X021184Y038573D02*
D03*
D49*
X024118Y037601D02*
D03*
X02274D02*
D03*
D50*
X030247Y034907D02*
D03*
X029538D02*
D03*
D51*
X015024Y032907D02*
D03*
X015654D02*
D03*
X026979Y032984D02*
D03*
X026349D02*
D03*
X024949D02*
D03*
X025579D02*
D03*
X027438Y01949D02*
D03*
X028068D02*
D03*
X02611D02*
D03*
X02674D02*
D03*
X02284D02*
D03*
X02221D02*
D03*
X027604Y029394D02*
D03*
X026974D02*
D03*
D52*
X016838Y034695D02*
D03*
Y035325D02*
D03*
X02008Y023059D02*
D03*
Y023688D02*
D03*
X030257Y029644D02*
D03*
Y029014D02*
D03*
X030257Y023809D02*
D03*
Y023179D02*
D03*
Y021049D02*
D03*
Y020419D02*
D03*
D53*
X015024Y034321D02*
D03*
X01593Y034695D02*
D03*
Y033947D02*
D03*
D54*
X022853Y038531D02*
D03*
X023483D02*
D03*
X024218D02*
D03*
X024848D02*
D03*
X02481Y01949D02*
D03*
X02544D02*
D03*
X02352D02*
D03*
X02415D02*
D03*
X024889Y029394D02*
D03*
X024259D02*
D03*
X022894D02*
D03*
X023523D02*
D03*
X021534Y029388D02*
D03*
X022163D02*
D03*
D55*
X030267Y028024D02*
D03*
Y027444D02*
D03*
X030259Y032414D02*
D03*
Y031834D02*
D03*
D56*
X033079Y042374D02*
D03*
Y038437D02*
D03*
M02*
