G04*
G04 #@! TF.GenerationSoftware,Altium Limited,Altium Designer,19.0.13 (425)*
G04*
G04 Layer_Color=16711935*
%FSTAX24Y24*%
%MOIN*%
G70*
G01*
G75*
%ADD12C,0.0020*%
%ADD13C,0.0039*%
%ADD121C,0.0020*%
G36*
X014398Y014908D02*
D01*
D02*
G37*
G36*
Y050342D02*
D01*
D02*
G37*
G36*
X049832Y014908D02*
D01*
D02*
G37*
G36*
Y050342D02*
D01*
D02*
G37*
D12*
X031561Y04953D02*
X031728Y049697D01*
Y04628D02*
Y049697D01*
X02761Y049697D02*
X031728D01*
X02761Y04628D02*
Y049697D01*
Y05002D01*
X028193Y050364D01*
X031193D01*
X027777Y046447D02*
Y04953D01*
X031561D01*
Y046447D02*
Y04953D01*
X02761Y049697D02*
X027777Y04953D01*
X031728Y049697D02*
Y050041D01*
X031193Y050364D02*
X031728Y050041D01*
D13*
X027688Y022296D02*
G03*
X027688Y022296I-000197J0D01*
G01*
X027845Y021942D02*
Y027454D01*
X022334Y021942D02*
Y027454D01*
Y021942D02*
X027845D01*
X022334Y027454D02*
X027845D01*
D121*
X016832Y014118D02*
G03*
X016832Y014118I-001064J0D01*
G01*
X016432D02*
G03*
X016432Y014118I-000664J0D01*
G01*
X016832Y049552D02*
G03*
X016832Y049552I-001064J0D01*
G01*
X016432D02*
G03*
X016432Y049552I-000664J0D01*
G01*
X052265D02*
G03*
X052265Y049552I-001064J0D01*
G01*
X051865D02*
G03*
X051865Y049552I-000664J0D01*
G01*
X052265Y014118D02*
G03*
X052265Y014118I-001064J0D01*
G01*
X051865D02*
G03*
X051865Y014118I-000664J0D01*
G01*
M02*
