G04*
G04 #@! TF.GenerationSoftware,Altium Limited,Altium Designer,19.0.13 (425)*
G04*
G04 Layer_Physical_Order=2*
G04 Layer_Color=16711680*
%FSTAX24Y24*%
%MOIN*%
G70*
G01*
G75*
%ADD10C,0.0098*%
%ADD15C,0.0118*%
%ADD20C,0.0100*%
%ADD52R,0.0394X0.0374*%
%ADD101C,0.0276*%
%ADD103C,0.0394*%
%ADD105C,0.0827*%
%ADD106C,0.0600*%
%ADD107C,0.0866*%
%ADD108C,0.0472*%
%ADD109C,0.0630*%
%ADD110C,0.0750*%
%ADD111O,0.2172X0.2644*%
%ADD112R,0.2172X0.2644*%
%ADD113O,0.0750X0.0650*%
%ADD114O,0.1181X0.1063*%
%ADD115C,0.1260*%
%ADD116C,0.0236*%
%ADD117C,0.0500*%
G36*
X052899Y037734D02*
X052899Y037636D01*
X052861Y037442D01*
X052785Y03726D01*
X052676Y037097D01*
X052537Y036957D01*
X052373Y036848D01*
X052191Y036773D01*
X051998Y036734D01*
X051899Y036734D01*
X051899Y036734D01*
Y036734D01*
X047432D01*
X04735Y036734D01*
X047187Y036756D01*
X047028Y036798D01*
X046877Y036861D01*
X046734Y036943D01*
X046604Y037043D01*
X046488Y037159D01*
X046388Y037289D01*
X046306Y037432D01*
X046243Y037583D01*
X046201Y037742D01*
X046179Y037905D01*
X046179Y037987D01*
X046179Y038058D01*
X046198Y038199D01*
X046234Y038336D01*
X046289Y038467D01*
X04636Y038591D01*
X046447Y038703D01*
X046547Y038804D01*
X04666Y03889D01*
X046783Y038962D01*
X046914Y039016D01*
X047052Y039053D01*
X047193Y039071D01*
X047264Y039071D01*
X047264Y039071D01*
X049434Y039071D01*
X049531Y039076D01*
X049723Y039114D01*
X049903Y039189D01*
X050065Y039297D01*
X050203Y039435D01*
X050312Y039597D01*
X050386Y039778D01*
X050424Y039969D01*
X050429Y040066D01*
Y045574D01*
X050424Y045672D01*
X050386Y045864D01*
X050311Y046045D01*
X050202Y046208D01*
X050064Y046347D01*
X049901Y046456D01*
X049719Y046531D01*
X049527Y046569D01*
X049429Y046574D01*
X047249D01*
X046179Y047824D01*
Y050244D01*
Y050343D01*
X046218Y050536D01*
X046293Y050718D01*
X046402Y050882D01*
X046542Y051021D01*
X046705Y05113D01*
X046887Y051206D01*
X047081Y051244D01*
X047179Y051244D01*
X047179Y051244D01*
X052899D01*
X052899Y037734D01*
D02*
G37*
G36*
X04348Y04669D02*
X042083D01*
Y03569D01*
X044764D01*
Y033705D01*
X03748D01*
Y03569D01*
X040083D01*
Y04669D01*
X03848D01*
Y051384D01*
X039859D01*
X039831Y051372D01*
X039775Y051329D01*
X0401Y051004D01*
X040425Y051329D01*
X040369Y051372D01*
X040341Y051384D01*
X041859D01*
X041831Y051372D01*
X041775Y051329D01*
X0421Y051004D01*
X042425Y051329D01*
X042369Y051372D01*
X042341Y051384D01*
X04348D01*
Y04669D01*
D02*
G37*
G36*
X048711Y045876D02*
X048893Y0458D01*
X049057Y045691D01*
X049196Y045552D01*
X049305Y045388D01*
X049381Y045206D01*
X049419Y045013D01*
Y044914D01*
Y040794D01*
Y040736D01*
X049396Y040622D01*
X049352Y040515D01*
X049287Y040418D01*
X049205Y040336D01*
X049109Y040271D01*
X049001Y040227D01*
X048887Y040204D01*
X047081D01*
X046887Y040243D01*
X046705Y040318D01*
X046542Y040427D01*
X046402Y040567D01*
X046293Y04073D01*
X046218Y040912D01*
X046179Y041106D01*
Y041204D01*
Y045914D01*
X048518D01*
X048711Y045876D01*
D02*
G37*
G36*
X020905Y036684D02*
X020899Y036676D01*
X020894Y036668D01*
X02089Y03666D01*
X020886Y036651D01*
X020883Y036641D01*
X02088Y036631D01*
X020879Y03662D01*
X020878Y036609D01*
X020877Y036597D01*
X020779D01*
X020779Y036609D01*
X020778Y03662D01*
X020776Y036631D01*
X020774Y036641D01*
X020771Y036651D01*
X020767Y03666D01*
X020763Y036668D01*
X020758Y036676D01*
X020752Y036684D01*
X020746Y03669D01*
X020911D01*
X020905Y036684D01*
D02*
G37*
G36*
X024196Y036645D02*
X024192Y036639D01*
X024188Y036632D01*
X024185Y036625D01*
X024183Y036616D01*
X024181Y036607D01*
X024179Y036597D01*
X024178Y036586D01*
X024177Y036561D01*
X024059D01*
X024058Y036574D01*
X024057Y036597D01*
X024055Y036607D01*
X024053Y036616D01*
X02405Y036625D01*
X024047Y036632D01*
X024044Y036639D01*
X02404Y036645D01*
X024035Y03665D01*
X0242D01*
X024196Y036645D01*
D02*
G37*
G36*
X02243Y034889D02*
X022423Y034895D01*
X022415Y034901D01*
X022407Y034906D01*
X022399Y03491D01*
X02239Y034914D01*
X02238Y034917D01*
X02237Y034919D01*
X022359Y034921D01*
X022348Y034922D01*
X022336Y034922D01*
Y035021D01*
X022348Y035021D01*
X022359Y035022D01*
X02237Y035024D01*
X02238Y035026D01*
X02239Y035029D01*
X022399Y035033D01*
X022407Y035037D01*
X022415Y035042D01*
X022423Y035048D01*
X02243Y035054D01*
Y034889D01*
D02*
G37*
G36*
X02133Y034879D02*
X021322Y03487D01*
X021314Y034862D01*
X021308Y034853D01*
X021302Y034844D01*
X021298Y034835D01*
X021294Y034826D01*
X021291Y034817D01*
X021289Y034808D01*
X021288Y034798D01*
X021287Y034789D01*
X02117Y034906D01*
X02118Y034906D01*
X021189Y034907D01*
X021198Y03491D01*
X021207Y034913D01*
X021216Y034916D01*
X021225Y034921D01*
X021234Y034927D01*
X021243Y034933D01*
X021252Y03494D01*
X02126Y034949D01*
X02133Y034879D01*
D02*
G37*
G36*
X019331Y034553D02*
X019041Y034287D01*
X019016Y034311D01*
X018938Y03438D01*
X018924Y03439D01*
X018911Y034398D01*
X0189Y034403D01*
X018891Y034405D01*
X018884Y034405D01*
X019098Y034766D01*
X019331Y034553D01*
D02*
G37*
G36*
X030454Y033439D02*
X030452Y033431D01*
X03045Y03342D01*
X030448Y033406D01*
X030445Y033343D01*
X030444Y033251D01*
X03005D01*
X03005Y033285D01*
X030041Y033431D01*
X030039Y033439D01*
X030037Y033443D01*
X030457D01*
X030454Y033439D01*
D02*
G37*
G36*
X020682Y032971D02*
X02068Y032973D01*
X02061Y03302D01*
X020527Y033036D01*
X020444Y03302D01*
X020383Y032979D01*
Y033517D01*
X020383Y033517D01*
X020373Y033593D01*
X020344Y033664D01*
X020297Y033725D01*
X020297Y033725D01*
X019222Y034799D01*
X019221Y034801D01*
X019176Y034835D01*
X019151Y034894D01*
X019088Y034976D01*
X019006Y035039D01*
X01891Y035079D01*
X018807Y035093D01*
X018704Y035079D01*
X018608Y035039D01*
X018525Y034976D01*
X018462Y034894D01*
X018422Y034798D01*
X018409Y034695D01*
X018422Y034592D01*
X018462Y034496D01*
X018525Y034413D01*
X018608Y03435D01*
X018704Y03431D01*
X018807Y034297D01*
X018876Y034306D01*
X018879Y034304D01*
X018946Y034245D01*
X019795Y033395D01*
Y032433D01*
X01974Y03247D01*
X019657Y032486D01*
X019574Y03247D01*
X019504Y032423D01*
X019457Y032353D01*
X01944Y03227D01*
X019457Y032187D01*
X0195Y032122D01*
X0195Y03212D01*
X0195Y032116D01*
Y03086D01*
X018824Y030184D01*
X018822Y030182D01*
X018806Y030173D01*
X018786Y030163D01*
X018759Y030153D01*
X018726Y030145D01*
X018688Y030138D01*
X018645Y030132D01*
X01854Y030126D01*
X018496Y030126D01*
X018477Y030128D01*
X018345Y030111D01*
X018221Y030059D01*
X018115Y029978D01*
X018034Y029872D01*
X017982Y029748D01*
X017965Y029616D01*
X017982Y029483D01*
X018034Y02936D01*
X018115Y029254D01*
X018221Y029172D01*
X018345Y029121D01*
X018477Y029104D01*
X01861Y029121D01*
X018733Y029172D01*
X018839Y029254D01*
X018921Y02936D01*
X018972Y029483D01*
X018989Y029616D01*
X018987Y029635D01*
X018987Y029679D01*
X018994Y029784D01*
X018999Y029827D01*
X019006Y029865D01*
X019015Y029897D01*
X019024Y029924D01*
X019034Y029945D01*
X019043Y02996D01*
X019045Y029963D01*
X019768Y030685D01*
X019795Y030726D01*
Y023677D01*
X019805Y023601D01*
X019835Y02353D01*
X019881Y023469D01*
X020471Y022879D01*
X020532Y022833D01*
X020603Y022803D01*
X020679Y022793D01*
X022906D01*
X022935Y022793D01*
X023055Y022784D01*
X023098Y022777D01*
X023132Y022768D01*
X023146Y022763D01*
X02315Y02274D01*
X023161Y022577D01*
Y021637D01*
X016784Y01526D01*
X013936D01*
Y03566D01*
X020682D01*
Y032971D01*
D02*
G37*
G36*
X020605Y03273D02*
X020601Y032724D01*
X020597Y032718D01*
X020594Y03271D01*
X020592Y032702D01*
X02059Y032692D01*
X020588Y032682D01*
X020587Y032671D01*
X020586Y032647D01*
X020468D01*
X020468Y032659D01*
X020466Y032682D01*
X020464Y032692D01*
X020462Y032702D01*
X020459Y03271D01*
X020456Y032718D01*
X020453Y032724D01*
X020449Y03273D01*
X020444Y032735D01*
X02061D01*
X020605Y03273D01*
D02*
G37*
G36*
X019735Y03218D02*
X019731Y032174D01*
X019727Y032168D01*
X019724Y03216D01*
X019722Y032152D01*
X01972Y032142D01*
X019718Y032132D01*
X019717Y032121D01*
X019716Y032097D01*
X019598D01*
X019598Y032109D01*
X019596Y032132D01*
X019594Y032142D01*
X019592Y032152D01*
X019589Y03216D01*
X019586Y032168D01*
X019583Y032174D01*
X019579Y03218D01*
X019574Y032185D01*
X01974D01*
X019735Y03218D01*
D02*
G37*
G36*
X020878Y032031D02*
X020879Y03202D01*
X02088Y032009D01*
X020883Y031999D01*
X020886Y031989D01*
X02089Y03198D01*
X020894Y031971D01*
X020899Y031963D01*
X020905Y031956D01*
X020911Y031949D01*
X020746D01*
X020752Y031956D01*
X020758Y031963D01*
X020763Y031971D01*
X020767Y03198D01*
X020771Y031989D01*
X020774Y031999D01*
X020776Y032009D01*
X020778Y03202D01*
X020779Y032031D01*
X020779Y032043D01*
X020877D01*
X020878Y032031D01*
D02*
G37*
G36*
X022525Y030415D02*
X022543Y0304D01*
X022551Y030394D01*
X022559Y030389D01*
X022567Y030385D01*
X022575Y030382D01*
X022582Y03038D01*
X022589Y030378D01*
X022596Y030378D01*
X022479Y030261D01*
X022478Y030268D01*
X022477Y030275D01*
X022475Y030282D01*
X022472Y030289D01*
X022467Y030297D01*
X022462Y030305D01*
X022456Y030314D01*
X022449Y030322D01*
X022433Y03034D01*
X022516Y030424D01*
X022525Y030415D01*
D02*
G37*
G36*
X022106Y030093D02*
X0221Y030085D01*
X022095Y030077D01*
X022091Y030069D01*
X022087Y03006D01*
X022084Y03005D01*
X022082Y03004D01*
X02208Y030029D01*
X022079Y030018D01*
X022079Y030006D01*
X02198D01*
X02198Y030018D01*
X021979Y030029D01*
X021977Y03004D01*
X021975Y03005D01*
X021972Y03006D01*
X021968Y030069D01*
X021964Y030077D01*
X021959Y030085D01*
X021953Y030093D01*
X021947Y0301D01*
X022112D01*
X022106Y030093D01*
D02*
G37*
G36*
X018984Y030039D02*
X018965Y030017D01*
X018949Y029991D01*
X018935Y029961D01*
X018922Y029926D01*
X018912Y029886D01*
X018904Y029842D01*
X018898Y029793D01*
X018891Y029682D01*
X018891Y02962D01*
X018481Y030029D01*
X018544Y03003D01*
X018654Y030036D01*
X018703Y030043D01*
X018747Y030051D01*
X018787Y030061D01*
X018822Y030073D01*
X018853Y030088D01*
X018879Y030104D01*
X0189Y030122D01*
X018984Y030039D01*
D02*
G37*
G36*
X037497Y04567D02*
X03801D01*
Y03667D01*
X036781D01*
Y03267D01*
X045497D01*
Y03567D01*
X053034D01*
Y01526D01*
X050249D01*
X04664Y018869D01*
X028817D01*
X028269Y019416D01*
Y021893D01*
X028271Y021974D01*
X028281Y022079D01*
X028284Y022103D01*
X028299Y022108D01*
X028333Y022117D01*
X028377Y022124D01*
X02843Y022129D01*
X028547Y022133D01*
X031409D01*
X031485Y022143D01*
X031556Y022173D01*
X031617Y022219D01*
X031913Y022515D01*
X03195Y02255D01*
X031996Y022585D01*
X032038Y022611D01*
X032075Y022628D01*
X032107Y022637D01*
X032134Y022639D01*
X032159Y022636D01*
X032183Y022627D01*
X032209Y022611D01*
X032213Y022608D01*
X032601Y02222D01*
Y020435D01*
X032619Y020344D01*
X032671Y020267D01*
X033121Y019817D01*
X033198Y019766D01*
X033288Y019748D01*
X041608D01*
X041699Y019766D01*
X041776Y019817D01*
X043171Y021212D01*
X044045D01*
X044105Y021208D01*
X044119Y021206D01*
Y021168D01*
X044204D01*
X044205Y021168D01*
X044207Y021168D01*
X044211D01*
X044215Y021167D01*
X044218Y021168D01*
X044702D01*
Y021731D01*
X044218D01*
X044215Y021731D01*
X044211Y021731D01*
X044207D01*
X044205Y021731D01*
X044204Y021731D01*
X044119D01*
Y021694D01*
X044017Y021686D01*
X043073D01*
X042982Y021668D01*
X042905Y021617D01*
X04151Y020222D01*
X033386D01*
X033075Y020533D01*
Y022318D01*
X033057Y022409D01*
X033006Y022485D01*
X032363Y023128D01*
Y027637D01*
X032363Y027637D01*
X032353Y027713D01*
X032324Y027784D01*
X032277Y027845D01*
X030541Y029581D01*
Y033302D01*
X030541Y03334D01*
X030544Y033397D01*
X030591Y033458D01*
X030631Y033554D01*
X030645Y033657D01*
X030631Y03376D01*
X030591Y033856D01*
X030528Y033938D01*
X030446Y034002D01*
X03035Y034041D01*
X030247Y034055D01*
X030144Y034041D01*
X030048Y034002D01*
X029965Y033938D01*
X029902Y033856D01*
X029862Y03376D01*
X029849Y033657D01*
X029862Y033554D01*
X029902Y033458D01*
X029947Y0334D01*
X029953Y033292D01*
Y02946D01*
X029963Y029383D01*
X029992Y029313D01*
X030039Y029252D01*
X031775Y027515D01*
Y023546D01*
X031773Y023492D01*
X031766Y023424D01*
X031753Y023358D01*
X031736Y023295D01*
X031714Y023234D01*
X031686Y023176D01*
X031654Y023119D01*
X031617Y023063D01*
X031574Y02301D01*
X031537Y022971D01*
X031287Y022721D01*
X030413D01*
Y023027D01*
X030413Y023029D01*
X030414Y023032D01*
X030457Y023096D01*
X030473Y023179D01*
X030457Y023262D01*
X03041Y023332D01*
X03034Y023379D01*
X030257Y023396D01*
X030174Y023379D01*
X030103Y023332D01*
X030056Y023262D01*
X03004Y023179D01*
X030056Y023096D01*
X030099Y023032D01*
X0301Y02303D01*
X0301Y023026D01*
Y022721D01*
X028571D01*
X028518Y022723D01*
X02845Y02273D01*
X028384Y022743D01*
X028321Y02276D01*
X02826Y022783D01*
X028201Y02281D01*
X028144Y022842D01*
X028089Y02288D01*
X028036Y022922D01*
X027997Y022959D01*
X027661Y023295D01*
X0276Y023342D01*
X027529Y023371D01*
X027453Y023381D01*
X020801D01*
X020383Y023799D01*
Y031389D01*
X020416Y031339D01*
X021106Y030649D01*
X02114Y030626D01*
X021157Y030615D01*
X021217Y030603D01*
X022032D01*
X022379Y030256D01*
X02238Y030255D01*
X022381Y030253D01*
X022397Y030177D01*
X022444Y030106D01*
X022514Y030059D01*
X022597Y030043D01*
X02268Y030059D01*
X02275Y030106D01*
X022797Y030177D01*
X022814Y03026D01*
X022797Y030343D01*
X02275Y030413D01*
X02268Y03046D01*
X022604Y030475D01*
X022602Y030476D01*
X022599Y030479D01*
X022208Y03087D01*
X022157Y030904D01*
X022097Y030916D01*
X021282D01*
X020683Y031515D01*
Y031706D01*
X020745Y031665D01*
X020828Y031648D01*
X020911Y031665D01*
X020982Y031712D01*
X021029Y031782D01*
X021045Y031865D01*
X021029Y031948D01*
X020982Y032018D01*
X020977Y032021D01*
X020977Y032021D01*
X020976Y032024D01*
X020975Y032027D01*
X020975Y03203D01*
Y034696D01*
X021016Y034635D01*
X021086Y034588D01*
X021169Y034571D01*
X021252Y034588D01*
X021322Y034635D01*
X021369Y034705D01*
X021386Y034788D01*
X021385Y034794D01*
X021385Y034794D01*
X021386Y034796D01*
X021388Y034799D01*
X021389Y034801D01*
X021413Y034825D01*
X022349D01*
X022352Y034825D01*
X022355Y034824D01*
X022357Y034823D01*
X022357Y034823D01*
X022361Y034818D01*
X022431Y034771D01*
X022514Y034755D01*
X022597Y034771D01*
X022667Y034818D01*
X022714Y034889D01*
X022731Y034971D01*
X022714Y035054D01*
X022667Y035125D01*
X022597Y035172D01*
X022514Y035188D01*
X022431Y035172D01*
X022361Y035125D01*
X022357Y03512D01*
X022357Y03512D01*
X022355Y035119D01*
X022352Y035118D01*
X022349Y035118D01*
X021353D01*
X021297Y035107D01*
X021249Y035075D01*
X021182Y035008D01*
X02118Y035006D01*
X021177Y035005D01*
X021175Y035003D01*
X021175Y035003D01*
X021169Y035005D01*
X021086Y034988D01*
X021016Y034941D01*
X020975Y03488D01*
Y036518D01*
X023961D01*
Y033999D01*
X022998Y033036D01*
X022964Y032985D01*
X022952Y032925D01*
Y02656D01*
X02291Y026623D01*
X02284Y02667D01*
X022757Y026686D01*
X022751Y026685D01*
X022751Y026685D01*
X022749Y026686D01*
X022746Y026688D01*
X022744Y02669D01*
X022176Y027258D01*
Y030019D01*
X022176Y030022D01*
X022177Y030025D01*
X022178Y030027D01*
X022178Y030028D01*
X022183Y030031D01*
X02223Y030101D01*
X022246Y030184D01*
X02223Y030267D01*
X022183Y030337D01*
X022112Y030384D01*
X022029Y030401D01*
X021946Y030384D01*
X021876Y030337D01*
X021829Y030267D01*
X021813Y030184D01*
X021829Y030101D01*
X021876Y030031D01*
X021881Y030028D01*
X021881Y030027D01*
X021882Y030025D01*
X021882Y030022D01*
X021883Y030019D01*
Y027197D01*
X021894Y027141D01*
X021926Y027093D01*
X022537Y026482D01*
X022538Y02648D01*
X02254Y026478D01*
X022541Y026475D01*
X022541Y026475D01*
X02254Y02647D01*
X022556Y026387D01*
X022603Y026316D01*
X022674Y026269D01*
X022757Y026253D01*
X02284Y026269D01*
X02291Y026316D01*
X022952Y026379D01*
Y025315D01*
X022964Y025255D01*
X022998Y025204D01*
X024162Y024039D01*
X024163Y024038D01*
X024164Y024038D01*
X02418Y023957D01*
X024227Y023887D01*
X024297Y02384D01*
X02438Y023823D01*
X024463Y02384D01*
X024533Y023887D01*
X02458Y023957D01*
X024597Y02404D01*
X02458Y024123D01*
X024533Y024193D01*
X024463Y02424D01*
X024391Y024255D01*
X024391Y024255D01*
X024388Y024257D01*
X024385Y024259D01*
X023265Y02538D01*
Y03286D01*
X024228Y033824D01*
X024262Y033874D01*
X024274Y033934D01*
Y036518D01*
X029953D01*
Y03699D01*
X020836D01*
X020828Y036992D01*
X02082Y03699D01*
X020612D01*
Y03604D01*
X013936D01*
Y051384D01*
X037497D01*
Y04567D01*
D02*
G37*
G36*
X022674Y026622D02*
X022683Y026615D01*
X022692Y026608D01*
X022701Y026603D01*
X02271Y026598D01*
X022719Y026594D01*
X022728Y026591D01*
X022737Y026589D01*
X022746Y026588D01*
X022756Y026588D01*
X022639Y026471D01*
X022638Y02648D01*
X022637Y026489D01*
X022635Y026498D01*
X022632Y026508D01*
X022628Y026517D01*
X022623Y026526D01*
X022618Y026535D01*
X022611Y026543D01*
X022604Y026552D01*
X022596Y026561D01*
X022665Y02663D01*
X022674Y026622D01*
D02*
G37*
G36*
X024311Y024196D02*
X024328Y024181D01*
X024337Y024175D01*
X024345Y02417D01*
X024353Y024166D01*
X02436Y024162D01*
X024367Y02416D01*
X024374Y024159D01*
X024381Y024158D01*
X024262Y024043D01*
X024262Y02405D01*
X02426Y024057D01*
X024258Y024065D01*
X024255Y024072D01*
X024251Y02408D01*
X024246Y024088D01*
X02424Y024096D01*
X024233Y024105D01*
X024216Y024123D01*
X024302Y024205D01*
X024311Y024196D01*
D02*
G37*
G36*
X030335Y02309D02*
X030331Y023084D01*
X030327Y023077D01*
X030324Y023069D01*
X030322Y023061D01*
X03032Y023052D01*
X030318Y023042D01*
X030317Y023031D01*
X030316Y023006D01*
X030198D01*
X030197Y023019D01*
X030196Y023042D01*
X030194Y023052D01*
X030192Y023061D01*
X030189Y023069D01*
X030186Y023077D01*
X030183Y023084D01*
X030178Y02309D01*
X030174Y023095D01*
X030339D01*
X030335Y02309D01*
D02*
G37*
G36*
X032069Y023087D02*
X032139Y02296D01*
X032266Y023087D01*
X032269Y023084D01*
X032311Y023041D01*
X032544Y022807D01*
X032349Y022612D01*
X032303Y022658D01*
X032266Y02269D01*
X032224Y022715D01*
X032181Y02273D01*
X032137Y022736D01*
X03209Y022732D01*
X032042Y022719D01*
X031992Y022697D01*
X031941Y022664D01*
X031887Y022623D01*
X031833Y022572D01*
X031594Y02289D01*
X031647Y022947D01*
X031694Y023006D01*
X031736Y023068D01*
X031772Y023131D01*
X031803Y023197D01*
X031828Y023266D01*
X031847Y023336D01*
X031861Y023409D01*
X031869Y023485D01*
X031872Y023562D01*
X032069Y023087D01*
D02*
G37*
G36*
X030316Y022589D02*
X030318Y022567D01*
X03032Y022556D01*
X030322Y022547D01*
X030324Y022539D01*
X030327Y022531D01*
X030331Y022524D01*
X030335Y022518D01*
X030339Y022513D01*
X030174D01*
X030178Y022518D01*
X030183Y022524D01*
X030186Y022531D01*
X030189Y022539D01*
X030192Y022547D01*
X030194Y022556D01*
X030196Y022567D01*
X030197Y022578D01*
X030198Y022602D01*
X030316D01*
X030316Y022589D01*
D02*
G37*
G36*
X023771Y02289D02*
X023629Y022886D01*
X02357Y02288D01*
X023519Y022871D01*
X023475Y022861D01*
X02344Y022848D01*
X023412Y022832D01*
X023403Y022824D01*
X023397Y022797D01*
X02339Y02275D01*
X02338Y022639D01*
X023377Y022506D01*
X023259D01*
X023258Y022575D01*
X023246Y02275D01*
X023239Y022797D01*
X023233Y022824D01*
X023223Y022832D01*
X023196Y022848D01*
X02316Y022861D01*
X023117Y022871D01*
X023066Y02288D01*
X02294Y022889D01*
X022865Y02289D01*
X023318Y023284D01*
X023771Y02289D01*
D02*
G37*
G36*
X027973Y022849D02*
X028032Y022802D01*
X028093Y02276D01*
X028157Y022724D01*
X028223Y022694D01*
X028292Y022668D01*
X028362Y022649D01*
X028435Y022635D01*
X028511Y022627D01*
X028588Y022624D01*
X028566Y02223D01*
X028424Y022226D01*
X028365Y02222D01*
X028314Y022211D01*
X02827Y022201D01*
X028235Y022188D01*
X028207Y022172D01*
X028198Y022164D01*
X028192Y022137D01*
X028185Y02209D01*
X028175Y021979D01*
X028172Y021846D01*
X028054D01*
X028053Y021915D01*
X028041Y02209D01*
X028034Y022137D01*
X028025Y022179D01*
X028015Y022214D01*
X028003Y022245D01*
X027989Y022269D01*
X027974Y022288D01*
X028139D01*
X028113Y022427D01*
X027916Y022902D01*
X027973Y022849D01*
D02*
G37*
G36*
X044215Y021263D02*
X044212Y021273D01*
X044204Y021281D01*
X04419Y021288D01*
X04417Y021294D01*
X044146Y021299D01*
X044115Y021304D01*
X044038Y021309D01*
X043939Y021311D01*
Y021587D01*
X043991Y021587D01*
X044146Y021599D01*
X04417Y021604D01*
X04419Y021611D01*
X044204Y021618D01*
X044212Y021626D01*
X044215Y021635D01*
Y021263D01*
D02*
G37*
G36*
X021672Y019575D02*
X021664Y019566D01*
X021649Y019549D01*
X021643Y01954D01*
X021638Y019532D01*
X021634Y019525D01*
X02163Y019517D01*
X021628Y01951D01*
X021627Y019503D01*
X021626Y019496D01*
X021509Y019613D01*
X021516Y019613D01*
X021523Y019615D01*
X02153Y019617D01*
X021538Y01962D01*
X021546Y019624D01*
X021554Y019629D01*
X021562Y019635D01*
X021571Y019642D01*
X021589Y019659D01*
X021672Y019575D01*
D02*
G37*
G36*
X027905Y022219D02*
X027905Y022219D01*
X027909Y022215D01*
X027915Y022203D01*
X027923Y022183D01*
X027931Y022155D01*
X027939Y02212D01*
X027945Y02208D01*
X027956Y021917D01*
Y019224D01*
X027968Y019164D01*
X028002Y019113D01*
X028243Y018872D01*
X028244Y018871D01*
X028246Y018869D01*
X028261Y018793D01*
X028308Y018722D01*
X028378Y018675D01*
X028461Y018659D01*
X028544Y018675D01*
X028614Y018722D01*
X028751Y018586D01*
X046474D01*
X05004Y01502D01*
Y012286D01*
X01683D01*
Y014817D01*
X021355Y019342D01*
X021425Y019295D01*
X021508Y019278D01*
X021591Y019295D01*
X021662Y019342D01*
X021709Y019412D01*
X021724Y019488D01*
X021725Y019489D01*
X021727Y019492D01*
X023428Y021194D01*
X023462Y021244D01*
X023474Y021304D01*
Y022553D01*
X023476Y022634D01*
X023485Y022739D01*
X023489Y022763D01*
X023503Y022768D01*
X023538Y022777D01*
X023582Y022784D01*
X023635Y022789D01*
X023752Y022793D01*
X027331D01*
X027905Y022219D01*
D02*
G37*
G36*
X02839Y019031D02*
X028407Y019016D01*
X028415Y01901D01*
X028424Y019005D01*
X028431Y019001D01*
X028439Y018998D01*
X028446Y018996D01*
X028453Y018994D01*
X02846Y018994D01*
X028343Y018877D01*
X028343Y018884D01*
X028341Y018891D01*
X028339Y018898D01*
X028336Y018906D01*
X028332Y018913D01*
X028327Y018921D01*
X028321Y01893D01*
X028314Y018938D01*
X028297Y018956D01*
X02838Y01904D01*
X02839Y019031D01*
D02*
G37*
%LPC*%
G36*
X051202Y050319D02*
X051052Y050304D01*
X050908Y050261D01*
X050775Y05019D01*
X050659Y050094D01*
X050563Y049978D01*
X050493Y049845D01*
X050449Y049701D01*
X050434Y049552D01*
X050449Y049402D01*
X050493Y049258D01*
X050563Y049125D01*
X050659Y049009D01*
X050775Y048913D01*
X050908Y048843D01*
X051052Y048799D01*
X051202Y048784D01*
X051351Y048799D01*
X051495Y048843D01*
X051628Y048913D01*
X051744Y049009D01*
X05184Y049125D01*
X051911Y049258D01*
X051954Y049402D01*
X051969Y049552D01*
X051954Y049701D01*
X051911Y049845D01*
X05184Y049978D01*
X051744Y050094D01*
X051628Y05019D01*
X051495Y050261D01*
X051351Y050304D01*
X051202Y050319D01*
D02*
G37*
G36*
X039677Y051232D02*
X039634Y051175D01*
X03958Y051046D01*
X039562Y050907D01*
X03958Y050767D01*
X039634Y050638D01*
X039677Y050581D01*
X040002Y050907D01*
X039677Y051232D01*
D02*
G37*
G36*
X041677D02*
X041634Y051175D01*
X04158Y051046D01*
X041562Y050907D01*
X04158Y050767D01*
X041634Y050638D01*
X041677Y050581D01*
X042002Y050907D01*
X041677Y051232D01*
D02*
G37*
G36*
X042522Y051232D02*
X042197Y050907D01*
X042522Y050581D01*
X042565Y050638D01*
X042619Y050767D01*
X042637Y050907D01*
X042619Y051046D01*
X042565Y051175D01*
X042522Y051232D01*
D02*
G37*
G36*
X040522D02*
X040197Y050907D01*
X040522Y050581D01*
X040565Y050638D01*
X040619Y050767D01*
X040637Y050907D01*
X040619Y051046D01*
X040565Y051175D01*
X040522Y051232D01*
D02*
G37*
G36*
X0421Y050809D02*
X041775Y050484D01*
X041831Y050441D01*
X041961Y050387D01*
X0421Y050369D01*
X042239Y050387D01*
X042369Y050441D01*
X042425Y050484D01*
X0421Y050809D01*
D02*
G37*
G36*
X0401D02*
X039775Y050484D01*
X039831Y050441D01*
X039961Y050387D01*
X0401Y050369D01*
X040239Y050387D01*
X040369Y050441D01*
X040425Y050484D01*
X0401Y050809D01*
D02*
G37*
G36*
X0411Y050439D02*
X040962Y05042D01*
X040834Y050367D01*
X040724Y050283D01*
X040639Y050173D01*
X040586Y050044D01*
X040568Y049907D01*
X040586Y049769D01*
X040639Y04964D01*
X040724Y04953D01*
X040834Y049446D01*
X040962Y049393D01*
X0411Y049374D01*
X041237Y049393D01*
X041366Y049446D01*
X041476Y04953D01*
X041561Y04964D01*
X041614Y049769D01*
X041632Y049907D01*
X041614Y050044D01*
X041561Y050173D01*
X041476Y050283D01*
X041366Y050367D01*
X041237Y05042D01*
X0411Y050439D01*
D02*
G37*
G36*
X0421Y049444D02*
X041961Y049426D01*
X041831Y049372D01*
X041775Y049329D01*
X0421Y049004D01*
X042425Y049329D01*
X042369Y049372D01*
X042239Y049426D01*
X0421Y049444D01*
D02*
G37*
G36*
X0401D02*
X039961Y049426D01*
X039831Y049372D01*
X039775Y049329D01*
X0401Y049004D01*
X040425Y049329D01*
X040369Y049372D01*
X040239Y049426D01*
X0401Y049444D01*
D02*
G37*
G36*
X039677Y049232D02*
X039634Y049175D01*
X03958Y049046D01*
X039562Y048907D01*
X03958Y048767D01*
X039634Y048638D01*
X039677Y048581D01*
X040002Y048907D01*
X039677Y049232D01*
D02*
G37*
G36*
X041677D02*
X041634Y049175D01*
X04158Y049046D01*
X041562Y048907D01*
X04158Y048767D01*
X041634Y048638D01*
X041677Y048581D01*
X042002Y048907D01*
X041677Y049232D01*
D02*
G37*
G36*
X042522Y049232D02*
X042197Y048907D01*
X042522Y048581D01*
X042565Y048638D01*
X042619Y048767D01*
X042637Y048907D01*
X042619Y049046D01*
X042565Y049175D01*
X042522Y049232D01*
D02*
G37*
G36*
X040522D02*
X040197Y048907D01*
X040522Y048581D01*
X040565Y048638D01*
X040619Y048767D01*
X040637Y048907D01*
X040619Y049046D01*
X040565Y049175D01*
X040522Y049232D01*
D02*
G37*
G36*
X0421Y048809D02*
X041775Y048484D01*
X041831Y048441D01*
X041961Y048387D01*
X0421Y048369D01*
X042239Y048387D01*
X042369Y048441D01*
X042425Y048484D01*
X0421Y048809D01*
D02*
G37*
G36*
X0401D02*
X039775Y048484D01*
X039831Y048441D01*
X039961Y048387D01*
X0401Y048369D01*
X040239Y048387D01*
X040369Y048441D01*
X040425Y048484D01*
X0401Y048809D01*
D02*
G37*
G36*
X015477Y030128D02*
X015345Y030111D01*
X015221Y030059D01*
X015115Y029978D01*
X015034Y029872D01*
X014982Y029748D01*
X014965Y029616D01*
X014982Y029483D01*
X015034Y02936D01*
X015115Y029254D01*
X015221Y029172D01*
X015345Y029121D01*
X015477Y029104D01*
X01561Y029121D01*
X015733Y029172D01*
X015839Y029254D01*
X015921Y02936D01*
X015972Y029483D01*
X015989Y029616D01*
X015972Y029748D01*
X015921Y029872D01*
X015839Y029978D01*
X015733Y030059D01*
X01561Y030111D01*
X015477Y030128D01*
D02*
G37*
G36*
X018477Y028128D02*
X018345Y028111D01*
X018221Y028059D01*
X018115Y027978D01*
X018103Y027963D01*
X01807Y02793D01*
X017989Y027857D01*
X017954Y027829D01*
X017921Y027806D01*
X017892Y027788D01*
X017866Y027776D01*
X017845Y027767D01*
X01783Y027764D01*
X017825Y027763D01*
X016129D01*
X016125Y027764D01*
X016109Y027767D01*
X016088Y027776D01*
X016063Y027788D01*
X016033Y027806D01*
X016002Y027828D01*
X015884Y02793D01*
X015851Y027963D01*
X015839Y027978D01*
X015733Y028059D01*
X01561Y028111D01*
X015477Y028128D01*
X015345Y028111D01*
X015221Y028059D01*
X015115Y027978D01*
X015034Y027872D01*
X014982Y027748D01*
X014965Y027616D01*
X014982Y027483D01*
X015034Y02736D01*
X015115Y027254D01*
X015221Y027172D01*
X015345Y027121D01*
X015477Y027104D01*
X01561Y027121D01*
X015733Y027172D01*
X015839Y027254D01*
X015851Y027269D01*
X015884Y027302D01*
X015966Y027375D01*
X016001Y027402D01*
X016033Y027425D01*
X016063Y027443D01*
X016088Y027456D01*
X016109Y027464D01*
X016125Y027468D01*
X016129Y027469D01*
X017825D01*
X01783Y027468D01*
X017845Y027464D01*
X017866Y027456D01*
X017892Y027443D01*
X017921Y027425D01*
X017952Y027404D01*
X018071Y027301D01*
X018103Y027269D01*
X018115Y027254D01*
X018221Y027172D01*
X018345Y027121D01*
X018477Y027104D01*
X01861Y027121D01*
X018733Y027172D01*
X018839Y027254D01*
X018921Y02736D01*
X018972Y027483D01*
X018989Y027616D01*
X018972Y027748D01*
X018921Y027872D01*
X018839Y027978D01*
X018733Y028059D01*
X01861Y028111D01*
X018477Y028128D01*
D02*
G37*
G36*
Y026134D02*
X018343Y026116D01*
X018218Y026064D01*
X018166Y026024D01*
X018477Y025713D01*
X018788Y026024D01*
X018736Y026064D01*
X018611Y026116D01*
X018477Y026134D01*
D02*
G37*
G36*
X015477D02*
X015343Y026116D01*
X015218Y026064D01*
X015166Y026024D01*
X015477Y025713D01*
X015788Y026024D01*
X015736Y026064D01*
X015611Y026116D01*
X015477Y026134D01*
D02*
G37*
G36*
X018069Y025927D02*
X018029Y025875D01*
X017977Y02575D01*
X017959Y025616D01*
X017977Y025482D01*
X018029Y025357D01*
X018069Y025305D01*
X01838Y025616D01*
X018069Y025927D01*
D02*
G37*
G36*
X015069D02*
X015029Y025875D01*
X014977Y02575D01*
X014959Y025616D01*
X014977Y025482D01*
X015029Y025357D01*
X015069Y025305D01*
X01538Y025616D01*
X015069Y025927D01*
D02*
G37*
G36*
X018886Y025927D02*
X018575Y025616D01*
X018886Y025305D01*
X018926Y025357D01*
X018977Y025482D01*
X018995Y025616D01*
X018977Y02575D01*
X018926Y025875D01*
X018886Y025927D01*
D02*
G37*
G36*
X015886D02*
X015575Y025616D01*
X015886Y025305D01*
X015926Y025357D01*
X015977Y025482D01*
X015995Y025616D01*
X015977Y02575D01*
X015926Y025875D01*
X015886Y025927D01*
D02*
G37*
G36*
X018477Y025518D02*
X018166Y025207D01*
X018218Y025167D01*
X018343Y025116D01*
X018477Y025098D01*
X018611Y025116D01*
X018736Y025167D01*
X018788Y025207D01*
X018477Y025518D01*
D02*
G37*
G36*
X015477D02*
X015166Y025207D01*
X015218Y025167D01*
X015343Y025116D01*
X015477Y025098D01*
X015611Y025116D01*
X015736Y025167D01*
X015788Y025207D01*
X015477Y025518D01*
D02*
G37*
G36*
X018477Y02301D02*
X018345Y022993D01*
X018221Y022941D01*
X018115Y02286D01*
X018034Y022754D01*
X017982Y02263D01*
X017965Y022498D01*
X017982Y022365D01*
X018034Y022242D01*
X018115Y022136D01*
X018221Y022054D01*
X018345Y022003D01*
X018477Y021985D01*
X01861Y022003D01*
X018733Y022054D01*
X018839Y022136D01*
X018921Y022242D01*
X018972Y022365D01*
X018989Y022498D01*
X018972Y02263D01*
X018921Y022754D01*
X018839Y02286D01*
X018733Y022941D01*
X01861Y022993D01*
X018477Y02301D01*
D02*
G37*
G36*
X015477D02*
X015345Y022993D01*
X015221Y022941D01*
X015115Y02286D01*
X015034Y022754D01*
X014982Y02263D01*
X014965Y022498D01*
X014982Y022365D01*
X015034Y022242D01*
X015115Y022136D01*
X015221Y022054D01*
X015345Y022003D01*
X015477Y021985D01*
X01561Y022003D01*
X015733Y022054D01*
X015839Y022136D01*
X015921Y022242D01*
X015972Y022365D01*
X015989Y022498D01*
X015972Y02263D01*
X015921Y022754D01*
X015839Y02286D01*
X015733Y022941D01*
X01561Y022993D01*
X015477Y02301D01*
D02*
G37*
G36*
X018477Y02101D02*
X018345Y020993D01*
X018221Y020941D01*
X018115Y02086D01*
X018103Y020845D01*
X01807Y020812D01*
X017989Y020739D01*
X017954Y020711D01*
X017921Y020688D01*
X017892Y02067D01*
X017866Y020657D01*
X017845Y020649D01*
X01783Y020645D01*
X017825Y020645D01*
X016129D01*
X016125Y020645D01*
X016109Y020649D01*
X016088Y020657D01*
X016063Y02067D01*
X016033Y020688D01*
X016002Y02071D01*
X015884Y020812D01*
X015851Y020845D01*
X015839Y02086D01*
X015733Y020941D01*
X01561Y020993D01*
X015477Y02101D01*
X015345Y020993D01*
X015221Y020941D01*
X015115Y02086D01*
X015034Y020754D01*
X014982Y02063D01*
X014965Y020498D01*
X014982Y020365D01*
X015034Y020242D01*
X015115Y020136D01*
X015221Y020054D01*
X015345Y020003D01*
X015477Y019985D01*
X01561Y020003D01*
X015733Y020054D01*
X015839Y020136D01*
X015851Y020151D01*
X015884Y020184D01*
X015966Y020257D01*
X016001Y020284D01*
X016033Y020307D01*
X016063Y020325D01*
X016088Y020338D01*
X016109Y020346D01*
X016125Y02035D01*
X016129Y02035D01*
X017825D01*
X01783Y02035D01*
X017845Y020346D01*
X017866Y020338D01*
X017892Y020325D01*
X017921Y020307D01*
X017952Y020286D01*
X018071Y020183D01*
X018103Y020151D01*
X018115Y020136D01*
X018221Y020054D01*
X018345Y020003D01*
X018477Y019985D01*
X01861Y020003D01*
X018733Y020054D01*
X018839Y020136D01*
X018921Y020242D01*
X018972Y020365D01*
X018989Y020498D01*
X018972Y02063D01*
X018921Y020754D01*
X018839Y02086D01*
X018733Y020941D01*
X01861Y020993D01*
X018477Y02101D01*
D02*
G37*
G36*
Y019016D02*
X018343Y018998D01*
X018218Y018946D01*
X018166Y018906D01*
X018477Y018595D01*
X018788Y018906D01*
X018736Y018946D01*
X018611Y018998D01*
X018477Y019016D01*
D02*
G37*
G36*
X015477D02*
X015343Y018998D01*
X015218Y018946D01*
X015166Y018906D01*
X015477Y018595D01*
X015788Y018906D01*
X015736Y018946D01*
X015611Y018998D01*
X015477Y019016D01*
D02*
G37*
G36*
X018069Y018809D02*
X018029Y018757D01*
X017977Y018632D01*
X017959Y018498D01*
X017977Y018364D01*
X018029Y018239D01*
X018069Y018187D01*
X01838Y018498D01*
X018069Y018809D01*
D02*
G37*
G36*
X015069D02*
X015029Y018757D01*
X014977Y018632D01*
X014959Y018498D01*
X014977Y018364D01*
X015029Y018239D01*
X015069Y018187D01*
X01538Y018498D01*
X015069Y018809D01*
D02*
G37*
G36*
X018886Y018809D02*
X018575Y018498D01*
X018886Y018187D01*
X018926Y018239D01*
X018977Y018364D01*
X018995Y018498D01*
X018977Y018632D01*
X018926Y018757D01*
X018886Y018809D01*
D02*
G37*
G36*
X015886D02*
X015575Y018498D01*
X015886Y018187D01*
X015926Y018239D01*
X015977Y018364D01*
X015995Y018498D01*
X015977Y018632D01*
X015926Y018757D01*
X015886Y018809D01*
D02*
G37*
G36*
X018477Y0184D02*
X018166Y018089D01*
X018218Y018049D01*
X018343Y017998D01*
X018477Y01798D01*
X018611Y017998D01*
X018736Y018049D01*
X018788Y018089D01*
X018477Y0184D01*
D02*
G37*
G36*
X015477D02*
X015166Y018089D01*
X015218Y018049D01*
X015343Y017998D01*
X015477Y01798D01*
X015611Y017998D01*
X015736Y018049D01*
X015788Y018089D01*
X015477Y0184D01*
D02*
G37*
%LPD*%
G36*
X018182Y027326D02*
X018136Y027372D01*
X018011Y02748D01*
X017974Y027506D01*
X017939Y027528D01*
X017905Y027544D01*
X017874Y027556D01*
X017846Y027563D01*
X017819Y027566D01*
Y027666D01*
X017846Y027668D01*
X017874Y027675D01*
X017905Y027687D01*
X017939Y027704D01*
X017974Y027726D01*
X018011Y027752D01*
X018051Y027783D01*
X018136Y02786D01*
X018182Y027905D01*
Y027326D01*
D02*
G37*
G36*
X015818Y02786D02*
X015943Y027752D01*
X01598Y027726D01*
X016016Y027704D01*
X016049Y027687D01*
X01608Y027675D01*
X016109Y027668D01*
X016136Y027666D01*
Y027566D01*
X016109Y027563D01*
X01608Y027556D01*
X016049Y027544D01*
X016016Y027528D01*
X01598Y027506D01*
X015943Y02748D01*
X015904Y027449D01*
X015818Y027372D01*
X015772Y027326D01*
Y027905D01*
X015818Y02786D01*
D02*
G37*
G36*
X018182Y020208D02*
X018136Y020254D01*
X018011Y020362D01*
X017974Y020388D01*
X017939Y020409D01*
X017905Y020426D01*
X017874Y020438D01*
X017846Y020445D01*
X017819Y020448D01*
Y020548D01*
X017846Y02055D01*
X017874Y020557D01*
X017905Y020569D01*
X017939Y020586D01*
X017974Y020608D01*
X018011Y020634D01*
X018051Y020665D01*
X018136Y020742D01*
X018182Y020787D01*
Y020208D01*
D02*
G37*
G36*
X015818Y020742D02*
X015943Y020634D01*
X01598Y020608D01*
X016016Y020586D01*
X016049Y020569D01*
X01608Y020557D01*
X016109Y02055D01*
X016136Y020548D01*
Y020448D01*
X016109Y020445D01*
X01608Y020438D01*
X016049Y020426D01*
X016016Y020409D01*
X01598Y020388D01*
X015943Y020362D01*
X015904Y02033D01*
X015818Y020254D01*
X015772Y020208D01*
Y020787D01*
X015818Y020742D01*
D02*
G37*
%LPC*%
G36*
X015769Y050319D02*
X015619Y050304D01*
X015475Y050261D01*
X015342Y05019D01*
X015226Y050094D01*
X01513Y049978D01*
X015059Y049845D01*
X015016Y049701D01*
X015001Y049552D01*
X015016Y049402D01*
X015059Y049258D01*
X01513Y049125D01*
X015226Y049009D01*
X015342Y048913D01*
X015475Y048843D01*
X015619Y048799D01*
X015769Y048784D01*
X015918Y048799D01*
X016062Y048843D01*
X016195Y048913D01*
X016311Y049009D01*
X016407Y049125D01*
X016478Y049258D01*
X016521Y049402D01*
X016536Y049552D01*
X016521Y049701D01*
X016478Y049845D01*
X016407Y049978D01*
X016311Y050094D01*
X016195Y05019D01*
X016062Y050261D01*
X015918Y050304D01*
X015769Y050319D01*
D02*
G37*
G36*
X019706Y049324D02*
X019519Y049309D01*
X019338Y049266D01*
X019165Y049194D01*
X019006Y049097D01*
X018985Y049078D01*
X019706Y048357D01*
X020426Y049078D01*
X020405Y049097D01*
X020246Y049194D01*
X020073Y049266D01*
X019892Y049309D01*
X019706Y049324D01*
D02*
G37*
G36*
X018762Y048855D02*
X018743Y048833D01*
X018646Y048674D01*
X018574Y048502D01*
X018531Y04832D01*
X018516Y048134D01*
Y047662D01*
X018531Y047476D01*
X018574Y047294D01*
X018646Y047122D01*
X018743Y046963D01*
X018762Y046941D01*
X019594Y047773D01*
X019706Y047662D01*
X019817Y047773D01*
X020649Y046941D01*
X020668Y046963D01*
X020765Y047122D01*
X020837Y047294D01*
X02088Y047476D01*
X020895Y047662D01*
Y048134D01*
X02088Y04832D01*
X020837Y048502D01*
X020765Y048674D01*
X020668Y048833D01*
X020649Y048855D01*
X019817Y048023D01*
X019706Y048134D01*
X019594Y048023D01*
X018762Y048855D01*
D02*
G37*
G36*
X019706Y047439D02*
X018985Y046718D01*
X019006Y046699D01*
X019165Y046602D01*
X019338Y046531D01*
X019519Y046487D01*
X019706Y046472D01*
X019892Y046487D01*
X020073Y046531D01*
X020246Y046602D01*
X020405Y046699D01*
X020426Y046718D01*
X019706Y047439D01*
D02*
G37*
G36*
X020886Y046007D02*
X018525D01*
Y04598D01*
X018149D01*
X018149Y04598D01*
X018051D01*
X018041Y045979D01*
X018032D01*
X017839Y04594D01*
X01783Y045937D01*
X017821Y045935D01*
X017639Y045859D01*
X017631Y045854D01*
X017622Y04585D01*
X017458Y045741D01*
X017451Y045734D01*
X017444Y045729D01*
X017304Y04559D01*
X017299Y045582D01*
X017292Y045575D01*
X017183Y045411D01*
X017179Y045403D01*
X017174Y045395D01*
X017099Y045213D01*
X017097Y045203D01*
X017093Y045195D01*
X017055Y045001D01*
Y044992D01*
X017053Y044983D01*
Y044884D01*
Y040404D01*
X017053Y040404D01*
X017053Y040306D01*
X017055Y040296D01*
Y040287D01*
X017093Y040094D01*
X017097Y040085D01*
X017099Y040076D01*
X017174Y039894D01*
X017179Y039886D01*
X017183Y039877D01*
X017292Y039713D01*
X017299Y039706D01*
X017304Y039699D01*
X017444Y039559D01*
X017451Y039554D01*
X017458Y039547D01*
X017622Y039438D01*
X017631Y039434D01*
X017639Y039429D01*
X017821Y039354D01*
X01783Y039352D01*
X017839Y039348D01*
X018032Y03931D01*
X018041D01*
X018051Y039308D01*
X018149Y039308D01*
X019779D01*
X019779Y039308D01*
X019878Y039308D01*
X019887Y03931D01*
X019896D01*
X02009Y039348D01*
X020098Y039352D01*
X020108Y039354D01*
X02029Y039429D01*
X020298Y039434D01*
X020306Y039438D01*
X02047Y039547D01*
X020477Y039554D01*
X020485Y039559D01*
X020624Y039699D01*
X020629Y039706D01*
X020636Y039713D01*
X020745Y039877D01*
X020749Y039886D01*
X020754Y039894D01*
X02083Y040076D01*
X020832Y040085D01*
X020835Y040094D01*
X020874Y040287D01*
Y040296D01*
X020875Y040306D01*
X020875Y040404D01*
X020875Y043174D01*
X020886D01*
Y046007D01*
D02*
G37*
G36*
X01819Y038375D02*
X018072D01*
X017948Y038363D01*
X017829Y038327D01*
X01775Y038285D01*
X018131Y037904D01*
X018511Y038285D01*
X018433Y038327D01*
X018314Y038363D01*
X01819Y038375D01*
D02*
G37*
G36*
X018131Y0378D02*
X018072Y037741D01*
X018131Y037682D01*
X01819Y037741D01*
X018131Y0378D01*
D02*
G37*
G36*
X017527Y038062D02*
X017485Y037983D01*
X017449Y037864D01*
X017437Y037741D01*
X017449Y037617D01*
X017485Y037498D01*
X017527Y037419D01*
X017849Y037741D01*
X017527Y038062D01*
D02*
G37*
G36*
X018734D02*
X018412Y037741D01*
X018734Y037419D01*
X018776Y037498D01*
X018812Y037617D01*
X018824Y037741D01*
X018812Y037864D01*
X018776Y037983D01*
X018734Y038062D01*
D02*
G37*
G36*
X018131Y037577D02*
X01775Y037196D01*
X017829Y037154D01*
X017948Y037118D01*
X018072Y037106D01*
X01819D01*
X018314Y037118D01*
X018433Y037154D01*
X018511Y037196D01*
X018131Y037577D01*
D02*
G37*
G36*
X051398Y03542D02*
X051266Y035402D01*
X051142Y035351D01*
X051036Y03527D01*
X050955Y035163D01*
X050904Y03504D01*
X050886Y034907D01*
X050904Y034775D01*
X050955Y034651D01*
X051036Y034545D01*
X051142Y034464D01*
X051266Y034413D01*
X051398Y034395D01*
X051531Y034413D01*
X051655Y034464D01*
X051761Y034545D01*
X051842Y034651D01*
X051893Y034775D01*
X051911Y034907D01*
X051893Y03504D01*
X051842Y035163D01*
X051761Y03527D01*
X051655Y035351D01*
X051531Y035402D01*
X051398Y03542D01*
D02*
G37*
G36*
X048398D02*
X048266Y035402D01*
X048142Y035351D01*
X048036Y03527D01*
X047955Y035163D01*
X047904Y03504D01*
X047886Y034907D01*
X047904Y034775D01*
X047955Y034651D01*
X048036Y034545D01*
X048142Y034464D01*
X048266Y034413D01*
X048398Y034395D01*
X048531Y034413D01*
X048655Y034464D01*
X048761Y034545D01*
X048842Y034651D01*
X048893Y034775D01*
X048911Y034907D01*
X048893Y03504D01*
X048842Y035163D01*
X048761Y03527D01*
X048655Y035351D01*
X048531Y035402D01*
X048398Y03542D01*
D02*
G37*
G36*
X022318Y034418D02*
X022232Y034407D01*
X022151Y034374D01*
X022082Y034321D01*
X022029Y034252D01*
X021996Y034171D01*
X021985Y034085D01*
X021996Y033998D01*
X022016Y03395D01*
X021985Y033974D01*
X021905Y034007D01*
X021818Y034018D01*
X021732Y034007D01*
X021651Y033974D01*
X02162Y03395D01*
X02164Y033998D01*
X021652Y034085D01*
X02164Y034171D01*
X021607Y034252D01*
X021554Y034321D01*
X021485Y034374D01*
X021405Y034407D01*
X021318Y034418D01*
X021232Y034407D01*
X021151Y034374D01*
X021082Y034321D01*
X021029Y034252D01*
X020996Y034171D01*
X020985Y034085D01*
X020996Y033998D01*
X021029Y033918D01*
X021082Y033849D01*
X021151Y033796D01*
X021232Y033763D01*
X021318Y033751D01*
X021405Y033763D01*
X021485Y033796D01*
X021516Y03382D01*
X021496Y033771D01*
X021485Y033685D01*
X021496Y033598D01*
X021529Y033518D01*
X021582Y033449D01*
X021651Y033396D01*
X021732Y033363D01*
X021818Y033351D01*
X021905Y033363D01*
X021985Y033396D01*
X022054Y033449D01*
X022107Y033518D01*
X02214Y033598D01*
X022152Y033685D01*
X02214Y033771D01*
X02212Y03382D01*
X022151Y033796D01*
X022232Y033763D01*
X022318Y033751D01*
X022405Y033763D01*
X022485Y033796D01*
X022516Y03382D01*
X022496Y033771D01*
X022485Y033685D01*
X022496Y033598D01*
X022529Y033518D01*
X022582Y033449D01*
X022651Y033396D01*
X022732Y033363D01*
X022818Y033351D01*
X022905Y033363D01*
X022985Y033396D01*
X023054Y033449D01*
X023107Y033518D01*
X02314Y033598D01*
X023152Y033685D01*
X02314Y033771D01*
X023107Y033852D01*
X023054Y033921D01*
X022985Y033974D01*
X022905Y034007D01*
X022818Y034018D01*
X022732Y034007D01*
X022651Y033974D01*
X02262Y03395D01*
X02264Y033998D01*
X022652Y034085D01*
X02264Y034171D01*
X022607Y034252D01*
X022554Y034321D01*
X022485Y034374D01*
X022405Y034407D01*
X022318Y034418D01*
D02*
G37*
G36*
X051398Y03342D02*
X051266Y033402D01*
X051142Y033351D01*
X051036Y03327D01*
X051025Y033254D01*
X050991Y033221D01*
X05091Y033148D01*
X050875Y033121D01*
X050842Y033098D01*
X050813Y03308D01*
X050788Y033067D01*
X050767Y033059D01*
X050751Y033055D01*
X050747Y033055D01*
X04905D01*
X049046Y033055D01*
X04903Y033059D01*
X049009Y033067D01*
X048984Y03308D01*
X048955Y033098D01*
X048924Y03312D01*
X048805Y033222D01*
X048772Y033254D01*
X048761Y03327D01*
X048655Y033351D01*
X048531Y033402D01*
X048398Y03342D01*
X048266Y033402D01*
X048142Y033351D01*
X048036Y03327D01*
X047955Y033163D01*
X047904Y03304D01*
X047886Y032907D01*
X047904Y032775D01*
X047955Y032651D01*
X048036Y032545D01*
X048142Y032464D01*
X048266Y032413D01*
X048398Y032395D01*
X048531Y032413D01*
X048655Y032464D01*
X048761Y032545D01*
X048772Y03256D01*
X048806Y032593D01*
X048887Y032666D01*
X048922Y032694D01*
X048955Y032717D01*
X048984Y032735D01*
X049009Y032748D01*
X04903Y032756D01*
X049046Y03276D01*
X04905Y03276D01*
X050747D01*
X050751Y03276D01*
X050767Y032756D01*
X050788Y032748D01*
X050813Y032735D01*
X050842Y032717D01*
X050873Y032695D01*
X050992Y032593D01*
X051025Y03256D01*
X051036Y032545D01*
X051142Y032464D01*
X051266Y032413D01*
X051398Y032395D01*
X051531Y032413D01*
X051655Y032464D01*
X051761Y032545D01*
X051842Y032651D01*
X051893Y032775D01*
X051911Y032907D01*
X051893Y03304D01*
X051842Y033163D01*
X051761Y03327D01*
X051655Y033351D01*
X051531Y033402D01*
X051398Y03342D01*
D02*
G37*
G36*
X034254Y033785D02*
X034147Y033771D01*
X034047Y033729D01*
X033962Y033664D01*
X033896Y033578D01*
X033855Y033478D01*
X033841Y033372D01*
X033855Y033265D01*
X033896Y033165D01*
X033962Y03308D01*
X034047Y033014D01*
X034147Y032973D01*
X034254Y032959D01*
X034361Y032973D01*
X03446Y033014D01*
X034546Y03308D01*
X034611Y033165D01*
X034653Y033265D01*
X034667Y033372D01*
X034653Y033478D01*
X034611Y033578D01*
X034546Y033664D01*
X03446Y033729D01*
X034361Y033771D01*
X034254Y033785D01*
D02*
G37*
G36*
X033254D02*
X033147Y033771D01*
X033047Y033729D01*
X032962Y033664D01*
X032896Y033578D01*
X032855Y033478D01*
X032841Y033372D01*
X032855Y033265D01*
X032896Y033165D01*
X032962Y03308D01*
X033047Y033014D01*
X033147Y032973D01*
X033254Y032959D01*
X033361Y032973D01*
X03346Y033014D01*
X033546Y03308D01*
X033611Y033165D01*
X033653Y033265D01*
X033667Y033372D01*
X033653Y033478D01*
X033611Y033578D01*
X033546Y033664D01*
X03346Y033729D01*
X033361Y033771D01*
X033254Y033785D01*
D02*
G37*
G36*
X034254Y03279D02*
X034145Y032776D01*
X034044Y032734D01*
X034013Y03271D01*
X034254Y032469D01*
X034495Y03271D01*
X034463Y032734D01*
X034362Y032776D01*
X034254Y03279D01*
D02*
G37*
G36*
X034592Y032612D02*
X034351Y032372D01*
X034592Y032131D01*
X034616Y032162D01*
X034658Y032263D01*
X034672Y032372D01*
X034658Y03248D01*
X034616Y032581D01*
X034592Y032612D01*
D02*
G37*
G36*
X033915D02*
X033891Y032581D01*
X033849Y03248D01*
X033835Y032372D01*
X033849Y032263D01*
X033891Y032162D01*
X033915Y032131D01*
X034156Y032372D01*
X033915Y032612D01*
D02*
G37*
G36*
X033254Y032785D02*
X033147Y032771D01*
X033047Y032729D01*
X032962Y032664D01*
X032896Y032578D01*
X032855Y032478D01*
X032841Y032372D01*
X032855Y032265D01*
X032896Y032165D01*
X032962Y03208D01*
X033047Y032014D01*
X033147Y031973D01*
X033254Y031959D01*
X033361Y031973D01*
X03346Y032014D01*
X033546Y03208D01*
X033611Y032165D01*
X033653Y032265D01*
X033667Y032372D01*
X033653Y032478D01*
X033611Y032578D01*
X033546Y032664D01*
X03346Y032729D01*
X033361Y032771D01*
X033254Y032785D01*
D02*
G37*
G36*
X034254Y032274D02*
X034013Y032033D01*
X034044Y032009D01*
X034145Y031967D01*
X034254Y031953D01*
X034362Y031967D01*
X034463Y032009D01*
X034494Y032033D01*
X034254Y032274D01*
D02*
G37*
G36*
X051398Y03142D02*
X051266Y031402D01*
X051142Y031351D01*
X051036Y03127D01*
X051025Y031254D01*
X050991Y031221D01*
X05091Y031148D01*
X050875Y031121D01*
X050842Y031098D01*
X050813Y03108D01*
X050788Y031067D01*
X050767Y031059D01*
X050751Y031055D01*
X050747Y031055D01*
X04905D01*
X049046Y031055D01*
X04903Y031059D01*
X049009Y031067D01*
X048984Y03108D01*
X048955Y031098D01*
X048924Y03112D01*
X048805Y031222D01*
X048772Y031254D01*
X048761Y03127D01*
X048655Y031351D01*
X048531Y031402D01*
X048398Y03142D01*
X048266Y031402D01*
X048142Y031351D01*
X048036Y03127D01*
X047955Y031163D01*
X047904Y03104D01*
X047886Y030907D01*
X047904Y030775D01*
X047955Y030651D01*
X048036Y030545D01*
X048142Y030464D01*
X048266Y030413D01*
X048398Y030395D01*
X048531Y030413D01*
X048655Y030464D01*
X048761Y030545D01*
X048772Y03056D01*
X048806Y030593D01*
X048887Y030666D01*
X048922Y030694D01*
X048955Y030717D01*
X048984Y030735D01*
X049009Y030748D01*
X04903Y030756D01*
X049046Y03076D01*
X04905Y03076D01*
X050747D01*
X050751Y03076D01*
X050767Y030756D01*
X050788Y030748D01*
X050813Y030735D01*
X050842Y030717D01*
X050873Y030695D01*
X050992Y030593D01*
X051025Y03056D01*
X051036Y030545D01*
X051142Y030464D01*
X051266Y030413D01*
X051398Y030395D01*
X051531Y030413D01*
X051655Y030464D01*
X051761Y030545D01*
X051842Y030651D01*
X051893Y030775D01*
X051911Y030907D01*
X051893Y03104D01*
X051842Y031163D01*
X051761Y03127D01*
X051655Y031351D01*
X051531Y031402D01*
X051398Y03142D01*
D02*
G37*
G36*
X026969Y031996D02*
X026846Y03198D01*
X026732Y031933D01*
X026634Y031858D01*
X026558Y03176D01*
X026511Y031645D01*
X026495Y031523D01*
X026511Y0314D01*
X026558Y031286D01*
X026634Y031188D01*
X026732Y031113D01*
X026846Y031066D01*
X026969Y031049D01*
X027091Y031066D01*
X027205Y031113D01*
X027303Y031188D01*
X027379Y031286D01*
X027426Y0314D01*
X027442Y031523D01*
X027426Y031645D01*
X027379Y03176D01*
X027303Y031858D01*
X027205Y031933D01*
X027091Y03198D01*
X026969Y031996D01*
D02*
G37*
G36*
X024969D02*
X024846Y03198D01*
X024732Y031933D01*
X024634Y031858D01*
X024558Y03176D01*
X024511Y031645D01*
X024495Y031523D01*
X024511Y0314D01*
X024558Y031286D01*
X024634Y031188D01*
X024732Y031113D01*
X024846Y031066D01*
X024969Y031049D01*
X025091Y031066D01*
X025205Y031113D01*
X025303Y031188D01*
X025379Y031286D01*
X025426Y0314D01*
X025442Y031523D01*
X025426Y031645D01*
X025379Y03176D01*
X025303Y031858D01*
X025205Y031933D01*
X025091Y03198D01*
X024969Y031996D01*
D02*
G37*
G36*
X034254Y031785D02*
X034147Y031771D01*
X034047Y031729D01*
X033962Y031664D01*
X033896Y031578D01*
X033855Y031478D01*
X033841Y031372D01*
X033855Y031265D01*
X033896Y031165D01*
X033962Y03108D01*
X034047Y031014D01*
X034147Y030973D01*
X034254Y030959D01*
X034361Y030973D01*
X03446Y031014D01*
X034546Y03108D01*
X034611Y031165D01*
X034653Y031265D01*
X034667Y031372D01*
X034653Y031478D01*
X034611Y031578D01*
X034546Y031664D01*
X03446Y031729D01*
X034361Y031771D01*
X034254Y031785D01*
D02*
G37*
G36*
X033254D02*
X033147Y031771D01*
X033047Y031729D01*
X032962Y031664D01*
X032896Y031578D01*
X032855Y031478D01*
X032841Y031372D01*
X032855Y031265D01*
X032896Y031165D01*
X032962Y03108D01*
X033047Y031014D01*
X033147Y030973D01*
X033254Y030959D01*
X033361Y030973D01*
X03346Y031014D01*
X033546Y03108D01*
X033611Y031165D01*
X033653Y031265D01*
X033667Y031372D01*
X033653Y031478D01*
X033611Y031578D01*
X033546Y031664D01*
X03346Y031729D01*
X033361Y031771D01*
X033254Y031785D01*
D02*
G37*
G36*
X034254Y030785D02*
X034147Y030771D01*
X034047Y030729D01*
X033964Y030665D01*
X033543D01*
X03346Y030729D01*
X033361Y030771D01*
X033254Y030785D01*
X033147Y030771D01*
X033047Y030729D01*
X032962Y030664D01*
X032896Y030578D01*
X032855Y030478D01*
X032841Y030372D01*
X032855Y030265D01*
X032896Y030165D01*
X032962Y03008D01*
X033047Y030014D01*
X0331Y029992D01*
X033088D01*
X033032Y029981D01*
X032984Y029949D01*
X032324Y029289D01*
X032292Y029241D01*
X032281Y029185D01*
Y029172D01*
X032275Y029168D01*
X032228Y029098D01*
X032211Y029015D01*
X032228Y028932D01*
X032275Y028862D01*
X032345Y028815D01*
X032428Y028798D01*
X032511Y028815D01*
X032582Y028862D01*
X032629Y028932D01*
X032645Y029015D01*
X032629Y029098D01*
X032597Y029145D01*
X032947Y029495D01*
X032931Y029458D01*
X03292Y029372D01*
X032931Y029285D01*
X032965Y029205D01*
X033018Y029136D01*
X033087Y029083D01*
X033167Y029049D01*
X033254Y029038D01*
X03334Y029049D01*
X03342Y029083D01*
X03349Y029136D01*
X033543Y029205D01*
X033576Y029285D01*
X033587Y029372D01*
X033576Y029458D01*
X033543Y029538D01*
X03349Y029607D01*
X03342Y02966D01*
X03334Y029694D01*
X033312Y029697D01*
X033668D01*
X033725Y029709D01*
X033772Y029741D01*
X034046Y030015D01*
X034047Y030014D01*
X034147Y029973D01*
X034254Y029959D01*
X034361Y029973D01*
X03446Y030014D01*
X034546Y03008D01*
X034611Y030165D01*
X034653Y030265D01*
X034667Y030372D01*
X034653Y030478D01*
X034611Y030578D01*
X034546Y030664D01*
X03446Y030729D01*
X034361Y030771D01*
X034254Y030785D01*
D02*
G37*
G36*
Y029705D02*
X034167Y029694D01*
X034087Y02966D01*
X034018Y029607D01*
X033965Y029538D01*
X033931Y029458D01*
X03392Y029372D01*
X033931Y029285D01*
X033965Y029205D01*
X034018Y029136D01*
X034087Y029083D01*
X034167Y029049D01*
X034254Y029038D01*
X03434Y029049D01*
X03442Y029083D01*
X03449Y029136D01*
X034543Y029205D01*
X034576Y029285D01*
X034587Y029372D01*
X034576Y029458D01*
X034543Y029538D01*
X03449Y029607D01*
X03442Y02966D01*
X03434Y029694D01*
X034254Y029705D01*
D02*
G37*
G36*
X051398Y029425D02*
X051264Y029407D01*
X05114Y029356D01*
X051087Y029316D01*
X051398Y029005D01*
X051709Y029316D01*
X051657Y029356D01*
X051532Y029407D01*
X051398Y029425D01*
D02*
G37*
G36*
X048398D02*
X048264Y029407D01*
X04814Y029356D01*
X048087Y029316D01*
X048398Y029005D01*
X048709Y029316D01*
X048657Y029356D01*
X048532Y029407D01*
X048398Y029425D01*
D02*
G37*
G36*
X05099Y029218D02*
X05095Y029166D01*
X050898Y029041D01*
X050881Y028907D01*
X050898Y028773D01*
X05095Y028648D01*
X05099Y028596D01*
X051301Y028907D01*
X05099Y029218D01*
D02*
G37*
G36*
X04799D02*
X04795Y029166D01*
X047898Y029041D01*
X047881Y028907D01*
X047898Y028773D01*
X04795Y028648D01*
X04799Y028596D01*
X048301Y028907D01*
X04799Y029218D01*
D02*
G37*
G36*
X051807Y029218D02*
X051496Y028907D01*
X051807Y028596D01*
X051847Y028648D01*
X051899Y028773D01*
X051916Y028907D01*
X051899Y029041D01*
X051847Y029166D01*
X051807Y029218D01*
D02*
G37*
G36*
X048807D02*
X048496Y028907D01*
X048807Y028596D01*
X048847Y028648D01*
X048899Y028773D01*
X048916Y028907D01*
X048899Y029041D01*
X048847Y029166D01*
X048807Y029218D01*
D02*
G37*
G36*
X051398Y02881D02*
X051087Y028499D01*
X05114Y028459D01*
X051264Y028407D01*
X051398Y02839D01*
X051532Y028407D01*
X051657Y028459D01*
X051709Y028499D01*
X051398Y02881D01*
D02*
G37*
G36*
X048398D02*
X048087Y028499D01*
X04814Y028459D01*
X048264Y028407D01*
X048398Y02839D01*
X048532Y028407D01*
X048657Y028459D01*
X048709Y028499D01*
X048398Y02881D01*
D02*
G37*
G36*
X023682Y030298D02*
X023599Y030281D01*
X023528Y030234D01*
X023481Y030164D01*
X023465Y030081D01*
X023481Y029998D01*
X023528Y029928D01*
X023533Y029925D01*
X023533Y029923D01*
X023534Y029919D01*
X023534Y029917D01*
Y027129D01*
X023546Y027073D01*
X023577Y027025D01*
X024276Y026327D01*
X024219Y026315D01*
X024149Y026268D01*
X024102Y026198D01*
X024085Y026115D01*
X024102Y026032D01*
X024149Y025962D01*
X024219Y025915D01*
X024302Y025898D01*
X024307Y025899D01*
X024309Y025899D01*
X024312Y025897D01*
X024314Y025895D01*
X025963Y024246D01*
X026011Y024214D01*
X026067Y024203D01*
X030112D01*
X030878Y023436D01*
X03088Y023434D01*
X030882Y023432D01*
X030882Y02343D01*
X030882Y023425D01*
X030898Y023342D01*
X030945Y023272D01*
X031015Y023225D01*
X031098Y023208D01*
X031181Y023225D01*
X031252Y023272D01*
X031299Y023342D01*
X031315Y023425D01*
X031299Y023508D01*
X031252Y023578D01*
X031181Y023625D01*
X031147Y023632D01*
X031211Y023645D01*
X031282Y023692D01*
X031329Y023762D01*
X031345Y023845D01*
X031329Y023928D01*
X031282Y023998D01*
X031211Y024045D01*
X031128Y024062D01*
X031123Y024061D01*
X031122Y024061D01*
X031119Y024063D01*
X031117Y024065D01*
X030397Y024784D01*
X030349Y024816D01*
X030293Y024827D01*
X026192D01*
X024682Y026338D01*
X024696Y026335D01*
X024779Y026351D01*
X024849Y026398D01*
X024852Y026402D01*
X024854Y026403D01*
X024857Y026404D01*
X02486Y026404D01*
X028737D01*
X028794Y026415D01*
X028842Y026447D01*
X02915Y026755D01*
X03093D01*
X030932Y026755D01*
X030935Y026754D01*
X030937Y026754D01*
X03094Y026749D01*
X030979Y026723D01*
X030951Y026705D01*
X030948Y026701D01*
X030946Y0267D01*
X030943Y026699D01*
X03094Y026699D01*
X029842D01*
X029786Y026688D01*
X029738Y026656D01*
X029193Y026111D01*
X029191Y026109D01*
X029188Y026107D01*
X029187Y026107D01*
X029182Y026108D01*
X029099Y026091D01*
X029028Y026044D01*
X028981Y025974D01*
X028965Y025891D01*
X028981Y025808D01*
X029028Y025738D01*
X029099Y025691D01*
X029182Y025674D01*
X029203Y025678D01*
X029199Y025657D01*
X029215Y025574D01*
X029262Y025504D01*
X029333Y025457D01*
X029416Y02544D01*
X029498Y025457D01*
X029569Y025504D01*
X029616Y025574D01*
X029632Y025657D01*
X029631Y025662D01*
X029632Y025664D01*
X029634Y025667D01*
X029636Y025669D01*
X03004Y026073D01*
X03094D01*
X030943Y026073D01*
X030946Y026072D01*
X030948Y026072D01*
X030951Y026068D01*
X031021Y026021D01*
X031104Y026004D01*
X031187Y026021D01*
X031257Y026068D01*
X031304Y026138D01*
X031321Y026221D01*
X031304Y026304D01*
X031257Y026374D01*
X031239Y026386D01*
X031257Y026398D01*
X031304Y026469D01*
X031321Y026551D01*
X031304Y026634D01*
X031257Y026705D01*
X031219Y026731D01*
X031247Y026749D01*
X031294Y02682D01*
X03131Y026903D01*
X031294Y026986D01*
X031247Y027056D01*
X031229Y027068D01*
X031247Y02708D01*
X031294Y02715D01*
X03131Y027233D01*
X031294Y027316D01*
X031247Y027387D01*
X031176Y027434D01*
X031093Y02745D01*
X03101Y027434D01*
X03094Y027387D01*
X030937Y027382D01*
X030935Y027382D01*
X030932Y027381D01*
X03093Y027381D01*
X029062D01*
X029006Y027369D01*
X028958Y027337D01*
X028572Y026951D01*
X024954D01*
X024249Y027656D01*
Y029907D01*
X024249Y029909D01*
X02425Y029913D01*
X024251Y029915D01*
X024255Y029918D01*
X024302Y029988D01*
X024318Y030071D01*
X024302Y030154D01*
X024255Y030224D01*
X024185Y030271D01*
X024102Y030288D01*
X024019Y030271D01*
X023948Y030224D01*
X023901Y030154D01*
X023893Y03011D01*
X023882Y030164D01*
X023835Y030234D01*
X023765Y030281D01*
X023682Y030298D01*
D02*
G37*
G36*
X051398Y02627D02*
X051266Y026253D01*
X051142Y026201D01*
X051036Y02612D01*
X050955Y026014D01*
X050904Y02589D01*
X050886Y025758D01*
X050904Y025625D01*
X050955Y025502D01*
X051036Y025395D01*
X051142Y025314D01*
X051266Y025263D01*
X051398Y025245D01*
X051531Y025263D01*
X051655Y025314D01*
X051761Y025395D01*
X051842Y025502D01*
X051893Y025625D01*
X051911Y025758D01*
X051893Y02589D01*
X051842Y026014D01*
X051761Y02612D01*
X051655Y026201D01*
X051531Y026253D01*
X051398Y02627D01*
D02*
G37*
G36*
X048398D02*
X048266Y026253D01*
X048142Y026201D01*
X048036Y02612D01*
X047955Y026014D01*
X047904Y02589D01*
X047886Y025758D01*
X047904Y025625D01*
X047955Y025502D01*
X048036Y025395D01*
X048142Y025314D01*
X048266Y025263D01*
X048398Y025245D01*
X048531Y025263D01*
X048655Y025314D01*
X048761Y025395D01*
X048842Y025502D01*
X048893Y025625D01*
X048911Y025758D01*
X048893Y02589D01*
X048842Y026014D01*
X048761Y02612D01*
X048655Y026201D01*
X048531Y026253D01*
X048398Y02627D01*
D02*
G37*
G36*
X051398Y02427D02*
X051266Y024253D01*
X051142Y024201D01*
X051036Y02412D01*
X051025Y024105D01*
X050991Y024072D01*
X05091Y023999D01*
X050875Y023971D01*
X050842Y023948D01*
X050813Y02393D01*
X050788Y023917D01*
X050767Y023909D01*
X050751Y023905D01*
X050747Y023905D01*
X04905D01*
X049046Y023905D01*
X04903Y023909D01*
X049009Y023917D01*
X048984Y02393D01*
X048955Y023948D01*
X048924Y02397D01*
X048805Y024072D01*
X048772Y024105D01*
X048761Y02412D01*
X048655Y024201D01*
X048531Y024253D01*
X048398Y02427D01*
X048266Y024253D01*
X048142Y024201D01*
X048036Y02412D01*
X047955Y024014D01*
X047904Y02389D01*
X047886Y023758D01*
X047889Y023734D01*
X047891Y023674D01*
X047889Y023567D01*
X047885Y023524D01*
X047879Y023485D01*
X047872Y023453D01*
X047864Y023426D01*
X047855Y023406D01*
X047847Y023392D01*
X047844Y023389D01*
X047469Y023014D01*
X042744D01*
X04198Y023778D01*
X041979Y02378D01*
X041977Y023783D01*
X041976Y023785D01*
X041977Y02379D01*
X041961Y023873D01*
X041914Y023943D01*
X041843Y02399D01*
X04176Y024007D01*
X041677Y02399D01*
X041607Y023943D01*
X04156Y023873D01*
X041544Y02379D01*
X041548Y023769D01*
X041526Y023773D01*
X041444Y023756D01*
X041373Y023709D01*
X041326Y023639D01*
X04131Y023556D01*
X041326Y023473D01*
X041373Y023403D01*
X041444Y023356D01*
X041526Y023339D01*
X041531Y02334D01*
X041533Y023339D01*
X041536Y023338D01*
X041538Y023336D01*
X04239Y022485D01*
X042437Y022453D01*
X042494Y022441D01*
X047506D01*
X047833Y022114D01*
X047836Y022111D01*
X047844Y022097D01*
X047854Y022077D01*
X047862Y02205D01*
X04787Y022016D01*
X047877Y021979D01*
X047888Y021823D01*
X047889Y021777D01*
X047886Y021758D01*
X047904Y021625D01*
X047955Y021502D01*
X048036Y021395D01*
X048142Y021314D01*
X048266Y021263D01*
X048398Y021245D01*
X048531Y021263D01*
X048655Y021314D01*
X048761Y021395D01*
X048772Y02141D01*
X048804Y021442D01*
X048882Y021511D01*
X048917Y021538D01*
X048949Y02156D01*
X048978Y021577D01*
X049003Y021589D01*
X049025Y021597D01*
X049042Y021601D01*
X049045Y021601D01*
X050751D01*
X050755Y021601D01*
X050772Y021597D01*
X050794Y021589D01*
X050819Y021577D01*
X050848Y02156D01*
X05088Y021538D01*
X050914Y021512D01*
X050993Y021442D01*
X051025Y02141D01*
X051036Y021395D01*
X051142Y021314D01*
X051266Y021263D01*
X051398Y021245D01*
X051531Y021263D01*
X051655Y021314D01*
X051761Y021395D01*
X051842Y021502D01*
X051893Y021625D01*
X051911Y021758D01*
X051893Y02189D01*
X051842Y022014D01*
X051761Y02212D01*
X051655Y022201D01*
X051531Y022253D01*
X051398Y02227D01*
X051266Y022253D01*
X051142Y022201D01*
X051036Y02212D01*
X051025Y022105D01*
X050993Y022074D01*
X050914Y022004D01*
X05088Y021978D01*
X050848Y021956D01*
X050819Y021939D01*
X050794Y021926D01*
X050772Y021919D01*
X050755Y021915D01*
X050751Y021914D01*
X049045D01*
X049042Y021915D01*
X049025Y021919D01*
X049003Y021926D01*
X048978Y021939D01*
X048949Y021956D01*
X048917Y021978D01*
X048882Y022004D01*
X048804Y022074D01*
X048772Y022105D01*
X048761Y02212D01*
X048655Y022201D01*
X048531Y022253D01*
X048398Y02227D01*
X04838Y022267D01*
X048333Y022268D01*
X048223Y022274D01*
X048179Y022279D01*
X04814Y022286D01*
X048106Y022294D01*
X048079Y022303D01*
X048059Y022312D01*
X048045Y02232D01*
X048042Y022323D01*
X047672Y022693D01*
X047624Y022725D01*
X047588Y022732D01*
X047635Y022763D01*
X048055Y023183D01*
X048057Y023185D01*
X048071Y023194D01*
X048092Y023203D01*
X04812Y023212D01*
X048154Y023221D01*
X048192Y023229D01*
X048351Y023246D01*
X048386Y023247D01*
X048398Y023245D01*
X048531Y023263D01*
X048655Y023314D01*
X048761Y023395D01*
X048772Y023411D01*
X048806Y023444D01*
X048887Y023517D01*
X048922Y023544D01*
X048955Y023567D01*
X048984Y023585D01*
X049009Y023598D01*
X04903Y023606D01*
X049046Y02361D01*
X04905Y02361D01*
X050747D01*
X050751Y02361D01*
X050767Y023606D01*
X050788Y023598D01*
X050813Y023585D01*
X050842Y023567D01*
X050873Y023545D01*
X050992Y023443D01*
X051025Y023411D01*
X051036Y023395D01*
X051142Y023314D01*
X051266Y023263D01*
X051398Y023245D01*
X051531Y023263D01*
X051655Y023314D01*
X051761Y023395D01*
X051842Y023502D01*
X051893Y023625D01*
X051911Y023758D01*
X051893Y02389D01*
X051842Y024014D01*
X051761Y02412D01*
X051655Y024201D01*
X051531Y024253D01*
X051398Y02427D01*
D02*
G37*
G36*
X033845Y023288D02*
X033819Y023254D01*
X033776Y023151D01*
X033761Y02304D01*
X033776Y022929D01*
X033819Y022826D01*
X033845Y022792D01*
X034093Y02304D01*
X033845Y023288D01*
D02*
G37*
G36*
X034635D02*
X034387Y02304D01*
X034635Y022792D01*
X034661Y022826D01*
X034704Y022929D01*
X034719Y02304D01*
X034704Y023151D01*
X034661Y023254D01*
X034635Y023288D01*
D02*
G37*
G36*
X03429Y023469D02*
X03419D01*
X034079Y023454D01*
X033976Y023411D01*
X033942Y023385D01*
X034239Y023089D01*
X03419Y02304D01*
X034239Y022991D01*
X033942Y022695D01*
X033976Y022669D01*
X034079Y022626D01*
X03419Y022611D01*
X03429D01*
X034401Y022626D01*
X034504Y022669D01*
X034538Y022695D01*
X034241Y022991D01*
X03429Y02304D01*
X034241Y023089D01*
X034538Y023385D01*
X034504Y023411D01*
X034401Y023454D01*
X03429Y023469D01*
D02*
G37*
G36*
Y022483D02*
X03419D01*
X03408Y022469D01*
X033978Y022426D01*
X033891Y022359D01*
X033824Y022272D01*
X033781Y02217D01*
X033767Y02206D01*
X033781Y02195D01*
X033824Y021848D01*
X033891Y021761D01*
X033978Y021694D01*
X03408Y021651D01*
X03419Y021637D01*
X03429D01*
X0344Y021651D01*
X034502Y021694D01*
X034589Y021761D01*
X034656Y021848D01*
X034699Y02195D01*
X034713Y02206D01*
X034699Y02217D01*
X034656Y022272D01*
X034589Y022359D01*
X034502Y022426D01*
X0344Y022469D01*
X03429Y022483D01*
D02*
G37*
G36*
X044624Y021106D02*
X044197D01*
X04441Y020893D01*
X044624Y021106D01*
D02*
G37*
G36*
X04441Y020829D02*
X0444Y020819D01*
X04441Y020809D01*
X04442Y020819D01*
X04441Y020829D01*
D02*
G37*
G36*
X03429Y021473D02*
X03419D01*
X03408Y021459D01*
X033978Y021416D01*
X033891Y021349D01*
X033824Y021262D01*
X033781Y02116D01*
X033767Y02105D01*
X033781Y02094D01*
X033824Y020838D01*
X033891Y020751D01*
X033978Y020684D01*
X03408Y020641D01*
X03419Y020627D01*
X03429D01*
X0344Y020641D01*
X034502Y020684D01*
X034589Y020751D01*
X034656Y020838D01*
X034699Y02094D01*
X034713Y02105D01*
X034699Y02116D01*
X034656Y021262D01*
X034589Y021349D01*
X034502Y021416D01*
X0344Y021459D01*
X03429Y021473D01*
D02*
G37*
G36*
X044113Y021023D02*
Y020616D01*
X044317Y020819D01*
X044113Y021023D01*
D02*
G37*
G36*
X044707Y021023D02*
X044504Y020819D01*
X044707Y020616D01*
Y021023D01*
D02*
G37*
G36*
X04441Y020746D02*
X044197Y020532D01*
X044624D01*
X04441Y020746D01*
D02*
G37*
G36*
X051398Y020276D02*
X051264Y020258D01*
X05114Y020206D01*
X051087Y020166D01*
X051398Y019855D01*
X051709Y020166D01*
X051657Y020206D01*
X051532Y020258D01*
X051398Y020276D01*
D02*
G37*
G36*
X048398D02*
X048264Y020258D01*
X04814Y020206D01*
X048087Y020166D01*
X048398Y019855D01*
X048709Y020166D01*
X048657Y020206D01*
X048532Y020258D01*
X048398Y020276D01*
D02*
G37*
G36*
X05099Y020069D02*
X05095Y020017D01*
X050898Y019892D01*
X050881Y019758D01*
X050898Y019624D01*
X05095Y019499D01*
X05099Y019447D01*
X051301Y019758D01*
X05099Y020069D01*
D02*
G37*
G36*
X04799D02*
X04795Y020017D01*
X047898Y019892D01*
X047881Y019758D01*
X047898Y019624D01*
X04795Y019499D01*
X04799Y019447D01*
X048301Y019758D01*
X04799Y020069D01*
D02*
G37*
G36*
X051807Y020069D02*
X051496Y019758D01*
X051807Y019447D01*
X051847Y019499D01*
X051899Y019624D01*
X051916Y019758D01*
X051899Y019892D01*
X051847Y020017D01*
X051807Y020069D01*
D02*
G37*
G36*
X048807D02*
X048496Y019758D01*
X048807Y019447D01*
X048847Y019499D01*
X048899Y019624D01*
X048916Y019758D01*
X048899Y019892D01*
X048847Y020017D01*
X048807Y020069D01*
D02*
G37*
G36*
X051398Y01966D02*
X051087Y019349D01*
X05114Y019309D01*
X051264Y019258D01*
X051398Y01924D01*
X051532Y019258D01*
X051657Y019309D01*
X051709Y019349D01*
X051398Y01966D01*
D02*
G37*
G36*
X048398D02*
X048087Y019349D01*
X04814Y019309D01*
X048264Y019258D01*
X048398Y01924D01*
X048532Y019258D01*
X048657Y019309D01*
X048709Y019349D01*
X048398Y01966D01*
D02*
G37*
%LPD*%
G36*
X020779Y040404D02*
X020779Y040306D01*
X020741Y040112D01*
X020665Y03993D01*
X020556Y039767D01*
X020417Y039627D01*
X020253Y039518D01*
X020071Y039443D01*
X019878Y039404D01*
X019779Y039404D01*
X019779Y039404D01*
X019779Y039404D01*
X018149D01*
X018051Y039404D01*
X017857Y039443D01*
X017675Y039518D01*
X017512Y039627D01*
X017372Y039767D01*
X017263Y03993D01*
X017188Y040112D01*
X017149Y040306D01*
X017149Y040404D01*
X017149Y040404D01*
Y044884D01*
Y044983D01*
X017188Y045176D01*
X017263Y045358D01*
X017372Y045522D01*
X017512Y045661D01*
X017675Y04577D01*
X017857Y045846D01*
X018051Y045884D01*
X018149D01*
X018149Y045884D01*
X020779D01*
X020779Y040404D01*
D02*
G37*
G36*
X051103Y032618D02*
X051057Y032663D01*
X050932Y032771D01*
X050895Y032797D01*
X05086Y032819D01*
X050827Y032836D01*
X050796Y032848D01*
X050767Y032855D01*
X05074Y032857D01*
Y032957D01*
X050767Y03296D01*
X050796Y032967D01*
X050827Y032979D01*
X05086Y032996D01*
X050895Y033017D01*
X050932Y033043D01*
X050972Y033075D01*
X051057Y033151D01*
X051103Y033197D01*
Y032618D01*
D02*
G37*
G36*
X04874Y033151D02*
X048864Y033043D01*
X048902Y033017D01*
X048937Y032996D01*
X04897Y032979D01*
X049001Y032967D01*
X04903Y03296D01*
X049057Y032957D01*
Y032857D01*
X04903Y032855D01*
X049001Y032848D01*
X04897Y032836D01*
X048937Y032819D01*
X048902Y032797D01*
X048864Y032771D01*
X048825Y03274D01*
X04874Y032663D01*
X048694Y032618D01*
Y033197D01*
X04874Y033151D01*
D02*
G37*
G36*
X051103Y030618D02*
X051057Y030663D01*
X050932Y030771D01*
X050895Y030797D01*
X05086Y030819D01*
X050827Y030836D01*
X050796Y030848D01*
X050767Y030855D01*
X05074Y030857D01*
Y030957D01*
X050767Y03096D01*
X050796Y030967D01*
X050827Y030979D01*
X05086Y030996D01*
X050895Y031017D01*
X050932Y031043D01*
X050972Y031075D01*
X051057Y031151D01*
X051103Y031197D01*
Y030618D01*
D02*
G37*
G36*
X04874Y031151D02*
X048864Y031043D01*
X048902Y031017D01*
X048937Y030996D01*
X04897Y030979D01*
X049001Y030967D01*
X04903Y03096D01*
X049057Y030957D01*
Y030857D01*
X04903Y030855D01*
X049001Y030848D01*
X04897Y030836D01*
X048937Y030819D01*
X048902Y030797D01*
X048864Y030771D01*
X048825Y03074D01*
X04874Y030663D01*
X048694Y030618D01*
Y031197D01*
X04874Y031151D01*
D02*
G37*
G36*
X032478Y029173D02*
X032481Y029137D01*
X032482Y02913D01*
X032483Y029125D01*
X032485Y029121D01*
X032487Y029118D01*
X032489Y029116D01*
X032368D01*
X03237Y029118D01*
X032372Y029121D01*
X032373Y029125D01*
X032374Y02913D01*
X032376Y029137D01*
X032377Y029144D01*
X032378Y029162D01*
X032378Y029185D01*
X032478D01*
X032478Y029173D01*
D02*
G37*
G36*
X023758Y02999D02*
X023753Y029982D01*
X023748Y029975D01*
X023743Y029966D01*
X02374Y029957D01*
X023737Y029947D01*
X023735Y029937D01*
X023733Y029926D01*
X023732Y029915D01*
X023732Y029903D01*
X023632D01*
X023631Y029915D01*
X02363Y029926D01*
X023629Y029937D01*
X023626Y029947D01*
X023623Y029957D01*
X02362Y029966D01*
X023616Y029975D01*
X023611Y029982D01*
X023605Y02999D01*
X023599Y029996D01*
X023764D01*
X023758Y02999D01*
D02*
G37*
G36*
X024178Y02998D02*
X024173Y029972D01*
X024168Y029965D01*
X024163Y029956D01*
X02416Y029947D01*
X024157Y029937D01*
X024155Y029927D01*
X024153Y029916D01*
X024152Y029905D01*
X024152Y029893D01*
X024052D01*
X024051Y029905D01*
X02405Y029916D01*
X024049Y029927D01*
X024046Y029937D01*
X024043Y029947D01*
X02404Y029956D01*
X024036Y029965D01*
X024031Y029972D01*
X024025Y02998D01*
X024019Y029986D01*
X024184D01*
X024178Y02998D01*
D02*
G37*
G36*
X031009Y027151D02*
X031002Y027157D01*
X030995Y027162D01*
X030987Y027167D01*
X030979Y027172D01*
X03097Y027175D01*
X03096Y027178D01*
X03095Y02718D01*
X030939Y027182D01*
X030928Y027183D01*
X030916Y027183D01*
Y027283D01*
X030928Y027284D01*
X030939Y027285D01*
X03095Y027286D01*
X03096Y027289D01*
X03097Y027291D01*
X030979Y027295D01*
X030987Y027299D01*
X030995Y027304D01*
X031002Y02731D01*
X031009Y027316D01*
Y027151D01*
D02*
G37*
G36*
Y02682D02*
X031002Y026826D01*
X030995Y026832D01*
X030987Y026837D01*
X030979Y026841D01*
X03097Y026844D01*
X03096Y026847D01*
X03095Y02685D01*
X030939Y026851D01*
X030928Y026852D01*
X030916Y026853D01*
Y026953D01*
X030928Y026953D01*
X030939Y026954D01*
X03095Y026956D01*
X03096Y026958D01*
X03097Y026961D01*
X030979Y026964D01*
X030987Y026969D01*
X030995Y026974D01*
X031002Y026979D01*
X031009Y026985D01*
Y02682D01*
D02*
G37*
G36*
X03102Y026469D02*
X031013Y026475D01*
X031006Y026481D01*
X030998Y026485D01*
X030989Y02649D01*
X03098Y026493D01*
X030971Y026496D01*
X030961Y026499D01*
X03095Y0265D01*
X030938Y026501D01*
X030926Y026502D01*
Y026602D01*
X030938Y026602D01*
X03095Y026603D01*
X030961Y026604D01*
X030971Y026607D01*
X03098Y02661D01*
X030989Y026613D01*
X030998Y026618D01*
X031006Y026622D01*
X031013Y026628D01*
X03102Y026634D01*
Y026469D01*
D02*
G37*
G36*
X024787Y026628D02*
X024794Y026622D01*
X024802Y026618D01*
X02481Y026613D01*
X024819Y02661D01*
X024829Y026607D01*
X024839Y026604D01*
X02485Y026603D01*
X024862Y026602D01*
X024874Y026602D01*
Y026502D01*
X024862Y026501D01*
X02485Y0265D01*
X024839Y026499D01*
X024829Y026496D01*
X024819Y026493D01*
X02481Y02649D01*
X024802Y026485D01*
X024794Y026481D01*
X024787Y026475D01*
X02478Y026469D01*
Y026634D01*
X024787Y026628D01*
D02*
G37*
G36*
X03102Y026138D02*
X031013Y026144D01*
X031006Y02615D01*
X030998Y026155D01*
X030989Y026159D01*
X03098Y026163D01*
X030971Y026166D01*
X030961Y026168D01*
X03095Y026169D01*
X030938Y02617D01*
X030926Y026171D01*
Y026271D01*
X030938Y026271D01*
X03095Y026272D01*
X030961Y026274D01*
X030971Y026276D01*
X03098Y026279D01*
X030989Y026283D01*
X030998Y026287D01*
X031006Y026292D01*
X031013Y026297D01*
X03102Y026303D01*
Y026138D01*
D02*
G37*
G36*
X02442Y026105D02*
X024422Y026096D01*
X024424Y026087D01*
X024427Y026078D01*
X024431Y026069D01*
X024435Y02606D01*
X024441Y026051D01*
X024448Y026042D01*
X024455Y026033D01*
X024463Y026025D01*
X024392Y025954D01*
X024384Y025962D01*
X024375Y02597D01*
X024366Y025976D01*
X024357Y025982D01*
X024348Y025987D01*
X024339Y02599D01*
X02433Y025993D01*
X024321Y025996D01*
X024312Y025997D01*
X024303Y025997D01*
X02442Y026114D01*
X02442Y026105D01*
D02*
G37*
G36*
X029343Y025981D02*
X029335Y025972D01*
X029327Y025964D01*
X029321Y025955D01*
X029315Y025946D01*
X02931Y025937D01*
X029306Y025928D01*
X029303Y025919D01*
X029301Y02591D01*
X0293Y025901D01*
X0293Y025892D01*
X029183Y026009D01*
X029192Y026009D01*
X029201Y02601D01*
X02921Y026013D01*
X029219Y026016D01*
X029228Y026019D01*
X029237Y026024D01*
X029246Y02603D01*
X029255Y026036D01*
X029263Y026044D01*
X029272Y026052D01*
X029343Y025981D01*
D02*
G37*
G36*
X029577Y025747D02*
X029568Y025739D01*
X029561Y02573D01*
X029554Y025721D01*
X029549Y025712D01*
X029544Y025703D01*
X02954Y025694D01*
X029537Y025685D01*
X029535Y025676D01*
X029534Y025667D01*
X029534Y025658D01*
X029417Y025775D01*
X029426Y025775D01*
X029435Y025777D01*
X029444Y025779D01*
X029453Y025782D01*
X029462Y025786D01*
X029471Y02579D01*
X02948Y025796D01*
X029488Y025802D01*
X029497Y02581D01*
X029506Y025818D01*
X029577Y025747D01*
D02*
G37*
G36*
X031047Y023998D02*
X031055Y02399D01*
X031064Y023984D01*
X031073Y023978D01*
X031082Y023973D01*
X031091Y02397D01*
X0311Y023967D01*
X031109Y023964D01*
X031118Y023963D01*
X031127Y023963D01*
X03101Y023846D01*
X03101Y023855D01*
X031009Y023864D01*
X031006Y023873D01*
X031003Y023882D01*
X031Y023891D01*
X030995Y0239D01*
X030989Y023909D01*
X030983Y023918D01*
X030975Y023926D01*
X030967Y023935D01*
X031038Y024006D01*
X031047Y023998D01*
D02*
G37*
G36*
X031017Y023578D02*
X031025Y02357D01*
X031034Y023564D01*
X031043Y023558D01*
X031052Y023553D01*
X031061Y02355D01*
X03107Y023547D01*
X031079Y023544D01*
X031088Y023543D01*
X031097Y023543D01*
X03098Y023426D01*
X03098Y023435D01*
X030979Y023444D01*
X030976Y023453D01*
X030973Y023462D01*
X03097Y023471D01*
X030965Y02348D01*
X030959Y023489D01*
X030953Y023498D01*
X030945Y023507D01*
X030937Y023515D01*
X031008Y023586D01*
X031017Y023578D01*
D02*
G37*
G36*
X041879Y02378D02*
X04188Y023771D01*
X041882Y023762D01*
X041885Y023753D01*
X041889Y023744D01*
X041894Y023735D01*
X041899Y023726D01*
X041906Y023717D01*
X041913Y023708D01*
X041921Y0237D01*
X041851Y023629D01*
X041842Y023637D01*
X041833Y023644D01*
X041824Y023651D01*
X041816Y023657D01*
X041807Y023661D01*
X041798Y023665D01*
X041789Y023668D01*
X04178Y02367D01*
X041771Y023672D01*
X041761Y023672D01*
X041878Y023789D01*
X041879Y02378D01*
D02*
G37*
G36*
X051103Y023468D02*
X051057Y023514D01*
X050932Y023622D01*
X050895Y023648D01*
X05086Y023669D01*
X050827Y023686D01*
X050796Y023698D01*
X050767Y023705D01*
X05074Y023708D01*
Y023808D01*
X050767Y02381D01*
X050796Y023817D01*
X050827Y023829D01*
X05086Y023846D01*
X050895Y023868D01*
X050932Y023894D01*
X050972Y023925D01*
X051057Y024002D01*
X051103Y024047D01*
Y023468D01*
D02*
G37*
G36*
X04874Y024002D02*
X048864Y023894D01*
X048902Y023868D01*
X048937Y023846D01*
X04897Y023829D01*
X049001Y023817D01*
X04903Y02381D01*
X049057Y023808D01*
Y023708D01*
X04903Y023705D01*
X049001Y023698D01*
X04897Y023686D01*
X048937Y023669D01*
X048902Y023648D01*
X048864Y023622D01*
X048825Y02359D01*
X04874Y023514D01*
X048694Y023468D01*
Y024047D01*
X04874Y024002D01*
D02*
G37*
G36*
X041645Y023546D02*
X041646Y023537D01*
X041648Y023528D01*
X041651Y023519D01*
X041655Y02351D01*
X04166Y023501D01*
X041665Y023492D01*
X041672Y023483D01*
X041679Y023474D01*
X041688Y023466D01*
X041617Y023395D01*
X041608Y023403D01*
X041599Y023411D01*
X041591Y023417D01*
X041582Y023423D01*
X041573Y023428D01*
X041564Y023431D01*
X041555Y023434D01*
X041546Y023436D01*
X041537Y023438D01*
X041528Y023438D01*
X041645Y023555D01*
X041645Y023546D01*
D02*
G37*
G36*
X04841Y023344D02*
X048344Y023342D01*
X048178Y023324D01*
X048132Y023315D01*
X048092Y023305D01*
X048057Y023293D01*
X048026Y023279D01*
X048001Y023264D01*
X047981Y023247D01*
X047908Y023315D01*
X047925Y023336D01*
X047941Y023362D01*
X047954Y023393D01*
X047965Y023428D01*
X047974Y023468D01*
X047981Y023512D01*
X047985Y023562D01*
X047988Y023674D01*
X047986Y023738D01*
X04841Y023344D01*
D02*
G37*
G36*
X047989Y022241D02*
X048014Y022226D01*
X048045Y022213D01*
X04808Y022201D01*
X04812Y022191D01*
X048165Y022183D01*
X048215Y022178D01*
X04833Y022171D01*
X048394Y022171D01*
X047985Y021762D01*
X047985Y021826D01*
X047973Y021991D01*
X047965Y022036D01*
X047955Y022076D01*
X047944Y022111D01*
X04793Y022142D01*
X047915Y022167D01*
X047898Y022188D01*
X047968Y022259D01*
X047989Y022241D01*
D02*
G37*
G36*
X051103Y021468D02*
X051059Y021512D01*
X050976Y021586D01*
X050937Y021616D01*
X0509Y021641D01*
X050865Y021662D01*
X050831Y021678D01*
X050799Y021689D01*
X050769Y021696D01*
X050741Y021699D01*
Y021817D01*
X050769Y021819D01*
X050799Y021826D01*
X050831Y021837D01*
X050865Y021854D01*
X0509Y021874D01*
X050937Y0219D01*
X050976Y02193D01*
X051059Y022003D01*
X051103Y022047D01*
Y021468D01*
D02*
G37*
G36*
X048738Y022003D02*
X048821Y02193D01*
X04886Y0219D01*
X048897Y021874D01*
X048932Y021854D01*
X048966Y021837D01*
X048998Y021826D01*
X049027Y021819D01*
X049056Y021817D01*
Y021699D01*
X049027Y021696D01*
X048998Y021689D01*
X048966Y021678D01*
X048932Y021662D01*
X048897Y021641D01*
X04886Y021616D01*
X048821Y021586D01*
X048738Y021512D01*
X048694Y021468D01*
Y022047D01*
X048738Y022003D01*
D02*
G37*
%LPC*%
G36*
X02671Y020607D02*
X026627Y02059D01*
X026557Y020543D01*
X02651Y020473D01*
X026493Y02039D01*
X02651Y020307D01*
X026557Y020237D01*
X026561Y020234D01*
X026562Y020232D01*
X026562Y020229D01*
X026563Y020226D01*
Y020006D01*
X02638Y020188D01*
X026379Y02019D01*
X026377Y020193D01*
X026376Y020195D01*
X026377Y0202D01*
X02636Y020283D01*
X026313Y020353D01*
X026243Y0204D01*
X02616Y020417D01*
X026077Y0204D01*
X026007Y020353D01*
X02596Y020283D01*
X025943Y0202D01*
X02596Y020117D01*
X026007Y020047D01*
X026077Y02D01*
X02616Y019983D01*
X026165Y019984D01*
X026167Y019983D01*
X02617Y019981D01*
X026172Y01998D01*
X028241Y017911D01*
X028262Y017897D01*
X028428Y017731D01*
X028476Y017699D01*
X028532Y017687D01*
X036431D01*
X036972Y017147D01*
X036979Y017134D01*
X03699Y017113D01*
X037001Y017086D01*
X037078Y016828D01*
X037093Y016764D01*
X037096Y016742D01*
X037147Y016618D01*
X037228Y016512D01*
X037243Y016501D01*
X037277Y016467D01*
X037349Y016386D01*
X037377Y016351D01*
X0374Y016318D01*
X037418Y016289D01*
X037431Y016264D01*
X037439Y016243D01*
X037443Y016227D01*
X037443Y016223D01*
Y014526D01*
X037443Y014522D01*
X037439Y014506D01*
X037431Y014485D01*
X037418Y01446D01*
X0374Y014431D01*
X037378Y0144D01*
X037276Y014281D01*
X037243Y014248D01*
X037228Y014237D01*
X037147Y014131D01*
X037096Y014007D01*
X037078Y013874D01*
X037096Y013742D01*
X037147Y013618D01*
X037228Y013512D01*
X037334Y013431D01*
X037458Y01338D01*
X037591Y013362D01*
X037723Y01338D01*
X037847Y013431D01*
X037953Y013512D01*
X038034Y013618D01*
X038085Y013742D01*
X038103Y013874D01*
X038085Y014007D01*
X038034Y014131D01*
X037953Y014237D01*
X037938Y014248D01*
X037905Y014282D01*
X037832Y014363D01*
X037804Y014398D01*
X037781Y014431D01*
X037763Y01446D01*
X03775Y014485D01*
X037742Y014506D01*
X037738Y014522D01*
X037738Y014526D01*
Y016223D01*
X037738Y016227D01*
X037742Y016243D01*
X03775Y016264D01*
X037763Y016289D01*
X037781Y016318D01*
X037803Y016349D01*
X037905Y016468D01*
X037938Y016501D01*
X037953Y016512D01*
X038034Y016618D01*
X038085Y016742D01*
X038103Y016874D01*
X038085Y017007D01*
X038034Y017131D01*
X037953Y017237D01*
X037847Y017318D01*
X037723Y017369D01*
X037591Y017387D01*
X037458Y017369D01*
X037445Y017364D01*
X037413Y017357D01*
X037365Y017348D01*
X037322Y017343D01*
X037284Y017341D01*
X037251Y017342D01*
X037223Y017346D01*
X037201Y017351D01*
X037183Y017358D01*
X03717Y017366D01*
X037165Y01737D01*
X036653Y017882D01*
X043524D01*
X044175Y017231D01*
X044178Y017228D01*
X044186Y017214D01*
X044195Y017193D01*
X044204Y017166D01*
X044212Y017133D01*
X044219Y017096D01*
X04423Y016939D01*
X04423Y016893D01*
X044228Y016874D01*
X044245Y016742D01*
X044296Y016618D01*
X044378Y016512D01*
X044393Y016501D01*
X044426Y016467D01*
X044499Y016386D01*
X044527Y016351D01*
X04455Y016318D01*
X044568Y016289D01*
X04458Y016264D01*
X044589Y016243D01*
X044592Y016227D01*
X044593Y016223D01*
Y014526D01*
X044592Y014522D01*
X044589Y014506D01*
X04458Y014485D01*
X044568Y01446D01*
X04455Y014431D01*
X044528Y0144D01*
X044425Y014281D01*
X044393Y014248D01*
X044378Y014237D01*
X044296Y014131D01*
X044245Y014007D01*
X044228Y013874D01*
X044245Y013742D01*
X044296Y013618D01*
X044378Y013512D01*
X044484Y013431D01*
X044608Y01338D01*
X04474Y013362D01*
X044873Y01338D01*
X044996Y013431D01*
X045102Y013512D01*
X045184Y013618D01*
X045235Y013742D01*
X045252Y013874D01*
X045235Y014007D01*
X045184Y014131D01*
X045102Y014237D01*
X045087Y014248D01*
X045054Y014282D01*
X044981Y014363D01*
X044954Y014398D01*
X044931Y014431D01*
X044913Y01446D01*
X0449Y014485D01*
X044892Y014506D01*
X044888Y014522D01*
X044887Y014526D01*
Y016223D01*
X044888Y016227D01*
X044892Y016243D01*
X0449Y016264D01*
X044913Y016289D01*
X044931Y016318D01*
X044952Y016349D01*
X045055Y016468D01*
X045087Y016501D01*
X045102Y016512D01*
X045184Y016618D01*
X045235Y016742D01*
X045252Y016874D01*
X045235Y017007D01*
X045184Y017131D01*
X045102Y017237D01*
X044996Y017318D01*
X044873Y017369D01*
X04474Y017387D01*
X044721Y017384D01*
X044674Y017384D01*
X044565Y01739D01*
X044521Y017396D01*
X044481Y017402D01*
X044448Y01741D01*
X044421Y017419D01*
X044401Y017428D01*
X044387Y017437D01*
X044383Y017439D01*
X043689Y018133D01*
X043642Y018165D01*
X043585Y018177D01*
X028674D01*
X026857Y019993D01*
Y020226D01*
X026858Y020229D01*
X026858Y020232D01*
X026859Y020234D01*
X026863Y020237D01*
X02691Y020307D01*
X026927Y02039D01*
X02691Y020473D01*
X026863Y020543D01*
X026793Y02059D01*
X02671Y020607D01*
D02*
G37*
G36*
X04274Y017392D02*
X042606Y017375D01*
X042481Y017323D01*
X042429Y017283D01*
X04274Y016972D01*
X043051Y017283D01*
X042999Y017323D01*
X042874Y017375D01*
X04274Y017392D01*
D02*
G37*
G36*
X028441D02*
X028307Y017375D01*
X028182Y017323D01*
X02813Y017283D01*
X028441Y016972D01*
X028752Y017283D01*
X0287Y017323D01*
X028575Y017375D01*
X028441Y017392D01*
D02*
G37*
G36*
X035591D02*
X035457Y017375D01*
X035332Y017323D01*
X03528Y017283D01*
X035591Y016972D01*
X035902Y017283D01*
X035849Y017323D01*
X035725Y017375D01*
X035591Y017392D01*
D02*
G37*
G36*
X021291D02*
X021157Y017375D01*
X021032Y017323D01*
X02098Y017283D01*
X021291Y016972D01*
X021602Y017283D01*
X02155Y017323D01*
X021425Y017375D01*
X021291Y017392D01*
D02*
G37*
G36*
X020883Y017185D02*
X020843Y017133D01*
X020791Y017008D01*
X020773Y016874D01*
X020791Y01674D01*
X020843Y016616D01*
X020883Y016563D01*
X021194Y016874D01*
X020883Y017185D01*
D02*
G37*
G36*
X035182D02*
X035142Y017133D01*
X03509Y017008D01*
X035073Y016874D01*
X03509Y01674D01*
X035142Y016616D01*
X035182Y016563D01*
X035493Y016874D01*
X035182Y017185D01*
D02*
G37*
G36*
X043149D02*
X042838Y016874D01*
X043149Y016563D01*
X043189Y016616D01*
X04324Y01674D01*
X043258Y016874D01*
X04324Y017008D01*
X043189Y017133D01*
X043149Y017185D01*
D02*
G37*
G36*
X028849D02*
X028538Y016874D01*
X028849Y016563D01*
X028889Y016616D01*
X028941Y01674D01*
X028959Y016874D01*
X028941Y017008D01*
X028889Y017133D01*
X028849Y017185D01*
D02*
G37*
G36*
X028032Y017185D02*
X027992Y017133D01*
X027941Y017008D01*
X027923Y016874D01*
X027941Y01674D01*
X027992Y016616D01*
X028032Y016563D01*
X028343Y016874D01*
X028032Y017185D01*
D02*
G37*
G36*
X042332D02*
X042292Y017133D01*
X04224Y017008D01*
X042222Y016874D01*
X04224Y01674D01*
X042292Y016616D01*
X042332Y016563D01*
X042643Y016874D01*
X042332Y017185D01*
D02*
G37*
G36*
X035999D02*
X035688Y016874D01*
X035999Y016563D01*
X036039Y016616D01*
X036091Y01674D01*
X036108Y016874D01*
X036091Y017008D01*
X036039Y017133D01*
X035999Y017185D01*
D02*
G37*
G36*
X0217D02*
X021389Y016874D01*
X0217Y016563D01*
X02174Y016616D01*
X021791Y01674D01*
X021809Y016874D01*
X021791Y017008D01*
X02174Y017133D01*
X0217Y017185D01*
D02*
G37*
G36*
X04274Y016777D02*
X042429Y016466D01*
X042481Y016426D01*
X042606Y016374D01*
X04274Y016357D01*
X042874Y016374D01*
X042999Y016426D01*
X043051Y016466D01*
X04274Y016777D01*
D02*
G37*
G36*
X035591D02*
X03528Y016466D01*
X035332Y016426D01*
X035457Y016374D01*
X035591Y016357D01*
X035725Y016374D01*
X035849Y016426D01*
X035902Y016466D01*
X035591Y016777D01*
D02*
G37*
G36*
X028441D02*
X02813Y016466D01*
X028182Y016426D01*
X028307Y016374D01*
X028441Y016357D01*
X028575Y016374D01*
X0287Y016426D01*
X028752Y016466D01*
X028441Y016777D01*
D02*
G37*
G36*
X021291D02*
X02098Y016466D01*
X021032Y016426D01*
X021157Y016374D01*
X021291Y016357D01*
X021425Y016374D01*
X02155Y016426D01*
X021602Y016466D01*
X021291Y016777D01*
D02*
G37*
G36*
X028441Y014392D02*
X028307Y014375D01*
X028182Y014323D01*
X02813Y014283D01*
X028441Y013972D01*
X028752Y014283D01*
X0287Y014323D01*
X028575Y014375D01*
X028441Y014392D01*
D02*
G37*
G36*
X04274D02*
X042606Y014375D01*
X042481Y014323D01*
X042429Y014283D01*
X04274Y013972D01*
X043051Y014283D01*
X042999Y014323D01*
X042874Y014375D01*
X04274Y014392D01*
D02*
G37*
G36*
X035591D02*
X035457Y014375D01*
X035332Y014323D01*
X03528Y014283D01*
X035591Y013972D01*
X035902Y014283D01*
X035849Y014323D01*
X035725Y014375D01*
X035591Y014392D01*
D02*
G37*
G36*
X021291D02*
X021157Y014375D01*
X021032Y014323D01*
X02098Y014283D01*
X021291Y013972D01*
X021602Y014283D01*
X02155Y014323D01*
X021425Y014375D01*
X021291Y014392D01*
D02*
G37*
G36*
X020883Y014185D02*
X020843Y014133D01*
X020791Y014008D01*
X020773Y013874D01*
X020791Y01374D01*
X020843Y013615D01*
X020883Y013563D01*
X021194Y013874D01*
X020883Y014185D01*
D02*
G37*
G36*
X035182D02*
X035142Y014133D01*
X03509Y014008D01*
X035073Y013874D01*
X03509Y01374D01*
X035142Y013615D01*
X035182Y013563D01*
X035493Y013874D01*
X035182Y014185D01*
D02*
G37*
G36*
X043149D02*
X042838Y013874D01*
X043149Y013563D01*
X043189Y013615D01*
X04324Y01374D01*
X043258Y013874D01*
X04324Y014008D01*
X043189Y014133D01*
X043149Y014185D01*
D02*
G37*
G36*
X028849D02*
X028538Y013874D01*
X028849Y013563D01*
X028889Y013615D01*
X028941Y01374D01*
X028959Y013874D01*
X028941Y014008D01*
X028889Y014133D01*
X028849Y014185D01*
D02*
G37*
G36*
X042332Y014185D02*
X042292Y014133D01*
X04224Y014008D01*
X042222Y013874D01*
X04224Y01374D01*
X042292Y013615D01*
X042332Y013563D01*
X042643Y013874D01*
X042332Y014185D01*
D02*
G37*
G36*
X028032D02*
X027992Y014133D01*
X027941Y014008D01*
X027923Y013874D01*
X027941Y01374D01*
X027992Y013615D01*
X028032Y013563D01*
X028343Y013874D01*
X028032Y014185D01*
D02*
G37*
G36*
X035999D02*
X035688Y013874D01*
X035999Y013563D01*
X036039Y013615D01*
X036091Y01374D01*
X036108Y013874D01*
X036091Y014008D01*
X036039Y014133D01*
X035999Y014185D01*
D02*
G37*
G36*
X0217D02*
X021389Y013874D01*
X0217Y013563D01*
X02174Y013615D01*
X021791Y01374D01*
X021809Y013874D01*
X021791Y014008D01*
X02174Y014133D01*
X0217Y014185D01*
D02*
G37*
G36*
X04674Y017387D02*
X046608Y017369D01*
X046484Y017318D01*
X046378Y017237D01*
X046297Y017131D01*
X046245Y017007D01*
X046228Y016874D01*
X046245Y016742D01*
X046297Y016618D01*
X046378Y016512D01*
X046393Y016501D01*
X046424Y016469D01*
X046494Y01639D01*
X04652Y016356D01*
X046542Y016324D01*
X046559Y016295D01*
X046571Y01627D01*
X046579Y016248D01*
X046583Y016231D01*
X046584Y016227D01*
Y014521D01*
X046583Y014518D01*
X046579Y014501D01*
X046571Y014479D01*
X046559Y014454D01*
X046542Y014425D01*
X04652Y014393D01*
X046494Y014358D01*
X046424Y01428D01*
X046393Y014248D01*
X046378Y014237D01*
X046297Y014131D01*
X046245Y014007D01*
X046228Y013874D01*
X046245Y013742D01*
X046297Y013618D01*
X046378Y013512D01*
X046484Y013431D01*
X046608Y01338D01*
X04674Y013362D01*
X046873Y01338D01*
X046996Y013431D01*
X047102Y013512D01*
X047184Y013618D01*
X047235Y013742D01*
X047252Y013874D01*
X047235Y014007D01*
X047184Y014131D01*
X047102Y014237D01*
X047087Y014248D01*
X047056Y01428D01*
X046986Y014358D01*
X04696Y014392D01*
X046938Y014425D01*
X046921Y014454D01*
X046909Y014479D01*
X046901Y014501D01*
X046897Y014518D01*
X046897Y014521D01*
Y016227D01*
X046897Y016231D01*
X046901Y016248D01*
X046909Y01627D01*
X046921Y016295D01*
X046938Y016324D01*
X04696Y016356D01*
X046986Y01639D01*
X047056Y016469D01*
X047087Y016501D01*
X047102Y016512D01*
X047184Y016618D01*
X047235Y016742D01*
X047252Y016874D01*
X047235Y017007D01*
X047184Y017131D01*
X047102Y017237D01*
X046996Y017318D01*
X046873Y017369D01*
X04674Y017387D01*
D02*
G37*
G36*
X039591D02*
X039458Y017369D01*
X039334Y017318D01*
X039228Y017237D01*
X039147Y017131D01*
X039096Y017007D01*
X039078Y016874D01*
X039096Y016742D01*
X039147Y016618D01*
X039228Y016512D01*
X039243Y016501D01*
X039275Y016469D01*
X039344Y01639D01*
X039371Y016356D01*
X039392Y016324D01*
X03941Y016295D01*
X039422Y01627D01*
X03943Y016248D01*
X039434Y016231D01*
X039434Y016227D01*
Y014521D01*
X039434Y014518D01*
X03943Y014501D01*
X039422Y014479D01*
X03941Y014454D01*
X039392Y014425D01*
X039371Y014393D01*
X039344Y014358D01*
X039275Y01428D01*
X039243Y014248D01*
X039228Y014237D01*
X039147Y014131D01*
X039096Y014007D01*
X039078Y013874D01*
X039096Y013742D01*
X039147Y013618D01*
X039228Y013512D01*
X039334Y013431D01*
X039458Y01338D01*
X039591Y013362D01*
X039723Y01338D01*
X039847Y013431D01*
X039953Y013512D01*
X040034Y013618D01*
X040085Y013742D01*
X040103Y013874D01*
X040085Y014007D01*
X040034Y014131D01*
X039953Y014237D01*
X039938Y014248D01*
X039906Y01428D01*
X039837Y014358D01*
X039811Y014392D01*
X039789Y014425D01*
X039772Y014454D01*
X039759Y014479D01*
X039751Y014501D01*
X039747Y014518D01*
X039747Y014521D01*
Y016227D01*
X039747Y016231D01*
X039751Y016248D01*
X039759Y01627D01*
X039772Y016295D01*
X039789Y016324D01*
X039811Y016356D01*
X039837Y01639D01*
X039906Y016469D01*
X039938Y016501D01*
X039953Y016512D01*
X040034Y016618D01*
X040085Y016742D01*
X040103Y016874D01*
X040085Y017007D01*
X040034Y017131D01*
X039953Y017237D01*
X039847Y017318D01*
X039723Y017369D01*
X039591Y017387D01*
D02*
G37*
G36*
X032441D02*
X032308Y017369D01*
X032185Y017318D01*
X032079Y017237D01*
X031997Y017131D01*
X031946Y017007D01*
X031929Y016874D01*
X031946Y016742D01*
X031997Y016618D01*
X032079Y016512D01*
X032094Y016501D01*
X032125Y016469D01*
X032195Y01639D01*
X032221Y016356D01*
X032243Y016324D01*
X03226Y016295D01*
X032272Y01627D01*
X03228Y016248D01*
X032284Y016231D01*
X032284Y016227D01*
Y014521D01*
X032284Y014518D01*
X03228Y014501D01*
X032272Y014479D01*
X03226Y014454D01*
X032243Y014425D01*
X032221Y014393D01*
X032195Y014358D01*
X032125Y01428D01*
X032094Y014248D01*
X032079Y014237D01*
X031997Y014131D01*
X031946Y014007D01*
X031929Y013874D01*
X031946Y013742D01*
X031997Y013618D01*
X032079Y013512D01*
X032185Y013431D01*
X032308Y01338D01*
X032441Y013362D01*
X032573Y01338D01*
X032697Y013431D01*
X032803Y013512D01*
X032885Y013618D01*
X032936Y013742D01*
X032953Y013874D01*
X032936Y014007D01*
X032885Y014131D01*
X032803Y014237D01*
X032788Y014248D01*
X032757Y01428D01*
X032687Y014358D01*
X032661Y014392D01*
X032639Y014425D01*
X032622Y014454D01*
X03261Y014479D01*
X032602Y014501D01*
X032598Y014518D01*
X032597Y014521D01*
Y016227D01*
X032598Y016231D01*
X032602Y016248D01*
X03261Y01627D01*
X032622Y016295D01*
X032639Y016324D01*
X032661Y016356D01*
X032687Y01639D01*
X032757Y016469D01*
X032788Y016501D01*
X032803Y016512D01*
X032885Y016618D01*
X032936Y016742D01*
X032953Y016874D01*
X032936Y017007D01*
X032885Y017131D01*
X032803Y017237D01*
X032697Y017318D01*
X032573Y017369D01*
X032441Y017387D01*
D02*
G37*
G36*
X030441D02*
X030308Y017369D01*
X030185Y017318D01*
X030079Y017237D01*
X029997Y017131D01*
X029946Y017007D01*
X029929Y016874D01*
X029946Y016742D01*
X029997Y016618D01*
X030079Y016512D01*
X030094Y016501D01*
X030127Y016467D01*
X0302Y016386D01*
X030227Y016351D01*
X030251Y016318D01*
X030268Y016289D01*
X030281Y016264D01*
X030289Y016243D01*
X030293Y016227D01*
X030294Y016223D01*
Y014526D01*
X030293Y014522D01*
X030289Y014506D01*
X030281Y014485D01*
X030268Y01446D01*
X030251Y014431D01*
X030229Y0144D01*
X030126Y014281D01*
X030094Y014248D01*
X030079Y014237D01*
X029997Y014131D01*
X029946Y014007D01*
X029929Y013874D01*
X029946Y013742D01*
X029997Y013618D01*
X030079Y013512D01*
X030185Y013431D01*
X030308Y01338D01*
X030441Y013362D01*
X030573Y01338D01*
X030697Y013431D01*
X030803Y013512D01*
X030885Y013618D01*
X030936Y013742D01*
X030953Y013874D01*
X030936Y014007D01*
X030885Y014131D01*
X030803Y014237D01*
X030788Y014248D01*
X030755Y014282D01*
X030682Y014363D01*
X030654Y014398D01*
X030631Y014431D01*
X030613Y01446D01*
X030601Y014485D01*
X030593Y014506D01*
X030589Y014522D01*
X030588Y014526D01*
Y016223D01*
X030589Y016227D01*
X030593Y016243D01*
X030601Y016264D01*
X030613Y016289D01*
X030631Y016318D01*
X030653Y016349D01*
X030756Y016468D01*
X030788Y016501D01*
X030803Y016512D01*
X030885Y016618D01*
X030936Y016742D01*
X030953Y016874D01*
X030936Y017007D01*
X030885Y017131D01*
X030803Y017237D01*
X030697Y017318D01*
X030573Y017369D01*
X030441Y017387D01*
D02*
G37*
G36*
X025291D02*
X025159Y017369D01*
X025035Y017318D01*
X024929Y017237D01*
X024848Y017131D01*
X024797Y017007D01*
X024779Y016874D01*
X024797Y016742D01*
X024848Y016618D01*
X024929Y016512D01*
X024944Y016501D01*
X024975Y016469D01*
X025045Y01639D01*
X025071Y016356D01*
X025093Y016324D01*
X02511Y016295D01*
X025123Y01627D01*
X02513Y016248D01*
X025135Y016231D01*
X025135Y016227D01*
Y014521D01*
X025135Y014518D01*
X02513Y014501D01*
X025123Y014479D01*
X02511Y014454D01*
X025093Y014425D01*
X025071Y014393D01*
X025045Y014358D01*
X024975Y01428D01*
X024944Y014248D01*
X024929Y014237D01*
X024848Y014131D01*
X024797Y014007D01*
X024779Y013874D01*
X024797Y013742D01*
X024848Y013618D01*
X024929Y013512D01*
X025035Y013431D01*
X025159Y01338D01*
X025291Y013362D01*
X025424Y01338D01*
X025547Y013431D01*
X025654Y013512D01*
X025735Y013618D01*
X025786Y013742D01*
X025804Y013874D01*
X025786Y014007D01*
X025735Y014131D01*
X025654Y014237D01*
X025639Y014248D01*
X025607Y01428D01*
X025538Y014358D01*
X025511Y014392D01*
X025489Y014425D01*
X025472Y014454D01*
X02546Y014479D01*
X025452Y014501D01*
X025448Y014518D01*
X025448Y014521D01*
Y016227D01*
X025448Y016231D01*
X025452Y016248D01*
X02546Y01627D01*
X025472Y016295D01*
X025489Y016324D01*
X025511Y016356D01*
X025538Y01639D01*
X025607Y016469D01*
X025639Y016501D01*
X025654Y016512D01*
X025735Y016618D01*
X025786Y016742D01*
X025804Y016874D01*
X025786Y017007D01*
X025735Y017131D01*
X025654Y017237D01*
X025547Y017318D01*
X025424Y017369D01*
X025291Y017387D01*
D02*
G37*
G36*
X023291D02*
X023159Y017369D01*
X023035Y017318D01*
X022929Y017237D01*
X022848Y017131D01*
X022797Y017007D01*
X022779Y016874D01*
X022797Y016742D01*
X022848Y016618D01*
X022929Y016512D01*
X022944Y016501D01*
X022977Y016467D01*
X02305Y016386D01*
X023078Y016351D01*
X023101Y016318D01*
X023119Y016289D01*
X023132Y016264D01*
X02314Y016243D01*
X023144Y016227D01*
X023144Y016223D01*
Y014526D01*
X023144Y014522D01*
X02314Y014506D01*
X023132Y014485D01*
X023119Y01446D01*
X023101Y014431D01*
X023079Y0144D01*
X022977Y014281D01*
X022944Y014248D01*
X022929Y014237D01*
X022848Y014131D01*
X022797Y014007D01*
X022779Y013874D01*
X022797Y013742D01*
X022848Y013618D01*
X022929Y013512D01*
X023035Y013431D01*
X023159Y01338D01*
X023291Y013362D01*
X023424Y01338D01*
X023547Y013431D01*
X023654Y013512D01*
X023735Y013618D01*
X023786Y013742D01*
X023804Y013874D01*
X023786Y014007D01*
X023735Y014131D01*
X023654Y014237D01*
X023638Y014248D01*
X023605Y014282D01*
X023532Y014363D01*
X023505Y014398D01*
X023482Y014431D01*
X023464Y01446D01*
X023451Y014485D01*
X023443Y014506D01*
X023439Y014522D01*
X023439Y014526D01*
Y016223D01*
X023439Y016227D01*
X023443Y016243D01*
X023451Y016264D01*
X023464Y016289D01*
X023482Y016318D01*
X023504Y016349D01*
X023606Y016468D01*
X023638Y016501D01*
X023654Y016512D01*
X023735Y016618D01*
X023786Y016742D01*
X023804Y016874D01*
X023786Y017007D01*
X023735Y017131D01*
X023654Y017237D01*
X023547Y017318D01*
X023424Y017369D01*
X023291Y017387D01*
D02*
G37*
G36*
X04274Y013777D02*
X042429Y013466D01*
X042481Y013426D01*
X042606Y013374D01*
X04274Y013357D01*
X042874Y013374D01*
X042999Y013426D01*
X043051Y013466D01*
X04274Y013777D01*
D02*
G37*
G36*
X035591D02*
X03528Y013466D01*
X035332Y013426D01*
X035457Y013374D01*
X035591Y013357D01*
X035725Y013374D01*
X035849Y013426D01*
X035902Y013466D01*
X035591Y013777D01*
D02*
G37*
G36*
X028441D02*
X02813Y013466D01*
X028182Y013426D01*
X028307Y013374D01*
X028441Y013357D01*
X028575Y013374D01*
X0287Y013426D01*
X028752Y013466D01*
X028441Y013777D01*
D02*
G37*
G36*
X021291D02*
X02098Y013466D01*
X021032Y013426D01*
X021157Y013374D01*
X021291Y013357D01*
X021425Y013374D01*
X02155Y013426D01*
X021602Y013466D01*
X021291Y013777D01*
D02*
G37*
%LPD*%
G36*
X026786Y020299D02*
X026781Y020292D01*
X026776Y020284D01*
X026772Y020275D01*
X026768Y020266D01*
X026765Y020257D01*
X026763Y020246D01*
X026761Y020236D01*
X02676Y020224D01*
X02676Y020212D01*
X02666D01*
X02666Y020224D01*
X026659Y020236D01*
X026657Y020246D01*
X026655Y020257D01*
X026652Y020266D01*
X026648Y020275D01*
X026644Y020284D01*
X026639Y020292D01*
X026634Y020299D01*
X026627Y020306D01*
X026793D01*
X026786Y020299D01*
D02*
G37*
G36*
X026278Y02019D02*
X02628Y020181D01*
X026282Y020172D01*
X026285Y020163D01*
X026289Y020154D01*
X026293Y020145D01*
X026299Y020136D01*
X026305Y020127D01*
X026313Y020118D01*
X026321Y02011D01*
X02625Y020039D01*
X026242Y020047D01*
X026233Y020055D01*
X026224Y020061D01*
X026215Y020067D01*
X026206Y020071D01*
X026197Y020075D01*
X026188Y020078D01*
X026179Y02008D01*
X02617Y020082D01*
X026161Y020082D01*
X026278Y020199D01*
X026278Y02019D01*
D02*
G37*
G36*
X044331Y017358D02*
X044356Y017343D01*
X044386Y017329D01*
X044422Y017318D01*
X044462Y017308D01*
X044507Y0173D01*
X044557Y017294D01*
X044671Y017288D01*
X044736Y017288D01*
X044327Y016879D01*
X044326Y016943D01*
X044314Y017108D01*
X044307Y017153D01*
X044297Y017193D01*
X044285Y017228D01*
X044272Y017258D01*
X044256Y017284D01*
X044239Y017305D01*
X04431Y017375D01*
X044331Y017358D01*
D02*
G37*
G36*
X037114Y017287D02*
X037141Y017271D01*
X037171Y017259D01*
X037205Y017251D01*
X037243Y017246D01*
X037285Y017245D01*
X03733Y017247D01*
X037379Y017253D01*
X037432Y017262D01*
X037489Y017275D01*
X037188Y016781D01*
X037171Y016853D01*
X037092Y017118D01*
X037078Y017153D01*
X037064Y017181D01*
X037051Y017203D01*
X037038Y017218D01*
X037091Y017307D01*
X037114Y017287D01*
D02*
G37*
G36*
X044984Y016533D02*
X044876Y016408D01*
X04485Y016371D01*
X044828Y016336D01*
X044812Y016303D01*
X0448Y016272D01*
X044793Y016243D01*
X04479Y016216D01*
X04469D01*
X044688Y016243D01*
X044681Y016272D01*
X044669Y016303D01*
X044652Y016336D01*
X04463Y016371D01*
X044604Y016408D01*
X044573Y016448D01*
X044496Y016533D01*
X044451Y016579D01*
X04503D01*
X044984Y016533D01*
D02*
G37*
G36*
X037834D02*
X037727Y016408D01*
X0377Y016371D01*
X037679Y016336D01*
X037662Y016303D01*
X03765Y016272D01*
X037643Y016243D01*
X037641Y016216D01*
X037541D01*
X037538Y016243D01*
X037531Y016272D01*
X037519Y016303D01*
X037502Y016336D01*
X037481Y016371D01*
X037454Y016408D01*
X037423Y016448D01*
X037347Y016533D01*
X037301Y016579D01*
X03788D01*
X037834Y016533D01*
D02*
G37*
G36*
X044793Y014506D02*
X0448Y014477D01*
X044812Y014446D01*
X044828Y014413D01*
X04485Y014378D01*
X044876Y01434D01*
X044907Y014301D01*
X044984Y014215D01*
X04503Y01417D01*
X044451D01*
X044496Y014215D01*
X044604Y01434D01*
X04463Y014378D01*
X044652Y014413D01*
X044669Y014446D01*
X044681Y014477D01*
X044688Y014506D01*
X04469Y014533D01*
X04479D01*
X044793Y014506D01*
D02*
G37*
G36*
X037643D02*
X03765Y014477D01*
X037662Y014446D01*
X037679Y014413D01*
X0377Y014378D01*
X037727Y01434D01*
X037758Y014301D01*
X037834Y014215D01*
X03788Y01417D01*
X037301D01*
X037347Y014215D01*
X037454Y01434D01*
X037481Y014378D01*
X037502Y014413D01*
X037519Y014446D01*
X037531Y014477D01*
X037538Y014506D01*
X037541Y014533D01*
X037641D01*
X037643Y014506D01*
D02*
G37*
G36*
X046986Y016535D02*
X046912Y016452D01*
X046882Y016413D01*
X046857Y016376D01*
X046836Y016341D01*
X04682Y016307D01*
X046808Y016275D01*
X046801Y016245D01*
X046799Y016217D01*
X046681D01*
X046679Y016245D01*
X046672Y016275D01*
X04666Y016307D01*
X046644Y016341D01*
X046624Y016376D01*
X046598Y016413D01*
X046568Y016452D01*
X046495Y016535D01*
X046451Y016579D01*
X04703D01*
X046986Y016535D01*
D02*
G37*
G36*
X046801Y014503D02*
X046808Y014474D01*
X04682Y014442D01*
X046836Y014408D01*
X046857Y014373D01*
X046882Y014336D01*
X046912Y014297D01*
X046986Y014214D01*
X04703Y01417D01*
X046451D01*
X046495Y014214D01*
X046568Y014297D01*
X046598Y014336D01*
X046624Y014373D01*
X046644Y014408D01*
X04666Y014442D01*
X046672Y014474D01*
X046679Y014503D01*
X046681Y014532D01*
X046799D01*
X046801Y014503D01*
D02*
G37*
G36*
X039836Y016535D02*
X039762Y016452D01*
X039732Y016413D01*
X039707Y016376D01*
X039686Y016341D01*
X03967Y016307D01*
X039659Y016275D01*
X039652Y016245D01*
X03965Y016217D01*
X039531D01*
X039529Y016245D01*
X039522Y016275D01*
X039511Y016307D01*
X039495Y016341D01*
X039474Y016376D01*
X039449Y016413D01*
X039419Y016452D01*
X039345Y016535D01*
X039301Y016579D01*
X03988D01*
X039836Y016535D01*
D02*
G37*
G36*
X039652Y014503D02*
X039659Y014474D01*
X03967Y014442D01*
X039686Y014408D01*
X039707Y014373D01*
X039732Y014336D01*
X039762Y014297D01*
X039836Y014214D01*
X03988Y01417D01*
X039301D01*
X039345Y014214D01*
X039419Y014297D01*
X039449Y014336D01*
X039474Y014373D01*
X039495Y014408D01*
X039511Y014442D01*
X039522Y014474D01*
X039529Y014503D01*
X039531Y014532D01*
X03965D01*
X039652Y014503D01*
D02*
G37*
G36*
X032687Y016535D02*
X032613Y016452D01*
X032583Y016413D01*
X032558Y016376D01*
X032537Y016341D01*
X032521Y016307D01*
X032509Y016275D01*
X032502Y016245D01*
X0325Y016217D01*
X032382D01*
X03238Y016245D01*
X032373Y016275D01*
X032361Y016307D01*
X032345Y016341D01*
X032324Y016376D01*
X032299Y016413D01*
X032269Y016452D01*
X032195Y016535D01*
X032152Y016579D01*
X03273D01*
X032687Y016535D01*
D02*
G37*
G36*
X032502Y014503D02*
X032509Y014474D01*
X032521Y014442D01*
X032537Y014408D01*
X032558Y014373D01*
X032583Y014336D01*
X032613Y014297D01*
X032687Y014214D01*
X03273Y01417D01*
X032152D01*
X032195Y014214D01*
X032269Y014297D01*
X032299Y014336D01*
X032324Y014373D01*
X032345Y014408D01*
X032361Y014442D01*
X032373Y014474D01*
X03238Y014503D01*
X032382Y014532D01*
X0325D01*
X032502Y014503D01*
D02*
G37*
G36*
X030685Y016533D02*
X030577Y016408D01*
X030551Y016371D01*
X030529Y016336D01*
X030512Y016303D01*
X0305Y016272D01*
X030493Y016243D01*
X030491Y016216D01*
X030391D01*
X030389Y016243D01*
X030381Y016272D01*
X030369Y016303D01*
X030353Y016336D01*
X030331Y016371D01*
X030305Y016408D01*
X030274Y016448D01*
X030197Y016533D01*
X030152Y016579D01*
X03073D01*
X030685Y016533D01*
D02*
G37*
G36*
X030493Y014506D02*
X0305Y014477D01*
X030512Y014446D01*
X030529Y014413D01*
X030551Y014378D01*
X030577Y01434D01*
X030608Y014301D01*
X030685Y014215D01*
X03073Y01417D01*
X030152D01*
X030197Y014215D01*
X030305Y01434D01*
X030331Y014378D01*
X030353Y014413D01*
X030369Y014446D01*
X030381Y014477D01*
X030389Y014506D01*
X030391Y014533D01*
X030491D01*
X030493Y014506D01*
D02*
G37*
G36*
X025537Y016535D02*
X025463Y016452D01*
X025433Y016413D01*
X025408Y016376D01*
X025387Y016341D01*
X025371Y016307D01*
X02536Y016275D01*
X025353Y016245D01*
X02535Y016217D01*
X025232D01*
X02523Y016245D01*
X025223Y016275D01*
X025212Y016307D01*
X025195Y016341D01*
X025175Y016376D01*
X025149Y016413D01*
X025119Y016452D01*
X025046Y016535D01*
X025002Y016579D01*
X025581D01*
X025537Y016535D01*
D02*
G37*
G36*
X025353Y014503D02*
X02536Y014474D01*
X025371Y014442D01*
X025387Y014408D01*
X025408Y014373D01*
X025433Y014336D01*
X025463Y014297D01*
X025537Y014214D01*
X025581Y01417D01*
X025002D01*
X025046Y014214D01*
X025119Y014297D01*
X025149Y014336D01*
X025175Y014373D01*
X025195Y014408D01*
X025212Y014442D01*
X025223Y014474D01*
X02523Y014503D01*
X025232Y014532D01*
X02535D01*
X025353Y014503D01*
D02*
G37*
G36*
X023535Y016533D02*
X023427Y016408D01*
X023401Y016371D01*
X02338Y016336D01*
X023363Y016303D01*
X023351Y016272D01*
X023344Y016243D01*
X023341Y016216D01*
X023241D01*
X023239Y016243D01*
X023232Y016272D01*
X02322Y016303D01*
X023203Y016336D01*
X023181Y016371D01*
X023155Y016408D01*
X023124Y016448D01*
X023047Y016533D01*
X023002Y016579D01*
X023581D01*
X023535Y016533D01*
D02*
G37*
G36*
X023344Y014506D02*
X023351Y014477D01*
X023363Y014446D01*
X02338Y014413D01*
X023401Y014378D01*
X023427Y01434D01*
X023459Y014301D01*
X023535Y014215D01*
X023581Y01417D01*
X023002D01*
X023047Y014215D01*
X023155Y01434D01*
X023181Y014378D01*
X023203Y014413D01*
X02322Y014446D01*
X023232Y014477D01*
X023239Y014506D01*
X023241Y014533D01*
X023341D01*
X023344Y014506D01*
D02*
G37*
D10*
X021169Y034788D02*
X021353Y034971D01*
X022514D01*
X022029Y027197D02*
Y030184D01*
Y027197D02*
X022757Y02647D01*
X020828Y031865D02*
Y036775D01*
D15*
X023108Y025315D02*
Y032925D01*
Y025315D02*
X024383Y02404D01*
X023108Y032925D02*
X024118Y033934D01*
X021217Y03076D02*
X022097D01*
X022597Y03026D01*
X020527Y03145D02*
X021217Y03076D01*
X020527Y03145D02*
Y03282D01*
X019657Y030796D02*
Y03227D01*
X018477Y029616D02*
X019657Y030796D01*
X028113Y019224D02*
Y022427D01*
Y019224D02*
X028461Y018876D01*
X023318Y021304D02*
Y023087D01*
X021508Y019495D02*
X023318Y021304D01*
X030257Y022429D02*
Y023179D01*
X02438Y02404D02*
X024383D01*
X04674Y013874D02*
Y016874D01*
X039591Y013874D02*
Y016874D01*
X025291Y013874D02*
Y016874D01*
X032441Y013874D02*
Y016874D01*
X048398Y021758D02*
X051398D01*
X024118Y033934D02*
Y036734D01*
D20*
X023682Y027129D02*
Y030081D01*
Y027129D02*
X026131Y02468D01*
X02671Y019932D02*
X028613Y018029D01*
X02671Y019932D02*
Y02039D01*
X028613Y018029D02*
X043585D01*
X036492Y017835D02*
X037453Y016874D01*
X037591D01*
X028352Y018015D02*
X028532Y017835D01*
X036492D01*
X037591Y013874D02*
Y016874D01*
X02616Y0202D02*
X028345Y018015D01*
X028352D01*
X030173Y02435D02*
X031098Y023425D01*
X026067Y02435D02*
X030173D01*
X024302Y026115D02*
X026067Y02435D01*
X030293Y02468D02*
X031128Y023845D01*
X026131Y02468D02*
X030293D01*
X031128Y023845D02*
X031128D01*
X043585Y018029D02*
X04474Y016874D01*
Y013874D02*
Y016874D01*
X023291Y013874D02*
Y016874D01*
X030441Y013874D02*
Y016874D01*
X041526Y023556D02*
X042494Y022589D01*
X047567D01*
X048398Y021758D01*
Y023735D02*
Y023758D01*
X04753Y022867D02*
X048398Y023735D01*
X04176Y02379D02*
X042683Y022867D01*
X04753D01*
X029089Y026903D02*
X031093D01*
X028737Y026551D02*
X029089Y026903D01*
X024696Y026551D02*
X028737D01*
X029062Y027233D02*
X031093D01*
X028633Y026804D02*
X029062Y027233D01*
X024893Y026804D02*
X028633D01*
X024102Y027595D02*
Y030071D01*
Y027595D02*
X024893Y026804D01*
X015477Y020498D02*
X018477D01*
X048398Y023758D02*
X051398D01*
X015477Y027616D02*
X018477D01*
X048398Y030907D02*
X051398D01*
X048398Y032907D02*
X051398D01*
X029842Y026551D02*
X031104D01*
X029979Y026221D02*
X031104D01*
X032428Y029015D02*
Y029185D01*
X033088Y029845D02*
X033668D01*
X032428Y029185D02*
X033088Y029845D01*
X033668D02*
X034195Y030372D01*
X034254D01*
X029182Y025891D02*
X029842Y026551D01*
X029416Y025657D02*
X029979Y026221D01*
D52*
X04441Y021449D02*
D03*
Y020819D02*
D03*
D101*
X032069Y023087D02*
X032838Y022318D01*
Y020435D02*
Y022318D01*
X043073Y021449D02*
X04441D01*
X041608Y019985D02*
X043073Y021449D01*
X033288Y019985D02*
X041608D01*
X032838Y020435D02*
X033288Y019985D01*
D103*
X033254Y030372D02*
X034195D01*
X030247Y02946D02*
Y033657D01*
X028113Y022427D02*
X031409D01*
X027453Y023087D02*
X028113Y022427D01*
X023318Y023087D02*
X027453D01*
X020679D02*
X023318D01*
X020089Y023677D02*
X020679Y023087D01*
X030247Y02946D02*
X032069Y027637D01*
Y023087D02*
Y027637D01*
X031409Y022427D02*
X032069Y023087D01*
X019015Y034592D02*
X020089Y033517D01*
X018966Y034592D02*
X019015D01*
X018807Y034695D02*
X018863D01*
X018966Y034592D01*
X020089Y023677D02*
Y033517D01*
D105*
X048398Y032907D02*
D03*
Y030907D02*
D03*
Y023758D02*
D03*
X015477Y027616D02*
D03*
Y020498D02*
D03*
X048398Y021758D02*
D03*
X051398Y025758D02*
D03*
X048398D02*
D03*
X051398Y021758D02*
D03*
Y023758D02*
D03*
Y019758D02*
D03*
X048398D02*
D03*
X051398Y034907D02*
D03*
X048398D02*
D03*
X051398Y030907D02*
D03*
Y032907D02*
D03*
Y028907D02*
D03*
X048398D02*
D03*
X015477Y025616D02*
D03*
X018477Y027616D02*
D03*
Y025616D02*
D03*
X015477Y029616D02*
D03*
X018477D02*
D03*
X04474Y013874D02*
D03*
X04674D02*
D03*
X04474Y016874D02*
D03*
X04674D02*
D03*
X04274Y013874D02*
D03*
Y016874D02*
D03*
X037591Y013874D02*
D03*
X039591D02*
D03*
X037591Y016874D02*
D03*
X039591D02*
D03*
X035591Y013874D02*
D03*
Y016874D02*
D03*
X015477Y018498D02*
D03*
X018477Y020498D02*
D03*
Y018498D02*
D03*
X015477Y022498D02*
D03*
X018477D02*
D03*
X023291Y013874D02*
D03*
X025291D02*
D03*
X023291Y016874D02*
D03*
X025291D02*
D03*
X021291Y013874D02*
D03*
Y016874D02*
D03*
X030441Y013874D02*
D03*
X032441D02*
D03*
X030441Y016874D02*
D03*
X032441D02*
D03*
X028441Y013874D02*
D03*
Y016874D02*
D03*
D106*
X018807Y034695D02*
D03*
X030247Y033657D02*
D03*
D107*
X0411Y049907D02*
D03*
X0401Y048907D02*
D03*
X0421D02*
D03*
Y050907D02*
D03*
X0401D02*
D03*
D108*
X033254Y029372D02*
D03*
X034254D02*
D03*
X022818Y033685D02*
D03*
X021818D02*
D03*
X021318Y034085D02*
D03*
X022318D02*
D03*
D109*
X033254Y030372D02*
D03*
X034254D02*
D03*
X033254Y031372D02*
D03*
X034254D02*
D03*
Y032372D02*
D03*
X033254D02*
D03*
X034254Y033372D02*
D03*
X033254D02*
D03*
D110*
X026969Y031523D02*
D03*
X024969D02*
D03*
D111*
X019706Y047898D02*
D03*
X047265D02*
D03*
D112*
X019706Y044591D02*
D03*
X047265D02*
D03*
D113*
X03424Y02304D02*
D03*
Y02206D02*
D03*
Y02105D02*
D03*
D114*
X018131Y037741D02*
D03*
Y040741D02*
D03*
X048839D02*
D03*
Y037741D02*
D03*
D115*
X015769Y014118D02*
D03*
Y049552D02*
D03*
X051202D02*
D03*
Y014118D02*
D03*
D116*
X034584Y030854D02*
D03*
X021169Y034788D02*
D03*
X022514Y034971D02*
D03*
X022029Y030184D02*
D03*
X0234Y02851D02*
D03*
X022584Y029854D02*
D03*
X022757Y02647D02*
D03*
X02274Y028775D02*
D03*
X02028Y03707D02*
D03*
X02357Y03197D02*
D03*
X02369Y03426D02*
D03*
X02427Y031834D02*
D03*
X02425Y03117D02*
D03*
X02413Y03334D02*
D03*
X02726Y03384D02*
D03*
X027Y030731D02*
D03*
X02653Y03045D02*
D03*
X026457Y029644D02*
D03*
X025975Y03114D02*
D03*
X02628Y03186D02*
D03*
X0244Y03238D02*
D03*
X025107Y03066D02*
D03*
X025457Y030071D02*
D03*
Y02934D02*
D03*
X02546Y028616D02*
D03*
X031104Y02558D02*
D03*
X04011Y025584D02*
D03*
X03805D02*
D03*
X03608D02*
D03*
X034034Y02558D02*
D03*
X0185Y0215D02*
D03*
X021436Y0239D02*
D03*
X02314Y02434D02*
D03*
X02277Y02486D02*
D03*
Y02555D02*
D03*
Y026903D02*
D03*
X02506Y02436D02*
D03*
X02406Y02536D02*
D03*
X05271Y0156D02*
D03*
X05247Y016686D02*
D03*
X02946Y03727D02*
D03*
X01853Y0355D02*
D03*
X01758D02*
D03*
X01557Y03548D02*
D03*
X014584D02*
D03*
X01576Y032243D02*
D03*
X022929Y02255D02*
D03*
X03075Y02314D02*
D03*
X03112Y02458D02*
D03*
X03238Y021854D02*
D03*
X032125Y02236D02*
D03*
X03322Y03444D02*
D03*
X030904Y03432D02*
D03*
X02748Y020087D02*
D03*
X02309Y02027D02*
D03*
X04107Y01757D02*
D03*
X04334Y0176D02*
D03*
X03859Y01756D02*
D03*
X02639Y01833D02*
D03*
X02594Y01877D02*
D03*
X02286Y03917D02*
D03*
X02336D02*
D03*
X02386D02*
D03*
X02436D02*
D03*
X02486D02*
D03*
X02358Y03109D02*
D03*
X02922Y01914D02*
D03*
X02972D02*
D03*
X03022D02*
D03*
X03072D02*
D03*
X03122D02*
D03*
X03172D02*
D03*
X03222D02*
D03*
X03272D02*
D03*
X03322D02*
D03*
X03372D02*
D03*
X03422D02*
D03*
X03472D02*
D03*
X03522D02*
D03*
X03572D02*
D03*
X03622D02*
D03*
X03672D02*
D03*
X03722D02*
D03*
X03772D02*
D03*
X03822D02*
D03*
X03872D02*
D03*
X04622D02*
D03*
X04572D02*
D03*
X04522D02*
D03*
X04472D02*
D03*
X04422D02*
D03*
X04372D02*
D03*
X04322D02*
D03*
X04272D02*
D03*
X04222D02*
D03*
X04172D02*
D03*
X04122D02*
D03*
X04072D02*
D03*
X04022D02*
D03*
X03972D02*
D03*
X03922D02*
D03*
X047074Y018786D02*
D03*
X047428Y018432D02*
D03*
X047782Y018078D02*
D03*
X048136Y017724D02*
D03*
X04849Y01737D02*
D03*
X04672Y01914D02*
D03*
X018497Y017292D02*
D03*
X020267Y019062D02*
D03*
X019913Y018708D02*
D03*
X019559Y018354D02*
D03*
X019205Y018D02*
D03*
X018851Y017646D02*
D03*
X020621Y019416D02*
D03*
X020975Y01977D02*
D03*
X051908Y043507D02*
D03*
X052616D02*
D03*
X017717Y043228D02*
D03*
X028614Y02575D02*
D03*
X037214Y050799D02*
D03*
Y048798D02*
D03*
Y049299D02*
D03*
Y049798D02*
D03*
Y050299D02*
D03*
Y046799D02*
D03*
Y047298D02*
D03*
Y047799D02*
D03*
Y048299D02*
D03*
X038734Y048674D02*
D03*
Y048174D02*
D03*
Y047674D02*
D03*
Y047174D02*
D03*
Y050674D02*
D03*
Y050174D02*
D03*
Y049674D02*
D03*
Y049174D02*
D03*
Y051174D02*
D03*
X041314Y046406D02*
D03*
X040814D02*
D03*
X040314D02*
D03*
X041814D02*
D03*
X041314Y036346D02*
D03*
X040814D02*
D03*
X040314D02*
D03*
X041814D02*
D03*
X041154Y032464D02*
D03*
X040654D02*
D03*
X041654D02*
D03*
X041114Y047504D02*
D03*
X042164Y049874D02*
D03*
X040204Y049854D02*
D03*
X051584Y015854D02*
D03*
X049584Y033854D02*
D03*
Y031854D02*
D03*
Y029854D02*
D03*
Y028854D02*
D03*
Y027854D02*
D03*
Y026854D02*
D03*
Y024854D02*
D03*
Y022854D02*
D03*
Y020854D02*
D03*
Y019854D02*
D03*
Y018854D02*
D03*
X048584Y033854D02*
D03*
Y031854D02*
D03*
Y029854D02*
D03*
Y027854D02*
D03*
Y026854D02*
D03*
Y024854D02*
D03*
Y022854D02*
D03*
Y020854D02*
D03*
Y018854D02*
D03*
Y017854D02*
D03*
Y012854D02*
D03*
X047584Y034854D02*
D03*
Y033854D02*
D03*
Y032854D02*
D03*
Y030854D02*
D03*
Y029854D02*
D03*
Y028854D02*
D03*
Y027854D02*
D03*
Y026854D02*
D03*
Y025854D02*
D03*
Y024854D02*
D03*
Y023854D02*
D03*
Y021854D02*
D03*
Y020854D02*
D03*
Y019854D02*
D03*
Y018854D02*
D03*
X046584Y034854D02*
D03*
Y033854D02*
D03*
Y032854D02*
D03*
Y030854D02*
D03*
Y029854D02*
D03*
Y028854D02*
D03*
Y027854D02*
D03*
Y020854D02*
D03*
Y019854D02*
D03*
X045584Y031854D02*
D03*
Y029854D02*
D03*
Y028854D02*
D03*
Y027854D02*
D03*
Y020854D02*
D03*
Y019854D02*
D03*
Y017854D02*
D03*
Y016854D02*
D03*
Y015854D02*
D03*
Y014854D02*
D03*
X044584Y034854D02*
D03*
Y033854D02*
D03*
Y031854D02*
D03*
Y030854D02*
D03*
Y028854D02*
D03*
Y027854D02*
D03*
Y026854D02*
D03*
Y025854D02*
D03*
Y024854D02*
D03*
Y023854D02*
D03*
Y021854D02*
D03*
Y019854D02*
D03*
Y017854D02*
D03*
X043584Y033854D02*
D03*
Y031854D02*
D03*
Y030854D02*
D03*
Y029854D02*
D03*
Y027854D02*
D03*
Y026854D02*
D03*
Y023854D02*
D03*
Y021854D02*
D03*
Y020854D02*
D03*
Y019854D02*
D03*
Y016854D02*
D03*
Y015854D02*
D03*
Y014854D02*
D03*
X042584Y049854D02*
D03*
Y047854D02*
D03*
Y046854D02*
D03*
Y033854D02*
D03*
Y031854D02*
D03*
Y030854D02*
D03*
Y029854D02*
D03*
Y028854D02*
D03*
Y026854D02*
D03*
Y024854D02*
D03*
Y023854D02*
D03*
Y021854D02*
D03*
Y019854D02*
D03*
Y015854D02*
D03*
Y014854D02*
D03*
X041584Y046854D02*
D03*
Y045854D02*
D03*
Y044854D02*
D03*
Y043854D02*
D03*
Y042854D02*
D03*
Y041854D02*
D03*
Y040854D02*
D03*
Y039854D02*
D03*
Y038854D02*
D03*
Y037854D02*
D03*
Y036854D02*
D03*
Y035854D02*
D03*
Y034854D02*
D03*
Y033854D02*
D03*
Y031854D02*
D03*
Y030854D02*
D03*
Y029854D02*
D03*
Y028854D02*
D03*
Y027854D02*
D03*
Y024854D02*
D03*
Y022854D02*
D03*
Y021854D02*
D03*
Y020854D02*
D03*
Y016854D02*
D03*
Y015854D02*
D03*
Y014854D02*
D03*
X040584Y046854D02*
D03*
Y045854D02*
D03*
Y044854D02*
D03*
Y043854D02*
D03*
Y042854D02*
D03*
Y041854D02*
D03*
Y040854D02*
D03*
Y039854D02*
D03*
Y038854D02*
D03*
Y037854D02*
D03*
Y036854D02*
D03*
Y035854D02*
D03*
Y034854D02*
D03*
Y033854D02*
D03*
Y031854D02*
D03*
Y030854D02*
D03*
Y029854D02*
D03*
Y028854D02*
D03*
Y027854D02*
D03*
Y024854D02*
D03*
Y023854D02*
D03*
Y021854D02*
D03*
Y020854D02*
D03*
Y016854D02*
D03*
Y015854D02*
D03*
Y014854D02*
D03*
X039584Y049854D02*
D03*
Y047854D02*
D03*
Y046854D02*
D03*
Y033854D02*
D03*
Y031854D02*
D03*
Y030854D02*
D03*
Y029854D02*
D03*
Y028854D02*
D03*
Y027854D02*
D03*
Y024854D02*
D03*
Y022854D02*
D03*
Y021854D02*
D03*
Y020854D02*
D03*
X038584Y033854D02*
D03*
Y031854D02*
D03*
Y030854D02*
D03*
Y029854D02*
D03*
Y028854D02*
D03*
Y027854D02*
D03*
Y024854D02*
D03*
Y022854D02*
D03*
Y021854D02*
D03*
Y020854D02*
D03*
Y016854D02*
D03*
Y015854D02*
D03*
Y014854D02*
D03*
X037584Y044854D02*
D03*
Y043854D02*
D03*
Y042854D02*
D03*
Y041854D02*
D03*
Y040854D02*
D03*
Y039854D02*
D03*
Y038854D02*
D03*
Y037854D02*
D03*
Y036854D02*
D03*
Y031854D02*
D03*
Y030854D02*
D03*
Y029854D02*
D03*
Y028854D02*
D03*
Y027854D02*
D03*
Y024854D02*
D03*
Y022854D02*
D03*
Y021854D02*
D03*
Y020854D02*
D03*
X036584Y049854D02*
D03*
Y048854D02*
D03*
Y047854D02*
D03*
Y046854D02*
D03*
Y045854D02*
D03*
Y037854D02*
D03*
Y036854D02*
D03*
Y035854D02*
D03*
Y034854D02*
D03*
Y033854D02*
D03*
Y032854D02*
D03*
Y031854D02*
D03*
Y030854D02*
D03*
Y029854D02*
D03*
Y028854D02*
D03*
Y027854D02*
D03*
Y024854D02*
D03*
Y016854D02*
D03*
Y015854D02*
D03*
Y014854D02*
D03*
X035584Y049854D02*
D03*
Y048854D02*
D03*
Y047854D02*
D03*
Y046854D02*
D03*
Y044854D02*
D03*
Y043854D02*
D03*
Y042854D02*
D03*
Y041854D02*
D03*
Y040854D02*
D03*
Y039854D02*
D03*
Y038854D02*
D03*
Y037854D02*
D03*
Y036854D02*
D03*
Y035854D02*
D03*
Y034854D02*
D03*
Y030854D02*
D03*
Y029854D02*
D03*
Y028854D02*
D03*
Y027854D02*
D03*
Y024854D02*
D03*
Y022854D02*
D03*
Y021854D02*
D03*
Y020854D02*
D03*
Y015854D02*
D03*
Y014854D02*
D03*
X034584Y049854D02*
D03*
Y048854D02*
D03*
Y047854D02*
D03*
Y046854D02*
D03*
Y045854D02*
D03*
Y044854D02*
D03*
Y043854D02*
D03*
Y042854D02*
D03*
Y041854D02*
D03*
Y040854D02*
D03*
Y039854D02*
D03*
Y038854D02*
D03*
Y037854D02*
D03*
Y036854D02*
D03*
Y035854D02*
D03*
Y033854D02*
D03*
Y032854D02*
D03*
Y031854D02*
D03*
Y029854D02*
D03*
Y028854D02*
D03*
Y027854D02*
D03*
Y024854D02*
D03*
Y016854D02*
D03*
Y015854D02*
D03*
Y014854D02*
D03*
X033584Y049854D02*
D03*
Y048854D02*
D03*
Y047854D02*
D03*
Y046854D02*
D03*
Y045854D02*
D03*
Y044854D02*
D03*
Y043854D02*
D03*
Y040854D02*
D03*
Y039854D02*
D03*
Y036854D02*
D03*
Y035854D02*
D03*
Y027854D02*
D03*
Y024854D02*
D03*
Y022854D02*
D03*
Y016854D02*
D03*
Y015854D02*
D03*
Y014854D02*
D03*
X032584Y049854D02*
D03*
Y048854D02*
D03*
Y047854D02*
D03*
Y046854D02*
D03*
Y045854D02*
D03*
Y044854D02*
D03*
Y043854D02*
D03*
Y040854D02*
D03*
Y039854D02*
D03*
Y036854D02*
D03*
Y035854D02*
D03*
Y032854D02*
D03*
Y027854D02*
D03*
X031584Y046854D02*
D03*
Y045854D02*
D03*
Y044854D02*
D03*
Y043854D02*
D03*
Y040854D02*
D03*
Y039854D02*
D03*
Y036854D02*
D03*
Y035854D02*
D03*
Y034854D02*
D03*
Y031854D02*
D03*
Y030854D02*
D03*
Y029854D02*
D03*
Y021854D02*
D03*
Y016854D02*
D03*
Y015854D02*
D03*
Y014854D02*
D03*
X030584Y046854D02*
D03*
Y040854D02*
D03*
Y039854D02*
D03*
X029584Y046854D02*
D03*
Y045854D02*
D03*
Y035854D02*
D03*
Y033854D02*
D03*
Y032854D02*
D03*
Y028854D02*
D03*
Y023854D02*
D03*
Y016854D02*
D03*
Y015854D02*
D03*
Y014854D02*
D03*
X028584Y046854D02*
D03*
Y045854D02*
D03*
Y042854D02*
D03*
Y041854D02*
D03*
Y035854D02*
D03*
Y034854D02*
D03*
Y033854D02*
D03*
Y032854D02*
D03*
Y031854D02*
D03*
Y030854D02*
D03*
Y029854D02*
D03*
Y027854D02*
D03*
Y021854D02*
D03*
Y020854D02*
D03*
Y019854D02*
D03*
Y015854D02*
D03*
Y014854D02*
D03*
X027584Y046854D02*
D03*
Y045854D02*
D03*
Y042854D02*
D03*
Y040854D02*
D03*
Y039854D02*
D03*
Y038854D02*
D03*
Y037854D02*
D03*
Y035854D02*
D03*
Y032854D02*
D03*
Y031854D02*
D03*
Y030854D02*
D03*
Y029854D02*
D03*
Y028854D02*
D03*
Y025854D02*
D03*
Y023854D02*
D03*
Y016854D02*
D03*
Y015854D02*
D03*
Y014854D02*
D03*
X026584Y049854D02*
D03*
Y048854D02*
D03*
Y047854D02*
D03*
Y046854D02*
D03*
Y045854D02*
D03*
Y042854D02*
D03*
Y041854D02*
D03*
Y040854D02*
D03*
Y039854D02*
D03*
Y038854D02*
D03*
Y037854D02*
D03*
Y035854D02*
D03*
Y034854D02*
D03*
Y033854D02*
D03*
Y025854D02*
D03*
Y023854D02*
D03*
Y018854D02*
D03*
Y016854D02*
D03*
Y015854D02*
D03*
Y014854D02*
D03*
X025584Y049854D02*
D03*
Y048854D02*
D03*
Y047854D02*
D03*
Y046854D02*
D03*
Y045854D02*
D03*
Y042854D02*
D03*
Y041854D02*
D03*
Y040854D02*
D03*
Y039854D02*
D03*
Y037854D02*
D03*
Y035854D02*
D03*
Y034854D02*
D03*
Y033854D02*
D03*
Y031854D02*
D03*
Y025854D02*
D03*
Y023854D02*
D03*
Y020854D02*
D03*
Y017854D02*
D03*
Y015854D02*
D03*
Y014854D02*
D03*
X024584Y049854D02*
D03*
Y046854D02*
D03*
Y045854D02*
D03*
Y039854D02*
D03*
Y035854D02*
D03*
Y033854D02*
D03*
Y029854D02*
D03*
Y024854D02*
D03*
Y020854D02*
D03*
Y018854D02*
D03*
Y017854D02*
D03*
Y016854D02*
D03*
Y015854D02*
D03*
Y014854D02*
D03*
X023584Y049854D02*
D03*
Y048854D02*
D03*
Y047854D02*
D03*
Y046854D02*
D03*
Y045854D02*
D03*
Y041854D02*
D03*
Y039854D02*
D03*
Y037854D02*
D03*
Y035854D02*
D03*
Y032854D02*
D03*
Y025854D02*
D03*
Y023854D02*
D03*
Y020854D02*
D03*
Y018854D02*
D03*
Y017854D02*
D03*
Y015854D02*
D03*
Y014854D02*
D03*
X022584Y049854D02*
D03*
Y048854D02*
D03*
Y047854D02*
D03*
Y046854D02*
D03*
Y045854D02*
D03*
Y044854D02*
D03*
Y043854D02*
D03*
Y042854D02*
D03*
Y041854D02*
D03*
Y039854D02*
D03*
Y035854D02*
D03*
Y032854D02*
D03*
Y031854D02*
D03*
Y030854D02*
D03*
Y018854D02*
D03*
Y017854D02*
D03*
Y016854D02*
D03*
Y015854D02*
D03*
Y014854D02*
D03*
X021584Y049854D02*
D03*
Y048854D02*
D03*
Y047854D02*
D03*
Y046854D02*
D03*
Y045854D02*
D03*
Y044854D02*
D03*
Y043854D02*
D03*
Y042854D02*
D03*
Y041854D02*
D03*
Y039854D02*
D03*
Y035854D02*
D03*
Y032854D02*
D03*
Y028854D02*
D03*
Y027854D02*
D03*
Y021854D02*
D03*
Y020854D02*
D03*
Y017854D02*
D03*
Y015854D02*
D03*
Y014854D02*
D03*
X020584Y049854D02*
D03*
Y038854D02*
D03*
Y025854D02*
D03*
Y021854D02*
D03*
Y020854D02*
D03*
Y019854D02*
D03*
Y016854D02*
D03*
Y015854D02*
D03*
X019584Y049854D02*
D03*
Y038854D02*
D03*
Y025854D02*
D03*
Y023854D02*
D03*
Y022854D02*
D03*
Y021854D02*
D03*
Y020854D02*
D03*
Y019854D02*
D03*
X018584Y049854D02*
D03*
Y048854D02*
D03*
Y046854D02*
D03*
Y038854D02*
D03*
Y036854D02*
D03*
Y032854D02*
D03*
Y031854D02*
D03*
Y030854D02*
D03*
Y028854D02*
D03*
Y024854D02*
D03*
Y012854D02*
D03*
X017584Y049854D02*
D03*
Y048854D02*
D03*
Y047854D02*
D03*
Y046854D02*
D03*
Y038854D02*
D03*
Y036854D02*
D03*
Y032854D02*
D03*
Y031854D02*
D03*
Y030854D02*
D03*
Y028854D02*
D03*
Y026854D02*
D03*
Y025854D02*
D03*
Y024854D02*
D03*
Y023854D02*
D03*
Y022854D02*
D03*
Y021854D02*
D03*
Y020854D02*
D03*
Y019854D02*
D03*
Y018854D02*
D03*
Y012854D02*
D03*
X016584Y047854D02*
D03*
Y046854D02*
D03*
Y045854D02*
D03*
Y043854D02*
D03*
Y041854D02*
D03*
Y040854D02*
D03*
Y039854D02*
D03*
Y038854D02*
D03*
Y037854D02*
D03*
Y036854D02*
D03*
Y032854D02*
D03*
Y031854D02*
D03*
Y030854D02*
D03*
Y028854D02*
D03*
Y026854D02*
D03*
Y025854D02*
D03*
Y024854D02*
D03*
Y023854D02*
D03*
Y022854D02*
D03*
Y021854D02*
D03*
Y020854D02*
D03*
Y019854D02*
D03*
X015584Y047854D02*
D03*
Y046854D02*
D03*
Y045854D02*
D03*
Y044854D02*
D03*
Y043854D02*
D03*
Y041854D02*
D03*
Y040854D02*
D03*
Y039854D02*
D03*
Y038854D02*
D03*
Y037854D02*
D03*
Y036854D02*
D03*
Y015854D02*
D03*
X014584Y048854D02*
D03*
Y047854D02*
D03*
Y046854D02*
D03*
Y045854D02*
D03*
Y044854D02*
D03*
Y043854D02*
D03*
Y041854D02*
D03*
Y040854D02*
D03*
Y039854D02*
D03*
Y038854D02*
D03*
Y037854D02*
D03*
Y036854D02*
D03*
Y016854D02*
D03*
Y015854D02*
D03*
X019843Y04252D02*
D03*
Y041811D02*
D03*
Y039685D02*
D03*
X019134Y04252D02*
D03*
Y041811D02*
D03*
Y041102D02*
D03*
Y040394D02*
D03*
Y039685D02*
D03*
X018425Y045354D02*
D03*
Y044646D02*
D03*
Y043937D02*
D03*
Y043228D02*
D03*
Y04252D02*
D03*
Y041811D02*
D03*
Y039685D02*
D03*
X017717Y045354D02*
D03*
Y044646D02*
D03*
Y043937D02*
D03*
Y04252D02*
D03*
Y041811D02*
D03*
Y039685D02*
D03*
X022597Y03026D02*
D03*
X020527Y03282D02*
D03*
X019657Y03227D02*
D03*
X017071Y014576D02*
D03*
Y012576D02*
D03*
Y013076D02*
D03*
Y013576D02*
D03*
Y014076D02*
D03*
X021439Y019113D02*
D03*
X021085Y018759D02*
D03*
X019315Y01699D02*
D03*
X019669Y017344D02*
D03*
X020023Y017698D02*
D03*
X020377Y018052D02*
D03*
X020731Y018405D02*
D03*
X018961Y016636D02*
D03*
X049781Y014235D02*
D03*
Y013735D02*
D03*
Y013235D02*
D03*
Y012735D02*
D03*
Y014735D02*
D03*
X046281Y018386D02*
D03*
X048051Y016616D02*
D03*
X047697Y01697D02*
D03*
X047343Y017324D02*
D03*
X046989Y017678D02*
D03*
X046635Y018032D02*
D03*
X038781Y018386D02*
D03*
X039281D02*
D03*
X039781D02*
D03*
X040281D02*
D03*
X040781D02*
D03*
X041281D02*
D03*
X041781D02*
D03*
X042281D02*
D03*
X042781D02*
D03*
X043281D02*
D03*
X043781D02*
D03*
X044281D02*
D03*
X044781D02*
D03*
X045281D02*
D03*
X045781D02*
D03*
X038281D02*
D03*
X037781D02*
D03*
X037281D02*
D03*
X036781D02*
D03*
X036281D02*
D03*
X035781D02*
D03*
X035281D02*
D03*
X034781D02*
D03*
X034281D02*
D03*
X033781D02*
D03*
X033281D02*
D03*
X032781D02*
D03*
X032281D02*
D03*
X031781D02*
D03*
X031281D02*
D03*
X030781D02*
D03*
X030281D02*
D03*
X029781D02*
D03*
X029281D02*
D03*
X028781D02*
D03*
X028461Y018876D02*
D03*
X023712Y022493D02*
D03*
X024105D02*
D03*
X024499D02*
D03*
X024893D02*
D03*
X025286D02*
D03*
X026074D02*
D03*
X026467D02*
D03*
X026861D02*
D03*
X027255D02*
D03*
X02616Y0202D02*
D03*
X030257Y031024D02*
D03*
X04441Y021449D02*
D03*
X030257Y023179D02*
D03*
Y022429D02*
D03*
X020089Y023677D02*
D03*
X021508Y019495D02*
D03*
X02438Y02404D02*
D03*
X02671Y02039D02*
D03*
X041526Y023556D02*
D03*
X024302Y026115D02*
D03*
X031098Y023425D02*
D03*
X031128Y023845D02*
D03*
X04176Y02379D02*
D03*
X023682Y030081D02*
D03*
X031093Y026903D02*
D03*
X024696Y026551D02*
D03*
X031093Y027233D02*
D03*
X024102Y030071D02*
D03*
X031104Y026551D02*
D03*
Y026221D02*
D03*
X020828Y036775D02*
D03*
Y031865D02*
D03*
X024118Y036734D02*
D03*
X032428Y029015D02*
D03*
X029182Y025891D02*
D03*
X029416Y025657D02*
D03*
X048898Y045354D02*
D03*
Y044646D02*
D03*
Y043937D02*
D03*
Y043228D02*
D03*
Y04252D02*
D03*
Y041811D02*
D03*
X048189Y04252D02*
D03*
Y041811D02*
D03*
X04748Y04252D02*
D03*
Y041811D02*
D03*
Y041102D02*
D03*
Y040394D02*
D03*
X046772Y04252D02*
D03*
Y041811D02*
D03*
Y041102D02*
D03*
X052616Y050593D02*
D03*
Y049885D02*
D03*
Y049176D02*
D03*
Y048467D02*
D03*
Y047759D02*
D03*
Y04705D02*
D03*
Y046341D02*
D03*
Y045633D02*
D03*
Y044924D02*
D03*
Y044215D02*
D03*
Y042089D02*
D03*
Y041381D02*
D03*
Y040672D02*
D03*
Y039963D02*
D03*
Y039255D02*
D03*
Y038546D02*
D03*
Y037837D02*
D03*
X051908Y050593D02*
D03*
Y048467D02*
D03*
Y047759D02*
D03*
Y04705D02*
D03*
Y046341D02*
D03*
Y045633D02*
D03*
Y044924D02*
D03*
Y044215D02*
D03*
Y042089D02*
D03*
Y041381D02*
D03*
Y040672D02*
D03*
Y039963D02*
D03*
Y039255D02*
D03*
Y038546D02*
D03*
Y037837D02*
D03*
X051199Y047759D02*
D03*
Y04705D02*
D03*
Y038546D02*
D03*
Y037837D02*
D03*
X05049Y050593D02*
D03*
Y048467D02*
D03*
Y047759D02*
D03*
Y04705D02*
D03*
Y038546D02*
D03*
Y037837D02*
D03*
X049782Y050593D02*
D03*
Y049885D02*
D03*
Y049176D02*
D03*
Y048467D02*
D03*
Y047759D02*
D03*
Y04705D02*
D03*
Y038546D02*
D03*
Y037837D02*
D03*
X049073Y050593D02*
D03*
Y049885D02*
D03*
Y049176D02*
D03*
Y048467D02*
D03*
Y047759D02*
D03*
Y04705D02*
D03*
Y038546D02*
D03*
X048364Y050593D02*
D03*
Y049885D02*
D03*
Y049176D02*
D03*
Y04705D02*
D03*
Y038546D02*
D03*
X047656Y050593D02*
D03*
Y049885D02*
D03*
Y038546D02*
D03*
Y037837D02*
D03*
X046947Y050593D02*
D03*
Y049885D02*
D03*
Y038546D02*
D03*
Y037837D02*
D03*
D117*
X031263Y050144D02*
D03*
X031234Y049185D02*
D03*
Y048144D02*
D03*
X030234Y050144D02*
D03*
X030238Y049185D02*
D03*
X030234Y048144D02*
D03*
X029225Y050144D02*
D03*
X029234Y049144D02*
D03*
Y048144D02*
D03*
X028234Y050144D02*
D03*
Y049144D02*
D03*
Y048144D02*
D03*
M02*
