G04*
G04 #@! TF.GenerationSoftware,Altium Limited,Altium Designer,19.0.13 (425)*
G04*
G04 Layer_Color=255*
%FSTAX24Y24*%
%MOIN*%
G70*
G01*
G75*
%ADD52R,0.0394X0.0374*%
%ADD105C,0.0827*%
%ADD106C,0.0600*%
%ADD107C,0.0866*%
%ADD108C,0.0472*%
%ADD109C,0.0630*%
%ADD110C,0.0750*%
%ADD111O,0.2172X0.2644*%
%ADD112R,0.2172X0.2644*%
%ADD113O,0.0750X0.0650*%
%ADD114O,0.1181X0.1063*%
%ADD115C,0.1260*%
D52*
X04441Y021449D02*
D03*
Y020819D02*
D03*
D105*
X048398Y032907D02*
D03*
Y030907D02*
D03*
Y023758D02*
D03*
X015477Y027616D02*
D03*
Y020498D02*
D03*
X048398Y021758D02*
D03*
X051398Y025758D02*
D03*
X048398D02*
D03*
X051398Y021758D02*
D03*
Y023758D02*
D03*
Y019758D02*
D03*
X048398D02*
D03*
X051398Y034907D02*
D03*
X048398D02*
D03*
X051398Y030907D02*
D03*
Y032907D02*
D03*
Y028907D02*
D03*
X048398D02*
D03*
X015477Y025616D02*
D03*
X018477Y027616D02*
D03*
Y025616D02*
D03*
X015477Y029616D02*
D03*
X018477D02*
D03*
X04474Y013874D02*
D03*
X04674D02*
D03*
X04474Y016874D02*
D03*
X04674D02*
D03*
X04274Y013874D02*
D03*
Y016874D02*
D03*
X037591Y013874D02*
D03*
X039591D02*
D03*
X037591Y016874D02*
D03*
X039591D02*
D03*
X035591Y013874D02*
D03*
Y016874D02*
D03*
X015477Y018498D02*
D03*
X018477Y020498D02*
D03*
Y018498D02*
D03*
X015477Y022498D02*
D03*
X018477D02*
D03*
X023291Y013874D02*
D03*
X025291D02*
D03*
X023291Y016874D02*
D03*
X025291D02*
D03*
X021291Y013874D02*
D03*
Y016874D02*
D03*
X030441Y013874D02*
D03*
X032441D02*
D03*
X030441Y016874D02*
D03*
X032441D02*
D03*
X028441Y013874D02*
D03*
Y016874D02*
D03*
D106*
X018807Y034695D02*
D03*
X030247Y033657D02*
D03*
D107*
X0411Y049907D02*
D03*
X0401Y048907D02*
D03*
X0421D02*
D03*
Y050907D02*
D03*
X0401D02*
D03*
D108*
X033254Y029372D02*
D03*
X034254D02*
D03*
X022818Y033685D02*
D03*
X021818D02*
D03*
X021318Y034085D02*
D03*
X022318D02*
D03*
D109*
X033254Y030372D02*
D03*
X034254D02*
D03*
X033254Y031372D02*
D03*
X034254D02*
D03*
Y032372D02*
D03*
X033254D02*
D03*
X034254Y033372D02*
D03*
X033254D02*
D03*
D110*
X026969Y031523D02*
D03*
X024969D02*
D03*
D111*
X019706Y047898D02*
D03*
X047265D02*
D03*
D112*
X019706Y044591D02*
D03*
X047265D02*
D03*
D113*
X03424Y02304D02*
D03*
Y02206D02*
D03*
Y02105D02*
D03*
D114*
X018131Y037741D02*
D03*
Y040741D02*
D03*
X048839D02*
D03*
Y037741D02*
D03*
D115*
X015769Y014118D02*
D03*
Y049552D02*
D03*
X051202D02*
D03*
Y014118D02*
D03*
M02*
