G04*
G04 #@! TF.GenerationSoftware,Altium Limited,Altium Designer,19.0.13 (425)*
G04*
G04 Layer_Color=65535*
%FSTAX24Y24*%
%MOIN*%
G70*
G01*
G75*
%ADD10C,0.0098*%
%ADD11C,0.0236*%
%ADD12C,0.0020*%
%ADD13C,0.0039*%
%ADD14C,0.0079*%
%ADD15C,0.0118*%
%ADD16C,0.0040*%
%ADD17C,0.0070*%
G04:AMPARAMS|DCode=18|XSize=78.7mil|YSize=59.1mil|CornerRadius=14.8mil|HoleSize=0mil|Usage=FLASHONLY|Rotation=180.000|XOffset=0mil|YOffset=0mil|HoleType=Round|Shape=RoundedRectangle|*
%AMROUNDEDRECTD18*
21,1,0.0787,0.0295,0,0,180.0*
21,1,0.0492,0.0591,0,0,180.0*
1,1,0.0295,-0.0246,0.0148*
1,1,0.0295,0.0246,0.0148*
1,1,0.0295,0.0246,-0.0148*
1,1,0.0295,-0.0246,-0.0148*
%
%ADD18ROUNDEDRECTD18*%
%ADD19C,0.0010*%
%ADD20C,0.0100*%
%ADD21C,0.0050*%
%ADD22C,0.0106*%
%ADD23C,0.0071*%
%ADD24C,0.0177*%
%ADD25C,0.0080*%
%ADD26C,0.0060*%
%ADD27R,0.0299X0.0740*%
%ADD28R,0.0217X0.0630*%
G36*
X0348Y02105D02*
X03505Y0208D01*
Y0213D01*
X0348Y02105D01*
D02*
G37*
G36*
X025854Y031123D02*
Y031913D01*
X026084D01*
Y031123D01*
X025854D01*
D02*
G37*
G36*
X02074Y05145D02*
Y05003D01*
X01847D01*
Y05145D01*
X02074D01*
D02*
G37*
G36*
X04839Y05004D02*
X04612D01*
Y05146D01*
X04839D01*
Y05004D01*
D02*
G37*
G36*
X04819Y038366D02*
Y03715D01*
X047135D01*
Y038366D01*
X04819D01*
D02*
G37*
G36*
X052914Y0423D02*
X04891D01*
Y04349D01*
X052914D01*
Y0423D01*
D02*
G37*
G36*
X045604Y034204D02*
Y018704D01*
X036734D01*
Y034204D01*
X045604D01*
D02*
G37*
G36*
X018035Y04233D02*
X01406D01*
Y043769D01*
X018035D01*
Y04233D01*
D02*
G37*
G36*
X019804Y038366D02*
Y03715D01*
X018749D01*
Y038366D01*
X019804D01*
D02*
G37*
G36*
X019804Y041191D02*
X018792D01*
Y042274D01*
X019804D01*
Y041191D01*
D02*
G37*
G36*
X04819Y041185D02*
X047178D01*
Y042268D01*
X04819D01*
Y041185D01*
D02*
G37*
%LPC*%
G36*
X020008Y050974D02*
X019202D01*
Y050544D01*
X020008D01*
Y050974D01*
D02*
G37*
G36*
X047658Y050984D02*
X046852D01*
Y050554D01*
X047658D01*
Y050984D01*
D02*
G37*
G36*
X04783Y03804D02*
X047529D01*
Y037476D01*
X04783D01*
Y03804D01*
D02*
G37*
G36*
X050152Y043204D02*
X049886D01*
X049853Y043203D01*
X049823Y043201D01*
X049798Y043197D01*
X049786Y043194D01*
X049776Y043192D01*
X049768Y04319D01*
X04976Y043188D01*
X049754Y043186D01*
X049748Y043184D01*
X049744Y043182D01*
X04974Y043181D01*
X049739Y04318D01*
X049738D01*
X04972Y04317D01*
X049703Y043161D01*
X049689Y04315D01*
X049678Y04314D01*
X049669Y04313D01*
X049663Y043122D01*
X049658Y043118D01*
X049657Y043116D01*
X049649Y0431D01*
X049642Y043085D01*
X049638Y04307D01*
X049634Y043057D01*
X049632Y043046D01*
X049631Y043036D01*
Y043031D01*
Y043029D01*
Y043028D01*
X049632Y043015D01*
X049633Y043003D01*
X049639Y042981D01*
X049647Y042962D01*
X049657Y042945D01*
X049666Y042931D01*
X049675Y042921D01*
X04968Y042916D01*
X049682Y042915D01*
Y042914D01*
X049693Y042905D01*
X049705Y042897D01*
X049732Y042883D01*
X04976Y042871D01*
X04979Y04286D01*
X049803Y042856D01*
X049815Y042852D01*
X049827Y042849D01*
X049837Y042846D01*
X049844Y042845D01*
X049851Y042843D01*
X049855Y042841D01*
X049856D01*
X049869Y042838D01*
X049881Y042835D01*
X049892Y042833D01*
X049902Y042829D01*
X049919Y042823D01*
X049932Y042817D01*
X04994Y042813D01*
X049947Y04281D01*
X04995Y042808D01*
X049951Y042806D01*
X049958Y0428D01*
X049963Y042792D01*
X049967Y042786D01*
X04997Y042779D01*
X049971Y042774D01*
X049972Y042769D01*
Y042766D01*
Y042765D01*
X049971Y042756D01*
X049969Y042747D01*
X049966Y04274D01*
X049961Y042733D01*
X049957Y042729D01*
X049954Y042724D01*
X049951Y042722D01*
X04995Y042721D01*
X049942Y042716D01*
X049932Y042711D01*
X049922Y042708D01*
X049912Y042706D01*
X049902Y042705D01*
X049896Y042704D01*
X049889D01*
X04987Y042705D01*
X049854Y042709D01*
X04984Y042715D01*
X049828Y042722D01*
X049819Y042729D01*
X049813Y042734D01*
X049808Y042739D01*
X049807Y04274D01*
X049802Y042749D01*
X049796Y042759D01*
X04979Y042781D01*
X049786Y04279D01*
X049785Y042798D01*
X049784Y042803D01*
Y042805D01*
X049608Y042793D01*
D01*
X04961Y042777D01*
X049614Y042761D01*
X049621Y042732D01*
X049632Y042706D01*
X049644Y042684D01*
X04965Y042675D01*
X049655Y042667D01*
X049661Y04266D01*
X049665Y042655D01*
X049668Y04265D01*
X049672Y042647D01*
X049673Y042645D01*
X049674Y042644D01*
X049686Y042634D01*
X0497Y042625D01*
X049715Y042616D01*
X049732Y04261D01*
X049767Y0426D01*
X049802Y042593D01*
X049819Y04259D01*
X049834Y042589D01*
X049849Y042588D01*
X049861Y042587D01*
X049872Y042586D01*
X049608D01*
X050152D01*
Y04279D01*
X050151Y042808D01*
X050149Y042825D01*
X050145Y042839D01*
X05014Y042852D01*
X050136Y042863D01*
X050132Y042872D01*
X050129Y042876D01*
X050128Y042879D01*
X050119Y042893D01*
X050107Y042906D01*
X050093Y042917D01*
X050081Y042927D01*
X050069Y042934D01*
X050061Y04294D01*
X050054Y042943D01*
X050053Y042944D01*
X050052D01*
X050041Y04295D01*
X050029Y042954D01*
X050003Y042964D01*
X049973Y042974D01*
X049945Y042981D01*
X049932Y042985D01*
X049919Y042988D01*
X049907Y042991D01*
X049897Y042993D01*
X049889Y042996D01*
X049882Y042997D01*
X049878Y042998D01*
X049877D01*
X049861Y043001D01*
X049848Y043005D01*
X049837Y043009D01*
X049829Y043012D01*
X049822Y043015D01*
X049819Y043017D01*
X049817Y04302D01*
X049816D01*
X049811Y043024D01*
X049808Y043028D01*
X049805Y043037D01*
X049803Y043044D01*
Y043045D01*
Y043046D01*
X049804Y043052D01*
X049805Y043059D01*
X04981Y04307D01*
X049816Y043076D01*
X049817Y043078D01*
X049818Y043079D01*
X049825Y043083D01*
X049832Y043087D01*
X049849Y043091D01*
X049856Y043092D01*
X049862Y043093D01*
X049867D01*
X049881Y043092D01*
X049893Y04309D01*
X049904Y043087D01*
X049913Y043084D01*
X04992Y04308D01*
X049924Y043078D01*
X049927Y043075D01*
X049928Y043074D01*
X049936Y043067D01*
X049943Y043057D01*
X049947Y043047D01*
X049951Y043038D01*
X049955Y043029D01*
X049957Y043022D01*
X049958Y043017D01*
Y043015D01*
X050133Y043025D01*
X050129Y043041D01*
X050126Y043058D01*
X050122Y043072D01*
X050116Y043085D01*
X050111Y043097D01*
X050104Y043109D01*
X050099Y043119D01*
X050092Y043128D01*
X05008Y043142D01*
X05007Y043153D01*
X050063Y043158D01*
X050062Y043161D01*
X050061D01*
X050049Y043168D01*
X050036Y043175D01*
X050008Y043186D01*
X049979Y043193D01*
X04995Y043199D01*
X049937Y043201D01*
X049925Y043202D01*
X049914Y043203D01*
X049904D01*
X049897Y043204D01*
X050152D01*
D02*
G37*
G36*
X049525Y043118D02*
D01*
Y042961D01*
X049368D01*
Y043118D01*
X049235D01*
Y042961D01*
X049079D01*
Y042828D01*
X049235D01*
Y042672D01*
X049079D01*
X049525D01*
Y043118D01*
D02*
G37*
G36*
X051417Y043194D02*
D01*
Y042743D01*
X051127D01*
Y043194D01*
X050943D01*
Y042596D01*
X051417D01*
Y043194D01*
D02*
G37*
G36*
X052745Y043194D02*
D01*
Y042596D01*
X052654Y042768D01*
X052651Y042774D01*
X052648Y042779D01*
X052639Y042792D01*
X052635Y042797D01*
X052631Y042801D01*
X052629Y042804D01*
X052628Y042805D01*
X052622Y042814D01*
X052615Y042821D01*
X052611Y042826D01*
X052606Y042831D01*
X052603Y042834D01*
X052601Y042836D01*
X052599Y042837D01*
X052592Y042841D01*
X052584Y042845D01*
X052569Y042852D01*
X052561Y042855D01*
X052556Y042857D01*
X052552Y042859D01*
X052551D01*
X052565Y042863D01*
X052578Y042867D01*
X052589Y042871D01*
X052599Y042874D01*
X052605Y042878D01*
X052611Y042881D01*
X052614Y042882D01*
X052615Y042883D01*
X052628Y042892D01*
X05264Y042902D01*
X05265Y042911D01*
X052659Y04292D01*
X052665Y042929D01*
X052671Y042935D01*
X052673Y04294D01*
X052674Y042941D01*
X052682Y042955D01*
X052687Y04297D01*
X05269Y042985D01*
X052694Y042998D01*
X052695Y04301D01*
X052696Y043019D01*
Y043025D01*
Y043027D01*
X052695Y043048D01*
X052691Y043067D01*
X052687Y043083D01*
X052682Y043097D01*
X052676Y043109D01*
X052672Y043118D01*
X052669Y043122D01*
X052667Y043125D01*
X052657Y043139D01*
X052645Y04315D01*
X052632Y04316D01*
X05262Y043167D01*
X052611Y043173D01*
X052602Y043176D01*
X052596Y043178D01*
X052594Y043179D01*
X052576Y043185D01*
X052555Y043188D01*
X052533Y043191D01*
X052512Y043192D01*
X052493Y043193D01*
X052485Y043194D01*
X052155D01*
Y042596D01*
X052745D01*
Y043194D01*
D02*
G37*
G36*
X052094D02*
D01*
Y042596D01*
X051868Y043194D01*
X051665Y043194D01*
X051441Y042596D01*
X052094Y042596D01*
Y043194D01*
D02*
G37*
G36*
X050546Y043204D02*
X050532D01*
X050505Y043203D01*
X05048Y043201D01*
X050456Y043197D01*
X050434Y043191D01*
X050414Y043186D01*
X050395Y043178D01*
X050378Y043172D01*
X050362Y043164D01*
X050349Y043156D01*
X050337Y043149D01*
X050327Y043141D01*
X050319Y043135D01*
X050312Y04313D01*
X050308Y043126D01*
X050304Y043123D01*
X050303Y043122D01*
X050289Y043106D01*
X050277Y04309D01*
X050266Y043071D01*
X050256Y043052D01*
X050249Y043033D01*
X050242Y043014D01*
X050237Y042996D01*
X050232Y042977D01*
X050229Y042961D01*
X050227Y042944D01*
X050225Y04293D01*
X050223Y042918D01*
Y042908D01*
X050222Y0429D01*
Y042894D01*
X050225Y042857D01*
X050229Y042823D01*
X050232Y042806D01*
X050236Y042792D01*
X050239Y042779D01*
X050243Y042767D01*
X050246Y042756D01*
X05025Y042746D01*
X050253Y042739D01*
X050256Y042732D01*
X05026Y042727D01*
X050261Y042722D01*
X050263Y04272D01*
Y042719D01*
X050279Y042695D01*
X050298Y042674D01*
X050315Y042656D01*
X050333Y042643D01*
X050348Y042632D01*
X05036Y042624D01*
X050364Y042621D01*
X050368Y042618D01*
X05037Y042617D01*
X050371D01*
X050397Y042606D01*
X050426Y042599D01*
X050453Y042593D01*
X050479Y04259D01*
X050492Y042588D01*
X050503D01*
X050513Y042587D01*
X050522Y042586D01*
X050222D01*
X050843D01*
Y042899D01*
X050842Y042926D01*
X05084Y042951D01*
X050836Y042974D01*
X05083Y042996D01*
X050825Y043015D01*
X050817Y043034D01*
X05081Y04305D01*
X050803Y043066D01*
X050795Y043079D01*
X050787Y043091D01*
X05078Y0431D01*
X050774Y043109D01*
X050769Y043115D01*
X050765Y04312D01*
X050762Y043122D01*
X050761Y043123D01*
X050745Y043138D01*
X050728Y04315D01*
X05071Y043161D01*
X050691Y04317D01*
X050673Y043178D01*
X050653Y043185D01*
X050634Y04319D01*
X050616Y043194D01*
X050599Y043198D01*
X050583Y0432D01*
X050569Y043202D01*
X050556Y043203D01*
X050546Y043204D01*
D02*
G37*
%LPD*%
G36*
X050152Y042586D02*
X049886D01*
X049917Y042587D01*
X049945Y042589D01*
X04997Y042593D01*
X049991Y042598D01*
X049999Y0426D01*
X050007Y042602D01*
X050015Y042604D01*
X05002Y042606D01*
X050025Y042608D01*
X050028Y042609D01*
X050029Y04261D01*
X05003D01*
X050051Y042621D01*
X050068Y042632D01*
X050084Y042644D01*
X050097Y042656D01*
X050107Y042667D01*
X050114Y042675D01*
X050119Y042681D01*
X05012Y042683D01*
X050131Y042702D01*
X050138Y04272D01*
X050145Y042739D01*
X050148Y042755D01*
X05015Y042769D01*
X050152Y04278D01*
Y042586D01*
D02*
G37*
G36*
X049525Y042672D02*
X049368D01*
Y042828D01*
X049525D01*
Y042672D01*
D02*
G37*
G36*
X052439Y043072D02*
X052454Y043071D01*
X052466Y043068D01*
X052476Y043066D01*
X052483Y043062D01*
X052488Y043059D01*
X05249Y043058D01*
X052491Y043057D01*
X052498Y04305D01*
X052502Y043044D01*
X052506Y043036D01*
X052508Y043029D01*
X052509Y043023D01*
X05251Y043017D01*
Y043014D01*
Y043013D01*
Y043005D01*
X052508Y042999D01*
X052505Y042988D01*
X052502Y042984D01*
X0525Y042981D01*
X052499Y042979D01*
X052498Y042978D01*
X052494Y042973D01*
X052488Y042968D01*
X052478Y042963D01*
X052474Y042962D01*
X052471Y042961D01*
X052469Y042959D01*
X052467D01*
X052455Y042957D01*
X052444Y042955D01*
X052436Y042954D01*
X052429Y042953D01*
X052425Y042952D01*
X052341D01*
Y043073D01*
X052422D01*
X052439Y043072D01*
D02*
G37*
G36*
X052366Y042837D02*
X052375Y042836D01*
X052382Y042834D01*
X052389Y042832D01*
X052394Y042828D01*
X052399Y042826D01*
X052401Y042825D01*
X052402Y042824D01*
X052407Y042818D01*
X052414Y042812D01*
X052425Y042797D01*
X052429Y04279D01*
X052432Y042784D01*
X052435Y042779D01*
X052436Y042778D01*
X052535Y042596D01*
X052341D01*
Y042838D01*
X052356D01*
X052366Y042837D01*
D02*
G37*
G36*
X05183Y042824D02*
X051699Y042824D01*
X051765Y043038D01*
X05183Y042824D01*
D02*
G37*
G36*
X051899Y042596D02*
X05163Y042596D01*
X05166Y042694D01*
X05187Y042694D01*
X051899Y042596D01*
D02*
G37*
G36*
X050551Y043062D02*
X05057Y043058D01*
X050586Y043052D01*
X050599Y043045D01*
X050609Y043037D01*
X050617Y043032D01*
X050622Y043027D01*
X050624Y043025D01*
X050636Y043009D01*
X050644Y042989D01*
X05065Y042968D01*
X050654Y042949D01*
X050656Y04293D01*
X050657Y042922D01*
X050659Y042916D01*
Y042909D01*
Y042905D01*
Y042903D01*
Y042902D01*
Y042883D01*
X050657Y042867D01*
X050655Y042851D01*
X050653Y042837D01*
X050651Y042825D01*
X050648Y042813D01*
X050644Y042803D01*
X050642Y042794D01*
X050639Y042787D01*
X050636Y04278D01*
X050632Y042775D01*
X05063Y04277D01*
X050626Y042765D01*
X050625Y042763D01*
X050612Y04275D01*
X050596Y042741D01*
X050581Y042734D01*
X050567Y042729D01*
X050554Y042727D01*
X050543Y042726D01*
X050538Y042724D01*
X050533D01*
X050512Y042727D01*
X050493Y042731D01*
X050477Y042737D01*
X050464Y042744D01*
X050454Y042752D01*
X050446Y042757D01*
X050441Y042762D01*
X05044Y042764D01*
X050434Y042771D01*
X050429Y04278D01*
X050421Y042801D01*
X050415Y042823D01*
X050412Y042844D01*
X050409Y042863D01*
X050408Y042872D01*
Y04288D01*
X050407Y042885D01*
Y04289D01*
Y042893D01*
Y042894D01*
Y04291D01*
X050408Y042926D01*
X05041Y04294D01*
X050413Y042953D01*
X050415Y042964D01*
X050418Y042975D01*
X050421Y042985D01*
X050425Y042993D01*
X05043Y043006D01*
X050436Y043016D01*
X05044Y043022D01*
X050441Y043024D01*
X050454Y043037D01*
X050469Y043047D01*
X050485Y043055D01*
X050499Y043059D01*
X050511Y043062D01*
X050522Y043063D01*
X050528Y043064D01*
X050531D01*
X050551Y043062D01*
D02*
G37*
G36*
X050843Y042586D02*
X050538D01*
X050574Y042587D01*
X050607Y042591D01*
X050636Y042598D01*
X050648Y042601D01*
X05066Y042604D01*
X050671Y042608D01*
X050679Y042611D01*
X050687Y042614D01*
X050693Y042617D01*
X050699Y04262D01*
X050702Y042622D01*
X050704Y042623D01*
X050706D01*
X05073Y042638D01*
X050749Y042655D01*
X050767Y042672D01*
X050781Y042688D01*
X050793Y042704D01*
X050801Y042716D01*
X050804Y04272D01*
X050806Y042723D01*
X050807Y042726D01*
Y042727D01*
X050819Y042754D01*
X050828Y042782D01*
X050834Y042811D01*
X050839Y042838D01*
X05084Y042851D01*
X050841Y042862D01*
X050842Y042873D01*
X050843Y042882D01*
Y042586D01*
D02*
G37*
%LPC*%
G36*
X044301Y026925D02*
X043927D01*
X043889Y026924D01*
X043855Y02692D01*
X043824Y026914D01*
X043798Y026909D01*
X043786Y026905D01*
X043776Y026903D01*
X043768Y0269D01*
X04376Y026897D01*
X043755Y026895D01*
X043751Y026893D01*
X043748Y026892D01*
X043747D01*
X043721Y026879D01*
X043698Y026865D01*
X043679Y026849D01*
X043663Y026834D01*
X04365Y026821D01*
X043642Y026811D01*
X043635Y026803D01*
X043634Y026802D01*
Y0268D01*
X043621Y026778D01*
X043612Y026754D01*
X043605Y026732D01*
X043601Y026712D01*
X043599Y026695D01*
X043596Y026682D01*
Y026677D01*
Y026673D01*
Y026672D01*
Y02667D01*
X043597Y026651D01*
X0436Y026631D01*
X043604Y026614D01*
X043609Y026597D01*
X043622Y026565D01*
X043638Y026538D01*
X043645Y026526D01*
X043652Y026517D01*
X043659Y026508D01*
X043666Y0265D01*
X043671Y026495D01*
X043675Y026491D01*
X043677Y026488D01*
X043679Y026487D01*
X043691Y026477D01*
X043705Y026468D01*
X043719Y026459D01*
X043736Y026451D01*
X043769Y026435D01*
X043803Y026422D01*
X04382Y026417D01*
X043835Y026412D01*
X043849Y026408D01*
X043861Y026404D01*
X04387Y026401D01*
X043878Y026399D01*
X043883Y026397D01*
X043885D01*
X043906Y026392D01*
X043924Y026387D01*
X043941Y026383D01*
X043957Y026379D01*
X04397Y026375D01*
X043982Y026373D01*
X043992Y026369D01*
X044001Y026366D01*
X044009Y026365D01*
X044016Y026362D01*
X044025Y026359D01*
X04403Y026357D01*
X044032D01*
X044049Y02635D01*
X044062Y026344D01*
X044074Y026337D01*
X044083Y026331D01*
X044089Y026325D01*
X044093Y026321D01*
X044096Y026319D01*
X044097Y026317D01*
X044104Y026308D01*
X044109Y026299D01*
X044112Y02629D01*
X044114Y026282D01*
X044116Y026274D01*
X044117Y026268D01*
Y026264D01*
Y026262D01*
X044116Y026244D01*
X04411Y026228D01*
X044102Y026212D01*
X044095Y026199D01*
X044085Y026189D01*
X044079Y026181D01*
X044074Y026176D01*
X044071Y026174D01*
X044053Y026163D01*
X044032Y026153D01*
X044009Y026147D01*
X043988Y026143D01*
X043969Y02614D01*
X043953Y026138D01*
X043938D01*
X043908Y026139D01*
X043882Y026144D01*
X04386Y026151D01*
X04384Y026159D01*
X043824Y026167D01*
X043814Y026173D01*
X043807Y026178D01*
X043805Y02618D01*
X043788Y026198D01*
X043774Y026218D01*
X043763Y02624D01*
X043755Y026262D01*
X043748Y026282D01*
X043743Y026298D01*
X043742Y026303D01*
Y026308D01*
X04374Y026311D01*
Y026312D01*
X043562Y026295D01*
X043566Y026268D01*
X043571Y026241D01*
X043579Y026216D01*
X043586Y026194D01*
X043595Y026173D01*
X043604Y026153D01*
X043613Y026136D01*
X043622Y026121D01*
X043631Y026107D01*
X043641Y026096D01*
X043649Y026085D01*
X043656Y026076D01*
X043662Y026069D01*
X043667Y026066D01*
X04367Y026063D01*
X043671Y026062D01*
X043689Y026047D01*
X043709Y026035D01*
X04373Y026025D01*
X043752Y026016D01*
X043773Y026009D01*
X043795Y026003D01*
X043839Y025993D01*
X043858Y025989D01*
X043877Y025987D01*
X043893Y025985D01*
X043907Y025984D01*
X043919Y025983D01*
X043936D01*
X043978Y025984D01*
X044016Y025988D01*
X04405Y025993D01*
X044064Y025996D01*
X044079Y026D01*
X044091Y026003D01*
X044101Y026005D01*
X04411Y026008D01*
X044118Y02601D01*
X044125Y026013D01*
X044129Y026014D01*
X044131Y026016D01*
X044133D01*
X044162Y02603D01*
X044185Y026046D01*
X044207Y026062D01*
X044225Y026079D01*
X044238Y026093D01*
X044248Y026106D01*
X044253Y026114D01*
X044256Y026115D01*
Y026117D01*
X04427Y026143D01*
X044282Y026168D01*
X04429Y026193D01*
X044295Y026216D01*
X044298Y026235D01*
X044299Y026244D01*
X044301Y026251D01*
Y026264D01*
X044299Y026295D01*
X044295Y026323D01*
X044289Y026348D01*
X044282Y026369D01*
X044276Y026386D01*
X044269Y026397D01*
X044265Y026405D01*
X044264Y026408D01*
X044249Y026429D01*
X044232Y026447D01*
X044215Y026463D01*
X0442Y026476D01*
X044185Y026487D01*
X044173Y026495D01*
X044165Y0265D01*
X044164Y026501D01*
X044163D01*
X04415Y026508D01*
X044137Y026514D01*
X044105Y026526D01*
X044072Y026537D01*
X044041Y026547D01*
X044026Y026551D01*
X044012Y026555D01*
X043999Y026559D01*
X043988Y026561D01*
X043979Y026564D01*
X043973Y026565D01*
X043967Y026567D01*
X043966D01*
X043942Y026573D01*
X043921Y026579D01*
X043902Y026584D01*
X043883Y026589D01*
X043869Y026594D01*
X043855Y026599D01*
X043843Y026605D01*
X043832Y026609D01*
X043823Y026613D01*
X043816Y026617D01*
X04381Y026619D01*
X043806Y026622D01*
X043799Y026626D01*
X043798Y026627D01*
X043789Y026636D01*
X043782Y026645D01*
X043778Y026655D01*
X043776Y026664D01*
X043773Y02667D01*
X043772Y026677D01*
Y026681D01*
Y026682D01*
X043773Y026695D01*
X043776Y026706D01*
X043781Y026716D01*
X043786Y026724D01*
X043792Y026731D01*
X043797Y026735D01*
X043799Y026737D01*
X043801Y026739D01*
X043819Y02675D01*
X043839Y026758D01*
X04386Y026765D01*
X043879Y026769D01*
X043896Y026771D01*
X043911Y026773D01*
X043924D01*
X043952Y026771D01*
X043975Y026767D01*
X043995Y026762D01*
X044011Y026757D01*
X044024Y026752D01*
X044033Y026746D01*
X044038Y026742D01*
X04404Y026741D01*
X044053Y026728D01*
X044064Y026712D01*
X044074Y026697D01*
X04408Y02668D01*
X044085Y026665D01*
X044088Y026653D01*
X044091Y026644D01*
Y026643D01*
Y026641D01*
X044274Y026648D01*
X044273Y026672D01*
X044269Y026693D01*
X044264Y026714D01*
X044257Y026732D01*
X044251Y02675D01*
X044243Y026767D01*
X044235Y026782D01*
X044227Y026796D01*
X044218Y026808D01*
X04421Y026819D01*
X044202Y026828D01*
X044196Y026836D01*
X04419Y026841D01*
X044186Y026845D01*
X044184Y026847D01*
X044183Y026849D01*
X044165Y026862D01*
X044147Y026874D01*
X044127Y026884D01*
X044106Y026893D01*
X044085Y0269D01*
X044064Y026906D01*
X044022Y026916D01*
X044003Y026918D01*
X043986Y026921D01*
X043969Y026922D01*
X043954Y026924D01*
X043942Y026925D01*
X044301D01*
D02*
G37*
G36*
X043172Y026913D02*
X043159D01*
X043136Y026912D01*
X043113Y026909D01*
X043091Y026904D01*
X043071Y026899D01*
X043053Y026891D01*
X043036Y026883D01*
X043021Y026875D01*
X043007Y026866D01*
X042995Y026857D01*
X042983Y026849D01*
X042974Y026841D01*
X042968Y026833D01*
X042961Y026828D01*
X042957Y026823D01*
X042954Y02682D01*
X042953Y026819D01*
X042937Y026796D01*
X042924Y02677D01*
X042913Y026742D01*
X042902Y026714D01*
X042894Y026683D01*
X042886Y026652D01*
X042881Y026622D01*
X042876Y026592D01*
X042873Y026563D01*
X042871Y026537D01*
X042868Y026512D01*
X042867Y026491D01*
X042865Y026474D01*
Y026913D01*
D01*
Y025983D01*
X043454D01*
X043159D01*
X043183Y025984D01*
X043205Y025987D01*
X043227Y025992D01*
X043247Y025997D01*
X043265Y026004D01*
X043282Y026012D01*
X043297Y026021D01*
X043311Y02603D01*
X043323Y026038D01*
X043335Y026047D01*
X043344Y026055D01*
X043352Y026062D01*
X043357Y026067D01*
X043361Y026072D01*
X043364Y026075D01*
X043365Y026076D01*
X043381Y026098D01*
X043394Y026125D01*
X043407Y026152D01*
X043416Y026182D01*
X043425Y026212D01*
X043432Y026243D01*
X043439Y026274D01*
X043444Y026304D01*
X043446Y026333D01*
X043449Y026359D01*
X043452Y026384D01*
X043453Y026405D01*
X043454Y026422D01*
Y026449D01*
Y026447D01*
X043453Y026495D01*
X04345Y026538D01*
X043446Y026577D01*
X04344Y026614D01*
X043433Y026648D01*
X043427Y026678D01*
X043418Y026706D01*
X04341Y026729D01*
X043402Y026752D01*
X043394Y026769D01*
X043386Y026784D01*
X04338Y026798D01*
X043373Y026807D01*
X043369Y026813D01*
X043366Y026817D01*
X043365Y026819D01*
X043351Y026836D01*
X043335Y02685D01*
X043318Y026862D01*
X043301Y026874D01*
X043284Y026883D01*
X043267Y026889D01*
X043251Y026896D01*
X043234Y026901D01*
X043218Y026905D01*
X043205Y026908D01*
X043192Y02691D01*
X043181Y026912D01*
X043172Y026913D01*
D02*
G37*
G36*
X040968Y026417D02*
X040626D01*
Y026243D01*
X040968D01*
Y026417D01*
D02*
G37*
G36*
X042457Y026913D02*
X042445D01*
X042418Y026912D01*
X042393Y026909D01*
X042369Y026904D01*
X04235Y026899D01*
X042334Y026893D01*
X042321Y026888D01*
X042313Y026886D01*
X042312Y026884D01*
X04231D01*
X042289Y026872D01*
X04227Y026859D01*
X042254Y026846D01*
X042241Y026834D01*
X04223Y026823D01*
X042222Y026813D01*
X042217Y026808D01*
X042216Y026805D01*
X042204Y026786D01*
X042194Y026765D01*
X042186Y026742D01*
X042178Y026722D01*
X042173Y026702D01*
X042169Y026687D01*
X042167Y026681D01*
Y026677D01*
X042166Y026674D01*
Y026673D01*
X042326Y026647D01*
X04233Y026668D01*
X042335Y026686D01*
X04234Y026702D01*
X042347Y026714D01*
X042354Y026724D01*
X042359Y026732D01*
X042363Y026736D01*
X042364Y026737D01*
X042376Y026748D01*
X042389Y026756D01*
X042402Y026761D01*
X042414Y026765D01*
X042424Y026767D01*
X042432Y026769D01*
X04244D01*
X042456Y026767D01*
X042472Y026765D01*
X042483Y02676D01*
X042494Y026756D01*
X042503Y02675D01*
X042508Y026745D01*
X042512Y026742D01*
X042514Y026741D01*
X042523Y026731D01*
X042529Y026718D01*
X042535Y026706D01*
X042537Y026694D01*
X04254Y026683D01*
X042541Y026676D01*
Y02667D01*
Y026668D01*
X04254Y026648D01*
X042536Y026631D01*
X042529Y026617D01*
X042523Y026605D01*
X042515Y026594D01*
X04251Y026588D01*
X042504Y026582D01*
X042503Y026581D01*
X042487Y026571D01*
X04247Y026563D01*
X042452Y026558D01*
X042435Y026554D01*
X042419Y026552D01*
X042406Y026551D01*
X042394D01*
X042376Y026411D01*
X042393Y026414D01*
X042407Y026418D01*
X042422Y026421D01*
X042434Y026422D01*
X042443Y026424D01*
X042456D01*
X042474Y026422D01*
X04249Y026417D01*
X042504Y026412D01*
X042518Y026404D01*
X042527Y026397D01*
X042535Y026391D01*
X04254Y026386D01*
X042541Y026384D01*
X042553Y026369D01*
X042562Y026352D01*
X042569Y026334D01*
X042574Y026317D01*
X042577Y026302D01*
X042578Y02629D01*
Y026282D01*
Y026281D01*
Y026279D01*
X042577Y026254D01*
X042573Y026232D01*
X042566Y026212D01*
X04256Y026197D01*
X042552Y026185D01*
X042546Y026176D01*
X042541Y026169D01*
X04254Y026168D01*
X042525Y026155D01*
X04251Y026144D01*
X042495Y026138D01*
X042481Y026132D01*
X042468Y02613D01*
X042459Y026128D01*
X042452Y026127D01*
X042449D01*
X042431Y026128D01*
X042415Y026132D01*
X042401Y026138D01*
X042388Y026144D01*
X042379Y026149D01*
X042371Y026155D01*
X042365Y026159D01*
X042364Y02616D01*
X042352Y026174D01*
X042342Y02619D01*
X042335Y026207D01*
X042329Y026223D01*
X042325Y026237D01*
X042322Y026249D01*
X042321Y026257D01*
Y026258D01*
Y02626D01*
X042153Y026239D01*
X042155Y026218D01*
X042161Y026198D01*
X042173Y026161D01*
X042187Y02613D01*
X042196Y026117D01*
X042204Y026104D01*
X042212Y026092D01*
X04222Y026083D01*
X042226Y026073D01*
X042233Y026067D01*
X042238Y026062D01*
X042242Y026058D01*
X042245Y026055D01*
X042246Y026054D01*
X042262Y026042D01*
X042279Y02603D01*
X042295Y026021D01*
X042313Y026013D01*
X042347Y026D01*
X042379Y025992D01*
X042394Y025989D01*
X042407Y025987D01*
X042419Y025985D01*
X04243Y025984D01*
X042439Y025983D01*
X042153D01*
X042756D01*
D01*
X042451D01*
X042474Y025984D01*
X042498Y025987D01*
X042519Y025991D01*
X04254Y025996D01*
X042558Y026003D01*
X042577Y026009D01*
X042594Y026017D01*
X042608Y026025D01*
X042621Y026033D01*
X042634Y026041D01*
X042644Y026047D01*
X042653Y026054D01*
X042659Y026059D01*
X042665Y026063D01*
X042667Y026066D01*
X042668Y026067D01*
X042684Y026083D01*
X042697Y0261D01*
X042709Y026117D01*
X04272Y026134D01*
X042728Y026152D01*
X042735Y026169D01*
X042746Y026201D01*
X042748Y026215D01*
X042751Y02623D01*
X042754Y026241D01*
X042755Y026252D01*
X042756Y02626D01*
Y026271D01*
X042754Y026302D01*
X042748Y026328D01*
X042742Y026353D01*
X042733Y026373D01*
X042724Y02639D01*
X042717Y026401D01*
X042712Y026409D01*
X042709Y026412D01*
X042691Y026432D01*
X04267Y026449D01*
X042649Y026462D01*
X042629Y026472D01*
X042612Y02648D01*
X042598Y026484D01*
X042592Y026487D01*
X042588D01*
X042586Y026488D01*
X042585D01*
X042608Y026502D01*
X042628Y026517D01*
X042645Y026533D01*
X042661Y026548D01*
X042674Y026564D01*
X042684Y02658D01*
X042692Y026596D01*
X0427Y02661D01*
X042705Y026624D01*
X042709Y026638D01*
X042712Y026649D01*
X042713Y02666D01*
X042714Y026668D01*
X042716Y026674D01*
Y026678D01*
Y02668D01*
X042714Y026695D01*
X042713Y02671D01*
X042705Y026739D01*
X042696Y026765D01*
X042684Y026787D01*
X042672Y026805D01*
X042662Y026819D01*
X042658Y026824D01*
X042654Y026828D01*
X042653Y026829D01*
X042651Y02683D01*
X042637Y026845D01*
X04262Y026858D01*
X042604Y026868D01*
X042587Y026878D01*
X042569Y026887D01*
X042552Y026893D01*
X042519Y026903D01*
X042504Y026906D01*
X04249Y026909D01*
X042478Y02691D01*
X042466Y026912D01*
X042457Y026913D01*
D02*
G37*
G36*
X039142Y026913D02*
X03913D01*
X039102Y026912D01*
X039078Y026909D01*
X039054Y026904D01*
X039034Y026899D01*
X039018Y026893D01*
X039005Y026888D01*
X038997Y026886D01*
X038996Y026884D01*
X038995D01*
X038974Y026872D01*
X038954Y026859D01*
X038938Y026846D01*
X038925Y026834D01*
X038915Y026823D01*
X038907Y026813D01*
X038902Y026808D01*
X0389Y026805D01*
X038889Y026786D01*
X038878Y026765D01*
X03887Y026742D01*
X038862Y026722D01*
X038857Y026702D01*
X038853Y026687D01*
X038852Y026681D01*
Y026677D01*
X038851Y026674D01*
Y026673D01*
X039011Y026647D01*
X039015Y026668D01*
X03902Y026686D01*
X039025Y026702D01*
X039032Y026714D01*
X039038Y026724D01*
X039043Y026732D01*
X039047Y026736D01*
X039049Y026737D01*
X03906Y026748D01*
X039074Y026756D01*
X039087Y026761D01*
X039099Y026765D01*
X039109Y026767D01*
X039117Y026769D01*
X039125D01*
X039141Y026767D01*
X039156Y026765D01*
X039168Y02676D01*
X039179Y026756D01*
X039188Y02675D01*
X039193Y026745D01*
X039197Y026742D01*
X039198Y026741D01*
X039207Y026731D01*
X039214Y026718D01*
X039219Y026706D01*
X039222Y026694D01*
X039224Y026683D01*
X039226Y026676D01*
Y02667D01*
Y026668D01*
X039224Y026648D01*
X039221Y026631D01*
X039214Y026617D01*
X039207Y026605D01*
X0392Y026594D01*
X039194Y026588D01*
X039189Y026582D01*
X039188Y026581D01*
X039172Y026571D01*
X039155Y026563D01*
X039137Y026558D01*
X03912Y026554D01*
X039104Y026552D01*
X039091Y026551D01*
X039079D01*
X03906Y026411D01*
X039078Y026414D01*
X039092Y026418D01*
X039106Y026421D01*
X039118Y026422D01*
X039127Y026424D01*
X039141D01*
X039159Y026422D01*
X039175Y026417D01*
X039189Y026412D01*
X039202Y026404D01*
X039211Y026397D01*
X039219Y026391D01*
X039224Y026386D01*
X039226Y026384D01*
X039238Y026369D01*
X039247Y026352D01*
X039253Y026334D01*
X039259Y026317D01*
X039261Y026302D01*
X039263Y02629D01*
Y026282D01*
Y026281D01*
Y026279D01*
X039261Y026254D01*
X039257Y026232D01*
X039251Y026212D01*
X039244Y026197D01*
X039236Y026185D01*
X039231Y026176D01*
X039226Y026169D01*
X039224Y026168D01*
X03921Y026155D01*
X039194Y026144D01*
X03918Y026138D01*
X039165Y026132D01*
X039152Y02613D01*
X039143Y026128D01*
X039137Y026127D01*
X039134D01*
X039116Y026128D01*
X0391Y026132D01*
X039085Y026138D01*
X039072Y026144D01*
X039063Y026149D01*
X039055Y026155D01*
X03905Y026159D01*
X039049Y02616D01*
X039037Y026174D01*
X039026Y02619D01*
X03902Y026207D01*
X039013Y026223D01*
X039009Y026237D01*
X039007Y026249D01*
X039005Y026257D01*
Y026258D01*
Y02626D01*
X038837Y026239D01*
X03884Y026218D01*
X038845Y026198D01*
X038857Y026161D01*
X038872Y02613D01*
X038881Y026117D01*
X038889Y026104D01*
X038896Y026092D01*
X038904Y026083D01*
X038911Y026073D01*
X038917Y026067D01*
X038923Y026062D01*
X038927Y026058D01*
X038929Y026055D01*
X038931Y026054D01*
X038946Y026042D01*
X038963Y02603D01*
X038979Y026021D01*
X038997Y026013D01*
X039032Y026D01*
X039063Y025992D01*
X039079Y025989D01*
X039092Y025987D01*
X039104Y025985D01*
X039114Y025984D01*
X039123Y025983D01*
X038837D01*
X039441D01*
D01*
X039135D01*
X039159Y025984D01*
X039182Y025987D01*
X039203Y025991D01*
X039224Y025996D01*
X039243Y026003D01*
X039261Y026009D01*
X039278Y026017D01*
X039293Y026025D01*
X039306Y026033D01*
X039319Y026041D01*
X039328Y026047D01*
X039337Y026054D01*
X039344Y026059D01*
X039349Y026063D01*
X039352Y026066D01*
X039353Y026067D01*
X039369Y026083D01*
X039382Y0261D01*
X039394Y026117D01*
X039404Y026134D01*
X039412Y026152D01*
X03942Y026169D01*
X03943Y026201D01*
X039433Y026215D01*
X039436Y02623D01*
X039438Y026241D01*
X03944Y026252D01*
X039441Y02626D01*
Y026271D01*
X039438Y026302D01*
X039433Y026328D01*
X039427Y026353D01*
X039417Y026373D01*
X039408Y02639D01*
X039402Y026401D01*
X039396Y026409D01*
X039394Y026412D01*
X039375Y026432D01*
X039354Y026449D01*
X039333Y026462D01*
X039314Y026472D01*
X039297Y02648D01*
X039282Y026484D01*
X039277Y026487D01*
X039273D01*
X03927Y026488D01*
X039269D01*
X039293Y026502D01*
X039312Y026517D01*
X039329Y026533D01*
X039345Y026548D01*
X039358Y026564D01*
X039369Y02658D01*
X039377Y026596D01*
X039385Y02661D01*
X03939Y026624D01*
X039394Y026638D01*
X039396Y026649D01*
X039398Y02666D01*
X039399Y026668D01*
X0394Y026674D01*
Y026678D01*
Y02668D01*
X039399Y026695D01*
X039398Y02671D01*
X03939Y026739D01*
X039381Y026765D01*
X039369Y026787D01*
X039357Y026805D01*
X039346Y026819D01*
X039343Y026824D01*
X039339Y026828D01*
X039337Y026829D01*
X039336Y02683D01*
X039322Y026845D01*
X039304Y026858D01*
X039289Y026868D01*
X039272Y026878D01*
X039253Y026887D01*
X039236Y026893D01*
X039203Y026903D01*
X039189Y026906D01*
X039175Y026909D01*
X039163Y02691D01*
X039151Y026912D01*
X039142Y026913D01*
D02*
G37*
G36*
X039862Y026913D02*
X039849D01*
X039827Y026912D01*
X039806Y02691D01*
X039765Y026904D01*
X039731Y026893D01*
X039715Y026888D01*
X039701Y026882D01*
X039688Y026876D01*
X039677Y02687D01*
X039667Y026865D01*
X039659Y026861D01*
X039652Y026855D01*
X039648Y026853D01*
X039646Y026851D01*
X039644Y02685D01*
X03963Y026837D01*
X039617Y026824D01*
X039605Y026808D01*
X039594Y026791D01*
X039579Y026757D01*
X039566Y026724D01*
X039562Y026707D01*
X039558Y026693D01*
X039554Y02668D01*
X039552Y026668D01*
X03955Y026657D01*
Y026651D01*
X039549Y026645D01*
Y026644D01*
X039722Y026627D01*
X039724Y026653D01*
X03973Y026676D01*
X039735Y026695D01*
X039741Y02671D01*
X039747Y026722D01*
X039752Y026729D01*
X039756Y026735D01*
X039757Y026736D01*
X03977Y026746D01*
X039785Y026754D01*
X039799Y026761D01*
X039814Y026765D01*
X039825Y026767D01*
X039836Y026769D01*
X039845D01*
X039865Y026767D01*
X039882Y026763D01*
X039896Y026758D01*
X039909Y026753D01*
X039919Y026748D01*
X039926Y026742D01*
X03993Y026739D01*
X039932Y026737D01*
X039942Y026724D01*
X03995Y02671D01*
X039955Y026695D01*
X039959Y026681D01*
X039962Y026668D01*
X039963Y026656D01*
Y026649D01*
Y026648D01*
Y026647D01*
X039962Y026627D01*
X039958Y026609D01*
X039951Y02659D01*
X039945Y026575D01*
X039938Y02656D01*
X039932Y02655D01*
X039928Y026543D01*
X039926Y02654D01*
X039921Y026533D01*
X039913Y026523D01*
X039903Y026512D01*
X039892Y026501D01*
X039869Y026476D01*
X039845Y026451D01*
X039821Y026428D01*
X039811Y026417D01*
X0398Y026409D01*
X039793Y026401D01*
X039787Y026396D01*
X039783Y026392D01*
X039782Y026391D01*
X039756Y026366D01*
X039732Y026342D01*
X03971Y02632D01*
X03969Y0263D01*
X039672Y026281D01*
X039656Y026262D01*
X039642Y026247D01*
X03963Y026231D01*
X039619Y026218D01*
X03961Y026206D01*
X039602Y026197D01*
X039597Y026188D01*
X039592Y026182D01*
X039589Y026177D01*
X039587Y026174D01*
Y026173D01*
X03957Y026143D01*
X039556Y026111D01*
X039546Y026083D01*
X039538Y026056D01*
X039533Y026033D01*
X039531Y026024D01*
X03953Y026016D01*
X039529Y026009D01*
X039528Y026004D01*
Y026913D01*
D01*
D01*
Y026D01*
X040138Y026D01*
Y026161D01*
X039791D01*
X039802Y026178D01*
X039814Y026193D01*
X039819Y026199D01*
X039823Y026205D01*
X039825Y026207D01*
X039827Y026209D01*
X039832Y026214D01*
X039837Y02622D01*
X039853Y026235D01*
X03987Y026252D01*
X039887Y026269D01*
X039904Y026285D01*
X039919Y026298D01*
X039924Y026303D01*
X039928Y026307D01*
X03993Y026308D01*
X039932Y02631D01*
X03996Y026337D01*
X039984Y026359D01*
X040004Y02638D01*
X04002Y026396D01*
X040031Y026409D01*
X040039Y026418D01*
X040044Y026425D01*
X040046Y026426D01*
X040063Y026449D01*
X040077Y02647D01*
X040089Y026489D01*
X040098Y026506D01*
X040106Y026521D01*
X040111Y026533D01*
X040114Y026539D01*
X040115Y026542D01*
X040123Y026563D01*
X040128Y026584D01*
X040132Y026603D01*
X040135Y026622D01*
X040136Y026636D01*
X040138Y026648D01*
Y026659D01*
X040136Y026678D01*
X040134Y026698D01*
X040131Y026716D01*
X040126Y026733D01*
X040113Y026763D01*
X0401Y02679D01*
X040092Y026802D01*
X040085Y026811D01*
X040079Y02682D01*
X040072Y026826D01*
X040067Y026832D01*
X040064Y026837D01*
X040062Y026838D01*
X04006Y02684D01*
X040046Y026853D01*
X040029Y026865D01*
X040013Y026874D01*
X039995Y026882D01*
X03996Y026895D01*
X039926Y026904D01*
X039911Y026906D01*
X039896Y026909D01*
X039883Y02691D01*
X039871Y026912D01*
X039862Y026913D01*
D02*
G37*
G36*
X042079Y026908D02*
X041359D01*
Y026D01*
D01*
Y026754D01*
X041628D01*
Y026D01*
X041812D01*
Y026754D01*
X042079D01*
Y026908D01*
D02*
G37*
G36*
X03871Y026908D02*
X038037D01*
Y026D01*
X038727D01*
Y026153D01*
Y026153D01*
X038221D01*
Y0264D01*
X038676D01*
Y026554D01*
X038221D01*
Y026754D01*
X03871D01*
Y026908D01*
D02*
G37*
G36*
X043562Y026925D02*
D01*
Y025983D01*
D01*
Y026925D01*
D01*
D02*
G37*
G36*
X042153Y026913D02*
D01*
Y025983D01*
D01*
Y026913D01*
D01*
D02*
G37*
G36*
X038837Y026913D02*
D01*
Y025983D01*
D01*
Y026913D01*
D01*
D02*
G37*
%LPD*%
G36*
X043171Y026767D02*
X043181Y026766D01*
X043191Y026762D01*
X043199Y026758D01*
X043205Y026754D01*
X04321Y026752D01*
X043213Y026749D01*
X043214Y026748D01*
X043222Y026739D01*
X04323Y026727D01*
X043237Y026714D01*
X043243Y026701D01*
X043247Y026687D01*
X043251Y026677D01*
X043252Y02667D01*
X043254Y026669D01*
Y026668D01*
X043256Y026656D01*
X043259Y026641D01*
X043261Y026624D01*
X043264Y026607D01*
X043267Y026572D01*
X043268Y026535D01*
X043269Y026518D01*
Y026501D01*
X043271Y026487D01*
Y026474D01*
Y026463D01*
Y026454D01*
Y026449D01*
Y026447D01*
Y026418D01*
X043269Y026391D01*
Y026366D01*
X043268Y026344D01*
X043267Y026323D01*
X043265Y026304D01*
X043263Y026287D01*
X043261Y026273D01*
X04326Y02626D01*
X043258Y026249D01*
X043256Y02624D01*
X043255Y026232D01*
X043254Y026227D01*
Y026222D01*
X043252Y02622D01*
Y026219D01*
X043247Y026201D01*
X04324Y026186D01*
X043234Y026173D01*
X043229Y026164D01*
X043223Y026156D01*
X043218Y026151D01*
X043216Y026148D01*
X043214Y026147D01*
X043205Y02614D01*
X043196Y026135D01*
X043187Y026132D01*
X043178Y02613D01*
X043171Y026128D01*
X043164Y026127D01*
X043159D01*
X043147Y026128D01*
X043137Y02613D01*
X043128Y026134D01*
X04312Y026138D01*
X043113Y02614D01*
X043108Y026144D01*
X043105Y026146D01*
X043104Y026147D01*
X043096Y026156D01*
X043088Y026168D01*
X043082Y026181D01*
X043075Y026194D01*
X043071Y026206D01*
X043067Y026216D01*
X043066Y026223D01*
X043065Y026226D01*
X043062Y026239D01*
X043059Y026253D01*
X043057Y026269D01*
X043056Y026286D01*
X043053Y026323D01*
X043052Y026359D01*
X04305Y026376D01*
Y026394D01*
X043049Y026408D01*
Y026421D01*
Y026432D01*
Y026441D01*
Y026446D01*
Y026447D01*
Y026476D01*
X04305Y026504D01*
Y026527D01*
X043052Y026551D01*
X043053Y026571D01*
X043054Y02659D01*
X043056Y026606D01*
X043058Y026622D01*
X043059Y026635D01*
X043061Y026645D01*
X043062Y026655D01*
X043063Y026662D01*
X043065Y026668D01*
Y026673D01*
X043066Y026674D01*
Y026676D01*
X043071Y026694D01*
X043078Y02671D01*
X043083Y026722D01*
X04309Y026732D01*
X043095Y026739D01*
X043099Y026744D01*
X043101Y026746D01*
X043103Y026748D01*
X043112Y026754D01*
X043122Y02676D01*
X043132Y026763D01*
X043141Y026766D01*
X043147Y026767D01*
X043154Y026769D01*
X043159D01*
X043171Y026767D01*
D02*
G37*
G36*
X042867Y026401D02*
X042869Y026358D01*
X042873Y026317D01*
X042878Y026281D01*
X042884Y026248D01*
X04289Y026218D01*
X042898Y026191D01*
X042906Y026168D01*
X042913Y026148D01*
X04292Y02613D01*
X042927Y026115D01*
X042934Y026104D01*
X042937Y026096D01*
X042941Y026089D01*
X042944Y026085D01*
X042945Y026084D01*
X042961Y026066D01*
X042978Y026051D01*
X042995Y026037D01*
X043014Y026026D01*
X043031Y026016D01*
X043049Y026008D01*
X043066Y026001D01*
X043083Y025996D01*
X043099Y025991D01*
X043113Y025988D01*
X043126Y025985D01*
X043137Y025984D01*
X043146D01*
X043154Y025983D01*
X042865D01*
Y026449D01*
X042867Y026401D01*
D02*
G37*
%LPC*%
G36*
X016268Y043449D02*
X015995D01*
D01*
X016268D01*
D02*
G37*
G36*
X015946D02*
D01*
Y042876D01*
X015944Y042904D01*
X01594Y042929D01*
X015932Y042951D01*
X015925Y042968D01*
X015918Y042983D01*
X015911Y042994D01*
X015906Y043D01*
X015905Y043003D01*
X015887Y043021D01*
X015868Y043035D01*
X015846Y043048D01*
X015826Y043058D01*
X015807Y043066D01*
X015792Y04307D01*
X015787Y043073D01*
X015782D01*
X015779Y043074D01*
X015778D01*
X015798Y043083D01*
X015816Y043092D01*
X01583Y043101D01*
X015842Y043109D01*
X015852Y043117D01*
X015858Y043123D01*
X015862Y043127D01*
X015864Y043128D01*
X015878Y043149D01*
X01589Y043169D01*
X015897Y04319D01*
X015903Y043209D01*
X015906Y043225D01*
X015909Y043238D01*
Y043247D01*
Y043248D01*
Y043249D01*
Y043265D01*
X015906Y04328D01*
X015899Y043308D01*
X015889Y043331D01*
X015878Y043351D01*
X015867Y043369D01*
X015857Y043381D01*
X015849Y043388D01*
X015848Y043391D01*
X015846D01*
X01582Y04341D01*
X015792Y043424D01*
X015763Y043435D01*
X015734Y043442D01*
X015708Y043446D01*
X015698Y043448D01*
X015687D01*
X01568Y043449D01*
X015206D01*
Y04265D01*
X015645D01*
X015661Y042652D01*
X015679Y042653D01*
X015698Y042656D01*
X015715Y042657D01*
X01573Y042659D01*
X015736D01*
X01574Y04266D01*
X015743D01*
X015765Y042665D01*
X015784Y042668D01*
X0158Y042672D01*
X015813Y042676D01*
X015823Y042681D01*
X01583Y042684D01*
X015835Y042687D01*
X015836D01*
X015854Y042698D01*
X01587Y042711D01*
X015884Y042725D01*
X015896Y042738D01*
X015905Y042748D01*
X015911Y042757D01*
X015915Y042764D01*
X015916Y042765D01*
X015927Y042784D01*
X015934Y042803D01*
X015938Y042822D01*
X015943Y04284D01*
X015944Y042854D01*
X015946Y042866D01*
Y04265D01*
D01*
D01*
Y043449D01*
D02*
G37*
G36*
X015052Y043347D02*
X014457D01*
X014665D01*
Y043137D01*
X014457D01*
Y042961D01*
X014665D01*
Y042752D01*
X014842D01*
Y042961D01*
X015052D01*
Y04284D01*
Y043347D01*
D02*
G37*
G36*
X017638Y043449D02*
X016887Y043449D01*
Y043252D01*
X01714Y043252D01*
Y04265D01*
X016887Y04265D01*
X017386Y04265D01*
Y043252D01*
X017638D01*
Y042752D01*
Y043449D01*
D02*
G37*
G36*
X016866Y043449D02*
D01*
Y04265D01*
X016565Y043449D01*
X016866D01*
X016294D01*
X015995Y04265D01*
X016247D01*
X016287Y042781D01*
X016567D01*
X016606Y04265D01*
X016866D01*
Y043449D01*
D02*
G37*
%LPD*%
G36*
X015584Y043286D02*
X015601Y043284D01*
X015615Y043282D01*
X015625Y043277D01*
X015633Y043273D01*
X015639Y04327D01*
X015642Y043268D01*
X015644Y043267D01*
X015651Y04326D01*
X015657Y043251D01*
X015661Y043242D01*
X015664Y043233D01*
X015666Y043225D01*
X015667Y043219D01*
Y043214D01*
Y043213D01*
X015666Y0432D01*
X015664Y043188D01*
X01566Y043178D01*
X015655Y043169D01*
X015651Y043163D01*
X015648Y043159D01*
X015645Y043156D01*
X015644Y043155D01*
X015633Y043149D01*
X015622Y043144D01*
X015596Y043139D01*
X015582Y043137D01*
X015572Y043136D01*
X015456D01*
Y043287D01*
X015565D01*
X015584Y043286D01*
D02*
G37*
G36*
X015603Y042983D02*
X015622Y042981D01*
X015638Y042977D01*
X01565Y042974D01*
X01566Y042969D01*
X015667Y042965D01*
X01567Y042964D01*
X015671Y042962D01*
X01568Y042953D01*
X015686Y042945D01*
X015692Y042935D01*
X015695Y042926D01*
X015696Y042917D01*
X015698Y042911D01*
Y042907D01*
Y042905D01*
X015696Y042892D01*
X015693Y042881D01*
X015689Y042869D01*
X015685Y04286D01*
X01568Y042853D01*
X015676Y042848D01*
X015673Y042846D01*
X015671Y042844D01*
X01566Y042837D01*
X015647Y042831D01*
X015632Y042828D01*
X015616Y042825D01*
X015603Y042824D01*
X015591Y042822D01*
X015456D01*
Y042984D01*
X01558D01*
X015603Y042983D01*
D02*
G37*
G36*
X015052Y043137D02*
X014842D01*
Y043347D01*
X015052D01*
Y043137D01*
D02*
G37*
G36*
X016514Y042955D02*
X016339D01*
X016427Y043241D01*
X016514Y042955D01*
D02*
G37*
%LPC*%
G36*
X019444Y03804D02*
X019143D01*
Y037476D01*
X019444D01*
Y03804D01*
D02*
G37*
G36*
X019676Y042104D02*
X018933D01*
Y041361D01*
D01*
Y041621D01*
X019195D01*
Y041361D01*
X019416D01*
Y041621D01*
X019676D01*
Y041842D01*
X019416D01*
Y042104D01*
X019676D01*
D02*
G37*
%LPD*%
G36*
X019195Y041842D02*
X018933D01*
Y042104D01*
X019195D01*
Y041842D01*
D02*
G37*
%LPC*%
G36*
X048062Y042098D02*
Y041836D01*
X047802D01*
Y042098D01*
X048062D01*
X047319D01*
X047581D01*
Y041836D01*
X047319D01*
Y041355D01*
Y041616D01*
X047581D01*
Y041355D01*
X047802D01*
Y041616D01*
X048062D01*
Y042098D01*
D02*
G37*
%LPD*%
D10*
X028131Y02207D02*
G03*
X028131Y02207I-000049J0D01*
G01*
X02847Y037957D02*
G03*
X02847Y037957I-000049J0D01*
G01*
X027829Y04402D02*
G03*
X027829Y04402I-000049J0D01*
G01*
X023862Y044069D02*
G03*
X023862Y044069I-000049J0D01*
G01*
X02979Y041582D02*
G03*
X02979Y041582I-000049J0D01*
G01*
X02249Y040207D02*
G03*
X02249Y040207I-000049J0D01*
G01*
X020932Y038031D02*
G03*
X020932Y038031I-000049J0D01*
G01*
X016078Y033632D02*
G03*
X016078Y033632I-000049J0D01*
G01*
D11*
X027412Y022493D02*
G03*
X027412Y022493I-000118J0D01*
G01*
D12*
X049668Y016025D02*
G03*
X049668Y016025I-00025J0D01*
G01*
X016429Y044774D02*
G03*
X016429Y044774I-00025J0D01*
G01*
X050629Y045294D02*
G03*
X050629Y045294I-00025J0D01*
G01*
X016449Y046799D02*
G03*
X016449Y046799I-00025J0D01*
G01*
D13*
X019725Y036053D02*
G03*
X020387Y036049I000333J000394D01*
G01*
Y036525D02*
G03*
X01973Y036525I-000329J-000398D01*
G01*
X020387Y035365D02*
G03*
X01973Y035365I-000329J-000398D01*
G01*
X019725Y034893D02*
G03*
X020387Y034889I000333J000394D01*
G01*
X030505Y027406D02*
G03*
X030505Y028063I-000398J000329D01*
G01*
X030033Y028068D02*
G03*
X030028Y027406I000394J-000333D01*
G01*
X030497Y031796D02*
G03*
X030497Y032453I-000398J000329D01*
G01*
X030025Y032458D02*
G03*
X030021Y031796I000394J-000333D01*
G01*
D14*
X040859Y047395D02*
G03*
X041341Y047395I000241J000203D01*
G01*
X041198Y047598D02*
G03*
X041198Y047598I-000098J0D01*
G01*
X041341Y047801D02*
G03*
X040859Y047801I-000241J-000203D01*
G01*
X035354Y034692D02*
G03*
X035354Y035052I0J00018D01*
G01*
Y027692D02*
G03*
X035354Y028052I0J00018D01*
G01*
X027688Y022099D02*
Y027296D01*
X022491Y022099D02*
Y027296D01*
Y022099D02*
X027688D01*
X022491Y027296D02*
X027688D01*
X047931Y014177D02*
X048418Y014664D01*
X049351Y013731D01*
X047931Y014177D02*
X048864Y013244D01*
X049351Y013731D01*
X048502Y013815D02*
X04878Y014093D01*
X051653Y016005D02*
X05214Y016492D01*
X05072Y016938D02*
X051653Y016005D01*
X051207Y017425D02*
X05214Y016492D01*
X05072Y016938D02*
X051207Y017425D01*
X051291Y016576D02*
X051569Y016854D01*
X047808Y018214D02*
Y022604D01*
X052926Y018372D02*
Y022604D01*
X048398Y017644D02*
X052627D01*
X047808D02*
X048398D01*
X047808D02*
Y018577D01*
X052627Y017644D02*
X052926D01*
Y019758D01*
X047808Y020214D02*
Y024604D01*
X052926Y020372D02*
Y024604D01*
X047808Y019644D02*
Y020577D01*
X052926Y019644D02*
Y021758D01*
X047808Y022214D02*
Y026644D01*
X052926D01*
Y022372D02*
Y026644D01*
X047808Y021644D02*
Y022577D01*
X052926Y021644D02*
Y023758D01*
X047808Y018644D02*
X052926D01*
X047808Y020644D02*
X052926D01*
X047808Y022644D02*
X052926D01*
X047808Y024644D02*
X052926D01*
X047808Y027364D02*
Y031754D01*
X052926Y027521D02*
Y031754D01*
X048398Y026793D02*
X052627D01*
X047808D02*
X048398D01*
X047808D02*
Y027726D01*
X052627Y026793D02*
X052926D01*
Y028907D01*
X047808Y029364D02*
Y033754D01*
X052926Y029521D02*
Y033754D01*
X047808Y028793D02*
Y029726D01*
X052926Y028793D02*
Y030907D01*
X047808Y031364D02*
Y035793D01*
X052926D01*
Y031521D02*
Y035793D01*
X047808Y030793D02*
Y031726D01*
X052926Y030793D02*
Y032907D01*
X047808Y027793D02*
X052926D01*
X047808Y029793D02*
X052926D01*
X047808Y031793D02*
X052926D01*
X047808Y033793D02*
X052926D01*
X01395Y03073D02*
X019068D01*
X01395Y02873D02*
X019068D01*
X01395Y02673D02*
X019068D01*
X01395Y027616D02*
Y02973D01*
X019068Y028797D02*
Y02973D01*
X01395Y02473D02*
Y029002D01*
Y02473D02*
X019068D01*
Y029159D01*
X01395Y029616D02*
Y03173D01*
X014249D01*
X019068Y030797D02*
Y03173D01*
X018477D02*
X019068D01*
X014249D02*
X018477D01*
X01395Y026769D02*
Y031002D01*
X019068Y026769D02*
Y031159D01*
X041626Y012347D02*
Y017465D01*
X043626Y012347D02*
Y017465D01*
X045626Y012347D02*
Y017465D01*
X042626Y012347D02*
X04474D01*
X042626Y017465D02*
X043559D01*
X043354Y012347D02*
X047626D01*
Y017465D01*
X043197D02*
X047626D01*
X040626Y012347D02*
X04274D01*
X040626D02*
Y012646D01*
Y017465D02*
X041559D01*
X040626Y016874D02*
Y017465D01*
Y012646D02*
Y016874D01*
X041354Y012347D02*
X045587D01*
X041197Y017465D02*
X045587D01*
X034476Y012347D02*
Y017465D01*
X036476Y012347D02*
Y017465D01*
X038476Y012347D02*
Y017465D01*
X035476Y012347D02*
X037591D01*
X035476Y017465D02*
X036409D01*
X036205Y012347D02*
X040476D01*
Y017465D01*
X036047D02*
X040476D01*
X033476Y012347D02*
X035591D01*
X033476D02*
Y012646D01*
Y017465D02*
X034409D01*
X033476Y016874D02*
Y017465D01*
Y012646D02*
Y016874D01*
X034205Y012347D02*
X038437D01*
X034047Y017465D02*
X038437D01*
X01395Y023612D02*
X019068D01*
X01395Y021612D02*
X019068D01*
X01395Y019612D02*
X019068D01*
X01395Y020498D02*
Y022612D01*
X019068Y021679D02*
Y022612D01*
X01395Y017612D02*
Y021884D01*
Y017612D02*
X019068D01*
Y022041D01*
X01395Y022498D02*
Y024612D01*
X014249D01*
X019068Y023679D02*
Y024612D01*
X018477D02*
X019068D01*
X014249D02*
X018477D01*
X01395Y019651D02*
Y023884D01*
X019068Y019651D02*
Y024041D01*
X020177Y012347D02*
Y017465D01*
X022177Y012347D02*
Y017465D01*
X024177Y012347D02*
Y017465D01*
X021177Y012347D02*
X023291D01*
X021177Y017465D02*
X02211D01*
X021905Y012347D02*
X026177D01*
Y017465D01*
X021748D02*
X026177D01*
X019177Y012347D02*
X021291D01*
X019177D02*
Y012646D01*
Y017465D02*
X02011D01*
X019177Y016874D02*
Y017465D01*
Y012646D02*
Y016874D01*
X019905Y012347D02*
X024138D01*
X019748Y017465D02*
X024138D01*
X027327Y012347D02*
Y017465D01*
X029327Y012347D02*
Y017465D01*
X031327Y012347D02*
Y017465D01*
X028327Y012347D02*
X030441D01*
X028327Y017465D02*
X02926D01*
X029055Y012347D02*
X033327D01*
Y017465D01*
X028898D02*
X033327D01*
X026327Y012347D02*
X028441D01*
X026327D02*
Y012646D01*
Y017465D02*
X02726D01*
X026327Y016874D02*
Y017465D01*
Y012646D02*
Y016874D01*
X027055Y012347D02*
X031287D01*
X026898Y017465D02*
X031287D01*
X02843Y038164D02*
Y040644D01*
X029808Y038164D02*
Y040644D01*
X02969Y038164D02*
X029808D01*
X02843D02*
X028548D01*
X02843Y040644D02*
X028548D01*
X02969D02*
X029808D01*
X040982Y046988D02*
Y047302D01*
Y046988D02*
X041218D01*
Y047302D01*
Y047086D02*
X041493D01*
X040706D02*
X040982D01*
X040706Y04811D02*
X040785D01*
X041415D02*
X041493D01*
X039879Y052812D02*
X042143Y052635D01*
X040056Y052989D02*
X04232Y052812D01*
X039879Y053166D02*
X042143Y052989D01*
X040056Y053344D02*
X04232Y053166D01*
X039879Y053521D02*
X042143Y053344D01*
X040056Y053698D02*
X04232Y053521D01*
X039879Y053875D02*
X042143Y053698D01*
X040056Y054052D02*
X04232Y053875D01*
X042143Y051481D02*
Y052635D01*
X04232Y052812D01*
X042143Y052989D02*
X04232Y052812D01*
X042143Y052989D02*
X04232Y053166D01*
X042143Y053344D02*
X04232Y053166D01*
X042143Y053344D02*
X04232Y053521D01*
X042143Y053698D02*
X04232Y053521D01*
X042143Y053698D02*
X04232Y053875D01*
X042143Y054052D02*
X04232Y053875D01*
X042143Y054052D02*
Y054525D01*
X040056D02*
X042143D01*
X040056Y054052D02*
Y054525D01*
X039879Y053875D02*
X040056Y054052D01*
X039879Y053875D02*
X040056Y053698D01*
X039879Y053521D02*
X040056Y053698D01*
X039879Y053521D02*
X040056Y053344D01*
X039879Y053166D02*
X040056Y053344D01*
X039879Y053166D02*
X040056Y052989D01*
X039879Y052812D02*
X040056Y052989D01*
X039879Y052812D02*
X040056Y052635D01*
Y051481D02*
Y052635D01*
X040624Y051178D02*
X041575D01*
X042371Y049431D02*
Y050382D01*
X040624Y048635D02*
X041575D01*
X039828Y049431D02*
Y050382D01*
X014751Y016384D02*
X015238Y015897D01*
X014751Y016384D02*
X015684Y017318D01*
X015238Y015897D02*
X016171Y016831D01*
X015684Y017318D02*
X016171Y016831D01*
X015322Y016747D02*
X0156Y016468D01*
X018331Y014665D02*
X018819Y014178D01*
X017885Y013245D02*
X018819Y014178D01*
X017398Y013732D02*
X018331Y014665D01*
X017398Y013732D02*
X017885Y013245D01*
X017969Y014094D02*
X018247Y013816D01*
X034994Y029747D02*
Y034912D01*
X032154Y033032D02*
X032494Y033372D01*
X032154Y033712D02*
X032494Y033372D01*
Y032197D02*
Y034912D01*
X032532Y030547D02*
Y030672D01*
X032244Y029462D02*
X032494D01*
X032244Y030282D02*
X032494D01*
X033122Y033962D02*
Y034912D01*
X034385Y033962D02*
Y034912D01*
X033154D02*
Y035032D01*
X034354D01*
Y034912D02*
Y035032D01*
X033122Y027832D02*
Y028782D01*
X034385Y027832D02*
Y028782D01*
X034354Y027712D02*
Y027832D01*
X033154Y027712D02*
Y027832D01*
Y027712D02*
X034354D01*
X033122Y028782D02*
X034385D01*
X032244Y029072D02*
Y030547D01*
X034994Y027832D02*
Y028922D01*
X032494Y027832D02*
X034994D01*
X032494D02*
Y030547D01*
X033122Y033962D02*
X034385D01*
X032244Y030547D02*
X032794D01*
X032154Y032197D02*
X032794D01*
X032494Y034912D02*
X034994D01*
X035354Y027432D02*
Y027692D01*
Y028052D02*
Y034692D01*
Y035052D02*
Y035312D01*
X032154D02*
X035354D01*
X032154Y030672D02*
Y035312D01*
Y030672D02*
X032532D01*
X032154Y029072D02*
X032244D01*
X032154Y027432D02*
Y029072D01*
Y027432D02*
X035354D01*
X031411Y021476D02*
X032789D01*
X031411Y023839D02*
X032789D01*
Y021476D02*
Y023839D01*
X031411Y021476D02*
Y023839D01*
X031805Y023278D02*
X032395D01*
X031805Y022067D02*
X032395D01*
X031805D02*
Y023278D01*
X032395Y022067D02*
Y023278D01*
X031728Y04628D02*
Y047286D01*
X031561Y046447D02*
Y047288D01*
X027777Y046447D02*
Y047288D01*
X02761Y04628D02*
Y047286D01*
Y04628D02*
X031728D01*
X027777Y046447D02*
X031561D01*
X02761Y04628D02*
X027777Y046447D01*
X031561D02*
X031728Y04628D01*
X025388Y044364D02*
X025525D01*
X02649Y045329D01*
X022435Y04842D02*
X023734D01*
X025191D02*
X02649D01*
X022435Y045329D02*
Y04842D01*
X02649Y045329D02*
Y04842D01*
X023399Y044364D02*
X023852D01*
X025073D02*
X025388D01*
X022435Y045329D02*
X023399Y044364D01*
X023785Y041144D02*
Y041931D01*
X025124Y041144D02*
Y041931D01*
X027399Y042567D02*
Y042655D01*
X029485Y042567D02*
Y042655D01*
X027399Y041553D02*
Y041642D01*
X029485Y041553D02*
Y041642D01*
X027399Y042655D02*
X029485D01*
X027399Y041553D02*
X029485D01*
X020098Y041191D02*
Y04128D01*
X022185Y041191D02*
Y04128D01*
X020098Y040177D02*
Y040266D01*
X022185Y040177D02*
Y040266D01*
X020098Y04128D02*
X022185D01*
X020098Y040177D02*
X022185D01*
X019684Y034252D02*
X020373D01*
Y032972D02*
Y034252D01*
X019684Y032972D02*
Y034252D01*
Y032972D02*
X020373D01*
X019831Y033612D02*
X020225D01*
X02715Y034213D02*
Y035591D01*
X024787Y034213D02*
Y035591D01*
X02715D01*
X024787Y034213D02*
X02715D01*
X025348Y034606D02*
Y035197D01*
X026559Y034606D02*
Y035197D01*
X025348Y034606D02*
X026559D01*
X025348Y035197D02*
X026559D01*
X023094Y037286D02*
X023763D01*
X023094Y037916D02*
X023763D01*
Y037286D02*
Y037916D01*
X029892Y034632D02*
Y035183D01*
X014679Y032563D02*
Y033252D01*
X015999D01*
X014679Y032563D02*
X015999D01*
Y033252D01*
X015339Y03271D02*
Y033104D01*
X016494Y03435D02*
X017183D01*
X016494D02*
Y03567D01*
X017183Y03435D02*
Y03567D01*
X016494D02*
X017183D01*
X016641Y03501D02*
X017035D01*
X015605Y03375D02*
Y034892D01*
X015349Y03375D02*
X015605D01*
X015349D02*
Y034892D01*
X015605D01*
X016494Y034252D02*
X017183D01*
Y032972D02*
Y034252D01*
X016494Y032972D02*
Y034252D01*
Y032972D02*
X017183D01*
X016641Y033612D02*
X017035D01*
X017331Y034252D02*
X01802D01*
Y032972D02*
Y034252D01*
X017331Y032972D02*
Y034252D01*
Y032972D02*
X01802D01*
X017479Y033612D02*
X017872D01*
X023808Y038186D02*
Y038875D01*
X022528Y038186D02*
X023808D01*
X022528Y038875D02*
X023808D01*
X022528Y038186D02*
Y038875D01*
X023168Y038334D02*
Y038728D01*
X025173Y038186D02*
Y038875D01*
X023893Y038186D02*
X025173D01*
X023893Y038875D02*
X025173D01*
X023893Y038186D02*
Y038875D01*
X024533Y038334D02*
Y038728D01*
X027324Y03264D02*
Y033329D01*
X026004Y03264D02*
X027324D01*
X026004Y033329D02*
X027324D01*
X026004Y03264D02*
Y033329D01*
X026664Y032787D02*
Y033181D01*
X024604Y03264D02*
Y033329D01*
X025924D01*
X024604Y03264D02*
X025924D01*
Y033329D01*
X025264Y032787D02*
Y033181D01*
X027093Y019146D02*
Y019834D01*
X028413D01*
X027093Y019146D02*
X028413D01*
Y019834D01*
X027753Y019293D02*
Y019687D01*
X025765Y019146D02*
Y019834D01*
X027085D01*
X025765Y019146D02*
X027085D01*
Y019834D01*
X026425Y019293D02*
Y019687D01*
X025765Y019146D02*
Y019834D01*
X024485Y019146D02*
X025765D01*
X024485Y019834D02*
X025765D01*
X024485Y019146D02*
Y019834D01*
X025125Y019293D02*
Y019687D01*
X024475Y019146D02*
Y019834D01*
X023195Y019146D02*
X024475D01*
X023195Y019834D02*
X024475D01*
X023195Y019146D02*
Y019834D01*
X023835Y019293D02*
Y019687D01*
X023185Y019146D02*
Y019834D01*
X021865Y019146D02*
X023185D01*
X021865Y019834D02*
X023185D01*
X021865Y019146D02*
Y019834D01*
X022525Y019293D02*
Y019687D01*
X019736Y022714D02*
X020424D01*
X019736D02*
Y024034D01*
X020424Y022714D02*
Y024034D01*
X019736D02*
X020424D01*
X019883Y023374D02*
X020277D01*
X019734Y025393D02*
X020423D01*
Y024114D02*
Y025393D01*
X019734Y024114D02*
Y025393D01*
Y024114D02*
X020423D01*
X019882Y024754D02*
X020275D01*
X019736Y02547D02*
X020424D01*
X019736D02*
Y02675D01*
X020424Y02547D02*
Y02675D01*
X019736D02*
X020424D01*
X019883Y02611D02*
X020277D01*
X019736Y026829D02*
X020424D01*
X019736D02*
Y028108D01*
X020424Y026829D02*
Y028108D01*
X019736D02*
X020424D01*
X019883Y027469D02*
X020277D01*
X027949Y02905D02*
Y029739D01*
X026629Y02905D02*
X027949D01*
X026629Y029739D02*
X027949D01*
X026629Y02905D02*
Y029739D01*
X027289Y029197D02*
Y029591D01*
X023934Y02905D02*
Y029739D01*
X025214D01*
X023934Y02905D02*
X025214D01*
Y029739D01*
X024574Y029197D02*
Y029591D01*
X023848Y02905D02*
Y029739D01*
X022569Y02905D02*
X023848D01*
X022569Y029739D02*
X023848D01*
X022569Y02905D02*
Y029739D01*
X023208Y029197D02*
Y029591D01*
X022488Y029044D02*
Y029733D01*
X021209Y029044D02*
X022488D01*
X021209Y029733D02*
X022488D01*
X021209Y029044D02*
Y029733D01*
X021848Y029192D02*
Y029585D01*
X029912Y030069D02*
X030601D01*
X029912D02*
Y031349D01*
X030601Y030069D02*
Y031349D01*
X029912D02*
X030601D01*
X03006Y030709D02*
X030454D01*
X029912Y029989D02*
X030601D01*
Y028669D02*
Y029989D01*
X029912Y028669D02*
Y029989D01*
Y028669D02*
X030601D01*
X03006Y029329D02*
X030454D01*
X029912Y026879D02*
X030601D01*
Y025599D02*
Y026879D01*
X029912Y025599D02*
Y026879D01*
Y025599D02*
X030601D01*
X03006Y026239D02*
X030454D01*
X029912Y024239D02*
X030601D01*
X029912D02*
Y025519D01*
X030601Y024239D02*
Y025519D01*
X029912D02*
X030601D01*
X03006Y024879D02*
X030454D01*
X029912Y024154D02*
X030601D01*
Y022834D02*
Y024154D01*
X029912Y022834D02*
Y024154D01*
Y022834D02*
X030601D01*
X03006Y023494D02*
X030454D01*
X029912Y021474D02*
X030601D01*
X029912D02*
Y022754D01*
X030601Y021474D02*
Y022754D01*
X029912D02*
X030601D01*
X03006Y022114D02*
X030454D01*
X029912Y021394D02*
X030601D01*
Y020074D02*
Y021394D01*
X029912Y020074D02*
Y021394D01*
Y020074D02*
X030601D01*
X03006Y020734D02*
X030454D01*
X0213Y043193D02*
Y048115D01*
X018111Y043193D02*
X0213D01*
X018111D02*
Y048115D01*
X019154Y049296D02*
X020257D01*
X020906Y048559D02*
X0213Y048115D01*
X020257Y049296D02*
X020611Y048894D01*
X018111Y048115D02*
X018505Y048559D01*
X0188Y048894D02*
X019154Y049296D01*
X048859Y043193D02*
Y048115D01*
X04567Y043193D02*
X048859D01*
X04567D02*
Y048115D01*
X046713Y049296D02*
X047816D01*
X048465Y048559D02*
X048859Y048115D01*
X047816Y049296D02*
X04817Y048894D01*
X04567Y048115D02*
X046064Y048559D01*
X046359Y048894D02*
X046713Y049296D01*
X014056Y036241D02*
X01878D01*
X014056D02*
Y042241D01*
X01878D01*
Y036241D02*
Y042241D01*
X04819Y04224D02*
X052914D01*
Y03624D02*
Y04224D01*
X04819Y03624D02*
X052914D01*
X04819D02*
Y04224D01*
D15*
X031963Y033372D02*
G03*
X031963Y033372I-000059J0D01*
G01*
X019725Y049552D02*
G03*
X019725Y049552I-000059J0D01*
G01*
X047284D02*
G03*
X047284Y049552I-000059J0D01*
G01*
X033079Y039213D02*
G03*
X033079Y040024I0J000405D01*
G01*
Y04D02*
G03*
X033079Y040811I0J000405D01*
G01*
Y040788D02*
G03*
X033079Y041598I0J000405D01*
G01*
X03554Y042061D02*
G03*
X034734Y042866I-000805J0D01*
G01*
X031424Y042866D02*
G03*
X030619Y042061I0J-000805D01*
G01*
Y038819D02*
G03*
X031492Y037945I000874J0D01*
G01*
X0348D02*
G03*
X03554Y038684I0J000739D01*
G01*
X015113Y013682D02*
G03*
X016424Y013682I000655J000437D01*
G01*
X016424Y014555D02*
G03*
X015113Y014555I-000655J-000437D01*
G01*
X014884Y013529D02*
G03*
X016653Y013529I000884J00059D01*
G01*
X014917Y013551D02*
G03*
X01662Y013551I000852J000568D01*
G01*
X01495Y013573D02*
G03*
X016587Y013573I000819J000546D01*
G01*
X01495D02*
G03*
X016587Y013573I000819J000546D01*
G01*
X014982Y013594D02*
G03*
X016555Y013594I000786J000524D01*
G01*
X015015Y013616D02*
G03*
X016522Y013616I000753J000502D01*
G01*
X015015D02*
G03*
X016522Y013616I000753J000502D01*
G01*
X015048Y013638D02*
G03*
X016489Y013638I000721J00048D01*
G01*
X015081Y01366D02*
G03*
X016456Y01366I000688J000459D01*
G01*
X015162Y013714D02*
G03*
X016375Y013714I000606J000404D01*
G01*
X016372Y014521D02*
G03*
X015165Y014521I-000604J-0004D01*
G01*
X016456Y014577D02*
G03*
X015081Y014577I-000688J-000459D01*
G01*
X016489Y014599D02*
G03*
X015048Y014599I-000721J-00048D01*
G01*
X016522Y014621D02*
G03*
X015015Y014621I-000753J-000502D01*
G01*
X016522D02*
G03*
X015015Y014621I-000753J-000502D01*
G01*
X016555Y014643D02*
G03*
X014982Y014643I-000786J-000524D01*
G01*
X016587Y014664D02*
G03*
X01495Y014664I-000819J-000546D01*
G01*
X016587D02*
G03*
X01495Y014664I-000819J-000546D01*
G01*
X01662Y014686D02*
G03*
X014917Y014686I-000852J-000568D01*
G01*
X016653Y014708D02*
G03*
X014884Y014708I-000884J-00059D01*
G01*
X016832Y014118D02*
G03*
X016832Y014118I-001064J0D01*
G01*
X015113Y049115D02*
G03*
X016424Y049115I000655J000437D01*
G01*
X016424Y049988D02*
G03*
X015113Y049988I-000655J-000437D01*
G01*
X014884Y048962D02*
G03*
X016653Y048962I000884J00059D01*
G01*
X014917Y048984D02*
G03*
X01662Y048984I000852J000568D01*
G01*
X01495Y049006D02*
G03*
X016587Y049006I000819J000546D01*
G01*
X01495D02*
G03*
X016587Y049006I000819J000546D01*
G01*
X014982Y049027D02*
G03*
X016555Y049027I000786J000524D01*
G01*
X015015Y049049D02*
G03*
X016522Y049049I000753J000502D01*
G01*
X015015D02*
G03*
X016522Y049049I000753J000502D01*
G01*
X015048Y049071D02*
G03*
X016489Y049071I000721J00048D01*
G01*
X015081Y049093D02*
G03*
X016456Y049093I000688J000459D01*
G01*
X015162Y049148D02*
G03*
X016375Y049148I000606J000404D01*
G01*
X016372Y049954D02*
G03*
X015165Y049954I-000604J-0004D01*
G01*
X016456Y05001D02*
G03*
X015081Y05001I-000688J-000459D01*
G01*
X016489Y050032D02*
G03*
X015048Y050032I-000721J-00048D01*
G01*
X016522Y050054D02*
G03*
X015015Y050054I-000753J-000502D01*
G01*
X016522D02*
G03*
X015015Y050054I-000753J-000502D01*
G01*
X016555Y050076D02*
G03*
X014982Y050076I-000786J-000524D01*
G01*
X016587Y050098D02*
G03*
X01495Y050098I-000819J-000546D01*
G01*
X016587D02*
G03*
X01495Y050098I-000819J-000546D01*
G01*
X01662Y050119D02*
G03*
X014917Y050119I-000852J-000568D01*
G01*
X016653Y050141D02*
G03*
X014884Y050141I-000884J-00059D01*
G01*
X016832Y049552D02*
G03*
X016832Y049552I-001064J0D01*
G01*
X050546Y049115D02*
G03*
X051857Y049115I000655J000437D01*
G01*
X051857Y049988D02*
G03*
X050546Y049988I-000655J-000437D01*
G01*
X050317Y048962D02*
G03*
X052086Y048962I000884J00059D01*
G01*
X05035Y048984D02*
G03*
X052053Y048984I000852J000568D01*
G01*
X050383Y049006D02*
G03*
X052021Y049006I000819J000546D01*
G01*
X050383D02*
G03*
X052021Y049006I000819J000546D01*
G01*
X050415Y049027D02*
G03*
X051988Y049027I000786J000524D01*
G01*
X050448Y049049D02*
G03*
X051955Y049049I000753J000502D01*
G01*
X050448D02*
G03*
X051955Y049049I000753J000502D01*
G01*
X050481Y049071D02*
G03*
X051922Y049071I000721J00048D01*
G01*
X050514Y049093D02*
G03*
X051889Y049093I000688J000459D01*
G01*
X050596Y049148D02*
G03*
X051808Y049148I000606J000404D01*
G01*
X051806Y049954D02*
G03*
X050598Y049954I-000604J-0004D01*
G01*
X051889Y05001D02*
G03*
X050514Y05001I-000688J-000459D01*
G01*
X051922Y050032D02*
G03*
X050481Y050032I-000721J-00048D01*
G01*
X051955Y050054D02*
G03*
X050448Y050054I-000753J-000502D01*
G01*
X051955D02*
G03*
X050448Y050054I-000753J-000502D01*
G01*
X051988Y050076D02*
G03*
X050415Y050076I-000786J-000524D01*
G01*
X052021Y050098D02*
G03*
X050383Y050098I-000819J-000546D01*
G01*
X052021D02*
G03*
X050383Y050098I-000819J-000546D01*
G01*
X052053Y050119D02*
G03*
X05035Y050119I-000852J-000568D01*
G01*
X052086Y050141D02*
G03*
X050317Y050141I-000884J-00059D01*
G01*
X052265Y049552D02*
G03*
X052265Y049552I-001064J0D01*
G01*
X050546Y013682D02*
G03*
X051857Y013682I000655J000437D01*
G01*
X051857Y014555D02*
G03*
X050546Y014555I-000655J-000437D01*
G01*
X050317Y013529D02*
G03*
X052086Y013529I000884J00059D01*
G01*
X05035Y013551D02*
G03*
X052053Y013551I000852J000568D01*
G01*
X050383Y013573D02*
G03*
X052021Y013573I000819J000546D01*
G01*
X050383D02*
G03*
X052021Y013573I000819J000546D01*
G01*
X050415Y013594D02*
G03*
X051988Y013594I000786J000524D01*
G01*
X050448Y013616D02*
G03*
X051955Y013616I000753J000502D01*
G01*
X050448D02*
G03*
X051955Y013616I000753J000502D01*
G01*
X050481Y013638D02*
G03*
X051922Y013638I000721J00048D01*
G01*
X050514Y01366D02*
G03*
X051889Y01366I000688J000459D01*
G01*
X050596Y013714D02*
G03*
X051808Y013714I000606J000404D01*
G01*
X051806Y014521D02*
G03*
X050598Y014521I-000604J-0004D01*
G01*
X051889Y014577D02*
G03*
X050514Y014577I-000688J-000459D01*
G01*
X051922Y014599D02*
G03*
X050481Y014599I-000721J-00048D01*
G01*
X051955Y014621D02*
G03*
X050448Y014621I-000753J-000502D01*
G01*
X051955D02*
G03*
X050448Y014621I-000753J-000502D01*
G01*
X051988Y014643D02*
G03*
X050415Y014643I-000786J-000524D01*
G01*
X052021Y014664D02*
G03*
X050383Y014664I-000819J-000546D01*
G01*
X052021D02*
G03*
X050383Y014664I-000819J-000546D01*
G01*
X052053Y014686D02*
G03*
X05035Y014686I-000852J-000568D01*
G01*
X052086Y014708D02*
G03*
X050317Y014708I-000884J-00059D01*
G01*
X052265Y014118D02*
G03*
X052265Y014118I-001064J0D01*
G01*
X033079Y041598D02*
Y041665D01*
Y039146D02*
Y039213D01*
X03426Y042866D02*
X034734D01*
X031424D02*
X031898D01*
X030619Y038819D02*
Y042061D01*
X031492Y037945D02*
X031898D01*
X03554Y038684D02*
Y042061D01*
X03426Y037945D02*
X0348D01*
D16*
X023068Y033885D02*
G03*
X023068Y033885I-001J0D01*
G01*
X021868Y033335D02*
X021918Y033285D01*
X021818Y033235D02*
X021868Y033335D01*
X021892Y033309D02*
X021918Y033285D01*
X021818Y033235D02*
X021918Y033285D01*
X021818Y033235D02*
X021968Y033385D01*
X022018Y033285D01*
X022118Y033385D01*
X021768Y033485D02*
X021818Y033435D01*
X021718Y033385D02*
X021768Y033485D01*
X021792Y033459D02*
X021818Y033435D01*
X021718Y033385D02*
X021818Y033435D01*
X021718Y033385D02*
X021868Y033535D01*
X021918Y033435D01*
X022018Y033535D01*
D17*
X02466Y032355D02*
G03*
X024669Y030623I000006J-000866D01*
G01*
X027269D02*
G03*
X027269Y032354I-000035J000865D01*
G01*
X027893Y045594D02*
X027963Y045524D01*
X027833Y045534D02*
X027903Y045464D01*
X024669Y032353D02*
X027318D01*
X024669Y030623D02*
X027269D01*
X025768Y031143D02*
Y031893D01*
X025468Y031533D02*
X025768D01*
X026179Y031143D02*
Y031883D01*
Y031533D02*
X026488D01*
X03474Y02055D02*
Y02355D01*
X03374Y02055D02*
X03474D01*
X03374D02*
Y02355D01*
X03474D01*
X03375Y0215D02*
X03474D01*
D18*
X036249Y023449D02*
D03*
Y024449D02*
D03*
Y025449D02*
D03*
Y026449D02*
D03*
D19*
X037862Y038902D02*
X037952D01*
X037862Y038912D02*
X037952D01*
X037862Y038892D02*
X037952D01*
X037862Y038932D02*
X037952D01*
X037862Y038942D02*
X037952D01*
X037862Y038922D02*
X037952D01*
X037862Y038962D02*
X037952D01*
X037862Y038972D02*
X037952D01*
X037862Y038982D02*
X037952D01*
X037862Y038992D02*
X037952D01*
X037862Y039002D02*
X037952D01*
X037862Y039012D02*
X037952D01*
X037862Y039032D02*
X037952D01*
X037862Y039042D02*
X037952D01*
X037862Y039052D02*
X037952D01*
X037862Y039062D02*
X037952D01*
X037862Y039022D02*
X037952D01*
X037862Y039082D02*
X037952D01*
X037862Y039092D02*
X037952D01*
X037862Y039192D02*
X037952D01*
X037862Y039202D02*
X037952D01*
X037862Y039212D02*
X037952D01*
X037862Y039222D02*
X037952D01*
X037862Y039112D02*
X037952D01*
X037862Y039122D02*
X037952D01*
X037862Y039132D02*
X037952D01*
X037862Y039142D02*
X037952D01*
X037862Y039152D02*
X037952D01*
X037862Y039162D02*
X037952D01*
X037862Y039172D02*
X037952D01*
X037862Y039182D02*
X037952D01*
X037722Y039232D02*
X038082D01*
X037722Y039242D02*
X038082D01*
X037722Y039252D02*
X038082D01*
X037722Y039262D02*
X038082D01*
X037722Y039272D02*
X038082D01*
X037722Y039282D02*
X038082D01*
X037722Y039292D02*
X038082D01*
X037722Y039302D02*
X038082D01*
X037862Y039102D02*
X037952D01*
X037862Y039072D02*
X037952D01*
X037782Y040472D02*
X038152D01*
X037772Y040482D02*
X038152D01*
X037772Y040502D02*
X038142D01*
X037772Y040512D02*
X038142D01*
X037772Y040492D02*
X038142D01*
X037762Y040542D02*
X038122D01*
X037762Y040532D02*
X038132D01*
X037762Y040522D02*
X038132D01*
X037782Y040452D02*
X038162D01*
X037782Y040462D02*
X038162D01*
X037752Y040562D02*
X038122D01*
X037752Y040572D02*
X038122D01*
X037752Y040582D02*
X038112D01*
X037752Y040592D02*
X038112D01*
X037752Y040602D02*
X038112D01*
X037742Y040612D02*
X038102D01*
X037742Y040632D02*
X038102D01*
X037742Y040642D02*
X038102D01*
X037742Y040652D02*
X038102D01*
X037742Y040662D02*
X038092D01*
X037742Y040622D02*
X038102D01*
X037732Y040682D02*
X038092D01*
X037732Y040692D02*
X038092D01*
X037732Y040942D02*
X038092D01*
X037732Y040952D02*
X038092D01*
X037732Y040962D02*
X038092D01*
X037732Y040972D02*
X038092D01*
X037742Y040982D02*
X038092D01*
X037742Y040992D02*
X038092D01*
X037742Y041002D02*
X038102D01*
X037742Y041012D02*
X038102D01*
X037742Y041022D02*
X038102D01*
X037742Y041032D02*
X038102D01*
X037742Y041042D02*
X038102D01*
X037732Y040712D02*
X038092D01*
X037732Y040792D02*
X038082D01*
X037732Y040802D02*
X038082D01*
X037732Y040812D02*
X038082D01*
X037732Y040822D02*
X038082D01*
X037732Y040832D02*
X038082D01*
X037732Y040842D02*
X038082D01*
X037732Y040852D02*
X038082D01*
X037732Y040862D02*
X038082D01*
X037732Y040872D02*
X038082D01*
X037732Y040882D02*
X038082D01*
X037732Y040892D02*
X038082D01*
X037732Y040902D02*
X038082D01*
X037732Y040912D02*
X038082D01*
X037732Y040922D02*
X038082D01*
X037732Y040932D02*
X038082D01*
X037732Y040722D02*
X038082D01*
X037732Y040732D02*
X038082D01*
X037732Y040742D02*
X038082D01*
X037732Y040752D02*
X038082D01*
X037732Y040762D02*
X038082D01*
X037732Y040772D02*
X038082D01*
X037732Y040782D02*
X038082D01*
X037752Y041062D02*
X038112D01*
X037752Y041072D02*
X038112D01*
X037752Y041082D02*
X038122D01*
X037752Y041092D02*
X038122D01*
X037752Y041052D02*
X038112D01*
X037762Y041122D02*
X038132D01*
X037762Y041132D02*
X038132D01*
X037762Y041142D02*
X038142D01*
X037772Y041152D02*
X038142D01*
X037772Y041162D02*
X038142D01*
X037772Y041172D02*
X038152D01*
X037782Y041182D02*
X038152D01*
X037762Y041112D02*
X038122D01*
X037782Y041192D02*
X038162D01*
X037782Y041202D02*
X038162D01*
X037762Y041102D02*
X038122D01*
X037732Y040702D02*
X038092D01*
X037742Y040672D02*
X038092D01*
X038452Y038902D02*
X038782D01*
X038452Y038912D02*
X038782D01*
X038452Y038892D02*
X038782D01*
X038452Y038932D02*
X038782D01*
X038452Y038942D02*
X038782D01*
X038452Y038922D02*
X038782D01*
X038452Y038972D02*
X038532D01*
X038452Y038982D02*
X038532D01*
X038452Y038992D02*
X038532D01*
X038452Y039002D02*
X038532D01*
X038452Y039012D02*
X038532D01*
X038452Y039032D02*
X038532D01*
X038452Y039042D02*
X038532D01*
X038452Y039052D02*
X038532D01*
X038452Y039022D02*
X038532D01*
X038452Y039192D02*
X038532D01*
X038452Y039202D02*
X038532D01*
X038452Y039212D02*
X038532D01*
X038452Y039222D02*
X038532D01*
X038452Y039142D02*
X038532D01*
X038452Y039152D02*
X038532D01*
X038452Y039162D02*
X038532D01*
X038452Y039172D02*
X038532D01*
X038452Y039182D02*
X038532D01*
X038452Y038962D02*
X038782D01*
X038452Y039062D02*
X038752D01*
X038452Y039082D02*
X038752D01*
X038452Y039092D02*
X038752D01*
X038452Y039232D02*
X038782D01*
X038452Y039242D02*
X038782D01*
X038452Y039252D02*
X038782D01*
X038452Y039262D02*
X038782D01*
X038452Y039272D02*
X038782D01*
X038452Y039282D02*
X038782D01*
X038452Y039292D02*
X038782D01*
X038452Y039302D02*
X038782D01*
X038452Y039112D02*
X038752D01*
X038452Y039122D02*
X038752D01*
X038452Y039132D02*
X038752D01*
X038452Y039102D02*
X038752D01*
X038452Y039072D02*
X038752D01*
X039312Y038892D02*
X039402D01*
X039272Y038902D02*
X039432D01*
X039252Y038912D02*
X039462D01*
X039222Y038932D02*
X039492D01*
X039242Y038922D02*
X039472D01*
X039212Y038942D02*
X039502D01*
X039442Y039012D02*
X039462D01*
X039362Y038972D02*
X039502D01*
X039402Y038982D02*
X039492D01*
X039422Y038992D02*
X039482D01*
X039432Y039002D02*
X039472D01*
X039172Y038992D02*
X039292D01*
X039172Y039002D02*
X039282D01*
X039162Y039012D02*
X039272D01*
X039182Y038972D02*
X039352D01*
X039182Y038982D02*
X039312D01*
X039192Y038962D02*
X039512D01*
X039152Y039032D02*
X039252D01*
X039152Y039042D02*
X039242D01*
X039152Y039052D02*
X039242D01*
X039152Y039062D02*
X039242D01*
X039162Y039022D02*
X039262D01*
X039142Y039082D02*
X039232D01*
X039142Y039092D02*
X039232D01*
X039142Y039112D02*
X039232D01*
X039152Y039122D02*
X039232D01*
X039152Y039132D02*
X039232D01*
X039442Y039182D02*
X039462D01*
X039302Y039302D02*
X039412D01*
X039432Y039192D02*
X039472D01*
X039422Y039202D02*
X039482D01*
X039402Y039212D02*
X039492D01*
X039372Y039222D02*
X039492D01*
X039252Y039282D02*
X039462D01*
X039272Y039292D02*
X039442D01*
X039142Y039102D02*
X039232D01*
X039222Y039262D02*
X039492D01*
X039232Y039272D02*
X039472D01*
X039172Y039192D02*
X039272D01*
X039172Y039202D02*
X039292D01*
X039152Y039142D02*
X039242D01*
X039152Y039152D02*
X039242D01*
X039152Y039162D02*
X039252D01*
X039162Y039172D02*
X039262D01*
X039162Y039182D02*
X039262D01*
X039182Y039212D02*
X039312D01*
X039182Y039222D02*
X039342D01*
X039192Y039232D02*
X039502D01*
X039202Y039242D02*
X039502D01*
X039212Y039252D02*
X039502D01*
X039152Y039072D02*
X039232D01*
X039072Y040062D02*
X039422D01*
X039072Y040072D02*
X039422D01*
X039062Y040082D02*
X039412D01*
X039052Y040092D02*
X039402D01*
X039052Y040102D02*
X039392D01*
X039042Y040112D02*
X039392D01*
X039032Y040122D02*
X039382D01*
X039032Y040132D02*
X039372D01*
X039022Y040142D02*
X039372D01*
X039012Y040152D02*
X039362D01*
X039012Y040162D02*
X039352D01*
X039002Y040172D02*
X039352D01*
X038992Y040182D02*
X039342D01*
X038992Y040192D02*
X039332D01*
X038982Y040202D02*
X039332D01*
X039122Y039992D02*
X039472D01*
X039112Y040002D02*
X039462D01*
X039112Y040012D02*
X039462D01*
X039102Y040022D02*
X039452D01*
X039092Y040032D02*
X039442D01*
X039092Y040042D02*
X039442D01*
X039082Y040052D02*
X039432D01*
X039092Y039922D02*
X039522D01*
X039162Y039932D02*
X039512D01*
X039152Y039942D02*
X039502D01*
X039152Y039952D02*
X039502D01*
X039142Y039962D02*
X039492D01*
X039132Y039972D02*
X039482D01*
X039132Y039982D02*
X039482D01*
X039872Y038902D02*
X039962D01*
X039872Y038912D02*
X039962D01*
X039872Y038892D02*
X039962D01*
X039872Y038932D02*
X039962D01*
X039872Y038942D02*
X039962D01*
X039872Y038922D02*
X039962D01*
X040182Y038902D02*
X040262D01*
X040182Y038912D02*
X040262D01*
X040182Y038892D02*
X040262D01*
X040182Y038932D02*
X040262D01*
X040182Y038942D02*
X040262D01*
X040182Y038922D02*
X040262D01*
X039872Y038962D02*
X039962D01*
X039872Y038972D02*
X039962D01*
X039872Y038982D02*
X039962D01*
X039872Y038992D02*
X039962D01*
X039872Y039002D02*
X039962D01*
X039872Y039012D02*
X039962D01*
X039872Y039032D02*
X039962D01*
X039872Y039042D02*
X039962D01*
X039872Y039052D02*
X039962D01*
X039872Y039022D02*
X039962D01*
X040182Y038962D02*
X040262D01*
X040182Y038972D02*
X040262D01*
X040182Y038982D02*
X040262D01*
X040182Y038992D02*
X040262D01*
X040182Y039002D02*
X040262D01*
X040182Y039012D02*
X040262D01*
X040182Y039032D02*
X040262D01*
X040182Y039042D02*
X040262D01*
X040182Y039052D02*
X040262D01*
X040182Y039022D02*
X040262D01*
X039872Y039062D02*
X040262D01*
X039872Y039192D02*
X039962D01*
X039872Y039202D02*
X039962D01*
X039872Y039212D02*
X039962D01*
X039872Y039222D02*
X039962D01*
X039872Y039232D02*
X039962D01*
X039872Y039242D02*
X039962D01*
X039872Y039252D02*
X039962D01*
X039872Y039262D02*
X039962D01*
X039872Y039272D02*
X039962D01*
X039872Y039282D02*
X039962D01*
X039872Y039292D02*
X039962D01*
X039872Y039302D02*
X039962D01*
X039872Y039142D02*
X039962D01*
X039872Y039152D02*
X039962D01*
X039872Y039162D02*
X039962D01*
X039872Y039172D02*
X039962D01*
X039872Y039182D02*
X039962D01*
X040182Y039192D02*
X040262D01*
X040182Y039202D02*
X040262D01*
X040182Y039212D02*
X040262D01*
X040182Y039222D02*
X040262D01*
X040182Y039232D02*
X040262D01*
X040182Y039242D02*
X040262D01*
X040182Y039252D02*
X040262D01*
X040182Y039262D02*
X040262D01*
X040182Y039272D02*
X040262D01*
X040182Y039282D02*
X040262D01*
X040182Y039292D02*
X040262D01*
X040182Y039302D02*
X040262D01*
X040182Y039142D02*
X040262D01*
X040182Y039152D02*
X040262D01*
X040182Y039162D02*
X040262D01*
X040182Y039172D02*
X040262D01*
X040182Y039182D02*
X040262D01*
X039872Y039082D02*
X040262D01*
X039872Y039092D02*
X040262D01*
X039872Y039112D02*
X040262D01*
X039872Y039122D02*
X040262D01*
X039872Y039132D02*
X040262D01*
X039872Y039102D02*
X040262D01*
X039872Y039072D02*
X040262D01*
X039832Y039992D02*
X039952D01*
X039822Y040002D02*
X039962D01*
X039812Y040012D02*
X039972D01*
X039812Y040022D02*
X039982D01*
X039802Y040032D02*
X039982D01*
X039792Y040042D02*
X039992D01*
X039782Y040052D02*
X040002D01*
X039872Y039922D02*
X039882D01*
X039872Y039932D02*
X039892D01*
X039862Y039942D02*
X039902D01*
X039852Y039952D02*
X039912D01*
X039852Y039962D02*
X039922D01*
X039842Y039972D02*
X039932D01*
X039832Y039982D02*
X039942D01*
X039782Y040062D02*
X040012D01*
X039782Y040352D02*
X040172D01*
X039782Y040362D02*
X040182D01*
X039792Y040372D02*
X040182D01*
X039792Y040382D02*
X040182D01*
X039802Y040392D02*
X040192D01*
X039802Y040402D02*
X040192D01*
X039812Y040412D02*
X040192D01*
X039812Y040422D02*
X040202D01*
X039822Y040432D02*
X040202D01*
X039822Y040442D02*
X040202D01*
X039832Y040452D02*
X040212D01*
X039832Y040462D02*
X040212D01*
X039842Y040472D02*
X040212D01*
X039842Y040482D02*
X040222D01*
X039852Y040502D02*
X040222D01*
X039852Y040512D02*
X040222D01*
X039852Y040492D02*
X040222D01*
X039872Y040542D02*
X040232D01*
X039862Y040532D02*
X040232D01*
X039862Y040522D02*
X040232D01*
X039872Y040562D02*
X040242D01*
X039872Y040572D02*
X040242D01*
X039882Y040582D02*
X040242D01*
X039882Y040592D02*
X040242D01*
X039882Y040602D02*
X040242D01*
X039892Y040612D02*
X040252D01*
X039892Y040632D02*
X040252D01*
X039892Y040642D02*
X040252D01*
X039892Y040652D02*
X040252D01*
X039902Y040662D02*
X040252D01*
X039892Y040622D02*
X040252D01*
X039902Y040682D02*
X040252D01*
X039902Y040692D02*
X040262D01*
X039912Y040792D02*
X040262D01*
X039912Y040802D02*
X040262D01*
X039912Y040812D02*
X040262D01*
X039912Y040822D02*
X040262D01*
X039912Y040832D02*
X040262D01*
X039912Y040842D02*
X040262D01*
X039912Y040852D02*
X040262D01*
X039912Y040862D02*
X040262D01*
X039912Y040872D02*
X040262D01*
X039912Y040882D02*
X040262D01*
X039912Y040892D02*
X040262D01*
X039912Y040902D02*
X040262D01*
X039912Y040912D02*
X040262D01*
X039912Y040922D02*
X040262D01*
X039902Y040932D02*
X040262D01*
X039902Y040942D02*
X040262D01*
X039902Y040952D02*
X040262D01*
X039902Y040962D02*
X040262D01*
X039902Y040972D02*
X040262D01*
X039902Y040982D02*
X040252D01*
X039902Y040992D02*
X040252D01*
X039892Y041002D02*
X040252D01*
X039892Y041012D02*
X040252D01*
X039892Y041022D02*
X040252D01*
X039892Y041032D02*
X040252D01*
X039892Y041042D02*
X040252D01*
X039902Y040712D02*
X040262D01*
X039912Y040722D02*
X040262D01*
X039912Y040732D02*
X040262D01*
X039912Y040742D02*
X040262D01*
X039912Y040752D02*
X040262D01*
X039912Y040762D02*
X040262D01*
X039912Y040772D02*
X040262D01*
X039912Y040782D02*
X040262D01*
X039882Y041062D02*
X040242D01*
X039882Y041072D02*
X040242D01*
X039872Y041082D02*
X040242D01*
X039872Y041092D02*
X040242D01*
X039882Y041052D02*
X040242D01*
X039852Y041152D02*
X040222D01*
X039852Y041162D02*
X040222D01*
X039842Y041172D02*
X040222D01*
X039842Y041182D02*
X040212D01*
X039832Y041192D02*
X040212D01*
X039832Y041202D02*
X040212D01*
X039822Y041212D02*
X040212D01*
X039822Y041222D02*
X040202D01*
X039812Y041232D02*
X040202D01*
X039812Y041242D02*
X040202D01*
X039802Y041252D02*
X040192D01*
X039802Y041262D02*
X040192D01*
X039792Y041272D02*
X040192D01*
X039792Y041282D02*
X040182D01*
X039782Y041302D02*
X040172D01*
X039782Y041292D02*
X040182D01*
X039862Y041122D02*
X040232D01*
X039862Y041132D02*
X040232D01*
X039852Y041142D02*
X040232D01*
X039862Y041112D02*
X040232D01*
X039872Y041102D02*
X040232D01*
X039902Y040702D02*
X040262D01*
X039902Y040672D02*
X040252D01*
X037862Y038952D02*
X037952D01*
X037762Y040552D02*
X038122D01*
X038452Y038952D02*
X038782D01*
X039202D02*
X039512D01*
X039872D02*
X039962D01*
X040182D02*
X040262D01*
X039872Y040552D02*
X040232D01*
X038832Y039572D02*
X039162D01*
X038952Y039562D02*
X039042D01*
X038762Y039582D02*
X039232D01*
X038712Y039592D02*
X039282D01*
X038672Y039602D02*
X039322D01*
X038642Y039612D02*
X039352D01*
X038602Y039622D02*
X039392D01*
X038572Y039632D02*
X039422D01*
X038552Y039642D02*
X039442D01*
X038522Y039652D02*
X039472D01*
X038502Y039662D02*
X039492D01*
X038472Y039672D02*
X039522D01*
X038452Y039682D02*
X039542D01*
X038412Y039702D02*
X039582D01*
X038392Y039712D02*
X039602D01*
X038432Y039692D02*
X039562D01*
X038342Y039742D02*
X039632D01*
X038362Y039732D02*
X039632D01*
X038372Y039722D02*
X039622D01*
X037982Y040062D02*
X038502D01*
X037982Y040072D02*
X038492D01*
X037972Y040082D02*
X038472D01*
X037962Y040092D02*
X038462D01*
X038032Y040002D02*
X038612D01*
X038022Y040012D02*
X038592D01*
X038012Y040022D02*
X038572D01*
X038012Y040032D02*
X038552D01*
X038002Y040042D02*
X038532D01*
X037992Y040052D02*
X038522D01*
X038042Y039992D02*
X038632D01*
X038082Y039952D02*
X038742D01*
X038072Y039962D02*
X038712D01*
X038062Y039972D02*
X038682D01*
X038052Y039982D02*
X038662D01*
X038972Y040212D02*
X039322D01*
X038812Y040242D02*
X039302D01*
X038882Y040222D02*
X039312D01*
X038842Y040232D02*
X039312D01*
X038782Y040252D02*
X039292D01*
X039772Y040072D02*
X040012D01*
X039762Y040082D02*
X040022D01*
X039762Y040092D02*
X040032D01*
X039692Y040192D02*
X040092D01*
X039682Y040202D02*
X040102D01*
X039682Y040212D02*
X040102D01*
X039752Y040102D02*
X040042D01*
X039742Y040112D02*
X040042D01*
X039742Y040122D02*
X040052D01*
X039732Y040132D02*
X040062D01*
X039722Y040142D02*
X040062D01*
X039722Y040152D02*
X040072D01*
X039712Y040162D02*
X040082D01*
X039702Y040172D02*
X040082D01*
X039702Y040182D02*
X040092D01*
X039682Y040222D02*
X040112D01*
X039692Y040232D02*
X040122D01*
X039702Y040242D02*
X040122D01*
X039712Y040262D02*
X040132D01*
X039722Y040272D02*
X040142D01*
X039732Y040282D02*
X040142D01*
X039742Y040292D02*
X040152D01*
X039702Y040252D02*
X040132D01*
X039752Y040312D02*
X040152D01*
X039762Y040322D02*
X040162D01*
X039762Y040332D02*
X040162D01*
X039742Y040302D02*
X040152D01*
X038262Y039792D02*
X039602D01*
X038252Y039802D02*
X039602D01*
X038232Y039812D02*
X039592D01*
X038212Y039832D02*
X039582D01*
X038202Y039842D02*
X039572D01*
X038182Y039852D02*
X039562D01*
X038172Y039862D02*
X039562D01*
X038222Y039822D02*
X039582D01*
X038312Y039762D02*
X039622D01*
X038292Y039772D02*
X039622D01*
X038282Y039782D02*
X039612D01*
X037922Y040152D02*
X038382D01*
X037912Y040162D02*
X038372D01*
X037912Y040172D02*
X038362D01*
X037902Y040182D02*
X038352D01*
X037902Y040192D02*
X038342D01*
X037892Y040202D02*
X038332D01*
X037892Y040212D02*
X038322D01*
X037882Y040222D02*
X038312D01*
X037872Y040232D02*
X038302D01*
X037872Y040242D02*
X038292D01*
X037932Y040142D02*
X038392D01*
X037862Y040262D02*
X038282D01*
X037852Y040272D02*
X038272D01*
X037852Y040282D02*
X038262D01*
X037842Y040292D02*
X038262D01*
X037862Y040252D02*
X038292D01*
X037842Y040312D02*
X038242D01*
X037832Y040322D02*
X038232D01*
X037832Y040332D02*
X038232D01*
X037822Y040342D02*
X038222D01*
X037822Y040352D02*
X038212D01*
X037812Y040362D02*
X038212D01*
X037812Y040372D02*
X038202D01*
X037812Y040382D02*
X038202D01*
X037802Y040392D02*
X038192D01*
X037802Y040402D02*
X038192D01*
X037802Y040412D02*
X038182D01*
X037792Y040422D02*
X038182D01*
X037792Y040432D02*
X038172D01*
X037792Y040442D02*
X038172D01*
X037842Y040302D02*
X038252D01*
X037952Y040112D02*
X038432D01*
X037942Y040122D02*
X038422D01*
X037932Y040132D02*
X038412D01*
X038152Y039882D02*
X039542D01*
X038142Y039892D02*
X039542D01*
X037952Y040102D02*
X038442D01*
X038122Y039912D02*
X039522D01*
X038112Y039922D02*
X038902D01*
X038092Y039942D02*
X038782D01*
X038102Y039932D02*
X038832D01*
X038712Y040282D02*
X039282D01*
X038692Y040292D02*
X039302D01*
X038752Y040262D02*
X039292D01*
X038732Y040272D02*
X039282D01*
X038642Y040322D02*
X039352D01*
X038662Y040312D02*
X039332D01*
X038632Y040332D02*
X039362D01*
X038622Y040342D02*
X039372D01*
X038602Y040352D02*
X039392D01*
X038592Y040362D02*
X039402D01*
X038582Y040372D02*
X039412D01*
X038572Y040382D02*
X039422D01*
X038562Y040392D02*
X039432D01*
X038552Y040402D02*
X039442D01*
X038542Y040412D02*
X039452D01*
X038532Y040422D02*
X039462D01*
X038522Y040432D02*
X039472D01*
X038512Y040442D02*
X039482D01*
X038512Y040452D02*
X039482D01*
X038502Y040462D02*
X039492D01*
X038492Y040472D02*
X039502D01*
X038482Y040482D02*
X039512D01*
X038472Y040502D02*
X039522D01*
X038472Y040512D02*
X039522D01*
X038482Y040492D02*
X039512D01*
X038452Y040542D02*
X039542D01*
X038452Y040532D02*
X039542D01*
X038462Y040522D02*
X039532D01*
X038672Y040302D02*
X039322D01*
X038132Y039902D02*
X039532D01*
X038162Y039872D02*
X039552D01*
X039752Y041342D02*
X040162D01*
X039762Y041332D02*
X040162D01*
X038442Y040562D02*
X039552D01*
X038432Y040572D02*
X039562D01*
X038432Y040582D02*
X039562D01*
X038432Y040592D02*
X039562D01*
X038422Y040602D02*
X039572D01*
X038422Y040612D02*
X039572D01*
X038412Y040632D02*
X039582D01*
X038412Y040642D02*
X039582D01*
X038402Y040652D02*
X039592D01*
X038402Y040662D02*
X039592D01*
X038412Y040622D02*
X039582D01*
X037782Y041212D02*
X038172D01*
X037792Y041222D02*
X038172D01*
X037792Y041232D02*
X038172D01*
X037792Y041242D02*
X038182D01*
X037802Y041252D02*
X038192D01*
X037802Y041262D02*
X038192D01*
X037802Y041272D02*
X038202D01*
X037812Y041282D02*
X038202D01*
X037822Y041302D02*
X038212D01*
X037822Y041312D02*
X038222D01*
X037812Y041292D02*
X038212D01*
X037832Y041342D02*
X038242D01*
X037832Y041332D02*
X038232D01*
X037822Y041322D02*
X038232D01*
X038402Y040682D02*
X039592D01*
X038392Y040692D02*
X039602D01*
X038392Y040922D02*
X039602D01*
X038392Y040932D02*
X039602D01*
X038392Y040942D02*
X039602D01*
X038392Y040952D02*
X039602D01*
X038392Y040962D02*
X039602D01*
X038392Y040972D02*
X039602D01*
X038402Y040982D02*
X039592D01*
X038402Y040992D02*
X039592D01*
X038402Y041002D02*
X039592D01*
X038412Y041012D02*
X039582D01*
X038412Y041022D02*
X039582D01*
X038412Y041032D02*
X039582D01*
X038422Y041042D02*
X039572D01*
X038392Y040712D02*
X039602D01*
X038392Y040722D02*
X039602D01*
X038392Y040732D02*
X039602D01*
X038422Y041062D02*
X039572D01*
X038432Y041072D02*
X039562D01*
X038432Y041082D02*
X039562D01*
X038442Y041092D02*
X039552D01*
X038422Y041052D02*
X039572D01*
X038452Y041122D02*
X039542D01*
X038462Y041132D02*
X039532D01*
X038462Y041142D02*
X039532D01*
X038472Y041152D02*
X039522D01*
X038472Y041162D02*
X039522D01*
X038482Y041172D02*
X039512D01*
X038492Y041182D02*
X039502D01*
X038492Y041192D02*
X039502D01*
X038502Y041202D02*
X039492D01*
X038512Y041212D02*
X039482D01*
X038522Y041222D02*
X039472D01*
X038532Y041232D02*
X039462D01*
X038542Y041242D02*
X039452D01*
X038542Y041252D02*
X039452D01*
X038552Y041262D02*
X039442D01*
X038562Y041272D02*
X039432D01*
X038572Y041282D02*
X039422D01*
X038452Y041112D02*
X039542D01*
X038602Y041302D02*
X039392D01*
X038612Y041312D02*
X039382D01*
X038592Y041292D02*
X039402D01*
X038652Y041342D02*
X039342D01*
X038642Y041332D02*
X039352D01*
X038622Y041322D02*
X039372D01*
X038442Y041102D02*
X039552D01*
X038382Y040792D02*
X039612D01*
X038382Y040802D02*
X039612D01*
X038382Y040812D02*
X039612D01*
X038382Y040822D02*
X039612D01*
X038382Y040832D02*
X039612D01*
X038382Y040842D02*
X039612D01*
X038382Y040852D02*
X039612D01*
X038382Y040862D02*
X039612D01*
X038382Y040872D02*
X039612D01*
X038382Y040882D02*
X039612D01*
X038382Y040892D02*
X039612D01*
X038382Y040902D02*
X039612D01*
X038382Y040912D02*
X039612D01*
X038382Y040742D02*
X039612D01*
X038382Y040752D02*
X039612D01*
X038382Y040762D02*
X039612D01*
X038382Y040772D02*
X039612D01*
X038382Y040782D02*
X039612D01*
X038392Y040702D02*
X039602D01*
X038402Y040672D02*
X039592D01*
X037982Y041592D02*
X038492D01*
X037962Y041562D02*
X038452D01*
X037962Y041572D02*
X038462D01*
X037972Y041582D02*
X038482D01*
X037992Y041602D02*
X038512D01*
X037992Y041612D02*
X038532D01*
X038002Y041622D02*
X038542D01*
X038012Y041632D02*
X038562D01*
X038022Y041642D02*
X038582D01*
X038032Y041652D02*
X038602D01*
X038042Y041662D02*
X038622D01*
X038072Y041702D02*
X038732D01*
X038042Y041672D02*
X038642D01*
X038052Y041682D02*
X038672D01*
X038062Y041692D02*
X038702D01*
X038792Y041412D02*
X039202D01*
X038862Y041432D02*
X039132D01*
X038912Y041442D02*
X039072D01*
X038822Y041422D02*
X039172D01*
X038762Y041402D02*
X039232D01*
X038792Y042082D02*
X039202D01*
X038872Y042092D02*
X039122D01*
X039742Y041362D02*
X040152D01*
X039732Y041372D02*
X040142D01*
X039722Y041382D02*
X040142D01*
X039712Y041392D02*
X040132D01*
X039712Y041402D02*
X040132D01*
X039702Y041412D02*
X040122D01*
X039662Y041452D02*
X040102D01*
X039652Y041462D02*
X040102D01*
X039682Y041432D02*
X040112D01*
X039672Y041442D02*
X040112D01*
X039692Y041422D02*
X040122D01*
X039632Y041482D02*
X040082D01*
X039622Y041492D02*
X040082D01*
X039602Y041512D02*
X040072D01*
X039592Y041522D02*
X040062D01*
X039582Y041532D02*
X040052D01*
X039572Y041542D02*
X040052D01*
X039612Y041502D02*
X040072D01*
X039642Y041472D02*
X040092D01*
X037842Y041362D02*
X038252D01*
X037852Y041372D02*
X038262D01*
X037852Y041382D02*
X038272D01*
X037862Y041392D02*
X038282D01*
X037862Y041402D02*
X038282D01*
X037872Y041412D02*
X038292D01*
X037882Y041432D02*
X038312D01*
X037882Y041442D02*
X038322D01*
X037892Y041452D02*
X038332D01*
X037892Y041462D02*
X038342D01*
X037872Y041422D02*
X038302D01*
X038702Y041372D02*
X039292D01*
X038722Y041382D02*
X039272D01*
X038742Y041392D02*
X039252D01*
X038682Y041362D02*
X039312D01*
X037912Y041482D02*
X038362D01*
X037912Y041492D02*
X038372D01*
X037922Y041512D02*
X038392D01*
X037932Y041522D02*
X038402D01*
X037942Y041532D02*
X038412D01*
X037942Y041542D02*
X038422D01*
X039322Y041682D02*
X039942D01*
X039292Y041692D02*
X039932D01*
X039262Y041702D02*
X039922D01*
X037922Y041502D02*
X038382D01*
X037952Y041552D02*
X038442D01*
X038082Y041712D02*
X038762D01*
X038092Y041722D02*
X038802D01*
X038112Y041742D02*
X038972D01*
X038102Y041732D02*
X038862D01*
X038692Y042062D02*
X039302D01*
X038742Y042072D02*
X039252D01*
X038652Y042052D02*
X039342D01*
X038402Y041952D02*
X039592D01*
X038422Y041962D02*
X039572D01*
X038442Y041972D02*
X039552D01*
X038462Y041982D02*
X039532D01*
X038482Y041992D02*
X039512D01*
X038512Y042002D02*
X039482D01*
X038532Y042012D02*
X039462D01*
X038562Y042022D02*
X039432D01*
X038592Y042032D02*
X039402D01*
X038622Y042042D02*
X039372D01*
X038362Y041932D02*
X039632D01*
X038382Y041942D02*
X039612D01*
X039232Y041712D02*
X039912D01*
X039192Y041722D02*
X039902D01*
X039132Y041732D02*
X039892D01*
X039022Y041742D02*
X039882D01*
X038122Y041752D02*
X039872D01*
X038132Y041762D02*
X039862D01*
X038142Y041772D02*
X039852D01*
X038152Y041782D02*
X039842D01*
X038172Y041792D02*
X039822D01*
X038182Y041802D02*
X039812D01*
X038192Y041812D02*
X039802D01*
X038202Y041822D02*
X039792D01*
X038222Y041832D02*
X039772D01*
X038232Y041842D02*
X039762D01*
X038262Y041862D02*
X039732D01*
X038272Y041872D02*
X039722D01*
X038282Y041882D02*
X039712D01*
X038302Y041892D02*
X039692D01*
X038242Y041852D02*
X039752D01*
X038352Y041922D02*
X039642D01*
X038332Y041912D02*
X039662D01*
X038312Y041902D02*
X039682D01*
X037902Y041472D02*
X038352D01*
X039482Y041602D02*
X040002D01*
X039462Y041612D02*
X040002D01*
X039452Y041622D02*
X039992D01*
X039432Y041632D02*
X039982D01*
X039412Y041642D02*
X039972D01*
X039392Y041652D02*
X039962D01*
X039372Y041662D02*
X039952D01*
X039342Y041672D02*
X039952D01*
X039502Y041592D02*
X040012D01*
X039522Y041572D02*
X040032D01*
X039512Y041582D02*
X040022D01*
X039542Y041562D02*
X040032D01*
X039552Y041552D02*
X040042D01*
X038322Y039752D02*
X039632D01*
X038442Y040552D02*
X039552D01*
X039742Y041352D02*
X040152D01*
X037842D02*
X038252D01*
X038672D02*
X039322D01*
X039772Y040342D02*
X040172D01*
X039772Y041312D02*
X040172D01*
X039762Y041322D02*
X040172D01*
D20*
X036241Y027473D02*
Y034473D01*
X037583D01*
X040583D02*
X041833D01*
X044833D02*
X046083D01*
Y027473D02*
Y034473D01*
X036241Y018725D02*
Y019473D01*
Y018725D02*
X046083D01*
Y019473D01*
X027294Y050926D02*
X032097D01*
Y043683D02*
Y050926D01*
X027294Y043683D02*
X032097D01*
X027294D02*
Y050926D01*
D21*
X027838Y045588D02*
X027913Y045664D01*
X028043Y045384D01*
X027763Y045514D02*
X027838Y045588D01*
X027763Y045514D02*
X028043Y045384D01*
X027838Y045588D02*
X028043Y045384D01*
X035077Y029622D02*
X035096Y029584D01*
X035154Y029526D01*
X034754D01*
X035154Y029214D02*
X035135Y029271D01*
X035077Y029309D01*
X034982Y029328D01*
X034925D01*
X03483Y029309D01*
X034773Y029271D01*
X034754Y029214D01*
Y029176D01*
X034773Y029119D01*
X03483Y029081D01*
X034925Y029062D01*
X034982D01*
X035077Y029081D01*
X035135Y029119D01*
X035154Y029176D01*
Y029214D01*
D22*
X041429Y041164D02*
X041351Y041243D01*
X041193D01*
X041115Y041164D01*
Y041085D01*
X041193Y041007D01*
X041351D01*
X041429Y040928D01*
Y040849D01*
X041351Y040771D01*
X041193D01*
X041115Y040849D01*
X041902Y041243D02*
X041587D01*
Y040771D01*
X041902D01*
X041587Y041007D02*
X041744D01*
X042059Y040771D02*
Y041243D01*
X042374Y040771D01*
Y041243D01*
X042846Y041164D02*
X042768Y041243D01*
X04261D01*
X042531Y041164D01*
Y041085D01*
X04261Y041007D01*
X042768D01*
X042846Y040928D01*
Y040849D01*
X042768Y040771D01*
X04261D01*
X042531Y040849D01*
X04324Y041243D02*
X043082D01*
X043004Y041164D01*
Y040849D01*
X043082Y040771D01*
X04324D01*
X043319Y040849D01*
Y041164D01*
X04324Y041243D01*
X043476Y040771D02*
Y041243D01*
X043712D01*
X043791Y041164D01*
Y041007D01*
X043712Y040928D01*
X043476D01*
X043633D02*
X043791Y040771D01*
X044421D02*
Y041243D01*
X044736Y040771D01*
Y041243D01*
X045129D02*
X044972D01*
X044893Y041164D01*
Y040849D01*
X044972Y040771D01*
X045129D01*
X045208Y040849D01*
Y041164D01*
X045129Y041243D01*
X045365D02*
Y040771D01*
X045601D01*
X04568Y040849D01*
Y041164D01*
X045601Y041243D01*
X045365D01*
X046152D02*
X045838D01*
Y040771D01*
X046152D01*
X045838Y041007D02*
X045995D01*
X042886Y040421D02*
Y040106D01*
X043043Y039949D01*
X043201Y040106D01*
Y040421D01*
X043358Y040342D02*
X043437Y040421D01*
X043594D01*
X043673Y040342D01*
Y040264D01*
X043594Y040185D01*
X043515D01*
X043594D01*
X043673Y040106D01*
Y040027D01*
X043594Y039949D01*
X043437D01*
X043358Y040027D01*
X04383Y039949D02*
Y040027D01*
X043909D01*
Y039949D01*
X04383D01*
X044224D02*
X044381D01*
X044303D01*
Y040421D01*
X044224Y040342D01*
D23*
X033534Y020784D02*
X033219D01*
Y020941D01*
X033271Y020994D01*
X033376D01*
X033429Y020941D01*
Y020784D01*
Y020889D02*
X033534Y020994D01*
X033219Y021099D02*
X033534Y021309D01*
X033219D02*
X033534Y021099D01*
X033219Y021824D02*
Y022034D01*
Y021929D01*
X033534D01*
X033219Y022139D02*
X033534Y022349D01*
X033219D02*
X033534Y022139D01*
X033241Y023144D02*
X033189Y023091D01*
Y022986D01*
X033241Y022934D01*
X033451D01*
X033504Y022986D01*
Y023091D01*
X033451Y023144D01*
X033346D01*
Y023039D01*
X025254Y036033D02*
Y036347D01*
X025411D01*
X025464Y036295D01*
Y03619D01*
X025411Y036138D01*
X025254D01*
X025359D02*
X025464Y036033D01*
X025779Y036347D02*
X025569D01*
Y036033D01*
X025779D01*
X025569Y03619D02*
X025674D01*
X026093Y036295D02*
X026041Y036347D01*
X025936D01*
X025884Y036295D01*
Y036242D01*
X025936Y03619D01*
X026041D01*
X026093Y036138D01*
Y036085D01*
X026041Y036033D01*
X025936D01*
X025884Y036085D01*
X026408Y036347D02*
X026198D01*
Y036033D01*
X026408D01*
X026198Y03619D02*
X026303D01*
X026513Y036347D02*
X026723D01*
X026618D01*
Y036033D01*
X018603Y033835D02*
Y034045D01*
Y03394D01*
X018918D01*
Y03415D02*
Y034255D01*
Y034202D01*
X018603D01*
X018656Y03415D01*
X029425Y033314D02*
Y033524D01*
Y033419D01*
X02974D01*
Y033629D02*
Y033734D01*
Y033681D01*
X029425D01*
X029478Y033629D01*
X019194Y036173D02*
Y036055D01*
Y036114D01*
X019489D01*
X019548Y036055D01*
Y035996D01*
X019489Y035937D01*
X019548Y036291D02*
Y036409D01*
Y03635D01*
X019194D01*
X019253Y036291D01*
X019548Y036586D02*
Y036705D01*
Y036646D01*
X019194D01*
X019253Y036586D01*
X015118Y032326D02*
X015059Y032385D01*
X014941D01*
X014882Y032326D01*
Y03209D01*
X014941Y032031D01*
X015059D01*
X015118Y03209D01*
X015236Y032031D02*
X015354D01*
X015295D01*
Y032385D01*
X015236Y032326D01*
X015531Y032385D02*
X015767D01*
Y032326D01*
X015531Y03209D01*
Y032031D01*
X01601Y047684D02*
X016246D01*
X016128D01*
Y04733D01*
X0166Y047684D02*
X016482Y047625D01*
X016364Y047507D01*
Y047389D01*
X016423Y04733D01*
X016541D01*
X0166Y047389D01*
Y047448D01*
X016541Y047507D01*
X016364D01*
X05019Y046174D02*
X050426D01*
X050308D01*
Y04582D01*
X05078Y046174D02*
X050544D01*
Y045997D01*
X050662Y046056D01*
X050721D01*
X05078Y045997D01*
Y045879D01*
X050721Y04582D01*
X050603D01*
X050544Y045879D01*
X049088Y016729D02*
X049324D01*
X049206D01*
Y016375D01*
X04962D02*
Y016729D01*
X049442Y016552D01*
X049679D01*
X015172Y035525D02*
X015408D01*
X01529D01*
Y035171D01*
X015526Y035466D02*
X015585Y035525D01*
X015703D01*
X015762Y035466D01*
Y035407D01*
X015703Y035348D01*
X015644D01*
X015703D01*
X015762Y035289D01*
Y03523D01*
X015703Y035171D01*
X015585D01*
X015526Y03523D01*
X015991Y04566D02*
X016227D01*
X016109D01*
Y045306D01*
X016581D02*
X016345D01*
X016581Y045542D01*
Y045601D01*
X016522Y04566D01*
X016404D01*
X016345Y045601D01*
X017012Y031911D02*
X016657D01*
Y032088D01*
X016716Y032147D01*
X016835D01*
X016894Y032088D01*
Y031911D01*
Y032029D02*
X017012Y032147D01*
Y032265D02*
Y032383D01*
Y032324D01*
X016657D01*
X016716Y032265D01*
Y03256D02*
X016657Y032619D01*
Y032737D01*
X016716Y032796D01*
X016776D01*
X016835Y032737D01*
X016894Y032796D01*
X016953D01*
X017012Y032737D01*
Y032619D01*
X016953Y03256D01*
X016894D01*
X016835Y032619D01*
X016776Y03256D01*
X016716D01*
X016835Y032619D02*
Y032737D01*
X017842Y031911D02*
X017487D01*
Y032088D01*
X017546Y032147D01*
X017665D01*
X017724Y032088D01*
Y031911D01*
Y032029D02*
X017842Y032147D01*
Y032265D02*
Y032383D01*
Y032324D01*
X017487D01*
X017546Y032265D01*
X017487Y03256D02*
Y032796D01*
X017546D01*
X017783Y03256D01*
X017842D01*
X019558Y033205D02*
X019204D01*
Y033382D01*
X019263Y033441D01*
X019381D01*
X01944Y033382D01*
Y033205D01*
Y033323D02*
X019558Y033441D01*
Y033559D02*
Y033677D01*
Y033618D01*
X019204D01*
X019263Y033559D01*
X019204Y03409D02*
X019263Y033972D01*
X019381Y033854D01*
X019499D01*
X019558Y033913D01*
Y034031D01*
X019499Y03409D01*
X01944D01*
X019381Y034031D01*
Y033854D01*
X019578Y027058D02*
X019224D01*
Y027236D01*
X019283Y027295D01*
X019401D01*
X01946Y027236D01*
Y027058D01*
Y027177D02*
X019578Y027295D01*
Y027413D02*
Y027531D01*
Y027472D01*
X019224D01*
X019283Y027413D01*
X019224Y027944D02*
Y027708D01*
X019401D01*
X019342Y027826D01*
Y027885D01*
X019401Y027944D01*
X019519D01*
X019578Y027885D01*
Y027767D01*
X019519Y027708D01*
X021418Y029908D02*
Y030263D01*
X021596D01*
X021655Y030204D01*
Y030086D01*
X021596Y030027D01*
X021418D01*
X021537D02*
X021655Y029908D01*
X021773D02*
X021891D01*
X021832D01*
Y030263D01*
X021773Y030204D01*
X022245Y029908D02*
Y030263D01*
X022068Y030086D01*
X022304D01*
X02974Y021678D02*
X029386D01*
Y021855D01*
X029445Y021914D01*
X029563D01*
X029622Y021855D01*
Y021678D01*
Y021796D02*
X02974Y021914D01*
Y022032D02*
Y02215D01*
Y022091D01*
X029386D01*
X029445Y022032D01*
Y022327D02*
X029386Y022386D01*
Y022504D01*
X029445Y022563D01*
X029504D01*
X029563Y022504D01*
Y022445D01*
Y022504D01*
X029622Y022563D01*
X029681D01*
X02974Y022504D01*
Y022386D01*
X029681Y022327D01*
X02974Y030268D02*
X029386D01*
Y030445D01*
X029445Y030504D01*
X029563D01*
X029622Y030445D01*
Y030268D01*
Y030386D02*
X02974Y030504D01*
Y030622D02*
Y03074D01*
Y030681D01*
X029386D01*
X029445Y030622D01*
X02974Y031153D02*
Y030917D01*
X029504Y031153D01*
X029445D01*
X029386Y031094D01*
Y030976D01*
X029445Y030917D01*
X023424Y02001D02*
Y020364D01*
X023602D01*
X023661Y020305D01*
Y020187D01*
X023602Y020128D01*
X023424D01*
X023543D02*
X023661Y02001D01*
X023779D02*
X023897D01*
X023838D01*
Y020364D01*
X023779Y020305D01*
X024074Y02001D02*
X024192D01*
X024133D01*
Y020364D01*
X024074Y020305D01*
X024714Y02001D02*
Y020364D01*
X024892D01*
X024951Y020305D01*
Y020187D01*
X024892Y020128D01*
X024714D01*
X024833D02*
X024951Y02001D01*
X025069D02*
X025187D01*
X025128D01*
Y020364D01*
X025069Y020305D01*
X025364D02*
X025423Y020364D01*
X025541D01*
X0256Y020305D01*
Y020069D01*
X025541Y02001D01*
X025423D01*
X025364Y020069D01*
Y020305D01*
X022895Y039051D02*
Y039405D01*
X023072D01*
X023131Y039346D01*
Y039228D01*
X023072Y039169D01*
X022895D01*
X023013D02*
X023131Y039051D01*
X023249Y03911D02*
X023308Y039051D01*
X023426D01*
X023485Y03911D01*
Y039346D01*
X023426Y039405D01*
X023308D01*
X023249Y039346D01*
Y039287D01*
X023308Y039228D01*
X023485D01*
X024208Y039051D02*
Y039405D01*
X024385D01*
X024444Y039346D01*
Y039228D01*
X024385Y039169D01*
X024208D01*
X024326D02*
X024444Y039051D01*
X024562Y039346D02*
X024621Y039405D01*
X024739D01*
X024798Y039346D01*
Y039287D01*
X024739Y039228D01*
X024798Y039169D01*
Y03911D01*
X024739Y039051D01*
X024621D01*
X024562Y03911D01*
Y039169D01*
X024621Y039228D01*
X024562Y039287D01*
Y039346D01*
X024621Y039228D02*
X024739D01*
X019578Y024439D02*
X019224D01*
Y024616D01*
X019283Y024675D01*
X019401D01*
X01946Y024616D01*
Y024439D01*
Y024557D02*
X019578Y024675D01*
X019224Y025029D02*
X019283Y024911D01*
X019401Y024793D01*
X019519D01*
X019578Y024852D01*
Y02497D01*
X019519Y025029D01*
X01946D01*
X019401Y02497D01*
Y024793D01*
X01958Y02579D02*
X019226D01*
Y025967D01*
X019285Y026026D01*
X019403D01*
X019462Y025967D01*
Y02579D01*
Y025908D02*
X01958Y026026D01*
X019226Y02638D02*
Y026144D01*
X019403D01*
X019344Y026262D01*
Y026321D01*
X019403Y02638D01*
X019521D01*
X01958Y026321D01*
Y026203D01*
X019521Y026144D01*
X02973Y025898D02*
X029376D01*
Y026075D01*
X029435Y026134D01*
X029553D01*
X029612Y026075D01*
Y025898D01*
Y026016D02*
X02973Y026134D01*
Y026429D02*
X029376D01*
X029553Y026252D01*
Y026488D01*
X02973Y024538D02*
X029376D01*
Y024715D01*
X029435Y024774D01*
X029553D01*
X029612Y024715D01*
Y024538D01*
Y024656D02*
X02973Y024774D01*
X029435Y024892D02*
X029376Y024951D01*
Y025069D01*
X029435Y025128D01*
X029494D01*
X029553Y025069D01*
Y02501D01*
Y025069D01*
X029612Y025128D01*
X029671D01*
X02973Y025069D01*
Y024951D01*
X029671Y024892D01*
X0243Y02992D02*
Y030274D01*
X024477D01*
X024536Y030215D01*
Y030097D01*
X024477Y030038D01*
X0243D01*
X024418D02*
X024536Y02992D01*
X02489D02*
X024654D01*
X02489Y030156D01*
Y030215D01*
X024831Y030274D01*
X024713D01*
X024654Y030215D01*
X022933Y02992D02*
Y030274D01*
X023111D01*
X02317Y030215D01*
Y030097D01*
X023111Y030038D01*
X022933D01*
X023052D02*
X02317Y02992D01*
X023288D02*
X023406D01*
X023347D01*
Y030274D01*
X023288Y030215D01*
X022021Y03862D02*
Y038856D01*
X021962Y038915D01*
X021844D01*
X021785Y038856D01*
Y03862D01*
X021844Y038561D01*
X021962D01*
X021903Y038679D02*
X022021Y038561D01*
X021962D02*
X022021Y03862D01*
X022139Y038561D02*
X022257D01*
X022198D01*
Y038915D01*
X022139Y038856D01*
X031609Y025156D02*
Y02551D01*
X031786D01*
X031845Y025451D01*
Y025333D01*
X031786Y025274D01*
X031609D01*
X031963Y02551D02*
Y025156D01*
X03214D01*
X032199Y025215D01*
Y025274D01*
X03214Y025333D01*
X031963D01*
X03214D01*
X032199Y025392D01*
Y025451D01*
X03214Y02551D01*
X031963D01*
X032553Y025156D02*
X032317D01*
X032553Y025392D01*
Y025451D01*
X032494Y02551D01*
X032376D01*
X032317Y025451D01*
X025504Y034754D02*
Y035108D01*
X025681D01*
X02574Y035049D01*
Y034931D01*
X025681Y034872D01*
X025504D01*
X025858Y035108D02*
Y034754D01*
X026035D01*
X026094Y034813D01*
Y034872D01*
X026035Y034931D01*
X025858D01*
X026035D01*
X026094Y03499D01*
Y035049D01*
X026035Y035108D01*
X025858D01*
X026212Y034754D02*
X02633D01*
X026271D01*
Y035108D01*
X026212Y035049D01*
X029405Y02767D02*
Y027552D01*
Y027611D01*
X0297D01*
X029759Y027552D01*
Y027493D01*
X0297Y027434D01*
X029464Y027788D02*
X029405Y027847D01*
Y027965D01*
X029464Y028024D01*
X029523D01*
X029582Y027965D01*
X029641Y028024D01*
X0297D01*
X029759Y027965D01*
Y027847D01*
X0297Y027788D01*
X029641D01*
X029582Y027847D01*
X029523Y027788D01*
X029464D01*
X029582Y027847D02*
Y027965D01*
X029415Y03209D02*
Y031972D01*
Y032031D01*
X02971D01*
X029769Y031972D01*
Y031913D01*
X02971Y031854D01*
X029415Y032208D02*
Y032444D01*
X029474D01*
X02971Y032208D01*
X029769D01*
X024592Y037795D02*
Y037441D01*
X024769D01*
X024828Y0375D01*
Y037736D01*
X024769Y037795D01*
X024592D01*
X024946Y037441D02*
X025064D01*
X025005D01*
Y037795D01*
X024946Y037736D01*
X029665Y035722D02*
X029606Y035781D01*
X029488D01*
X029429Y035722D01*
Y035486D01*
X029488Y035427D01*
X029606D01*
X029665Y035486D01*
X03002Y035427D02*
X029783D01*
X03002Y035663D01*
Y035722D01*
X02996Y035781D01*
X029842D01*
X029783Y035722D01*
X030138Y035427D02*
X030256D01*
X030197D01*
Y035781D01*
X030138Y035722D01*
X017598Y035156D02*
X017539Y035215D01*
X017421D01*
X017362Y035156D01*
Y03492D01*
X017421Y034861D01*
X017539D01*
X017598Y03492D01*
X017952Y034861D02*
X017716D01*
X017952Y035097D01*
Y035156D01*
X017893Y035215D01*
X017775D01*
X017716Y035156D01*
X01807D02*
X018129Y035215D01*
X018247D01*
X018306Y035156D01*
Y03492D01*
X018247Y034861D01*
X018129D01*
X01807Y03492D01*
Y035156D01*
X029445Y020554D02*
X029386Y020495D01*
Y020377D01*
X029445Y020318D01*
X029681D01*
X02974Y020377D01*
Y020495D01*
X029681Y020554D01*
X02974Y020672D02*
Y02079D01*
Y020731D01*
X029386D01*
X029445Y020672D01*
X029386Y021203D02*
Y020967D01*
X029563D01*
X029504Y021085D01*
Y021144D01*
X029563Y021203D01*
X029681D01*
X02974Y021144D01*
Y021026D01*
X029681Y020967D01*
X029445Y029144D02*
X029386Y029085D01*
Y028967D01*
X029445Y028908D01*
X029681D01*
X02974Y028967D01*
Y029085D01*
X029681Y029144D01*
X02974Y029262D02*
Y02938D01*
Y029321D01*
X029386D01*
X029445Y029262D01*
X02974Y029734D02*
X029386D01*
X029563Y029557D01*
Y029793D01*
X025079Y033821D02*
X02502Y03388D01*
X024901D01*
X024842Y033821D01*
Y033585D01*
X024901Y033526D01*
X02502D01*
X025079Y033585D01*
X025197Y033526D02*
X025315D01*
X025256D01*
Y03388D01*
X025197Y033821D01*
X025492D02*
X025551Y03388D01*
X025669D01*
X025728Y033821D01*
Y033762D01*
X025669Y033703D01*
X02561D01*
X025669D01*
X025728Y033644D01*
Y033585D01*
X025669Y033526D01*
X025551D01*
X025492Y033585D01*
X026484Y033821D02*
X026425Y03388D01*
X026306D01*
X026247Y033821D01*
Y033585D01*
X026306Y033526D01*
X026425D01*
X026484Y033585D01*
X026602Y033526D02*
X02672D01*
X026661D01*
Y03388D01*
X026602Y033821D01*
X027133Y033526D02*
X026897D01*
X027133Y033762D01*
Y033821D01*
X027074Y03388D01*
X026956D01*
X026897Y033821D01*
X026231Y020305D02*
X026172Y020364D01*
X026054D01*
X025994Y020305D01*
Y020069D01*
X026054Y02001D01*
X026172D01*
X026231Y020069D01*
X026349Y02001D02*
X026467D01*
X026408D01*
Y020364D01*
X026349Y020305D01*
X026644Y02001D02*
X026762D01*
X026703D01*
Y020364D01*
X026644Y020305D01*
X049137Y013161D02*
X049053D01*
X04897Y013077D01*
Y012994D01*
X049137Y012827D01*
X04922D01*
X049303Y01291D01*
Y012994D01*
X049429Y013035D02*
X049512Y013119D01*
X04947Y013077D01*
X04922Y013327D01*
Y013244D01*
X049429Y013453D02*
Y013536D01*
X049512Y01362D01*
X049596D01*
X049763Y013453D01*
Y013369D01*
X049679Y013286D01*
X049596D01*
X049429Y013453D01*
X017444Y013377D02*
Y01346D01*
X01736Y013544D01*
X017277D01*
X01711Y013377D01*
Y013293D01*
X017193Y01321D01*
X017277D01*
X01736Y013126D02*
Y013043D01*
X017444Y012959D01*
X017527D01*
X017694Y013126D01*
Y01321D01*
X017611Y013293D01*
X017527D01*
X017486Y013251D01*
Y013168D01*
X017611Y013043D01*
X027647Y020321D02*
X027588Y02038D01*
X02747D01*
X027411Y020321D01*
Y020085D01*
X02747Y020026D01*
X027588D01*
X027647Y020085D01*
X027765Y020321D02*
X027824Y02038D01*
X027942D01*
X028001Y020321D01*
Y020262D01*
X027942Y020203D01*
X028001Y020144D01*
Y020085D01*
X027942Y020026D01*
X027824D01*
X027765Y020085D01*
Y020144D01*
X027824Y020203D01*
X027765Y020262D01*
Y020321D01*
X027824Y020203D02*
X027942D01*
X02723Y030215D02*
X027171Y030274D01*
X027053D01*
X026994Y030215D01*
Y029979D01*
X027053Y02992D01*
X027171D01*
X02723Y029979D01*
X027585Y030274D02*
X027466Y030215D01*
X027348Y030097D01*
Y029979D01*
X027407Y02992D01*
X027525D01*
X027585Y029979D01*
Y030038D01*
X027525Y030097D01*
X027348D01*
X029435Y023414D02*
X029376Y023355D01*
Y023237D01*
X029435Y023178D01*
X029671D01*
X02973Y023237D01*
Y023355D01*
X029671Y023414D01*
X029376Y023768D02*
Y023532D01*
X029553D01*
X029494Y02365D01*
Y023709D01*
X029553Y023768D01*
X029671D01*
X02973Y023709D01*
Y023591D01*
X029671Y023532D01*
X014774Y016017D02*
Y0161D01*
X01469Y016184D01*
X014607D01*
X01444Y016017D01*
Y015933D01*
X014524Y01585D01*
X014607D01*
X014774Y015599D02*
X015024Y01585D01*
X014774D01*
X014941Y015683D01*
X051997Y016061D02*
X051913D01*
X05183Y015977D01*
Y015894D01*
X051997Y015727D01*
X05208D01*
X052164Y01581D01*
Y015894D01*
X05208Y016144D02*
Y016227D01*
X052164Y016311D01*
X052247D01*
X052289Y016269D01*
Y016186D01*
X052247Y016144D01*
X052289Y016186D01*
X052372D01*
X052414Y016144D01*
Y016061D01*
X05233Y015977D01*
X052247D01*
X022436Y020305D02*
X022377Y020364D01*
X022259D01*
X0222Y020305D01*
Y020069D01*
X022259Y02001D01*
X022377D01*
X022436Y020069D01*
X02279Y02001D02*
X022554D01*
X02279Y020246D01*
Y020305D01*
X022731Y020364D01*
X022613D01*
X022554Y020305D01*
X019285Y023315D02*
X019226Y023256D01*
Y023138D01*
X019285Y023078D01*
X019521D01*
X01958Y023138D01*
Y023256D01*
X019521Y023315D01*
X01958Y023433D02*
Y023551D01*
Y023492D01*
X019226D01*
X019285Y023433D01*
X023264Y031328D02*
X023619Y031565D01*
X023264D02*
X023619Y031328D01*
Y031683D02*
Y031801D01*
Y031742D01*
X023264D01*
X023323Y031683D01*
X028034Y021658D02*
Y021363D01*
X028093Y021304D01*
X028211D01*
X02827Y021363D01*
Y021658D01*
X028388Y021304D02*
X028506D01*
X028447D01*
Y021658D01*
X028388Y021599D01*
X021567Y035404D02*
Y03505D01*
X021803D01*
X022157Y035404D02*
X021921D01*
Y03505D01*
X022157D01*
X021921Y035227D02*
X022039D01*
X022275Y035404D02*
Y03505D01*
X022452D01*
X022511Y035109D01*
Y035345D01*
X022452Y035404D01*
X022275D01*
X022629Y03505D02*
X022748D01*
X022689D01*
Y035404D01*
X022629Y035345D01*
X030629Y043632D02*
Y043278D01*
X030865D01*
X030983D02*
X031101D01*
X031042D01*
Y043632D01*
X030983Y043573D01*
X031624Y034015D02*
Y033897D01*
Y033956D01*
X031919D01*
X031978Y033897D01*
Y033838D01*
X031919Y033779D01*
X031624Y034133D02*
Y034369D01*
Y034251D01*
X031978D01*
Y034487D02*
X031742D01*
X031624Y034605D01*
X031742Y034723D01*
X031978D01*
X031801D01*
Y034487D01*
X031683Y035077D02*
X031624Y035018D01*
Y0349D01*
X031683Y034841D01*
X031919D01*
X031978Y0349D01*
Y035018D01*
X031919Y035077D01*
X031801D01*
Y034959D01*
X031978Y035195D02*
Y035313D01*
Y035254D01*
X031624D01*
X031683Y035195D01*
X033996Y024214D02*
X033878D01*
X033937D01*
Y023919D01*
X033878Y02386D01*
X033819D01*
X03376Y023919D01*
X034114Y02386D02*
X034232D01*
X034173D01*
Y024214D01*
X034114Y024155D01*
X034409D02*
X034468Y024214D01*
X034587D01*
X034646Y024155D01*
Y024096D01*
X034587Y024037D01*
X034527D01*
X034587D01*
X034646Y023978D01*
Y023919D01*
X034587Y02386D01*
X034468D01*
X034409Y023919D01*
X019204Y034883D02*
Y034765D01*
Y034824D01*
X019499D01*
X019558Y034765D01*
Y034706D01*
X019499Y034647D01*
X019558Y035001D02*
Y035119D01*
Y03506D01*
X019204D01*
X019263Y035001D01*
X019558Y035533D02*
Y035296D01*
X019322Y035533D01*
X019263D01*
X019204Y035474D01*
Y035356D01*
X019263Y035296D01*
X026298Y050933D02*
X026417D01*
X026358D01*
Y050578D01*
X026298D01*
X026417D01*
X02683Y050874D02*
X026771Y050933D01*
X026653D01*
X026594Y050874D01*
Y050638D01*
X026653Y050578D01*
X026771D01*
X02683Y050638D01*
X026948Y050578D02*
X027066D01*
X027007D01*
Y050933D01*
X026948Y050874D01*
X024455Y043133D02*
X024218D01*
Y042956D01*
X024337D01*
X024218D01*
Y042779D01*
X024573D02*
X024691D01*
X024632D01*
Y043133D01*
X024573Y043074D01*
X028121Y043197D02*
Y042843D01*
X028298D01*
X028357Y042902D01*
Y043138D01*
X028298Y043197D01*
X028121D01*
X028475Y043138D02*
X028534Y043197D01*
X028652D01*
X028711Y043138D01*
Y043079D01*
X028652Y04302D01*
X028593D01*
X028652D01*
X028711Y042961D01*
Y042902D01*
X028652Y042843D01*
X028534D01*
X028475Y042902D01*
X02082Y041821D02*
Y041467D01*
X020997D01*
X021056Y041526D01*
Y041762D01*
X020997Y041821D01*
X02082D01*
X02141Y041467D02*
X021174D01*
X02141Y041703D01*
Y041762D01*
X021351Y041821D01*
X021233D01*
X021174Y041762D01*
X027954Y03919D02*
X027895Y039131D01*
Y039013D01*
X027954Y038954D01*
X02819D01*
X028249Y039013D01*
Y039131D01*
X02819Y03919D01*
X028249Y039308D02*
Y039426D01*
Y039367D01*
X027895D01*
X027954Y039308D01*
X02819Y039603D02*
X028249Y039663D01*
Y039781D01*
X02819Y03984D01*
X027954D01*
X027895Y039781D01*
Y039663D01*
X027954Y039603D01*
X028013D01*
X028072Y039663D01*
Y03984D01*
X022555Y049214D02*
X022496Y049273D01*
X022378D01*
X022318Y049214D01*
Y048978D01*
X022378Y048918D01*
X022496D01*
X022555Y048978D01*
X022673Y048918D02*
X022791D01*
X022732D01*
Y049273D01*
X022673Y049214D01*
X022968D02*
X023027Y049273D01*
X023145D01*
X023204Y049214D01*
Y049155D01*
X023145Y049096D01*
X023204Y049037D01*
Y048978D01*
X023145Y048918D01*
X023027D01*
X022968Y048978D01*
Y049037D01*
X023027Y049096D01*
X022968Y049155D01*
Y049214D01*
X023027Y049096D02*
X023145D01*
D24*
X044719Y044277D02*
Y043805D01*
X045073D01*
Y044041D01*
Y043805D01*
X045427D01*
X044719Y044986D02*
Y044513D01*
X045427D01*
Y044986D01*
X045073Y044513D02*
Y044749D01*
X045427Y045222D02*
X044719D01*
X044955Y045458D01*
X044719Y045694D01*
X045427D01*
Y04593D02*
X044955D01*
X044719Y046166D01*
X044955Y046402D01*
X045427D01*
X045073D01*
Y04593D01*
X044719Y046639D02*
X045427D01*
Y047111D01*
X044719Y047819D02*
Y047347D01*
X045427D01*
Y047819D01*
X045073Y047347D02*
Y047583D01*
X022186Y047503D02*
Y047975D01*
X021831D01*
Y047739D01*
Y047975D01*
X021477D01*
X022186Y046794D02*
Y047266D01*
X021477D01*
Y046794D01*
X021831Y047266D02*
Y04703D01*
X021477Y046558D02*
X022186D01*
X021949Y046322D01*
X022186Y046086D01*
X021477D01*
Y04585D02*
X021949D01*
X022186Y045613D01*
X021949Y045377D01*
X021477D01*
X021831D01*
Y04585D01*
X022186Y045141D02*
X021477D01*
Y044669D01*
X022186Y04396D02*
Y044433D01*
X021477D01*
Y04396D01*
X021831Y044433D02*
Y044197D01*
D25*
X0277Y044959D02*
X027737Y044978D01*
X027794Y045034D01*
Y04464D01*
D26*
X022818Y033635D02*
Y03332D01*
X022661D01*
X022608Y033372D01*
Y033477D01*
X022661Y03353D01*
X022818D01*
X022713D02*
X022608Y033635D01*
X021818Y03432D02*
Y034635D01*
X021661D01*
X021608Y034582D01*
Y03453D01*
X021661Y034477D01*
X021818D01*
X021661D01*
X021608Y034425D01*
Y034372D01*
X021661Y03432D01*
X021818D01*
X021358Y033372D02*
X021411Y03332D01*
X021516D01*
X021568Y033372D01*
Y033582D01*
X021516Y033635D01*
X021411D01*
X021358Y033582D01*
Y033477D01*
X021463D01*
X022108Y034372D02*
X022161Y03432D01*
X022266D01*
X022318Y034372D01*
Y034582D01*
X022266Y034635D01*
X022161D01*
X022108Y034582D01*
D27*
X02834Y04592D02*
D03*
X029009D02*
D03*
X029678D02*
D03*
X030348D02*
D03*
X031017D02*
D03*
D28*
X023655Y037601D02*
D03*
M02*
