M48
;Layer_Color=9474304
;FILE_FORMAT=2:4
INCH,LZ
;TYPE=PLATED
T1F00S00C0.0118
T2F00S00C0.0280
T3F00S00C0.0300
T4F00S00C0.0315
T5F00S00C0.0340
T6F00S00C0.0360
T7F00S00C0.0394
T8F00S00C0.0433
T9F00S00C0.0496
T10F00S00C0.0591
T11F00S00C0.1339
T12F00S00C0.1772
%
T01
X017071Y012576
Y013076
Y013576
Y014076
Y014576
X017584Y012854
X018584
X021584Y014854
X022584
X023584
X024584
X025584
X026584
X027584
X028584
X029584
X031584
X033584
X034584
X035584
X036584
X038584
X040584
X041584
X042584
X043584
X045584
X049781Y014735
Y014235
Y013735
Y013235
Y012735
X048584Y012854
X05271Y0156
X05247Y016686
X051584Y015854
X048051Y016616
X047697Y01697
X047343Y017324
X046989Y017678
X047074Y018786
X047584Y018854
X047428Y018432
X047782Y018078
X048136Y017724
X048584Y017854
X04849Y01737
X048584Y018854
X049584
Y019854
Y020854
X048584
X047584
Y021854
X048584Y022854
X049584
Y024854
X048584
X047584
Y025854
Y026854
X048584
X049584
Y027854
Y028854
Y029854
X048584
X047584
Y030854
Y028854
Y027854
X048584
X047584Y023854
Y019854
X046584
X04672Y01914
X04622
X04572
X04522
X04472
X04422
X04372
X04322
X04272
X04222
X04172
X04122
X04072
X04022
X03972
X03922
X03872
X03822
X03772
X03722
X03672
X03622
X03572
X03522
X03472
X03422
X03372
X03322
X03272
X03222
X03172
X031781Y018386
X032281
X032781
X033281
X033781
X034281
X034781
X035281
X035781
X036281
X036781
X037281
X037781
X038281
X038781
X039281
X039781
X040281
X040781
X041281
X041781
X042281
X042781
X043281
X043781
X044281
X044781
X045281
X045781
X046281
X046635Y018032
X045584Y017854
Y016854
Y015854
X043584
Y016854
X04334Y0176
X044584Y017854
Y019854
X045584
Y020854
X046584
X04441Y021449
X044584Y021854
X043584
Y020854
Y019854
X042584
Y021854
X041584
Y022854
X041526Y023556
X04176Y02379
X042584Y023854
X043584
X044584
Y024854
Y025854
Y026854
Y027854
X045584
X046584
Y028854
Y029854
Y030854
X045584Y029854
Y028854
X044584
Y030854
X043584
Y029854
X042584
Y030854
X041584
Y029854
Y028854
X042584
X043584Y027854
Y026854
X042584
Y024854
X041584
X040584
Y023854
Y021854
Y020854
X041584
X039584
Y021854
Y022854
X038584
Y021854
Y020854
X037584
Y021854
Y022854
Y024854
X038584
X039584
X04011Y025584
X03805
X03608
X035584Y024854
X036584
X034584
X033584
X034034Y02558
X033584Y027854
X034584
X035584
X036584
X037584
X038584
X039584
X040584
X041584
X040584Y028854
Y029854
Y030854
X039584
Y029854
Y028854
X038584
Y029854
Y030854
X037584
Y029854
Y028854
X036584
Y029854
Y030854
X035584
X034584
Y029854
X035584
Y028854
X034584
X032428Y029015
X032584Y027854
X031584Y029854
Y030854
Y021854
X03238
X032125Y02236
X033584Y022854
X035584
Y021854
Y020854
X036584Y016854
Y015854
X035584
X034584
Y016854
X033584
Y015854
X031584
Y016854
X031281Y018386
X03859Y01756
X038584Y016854
Y015854
X040584
X041584
X042584
X041584Y016854
X040584
X04107Y01757
X030781Y018386
X030281
X029781
X029281
X028781
X028461Y018876
X02922Y01914
X02972
X03022
X03072
X03122
X028584Y019854
Y020854
Y021854
X027255Y022493
X026861
X026467
X026074
X025286
X024893
X024499
X024105
X023712
X022929Y02255
X023584Y023854
X02314Y02434
X02277Y02486
Y02555
X022757Y02647
X02277Y026903
X023584Y025854
X02406Y02536
X024302Y026115
X024696Y026551
X025584Y025854
X026584
X027584
X028614Y02575
X029182Y025891
X029416Y025657
X031104Y02558
Y026221
Y026551
X031093Y026903
Y027233
X03112Y02458
X031128Y023845
X031098Y023425
X03075Y02314
X030257Y023179
Y022429
X029584Y023854
X027584
X026584
X025584
X02506Y02436
X024584Y024854
X02438Y02404
X021436Y0239
X020089Y023677
X019584Y023854
Y022854
Y021854
X020584
X021584
Y020854
X020584
Y019854
X020621Y019416
X020267Y019062
X019913Y018708
X019559Y018354
X019205Y018
X018851Y017646
X018497Y017292
X019315Y01699
X019669Y017344
X020023Y017698
X020377Y018052
X020731Y018405
X021085Y018759
X021439Y019113
X021508Y019495
X020975Y01977
X019584Y019854
Y020854
X0185Y0215
X017584Y021854
Y022854
Y023854
Y024854
X018584
X019584Y025854
X020584
X021584Y027854
Y028854
X02274Y028775
X0234Y02851
X023682Y030081
X024102Y030071
X024584Y029854
X025457Y030071
Y02934
X02546Y028616
X026457Y029644
X02653Y03045
X027Y030731
X027584Y030854
X028584
Y029854
X027584
Y028854
X029584
X028584Y027854
X030257Y031024
X025975Y03114
X025107Y03066
X02425Y03117
X02358Y03109
X022584Y030854
X022597Y03026
X022584Y029854
X022029Y030184
X018584Y030854
X017584
X016584
Y028854
X017584
X018584
X017584Y026854
Y025854
X016584
Y026854
Y024854
Y023854
Y022854
Y021854
Y020854
X017584
Y019854
Y018854
X016584Y019854
X018961Y016636
X020584Y016854
Y015854
X021584
X022584
X023584
X024584
X025584
X026584
X027584
X028584
X029584
Y016854
X027584
X026584
X02639Y01833
X026584Y018854
X02594Y01877
X025584Y017854
X024584
Y018854
X023584
Y017854
X022584
Y018854
X02309Y02027
X023584Y020854
X024584
X025584
X02616Y0202
X02671Y02039
X02748Y020087
X024584Y016854
X022584
X021584Y017854
X015584Y015854
X014584
Y016854
Y03548
X01557
X015584Y036854
Y037854
Y038854
Y039854
Y040854
Y041854
X014584
Y040854
Y039854
Y038854
Y037854
Y036854
Y043854
X015584
Y044854
Y045854
Y046854
X014584
Y045854
Y044854
X016584Y045854
Y046854
X017584
X018584
X018425Y045354
Y044646
Y043937
Y043228
X017717
Y043937
Y044646
Y045354
X016584Y043854
Y041854
Y040854
Y039854
Y038854
X017584
X017717Y039685
X018425
X019134
X019843
X019584Y038854
X020584
X021584Y039854
X022584
X02286Y03917
X02336
X02386
X02436
X02486
X024584Y039854
X025584
X026584
X027584
Y040854
X026584
Y041854
Y042854
X027584
X028584
Y041854
X030584Y040854
Y039854
X02946Y03727
X029584Y035854
X028584
Y034854
Y033854
X029584
Y032854
X028584
Y031854
X027584
Y032854
X02726Y03384
X026584Y033854
Y034854
Y035854
X027584
Y037854
Y038854
X026584
Y037854
X025584
Y035854
Y034854
Y033854
X024584
X02413Y03334
X023584Y032854
X02357Y03197
X02427Y031834
X0244Y03238
X025584Y031854
X02628Y03186
X022584Y031854
Y032854
X021584
X020527Y03282
X020828Y031865
X019657Y03227
X018584Y031854
Y032854
X017584
Y031854
X016584
Y032854
X01576Y032243
X01758Y0355
X01853
X018584Y036854
X017584
X016584
Y037854
X018584Y038854
X019134Y040394
Y041102
Y041811
X019843
Y04252
X019134
X018425
Y041811
X017717
Y04252
X021584Y042854
X022584
Y043854
Y044854
Y045854
X023584
X024584
X025584
X026584
X027584
X028584
X029584
Y046854
X030584
X028584
X027584
X026584
X025584
X024584
X023584
X022584
X021584
Y045854
Y044854
Y043854
Y041854
X022584
X023584
X025584
Y042854
Y040854
X023584Y039854
Y037854
X024118Y036734
X024584Y035854
X023584
X022584
X022514Y034971
X021169Y034788
X021584Y035854
X020828Y036775
X02028Y03707
X02369Y03426
X030904Y03432
X031584Y034854
Y035854
X032584
X033584
X034584
X035584
X036584
Y036854
X037584
Y037854
Y038854
Y039854
Y040854
Y041854
Y042854
Y043854
Y044854
X036584Y045854
Y046854
X037214Y046799
X035584Y046854
X034584
Y045854
Y044854
X035584
Y043854
Y042854
Y041854
Y040854
Y039854
Y038854
Y037854
X036584
X035584Y036854
X034584
Y037854
Y038854
Y039854
Y040854
Y041854
Y042854
Y043854
X033584
Y044854
Y045854
Y046854
X032584
Y045854
Y044854
Y043854
X031584
Y044854
Y045854
Y046854
Y040854
X032584
X033584
Y039854
X032584
X031584
Y036854
X032584
X033584
X03322Y03444
X034584Y033854
Y032854
Y031854
X036584
X037584
X038584
X039584
X040584
X040654Y032464
X041154
X041654
X041584Y031854
X042584
X043584
X044584
X045584
X046584Y032854
Y033854
Y034854
X044584
Y033854
X043584
X042584
X041584
Y034854
Y035854
X041814Y036346
X041314
X040814
X040314
X040584Y035854
Y036854
X041584
Y037854
Y038854
Y039854
Y040854
Y041854
Y042854
Y043854
Y044854
Y045854
X041814Y046406
X041314
X040814
X040314
X040584Y046854
X041584
X042584
X040584Y045854
Y044854
Y043854
Y042854
Y041854
Y040854
Y039854
Y038854
Y037854
Y034854
Y033854
X039584
X038584
X036584
Y034854
X035584
X036584Y032854
X032584
X031584Y031854
X039584Y046854
X046772Y04252
Y041811
Y041102
X04748
Y041811
X048189
X048898
Y04252
Y043228
Y043937
Y044646
Y045354
X051908Y045633
X052616
Y046341
X051908
Y044924
X052616
Y044215
Y043507
X051908
Y044215
Y042089
X052616
Y041381
Y040672
Y039963
Y039255
Y038546
Y037837
X051908
Y038546
Y039255
Y039963
Y040672
Y041381
X051199Y038546
Y037837
X05049
Y038546
X049782
Y037837
X049073Y038546
X048364
X047656
Y037837
X046947
Y038546
X04748Y040394
Y04252
X048189
X047584Y034854
Y033854
X048584
X049584
Y031854
X048584
X047584Y032854
X048364Y04705
X049073
X049782
X05049
X051199
X051908
X052616
Y047759
Y048467
Y049176
Y049885
Y050593
X051908
X05049
X049782
Y049885
Y049176
Y048467
X05049
Y047759
X051199
X051908
Y048467
X049782Y047759
X049073
Y048467
Y049176
Y049885
Y050593
X048364
Y049885
Y049176
X047656Y049885
Y050593
X046947
Y049885
X042584Y049854
X042164Y049874
X040204Y049854
X039584
X038734Y049674
Y050174
Y050674
Y051174
X037214Y050799
Y050299
Y049798
Y049299
Y048798
Y048299
Y047799
Y047298
X036584Y047854
Y048854
Y049854
X035584
Y048854
Y047854
X034584
Y048854
Y049854
X033584
Y048854
Y047854
X032584
Y048854
Y049854
X038734Y049174
Y048674
Y048174
Y047674
Y047174
X039584Y047854
X041114Y047504
X042584Y047854
X026584
Y048854
Y049854
X025584
Y048854
Y047854
X023584
Y048854
Y049854
X024584
X022584
Y048854
Y047854
X021584
Y048854
Y049854
X020584
X019584
X018584
Y048854
X017584
Y049854
Y047854
X016584
X015584
X014584
Y048854
T02
X031263Y050144
X031234Y049185
X030238
X030234Y050144
X029225
X028234
Y049144
X029234
Y048144
X030234
X031234
X028234
T03
X018807Y034695
X030247Y033657
T04
X021318Y034085
X021818Y033685
X022318Y034085
X022818Y033685
T05
X024969Y031523
X026969
T06
X03424Y02105
Y02206
Y02304
T07
X033254Y029372
X034254
Y030372
X033254
Y031372
X034254
Y032372
X033254
Y033372
X034254
T08
X021291Y013874
X023291
X025291
X028441
X030441
X032441
X035591
X037591
X039591
X04274
X04474
X04674
X048398Y019758
Y021758
Y023758
Y025758
X051398
Y023758
Y021758
Y019758
Y028907
Y030907
X048398
Y028907
X04674Y016874
X04474
X04274
X039591
X037591
X035591
X032441
X030441
X028441
X025291
X023291
X021291
X018477Y018498
Y020498
Y022498
Y025616
Y027616
Y029616
X015477
Y027616
Y025616
Y022498
Y020498
Y018498
X048398Y032907
Y034907
X051398
Y032907
T09
X018131Y037741
Y040741
X048839
Y037741
T10
X0401Y048907
X0411Y049907
X0421Y048907
Y050907
X0401
T11
X015769Y014118
X051202
Y049552
X015769
T12
X019706Y044827
X047265
Y047662
X019706
M30
