G04*
G04 #@! TF.GenerationSoftware,Altium Limited,Altium Designer,19.0.13 (425)*
G04*
G04 Layer_Color=8388736*
%FSTAX24Y24*%
%MOIN*%
G70*
G01*
G75*
%ADD20C,0.0100*%
G04:AMPARAMS|DCode=42|XSize=39.4mil|YSize=133.9mil|CornerRadius=9.8mil|HoleSize=0mil|Usage=FLASHONLY|Rotation=0.000|XOffset=0mil|YOffset=0mil|HoleType=Round|Shape=RoundedRectangle|*
%AMROUNDEDRECTD42*
21,1,0.0394,0.1142,0,0,0.0*
21,1,0.0197,0.1339,0,0,0.0*
1,1,0.0197,0.0098,-0.0571*
1,1,0.0197,-0.0098,-0.0571*
1,1,0.0197,-0.0098,0.0571*
1,1,0.0197,0.0098,0.0571*
%
%ADD42ROUNDEDRECTD42*%
%ADD57C,0.0200*%
%ADD58R,0.0820X0.0400*%
%ADD59R,0.4380X0.2820*%
%ADD60R,0.0400X0.0820*%
%ADD61O,0.0178X0.0552*%
%ADD62O,0.0552X0.0178*%
%ADD63C,0.0474*%
G04:AMPARAMS|DCode=64|XSize=45.4mil|YSize=47.4mil|CornerRadius=0mil|HoleSize=0mil|Usage=FLASHONLY|Rotation=135.000|XOffset=0mil|YOffset=0mil|HoleType=Round|Shape=Rectangle|*
%AMROTATEDRECTD64*
4,1,4,0.0328,0.0007,-0.0007,-0.0328,-0.0328,-0.0007,0.0007,0.0328,0.0328,0.0007,0.0*
%
%ADD64ROTATEDRECTD64*%

G04:AMPARAMS|DCode=65|XSize=86.7mil|YSize=67.1mil|CornerRadius=18.8mil|HoleSize=0mil|Usage=FLASHONLY|Rotation=180.000|XOffset=0mil|YOffset=0mil|HoleType=Round|Shape=RoundedRectangle|*
%AMROUNDEDRECTD65*
21,1,0.0867,0.0295,0,0,180.0*
21,1,0.0492,0.0671,0,0,180.0*
1,1,0.0375,-0.0246,0.0148*
1,1,0.0375,0.0246,0.0148*
1,1,0.0375,0.0246,-0.0148*
1,1,0.0375,-0.0246,-0.0148*
%
%ADD65ROUNDEDRECTD65*%
%ADD66R,0.0580X0.0907*%
%ADD67R,0.0966X0.1005*%
%ADD68R,0.0474X0.0493*%
%ADD69R,0.0493X0.0946*%
G04:AMPARAMS|DCode=70|XSize=45.4mil|YSize=47.4mil|CornerRadius=0mil|HoleSize=0mil|Usage=FLASHONLY|Rotation=225.000|XOffset=0mil|YOffset=0mil|HoleType=Round|Shape=Rectangle|*
%AMROTATEDRECTD70*
4,1,4,-0.0007,0.0328,0.0328,-0.0007,0.0007,-0.0328,-0.0328,0.0007,-0.0007,0.0328,0.0*
%
%ADD70ROTATEDRECTD70*%

G04:AMPARAMS|DCode=71|XSize=86.7mil|YSize=67.1mil|CornerRadius=18.8mil|HoleSize=0mil|Usage=FLASHONLY|Rotation=270.000|XOffset=0mil|YOffset=0mil|HoleType=Round|Shape=RoundedRectangle|*
%AMROUNDEDRECTD71*
21,1,0.0867,0.0295,0,0,270.0*
21,1,0.0492,0.0671,0,0,270.0*
1,1,0.0375,-0.0148,-0.0246*
1,1,0.0375,-0.0148,0.0246*
1,1,0.0375,0.0148,0.0246*
1,1,0.0375,0.0148,-0.0246*
%
%ADD71ROUNDEDRECTD71*%
%ADD72R,0.0710X0.0907*%
%ADD73R,0.4608X0.3479*%
G04:AMPARAMS|DCode=74|XSize=47.4mil|YSize=141.9mil|CornerRadius=13.8mil|HoleSize=0mil|Usage=FLASHONLY|Rotation=0.000|XOffset=0mil|YOffset=0mil|HoleType=Round|Shape=RoundedRectangle|*
%AMROUNDEDRECTD74*
21,1,0.0474,0.1142,0,0,0.0*
21,1,0.0197,0.1419,0,0,0.0*
1,1,0.0277,0.0098,-0.0571*
1,1,0.0277,-0.0098,-0.0571*
1,1,0.0277,-0.0098,0.0571*
1,1,0.0277,0.0098,0.0571*
%
%ADD74ROUNDEDRECTD74*%
%ADD75R,0.0907X0.1852*%
%ADD76R,0.1438X0.0592*%
%ADD77R,0.0946X0.0690*%
%ADD78R,0.0474X0.0434*%
%ADD79R,0.0907X0.0710*%
%ADD80R,0.0415X0.0552*%
%ADD81R,0.0671X0.0769*%
%ADD82R,0.0493X0.0631*%
%ADD83R,0.0454X0.0474*%
%ADD84R,0.0474X0.0454*%
%ADD85R,0.0474X0.0316*%
%ADD86R,0.0434X0.0474*%
G04:AMPARAMS|DCode=87|XSize=126mil|YSize=220.5mil|CornerRadius=9.8mil|HoleSize=0mil|Usage=FLASHONLY|Rotation=270.000|XOffset=0mil|YOffset=0mil|HoleType=Round|Shape=RoundedRectangle|*
%AMROUNDEDRECTD87*
21,1,0.1260,0.2008,0,0,270.0*
21,1,0.1063,0.2205,0,0,270.0*
1,1,0.0197,-0.1004,-0.0531*
1,1,0.0197,-0.1004,0.0531*
1,1,0.0197,0.1004,0.0531*
1,1,0.0197,0.1004,-0.0531*
%
%ADD87ROUNDEDRECTD87*%
%ADD88C,0.0907*%
%ADD89C,0.0680*%
%ADD90C,0.0946*%
%ADD91C,0.0552*%
%ADD92C,0.0710*%
%ADD93C,0.0830*%
%ADD94O,0.2252X0.2724*%
%ADD95R,0.2252X0.2724*%
%ADD96O,0.0830X0.0730*%
%ADD97O,0.1261X0.1143*%
%ADD98C,0.1339*%
%ADD99C,0.0580*%
D20*
X027574Y050321D02*
G03*
X027481Y050197I000036J-000124D01*
G01*
X027574Y050321D02*
G03*
X027481Y050197I000036J-000124D01*
G01*
X028193Y050493D02*
G03*
X028158Y050488I0J-000129D01*
G01*
X028193Y050493D02*
G03*
X028158Y050488I0J-000129D01*
G01*
X031906Y050197D02*
G03*
X031812Y050321I-000129J0D01*
G01*
X031906Y050197D02*
G03*
X031812Y050321I-000129J0D01*
G01*
X031229Y050488D02*
G03*
X031193Y050493I-000035J-000124D01*
G01*
X031229Y050488D02*
G03*
X031193Y050493I-000035J-000124D01*
G01*
X031878Y05027D02*
X031929Y05022D01*
Y04747D02*
Y05022D01*
X031679Y04747D02*
X031929D01*
X027483D02*
X031679D01*
X027481Y047472D02*
X027483Y04747D01*
X027481Y047472D02*
Y049697D01*
Y050197D01*
X027575Y050321D02*
X028158Y050488D01*
X031906Y049697D02*
Y050197D01*
X028193Y050493D02*
X031193D01*
X031229Y050488D02*
X031812Y050321D01*
D42*
X029678Y04462D02*
D03*
D57*
X027877Y050347D02*
X031517D01*
D58*
X020058Y036287D02*
D03*
X020058Y035127D02*
D03*
D59*
X029697Y04893D02*
D03*
D60*
X030267Y027734D02*
D03*
X030259Y032124D02*
D03*
D61*
X026664Y021706D02*
D03*
X027058D02*
D03*
X027452Y02769D02*
D03*
X027255D02*
D03*
X027058D02*
D03*
X026861D02*
D03*
X026664D02*
D03*
X026467D02*
D03*
X026271D02*
D03*
X026074D02*
D03*
X025877D02*
D03*
X02568D02*
D03*
X025483D02*
D03*
X025286D02*
D03*
X025089D02*
D03*
X024893D02*
D03*
X024696D02*
D03*
X024499D02*
D03*
X024302D02*
D03*
X024105D02*
D03*
X023908D02*
D03*
X023712D02*
D03*
X023515D02*
D03*
X023318D02*
D03*
X023121D02*
D03*
X022924D02*
D03*
X022727D02*
D03*
Y021706D02*
D03*
X022924D02*
D03*
X023121D02*
D03*
X023318D02*
D03*
X023515D02*
D03*
X023712D02*
D03*
X023908D02*
D03*
X024105D02*
D03*
X024302D02*
D03*
X024499D02*
D03*
X024696D02*
D03*
X024893D02*
D03*
X025089D02*
D03*
X025286D02*
D03*
X025483D02*
D03*
X02568D02*
D03*
X025877D02*
D03*
X026074D02*
D03*
X026271D02*
D03*
X026467D02*
D03*
X026861D02*
D03*
X027255D02*
D03*
X027452D02*
D03*
D62*
X028082Y022336D02*
D03*
Y022533D02*
D03*
Y022729D02*
D03*
Y022926D02*
D03*
Y023123D02*
D03*
Y02332D02*
D03*
Y023517D02*
D03*
Y023714D02*
D03*
Y02391D02*
D03*
Y024107D02*
D03*
Y024304D02*
D03*
Y024501D02*
D03*
Y024698D02*
D03*
Y024895D02*
D03*
Y025092D02*
D03*
Y025288D02*
D03*
Y025485D02*
D03*
Y025682D02*
D03*
Y025879D02*
D03*
Y026076D02*
D03*
Y026273D02*
D03*
Y02647D02*
D03*
Y026666D02*
D03*
Y026863D02*
D03*
Y02706D02*
D03*
X022097D02*
D03*
Y026863D02*
D03*
Y026666D02*
D03*
Y02647D02*
D03*
Y026273D02*
D03*
Y026076D02*
D03*
Y025879D02*
D03*
Y025682D02*
D03*
Y025485D02*
D03*
Y025288D02*
D03*
Y025092D02*
D03*
Y024895D02*
D03*
Y024698D02*
D03*
Y024501D02*
D03*
Y024304D02*
D03*
Y024107D02*
D03*
Y02391D02*
D03*
Y023714D02*
D03*
Y023517D02*
D03*
Y02332D02*
D03*
Y023123D02*
D03*
Y022926D02*
D03*
Y022729D02*
D03*
Y022533D02*
D03*
Y022336D02*
D03*
D63*
X049418Y016025D02*
D03*
X016179Y044774D02*
D03*
X050379Y045294D02*
D03*
X016199Y046799D02*
D03*
D64*
X048418Y014177D02*
D03*
X048864Y013731D02*
D03*
X051653Y016492D02*
D03*
X051207Y016938D02*
D03*
D65*
X036249Y022449D02*
D03*
X046083Y026449D02*
D03*
Y025449D02*
D03*
Y024449D02*
D03*
Y023449D02*
D03*
Y022449D02*
D03*
Y021449D02*
D03*
Y020449D02*
D03*
X036249D02*
D03*
Y021449D02*
D03*
D66*
X0411Y050536D02*
D03*
D67*
X029119Y03844D02*
D03*
Y040369D02*
D03*
D68*
X0411Y048198D02*
D03*
D69*
X040519Y047598D02*
D03*
X04168D02*
D03*
D70*
X015238Y016385D02*
D03*
X015684Y01683D02*
D03*
X018331Y014178D02*
D03*
X017886Y013732D02*
D03*
D71*
X043828Y03467D02*
D03*
X042828D02*
D03*
X039497D02*
D03*
X038497D02*
D03*
D72*
X0321Y024488D02*
D03*
Y020827D02*
D03*
D73*
X029698Y04907D02*
D03*
D74*
X031017Y04462D02*
D03*
X030348D02*
D03*
X029009D02*
D03*
X02834D02*
D03*
D75*
X024462D02*
D03*
Y048164D02*
D03*
D76*
X024455Y040731D02*
D03*
Y042345D02*
D03*
D77*
X027635Y042104D02*
D03*
X029249D02*
D03*
X020334Y040729D02*
D03*
X021948D02*
D03*
D78*
X020028Y033297D02*
D03*
Y033927D02*
D03*
X016838Y033297D02*
D03*
Y033927D02*
D03*
X017675Y033297D02*
D03*
Y033927D02*
D03*
X020078Y024439D02*
D03*
Y025069D02*
D03*
X02008Y026425D02*
D03*
Y025795D02*
D03*
Y027783D02*
D03*
Y027154D02*
D03*
X030257Y031024D02*
D03*
Y030394D02*
D03*
X030257Y025924D02*
D03*
Y026554D02*
D03*
Y025194D02*
D03*
Y024564D02*
D03*
Y022429D02*
D03*
Y021799D02*
D03*
D79*
X024138Y034902D02*
D03*
X027799D02*
D03*
D80*
X02157Y037589D02*
D03*
X020812Y037591D02*
D03*
X021184Y038573D02*
D03*
D81*
X024118Y037601D02*
D03*
X02274D02*
D03*
D82*
X030247Y034907D02*
D03*
X029538D02*
D03*
D83*
X015024Y032907D02*
D03*
X015654D02*
D03*
X026979Y032984D02*
D03*
X026349D02*
D03*
X024949D02*
D03*
X025579D02*
D03*
X027438Y01949D02*
D03*
X028068D02*
D03*
X02611D02*
D03*
X02674D02*
D03*
X02284D02*
D03*
X02221D02*
D03*
X027604Y029394D02*
D03*
X026974D02*
D03*
D84*
X016838Y034695D02*
D03*
Y035325D02*
D03*
X02008Y023059D02*
D03*
Y023688D02*
D03*
X030257Y029644D02*
D03*
Y029014D02*
D03*
X030257Y023809D02*
D03*
Y023179D02*
D03*
Y021049D02*
D03*
Y020419D02*
D03*
D85*
X015024Y034321D02*
D03*
X01593Y034695D02*
D03*
Y033947D02*
D03*
D86*
X022853Y038531D02*
D03*
X023483D02*
D03*
X024218D02*
D03*
X024848D02*
D03*
X02481Y01949D02*
D03*
X02544D02*
D03*
X02352D02*
D03*
X02415D02*
D03*
X024889Y029394D02*
D03*
X024259D02*
D03*
X022894D02*
D03*
X023523D02*
D03*
X021534Y029388D02*
D03*
X022163D02*
D03*
D87*
X033079Y042374D02*
D03*
Y038437D02*
D03*
D88*
X048398Y032907D02*
D03*
Y030907D02*
D03*
Y023758D02*
D03*
X015477Y027616D02*
D03*
Y020498D02*
D03*
X048398Y021758D02*
D03*
X051398Y025758D02*
D03*
X048398D02*
D03*
X051398Y021758D02*
D03*
Y023758D02*
D03*
Y019758D02*
D03*
X048398D02*
D03*
X051398Y034907D02*
D03*
X048398D02*
D03*
X051398Y030907D02*
D03*
Y032907D02*
D03*
Y028907D02*
D03*
X048398D02*
D03*
X015477Y025616D02*
D03*
X018477Y027616D02*
D03*
Y025616D02*
D03*
X015477Y029616D02*
D03*
X018477D02*
D03*
X04474Y013874D02*
D03*
X04674D02*
D03*
X04474Y016874D02*
D03*
X04674D02*
D03*
X04274Y013874D02*
D03*
Y016874D02*
D03*
X037591Y013874D02*
D03*
X039591D02*
D03*
X037591Y016874D02*
D03*
X039591D02*
D03*
X035591Y013874D02*
D03*
Y016874D02*
D03*
X015477Y018498D02*
D03*
X018477Y020498D02*
D03*
Y018498D02*
D03*
X015477Y022498D02*
D03*
X018477D02*
D03*
X023291Y013874D02*
D03*
X025291D02*
D03*
X023291Y016874D02*
D03*
X025291D02*
D03*
X021291Y013874D02*
D03*
Y016874D02*
D03*
X030441Y013874D02*
D03*
X032441D02*
D03*
X030441Y016874D02*
D03*
X032441D02*
D03*
X028441Y013874D02*
D03*
Y016874D02*
D03*
D89*
X018807Y034695D02*
D03*
X030247Y033657D02*
D03*
D90*
X0411Y049907D02*
D03*
X0401Y048907D02*
D03*
X0421D02*
D03*
Y050907D02*
D03*
X0401D02*
D03*
D91*
X033254Y029372D02*
D03*
X034254D02*
D03*
X022818Y033685D02*
D03*
X021818D02*
D03*
X021318Y034085D02*
D03*
X022318D02*
D03*
D92*
X033254Y030372D02*
D03*
X034254D02*
D03*
X033254Y031372D02*
D03*
X034254D02*
D03*
Y032372D02*
D03*
X033254D02*
D03*
X034254Y033372D02*
D03*
X033254D02*
D03*
D93*
X026969Y031523D02*
D03*
X024969D02*
D03*
D94*
X019706Y047898D02*
D03*
X047265D02*
D03*
D95*
X019706Y044591D02*
D03*
X047265D02*
D03*
D96*
X03424Y02304D02*
D03*
Y02206D02*
D03*
Y02105D02*
D03*
D97*
X018131Y037741D02*
D03*
Y040741D02*
D03*
X048839D02*
D03*
Y037741D02*
D03*
D98*
X015769Y014118D02*
D03*
Y049552D02*
D03*
X051202D02*
D03*
Y014118D02*
D03*
D99*
X031263Y050144D02*
D03*
X031234Y049185D02*
D03*
Y048144D02*
D03*
X030234Y050144D02*
D03*
X030238Y049185D02*
D03*
X030234Y048144D02*
D03*
X029225Y050144D02*
D03*
X029234Y049144D02*
D03*
Y048144D02*
D03*
X028234Y050144D02*
D03*
Y049144D02*
D03*
Y048144D02*
D03*
M02*
